<?xml version="1.0" encoding="UTF-8" standalone="no"?><svg xmlns="http://www.w3.org/2000/svg" xmlns:xlink="http://www.w3.org/1999/xlink" contentScriptType="application/ecmascript" contentStyleType="text/css" height="536px" preserveAspectRatio="none" style="width:1013px;height:536px;" version="1.1" viewBox="0 0 1013 536" width="1013px" zoomAndPan="magnify"><defs><filter height="300%" id="f369jllyph0xc" width="300%" x="-1" y="-1"><feGaussianBlur result="blurOut" stdDeviation="2.0"/><feColorMatrix in="blurOut" result="blurOut2" type="matrix" values="0 0 0 0 0 0 0 0 0 0 0 0 0 0 0 0 0 0 .4 0"/><feOffset dx="4.0" dy="4.0" in="blurOut2" result="blurOut3"/><feBlend in="SourceGraphic" in2="blurOut3" mode="normal"/></filter></defs><g><!--MD5=[d48e40cf5b1d53a0b016744d95339c17]
cluster solution1--><polygon fill="#FFFFFF" filter="url(#f369jllyph0xc)" points="71.5,139,154.5,139,161.5,161.2969,402.5,161.2969,402.5,529,71.5,529,71.5,139" style="stroke:#000000;stroke-width:1.5;"/><line style="stroke:#000000;stroke-width:1.5;" x1="71.5" x2="161.5" y1="161.2969" y2="161.2969"/><text fill="#000000" font-family="sans-serif" font-size="14" font-weight="bold" lengthAdjust="spacing" textLength="77" x="75.5" y="153.9951">solution1</text><!--MD5=[bb7c3a72a431d3192f86ae9114a0db59]
cluster solution2--><polygon fill="#FFFFFF" filter="url(#f369jllyph0xc)" points="442.5,139,525.5,139,532.5,161.2969,858.5,161.2969,858.5,389,442.5,389,442.5,139" style="stroke:#000000;stroke-width:1.5;"/><line style="stroke:#000000;stroke-width:1.5;" x1="442.5" x2="532.5" y1="161.2969" y2="161.2969"/><text fill="#000000" font-family="sans-serif" font-size="14" font-weight="bold" lengthAdjust="spacing" textLength="77" x="446.5" y="153.9951">solution2</text><!--MD5=[fe1983dabfa30247db23b24aaf429147]
class Adaptateur1--><rect codeLine="8" fill="#FEFECE" filter="url(#f369jllyph0xc)" height="60.8047" id="Adaptateur1" style="stroke:#A80036;stroke-width:1.5;" width="105" x="234" y="182"/><ellipse cx="249" cy="198" fill="#ADD1B2" rx="11" ry="11" style="stroke:#A80036;stroke-width:1.0;"/><path d="M251.3438,193.6719 C250.4063,193.2344 249.8125,193.0938 248.9375,193.0938 C246.3125,193.0938 244.3125,195.1719 244.3125,197.8906 L244.3125,199.0156 C244.3125,201.5938 246.4219,203.4844 249.3125,203.4844 C250.5313,203.4844 251.6875,203.1875 252.4375,202.6406 C253.0156,202.2344 253.3438,201.7813 253.3438,201.3906 C253.3438,200.9375 252.9531,200.5469 252.4844,200.5469 C252.2656,200.5469 252.0625,200.625 251.875,200.8125 C251.4219,201.2969 251.4219,201.2969 251.2344,201.3906 C250.8125,201.6563 250.125,201.7813 249.3594,201.7813 C247.3125,201.7813 246.0156,200.6875 246.0156,198.9844 L246.0156,197.8906 C246.0156,196.1094 247.2656,194.7969 249,194.7969 C249.5781,194.7969 250.1875,194.9531 250.6563,195.2031 C251.1406,195.4844 251.3125,195.7031 251.4063,196.1094 C251.4688,196.5156 251.5,196.6406 251.6406,196.7656 C251.7813,196.9063 252.0156,197.0156 252.2344,197.0156 C252.5,197.0156 252.7656,196.875 252.9375,196.6563 C253.0469,196.5 253.0781,196.3125 253.0781,195.8906 L253.0781,194.4688 C253.0781,194.0313 253.0625,193.9063 252.9688,193.75 C252.8125,193.4844 252.5313,193.3438 252.2344,193.3438 C251.9375,193.3438 251.7344,193.4375 251.5156,193.75 L251.3438,193.6719 Z " fill="#000000"/><text fill="#000000" font-family="sans-serif" font-size="12" lengthAdjust="spacing" textLength="73" x="263" y="202.1543">Adaptateur1</text><line style="stroke:#A80036;stroke-width:1.5;" x1="235" x2="338" y1="214" y2="214"/><line style="stroke:#A80036;stroke-width:1.5;" x1="235" x2="338" y1="222" y2="222"/><text fill="#000000" font-family="sans-serif" font-size="11" lengthAdjust="spacing" textLength="84" x="240" y="236.2104">targetMethod()</text><!--MD5=[63158df5018b0bad6af1c88d5e2f23ec]
class ISysComp1--><rect codeLine="12" fill="#FEFECE" filter="url(#f369jllyph0xc)" height="60.8047" id="ISysComp1" style="stroke:#A80036;stroke-width:1.5;" width="110" x="113.5" y="304"/><ellipse cx="133" cy="320" fill="#B4A7E5" rx="11" ry="11" style="stroke:#A80036;stroke-width:1.0;"/><path d="M133.9531,316.7813 L135.6719,316.7813 C136.0625,316.7813 136.25,316.75 136.375,316.6719 C136.6406,316.5156 136.7813,316.2344 136.7813,315.9375 C136.7813,315.6719 136.6719,315.4063 136.4375,315.2344 C136.2656,315.125 136.125,315.0938 135.6719,315.0938 L130.5313,315.0938 C130.0938,315.0938 129.9688,315.1094 129.8125,315.2031 C129.5625,315.3594 129.4063,315.6563 129.4063,315.9375 C129.4063,316.2188 129.5469,316.4688 129.7656,316.6406 C129.9219,316.75 130.1094,316.7813 130.5313,316.7813 L132.25,316.7813 L132.25,323.2969 L130.5313,323.2969 C130.0938,323.2969 129.9688,323.3125 129.8125,323.4219 C129.5625,323.5781 129.4063,323.8594 129.4063,324.1563 C129.4063,324.4063 129.5469,324.6719 129.7656,324.8281 C129.9219,324.9531 130.125,325 130.5313,325 L135.6719,325 C136.4219,325 136.7813,324.7188 136.7813,324.1563 C136.7813,323.875 136.6719,323.625 136.4375,323.4531 C136.2656,323.3281 136.125,323.2969 135.6719,323.2969 L133.9531,323.2969 L133.9531,316.7813 Z " fill="#000000"/><text fill="#000000" font-family="sans-serif" font-size="12" font-style="italic" lengthAdjust="spacing" textLength="68" x="148" y="324.1543">ISysComp1</text><line style="stroke:#A80036;stroke-width:1.5;" x1="114.5" x2="222.5" y1="336" y2="336"/><line style="stroke:#A80036;stroke-width:1.5;" x1="114.5" x2="222.5" y1="344" y2="344"/><text fill="#000000" font-family="sans-serif" font-size="11" lengthAdjust="spacing" textLength="98" x="119.5" y="358.2104">adapteeMethod()</text><path d="M259,322 L259,330.5 L223.578,334.5 L259,338.5 L259,347.1328 A0,0 0 0 0 259,347.1328 L378,347.1328 A0,0 0 0 0 378,347.1328 L378,332 L368,322 L259,322 A0,0 0 0 0 259,322 " fill="#FBFB77" filter="url(#f369jllyph0xc)" style="stroke:#A80036;stroke-width:1.0;"/><path d="M368,322 L368,332 L378,332 L368,322 " fill="#FBFB77" style="stroke:#A80036;stroke-width:1.0;"/><text fill="#000000" font-family="sans-serif" font-size="13" lengthAdjust="spacing" textLength="98" x="265" y="339.0669">Proxy Interface</text><!--MD5=[e586eb929291d24722d8f645072703d2]
class SysComp1--><rect codeLine="15" fill="#FEFECE" filter="url(#f369jllyph0xc)" height="60.8047" id="SysComp1" style="stroke:#A80036;stroke-width:1.5;" width="110" x="103.5" y="444"/><ellipse cx="124.8" cy="460" fill="#ADD1B2" rx="11" ry="11" style="stroke:#A80036;stroke-width:1.0;"/><path d="M127.1438,455.6719 C126.2063,455.2344 125.6125,455.0938 124.7375,455.0938 C122.1125,455.0938 120.1125,457.1719 120.1125,459.8906 L120.1125,461.0156 C120.1125,463.5938 122.2219,465.4844 125.1125,465.4844 C126.3313,465.4844 127.4875,465.1875 128.2375,464.6406 C128.8156,464.2344 129.1438,463.7813 129.1438,463.3906 C129.1438,462.9375 128.7531,462.5469 128.2844,462.5469 C128.0656,462.5469 127.8625,462.625 127.675,462.8125 C127.2219,463.2969 127.2219,463.2969 127.0344,463.3906 C126.6125,463.6563 125.925,463.7813 125.1594,463.7813 C123.1125,463.7813 121.8156,462.6875 121.8156,460.9844 L121.8156,459.8906 C121.8156,458.1094 123.0656,456.7969 124.8,456.7969 C125.3781,456.7969 125.9875,456.9531 126.4563,457.2031 C126.9406,457.4844 127.1125,457.7031 127.2063,458.1094 C127.2688,458.5156 127.3,458.6406 127.4406,458.7656 C127.5813,458.9063 127.8156,459.0156 128.0344,459.0156 C128.3,459.0156 128.5656,458.875 128.7375,458.6563 C128.8469,458.5 128.8781,458.3125 128.8781,457.8906 L128.8781,456.4688 C128.8781,456.0313 128.8625,455.9063 128.7688,455.75 C128.6125,455.4844 128.3313,455.3438 128.0344,455.3438 C127.7375,455.3438 127.5344,455.4375 127.3156,455.75 L127.1438,455.6719 Z " fill="#000000"/><text fill="#000000" font-family="sans-serif" font-size="12" lengthAdjust="spacing" textLength="64" x="140.2" y="464.1543">SysComp1</text><line style="stroke:#A80036;stroke-width:1.5;" x1="104.5" x2="212.5" y1="476" y2="476"/><line style="stroke:#A80036;stroke-width:1.5;" x1="104.5" x2="212.5" y1="484" y2="484"/><text fill="#000000" font-family="sans-serif" font-size="11" lengthAdjust="spacing" textLength="98" x="109.5" y="498.2104">adapteeMethod()</text><!--MD5=[b826169604b81e1d085ee7315c907c8e]
class ProxySysComp1--><rect codeLine="19" fill="#FEFECE" filter="url(#f369jllyph0xc)" height="60.8047" id="ProxySysComp1" style="stroke:#A80036;stroke-width:1.5;" width="129" x="249" y="444"/><ellipse cx="264" cy="460" fill="#ADD1B2" rx="11" ry="11" style="stroke:#A80036;stroke-width:1.0;"/><path d="M266.3438,455.6719 C265.4063,455.2344 264.8125,455.0938 263.9375,455.0938 C261.3125,455.0938 259.3125,457.1719 259.3125,459.8906 L259.3125,461.0156 C259.3125,463.5938 261.4219,465.4844 264.3125,465.4844 C265.5313,465.4844 266.6875,465.1875 267.4375,464.6406 C268.0156,464.2344 268.3438,463.7813 268.3438,463.3906 C268.3438,462.9375 267.9531,462.5469 267.4844,462.5469 C267.2656,462.5469 267.0625,462.625 266.875,462.8125 C266.4219,463.2969 266.4219,463.2969 266.2344,463.3906 C265.8125,463.6563 265.125,463.7813 264.3594,463.7813 C262.3125,463.7813 261.0156,462.6875 261.0156,460.9844 L261.0156,459.8906 C261.0156,458.1094 262.2656,456.7969 264,456.7969 C264.5781,456.7969 265.1875,456.9531 265.6563,457.2031 C266.1406,457.4844 266.3125,457.7031 266.4063,458.1094 C266.4688,458.5156 266.5,458.6406 266.6406,458.7656 C266.7813,458.9063 267.0156,459.0156 267.2344,459.0156 C267.5,459.0156 267.7656,458.875 267.9375,458.6563 C268.0469,458.5 268.0781,458.3125 268.0781,457.8906 L268.0781,456.4688 C268.0781,456.0313 268.0625,455.9063 267.9688,455.75 C267.8125,455.4844 267.5313,455.3438 267.2344,455.3438 C266.9375,455.3438 266.7344,455.4375 266.5156,455.75 L266.3438,455.6719 Z " fill="#000000"/><text fill="#000000" font-family="sans-serif" font-size="12" lengthAdjust="spacing" textLength="97" x="278" y="464.1543">ProxySysComp1</text><line style="stroke:#A80036;stroke-width:1.5;" x1="250" x2="377" y1="476" y2="476"/><line style="stroke:#A80036;stroke-width:1.5;" x1="250" x2="377" y1="484" y2="484"/><text fill="#000000" font-family="sans-serif" font-size="11" lengthAdjust="spacing" textLength="100" x="255" y="498.2104">adapteemethod()</text><!--MD5=[2f74b5831b2b672bec79b2a3a9ccd67e]
class Adaptateur2--><rect codeLine="28" fill="#FEFECE" filter="url(#f369jllyph0xc)" height="60.8047" id="Adaptateur2" style="stroke:#A80036;stroke-width:1.5;" width="106" x="466.5" y="182"/><ellipse cx="481.5" cy="198" fill="#ADD1B2" rx="11" ry="11" style="stroke:#A80036;stroke-width:1.0;"/><path d="M483.8438,193.6719 C482.9063,193.2344 482.3125,193.0938 481.4375,193.0938 C478.8125,193.0938 476.8125,195.1719 476.8125,197.8906 L476.8125,199.0156 C476.8125,201.5938 478.9219,203.4844 481.8125,203.4844 C483.0313,203.4844 484.1875,203.1875 484.9375,202.6406 C485.5156,202.2344 485.8438,201.7813 485.8438,201.3906 C485.8438,200.9375 485.4531,200.5469 484.9844,200.5469 C484.7656,200.5469 484.5625,200.625 484.375,200.8125 C483.9219,201.2969 483.9219,201.2969 483.7344,201.3906 C483.3125,201.6563 482.625,201.7813 481.8594,201.7813 C479.8125,201.7813 478.5156,200.6875 478.5156,198.9844 L478.5156,197.8906 C478.5156,196.1094 479.7656,194.7969 481.5,194.7969 C482.0781,194.7969 482.6875,194.9531 483.1563,195.2031 C483.6406,195.4844 483.8125,195.7031 483.9063,196.1094 C483.9688,196.5156 484,196.6406 484.1406,196.7656 C484.2813,196.9063 484.5156,197.0156 484.7344,197.0156 C485,197.0156 485.2656,196.875 485.4375,196.6563 C485.5469,196.5 485.5781,196.3125 485.5781,195.8906 L485.5781,194.4688 C485.5781,194.0313 485.5625,193.9063 485.4688,193.75 C485.3125,193.4844 485.0313,193.3438 484.7344,193.3438 C484.4375,193.3438 484.2344,193.4375 484.0156,193.75 L483.8438,193.6719 Z " fill="#000000"/><text fill="#000000" font-family="sans-serif" font-size="12" lengthAdjust="spacing" textLength="74" x="495.5" y="202.1543">Adaptateur2</text><line style="stroke:#A80036;stroke-width:1.5;" x1="467.5" x2="571.5" y1="214" y2="214"/><line style="stroke:#A80036;stroke-width:1.5;" x1="467.5" x2="571.5" y1="222" y2="222"/><text fill="#000000" font-family="sans-serif" font-size="11" lengthAdjust="spacing" textLength="84" x="472.5" y="236.2104">targetMethod()</text><!--MD5=[283ce6eed68a4fd27517dbf6b3ed3dcc]
class SysComp2--><rect codeLine="31" fill="#FEFECE" filter="url(#f369jllyph0xc)" height="60.8047" id="SysComp2" style="stroke:#A80036;stroke-width:1.5;" width="97" x="471" y="304"/><ellipse cx="486" cy="320" fill="#ADD1B2" rx="11" ry="11" style="stroke:#A80036;stroke-width:1.0;"/><path d="M488.3438,315.6719 C487.4063,315.2344 486.8125,315.0938 485.9375,315.0938 C483.3125,315.0938 481.3125,317.1719 481.3125,319.8906 L481.3125,321.0156 C481.3125,323.5938 483.4219,325.4844 486.3125,325.4844 C487.5313,325.4844 488.6875,325.1875 489.4375,324.6406 C490.0156,324.2344 490.3438,323.7813 490.3438,323.3906 C490.3438,322.9375 489.9531,322.5469 489.4844,322.5469 C489.2656,322.5469 489.0625,322.625 488.875,322.8125 C488.4219,323.2969 488.4219,323.2969 488.2344,323.3906 C487.8125,323.6563 487.125,323.7813 486.3594,323.7813 C484.3125,323.7813 483.0156,322.6875 483.0156,320.9844 L483.0156,319.8906 C483.0156,318.1094 484.2656,316.7969 486,316.7969 C486.5781,316.7969 487.1875,316.9531 487.6563,317.2031 C488.1406,317.4844 488.3125,317.7031 488.4063,318.1094 C488.4688,318.5156 488.5,318.6406 488.6406,318.7656 C488.7813,318.9063 489.0156,319.0156 489.2344,319.0156 C489.5,319.0156 489.7656,318.875 489.9375,318.6563 C490.0469,318.5 490.0781,318.3125 490.0781,317.8906 L490.0781,316.4688 C490.0781,316.0313 490.0625,315.9063 489.9688,315.75 C489.8125,315.4844 489.5313,315.3438 489.2344,315.3438 C488.9375,315.3438 488.7344,315.4375 488.5156,315.75 L488.3438,315.6719 Z " fill="#000000"/><text fill="#000000" font-family="sans-serif" font-size="12" lengthAdjust="spacing" textLength="65" x="500" y="324.1543">SysComp2</text><line style="stroke:#A80036;stroke-width:1.5;" x1="472" x2="567" y1="336" y2="336"/><line style="stroke:#A80036;stroke-width:1.5;" x1="472" x2="567" y1="344" y2="344"/><text fill="#000000" font-family="sans-serif" font-size="11" lengthAdjust="spacing" textLength="78" x="477" y="358.2104">saveMethod()</text><!--MD5=[a5cac1c1147d2fe1f69c65da130b6c3b]
class ProxyAdaptateur--><rect codeLine="35" fill="#FEFECE" filter="url(#f369jllyph0xc)" height="60.8047" id="ProxyAdaptateur" style="stroke:#A80036;stroke-width:1.5;" width="131" x="684" y="182"/><ellipse cx="699" cy="198" fill="#ADD1B2" rx="11" ry="11" style="stroke:#A80036;stroke-width:1.0;"/><path d="M701.3438,193.6719 C700.4063,193.2344 699.8125,193.0938 698.9375,193.0938 C696.3125,193.0938 694.3125,195.1719 694.3125,197.8906 L694.3125,199.0156 C694.3125,201.5938 696.4219,203.4844 699.3125,203.4844 C700.5313,203.4844 701.6875,203.1875 702.4375,202.6406 C703.0156,202.2344 703.3438,201.7813 703.3438,201.3906 C703.3438,200.9375 702.9531,200.5469 702.4844,200.5469 C702.2656,200.5469 702.0625,200.625 701.875,200.8125 C701.4219,201.2969 701.4219,201.2969 701.2344,201.3906 C700.8125,201.6563 700.125,201.7813 699.3594,201.7813 C697.3125,201.7813 696.0156,200.6875 696.0156,198.9844 L696.0156,197.8906 C696.0156,196.1094 697.2656,194.7969 699,194.7969 C699.5781,194.7969 700.1875,194.9531 700.6563,195.2031 C701.1406,195.4844 701.3125,195.7031 701.4063,196.1094 C701.4688,196.5156 701.5,196.6406 701.6406,196.7656 C701.7813,196.9063 702.0156,197.0156 702.2344,197.0156 C702.5,197.0156 702.7656,196.875 702.9375,196.6563 C703.0469,196.5 703.0781,196.3125 703.0781,195.8906 L703.0781,194.4688 C703.0781,194.0313 703.0625,193.9063 702.9688,193.75 C702.8125,193.4844 702.5313,193.3438 702.2344,193.3438 C701.9375,193.3438 701.7344,193.4375 701.5156,193.75 L701.3438,193.6719 Z " fill="#000000"/><text fill="#000000" font-family="sans-serif" font-size="12" lengthAdjust="spacing" textLength="99" x="713" y="202.1543">ProxyAdaptateur</text><line style="stroke:#A80036;stroke-width:1.5;" x1="685" x2="814" y1="214" y2="214"/><line style="stroke:#A80036;stroke-width:1.5;" x1="685" x2="814" y1="222" y2="222"/><text fill="#000000" font-family="sans-serif" font-size="11" lengthAdjust="spacing" textLength="84" x="690" y="236.2104">targetMethod()</text><!--MD5=[fc07866a383d07d405a25512054a0e5c]
class Target--><rect codeLine="2" fill="#FEFECE" filter="url(#f369jllyph0xc)" height="60.8047" id="Target" style="stroke:#A80036;stroke-width:1.5;" width="98" x="470.5" y="7"/><ellipse cx="497.65" cy="23" fill="#B4A7E5" rx="11" ry="11" style="stroke:#A80036;stroke-width:1.0;"/><path d="M498.6031,19.7813 L500.3219,19.7813 C500.7125,19.7813 500.9,19.75 501.025,19.6719 C501.2906,19.5156 501.4313,19.2344 501.4313,18.9375 C501.4313,18.6719 501.3219,18.4063 501.0875,18.2344 C500.9156,18.125 500.775,18.0938 500.3219,18.0938 L495.1813,18.0938 C494.7438,18.0938 494.6188,18.1094 494.4625,18.2031 C494.2125,18.3594 494.0563,18.6563 494.0563,18.9375 C494.0563,19.2188 494.1969,19.4688 494.4156,19.6406 C494.5719,19.75 494.7594,19.7813 495.1813,19.7813 L496.9,19.7813 L496.9,26.2969 L495.1813,26.2969 C494.7438,26.2969 494.6188,26.3125 494.4625,26.4219 C494.2125,26.5781 494.0563,26.8594 494.0563,27.1563 C494.0563,27.4063 494.1969,27.6719 494.4156,27.8281 C494.5719,27.9531 494.775,28 495.1813,28 L500.3219,28 C501.0719,28 501.4313,27.7188 501.4313,27.1563 C501.4313,26.875 501.3219,26.625 501.0875,26.4531 C500.9156,26.3281 500.775,26.2969 500.3219,26.2969 L498.6031,26.2969 L498.6031,19.7813 Z " fill="#000000"/><text fill="#000000" font-family="sans-serif" font-size="12" font-style="italic" lengthAdjust="spacing" textLength="39" x="514.35" y="27.1543">Target</text><line style="stroke:#A80036;stroke-width:1.5;" x1="471.5" x2="567.5" y1="39" y2="39"/><line style="stroke:#A80036;stroke-width:1.5;" x1="471.5" x2="567.5" y1="47" y2="47"/><text fill="#000000" font-family="sans-serif" font-size="11" lengthAdjust="spacing" textLength="86" x="476.5" y="61.2104">targetmethod()</text><path d="M604,25 L604,33.5 L568.703,37.5 L604,41.5 L604,50.1328 A0,0 0 0 0 604,50.1328 L811,50.1328 A0,0 0 0 0 811,50.1328 L811,35 L801,25 L604,25 A0,0 0 0 0 604,25 " fill="#FBFB77" filter="url(#f369jllyph0xc)" style="stroke:#A80036;stroke-width:1.0;"/><path d="M801,25 L801,35 L811,35 L801,25 " fill="#FBFB77" style="stroke:#A80036;stroke-width:1.0;"/><text fill="#000000" font-family="sans-serif" font-size="13" lengthAdjust="spacing" textLength="186" x="610" y="42.0669">Proxy interface for solution 2</text><path d="M6,25 L6,50.1328 L153,50.1328 L153,35 L143,25 L6,25 " fill="#FBFB77" filter="url(#f369jllyph0xc)" style="stroke:#A80036;stroke-width:1.0;"/><path d="M143,25 L143,35 L153,35 L143,25 " fill="#FBFB77" style="stroke:#A80036;stroke-width:1.0;"/><text fill="#000000" font-family="sans-serif" font-size="13" lengthAdjust="spacing" textLength="126" x="12" y="42.0669">Proxy after adapter</text><path d="M846.5,25 L846.5,50.1328 L1004.5,50.1328 L1004.5,35 L994.5,25 L846.5,25 " fill="#FBFB77" filter="url(#f369jllyph0xc)" style="stroke:#A80036;stroke-width:1.0;"/><path d="M994.5,25 L994.5,35 L1004.5,35 L994.5,25 " fill="#FBFB77" style="stroke:#A80036;stroke-width:1.0;"/><text fill="#000000" font-family="sans-serif" font-size="13" lengthAdjust="spacing" textLength="137" x="852.5" y="42.0669">proxy before adapter</text><!--MD5=[ed6624c6556d5e7b1bd23032162d20b7]
class Client--><rect fill="#FEFECE" filter="url(#f369jllyph0xc)" height="48" id="Client" style="stroke:#A80036;stroke-width:1.5;" width="65" x="370" y="13.5"/><ellipse cx="385" cy="29.5" fill="#ADD1B2" rx="11" ry="11" style="stroke:#A80036;stroke-width:1.0;"/><path d="M387.3438,25.1719 C386.4063,24.7344 385.8125,24.5938 384.9375,24.5938 C382.3125,24.5938 380.3125,26.6719 380.3125,29.3906 L380.3125,30.5156 C380.3125,33.0938 382.4219,34.9844 385.3125,34.9844 C386.5313,34.9844 387.6875,34.6875 388.4375,34.1406 C389.0156,33.7344 389.3438,33.2813 389.3438,32.8906 C389.3438,32.4375 388.9531,32.0469 388.4844,32.0469 C388.2656,32.0469 388.0625,32.125 387.875,32.3125 C387.4219,32.7969 387.4219,32.7969 387.2344,32.8906 C386.8125,33.1563 386.125,33.2813 385.3594,33.2813 C383.3125,33.2813 382.0156,32.1875 382.0156,30.4844 L382.0156,29.3906 C382.0156,27.6094 383.2656,26.2969 385,26.2969 C385.5781,26.2969 386.1875,26.4531 386.6563,26.7031 C387.1406,26.9844 387.3125,27.2031 387.4063,27.6094 C387.4688,28.0156 387.5,28.1406 387.6406,28.2656 C387.7813,28.4063 388.0156,28.5156 388.2344,28.5156 C388.5,28.5156 388.7656,28.375 388.9375,28.1563 C389.0469,28 389.0781,27.8125 389.0781,27.3906 L389.0781,25.9688 C389.0781,25.5313 389.0625,25.4063 388.9688,25.25 C388.8125,24.9844 388.5313,24.8438 388.2344,24.8438 C387.9375,24.8438 387.7344,24.9375 387.5156,25.25 L387.3438,25.1719 Z " fill="#000000"/><text fill="#000000" font-family="sans-serif" font-size="12" lengthAdjust="spacing" textLength="33" x="399" y="33.6543">Client</text><line style="stroke:#A80036;stroke-width:1.5;" x1="371" x2="434" y1="45.5" y2="45.5"/><line style="stroke:#A80036;stroke-width:1.5;" x1="371" x2="434" y1="53.5" y2="53.5"/><!--MD5=[5fa4f4ebd20b108930a51cf4bfb38eed]
link GMN389368 to solution1--><path d="M79.5,50.12 C79.5,59.6655 79.5,74.2863 79.5,90.9063 C79.5,99.2164 79.5,108.0262 79.5,116.9513 C79.5,121.4138 79.5,125.9052 79.5,130.3774 C79.5,132.6134 79.5,134.8447 79.5,137.0651 C79.5,137.6202 79.5,138.1747 79.5,138.7283 " fill="none" id="GMN389368-solution1" style="stroke:#A80036;stroke-width:1.0;stroke-dasharray:7.0,7.0;"/><!--MD5=[a60d26c4dd3cb1e209cf4354bcc5fb13]
link GMN389379 to solution2--><path d="M920.463,50.12 C912.186,69.211 895.1083,108.6033 879.8981,143.688 C872.2931,161.2304 865.1549,177.6959 859.8172,190.0084 C859.4836,190.7779 859.157,191.5313 858.8378,192.2676 C858.758,192.4517 858.6787,192.6347 858.5998,192.8166 " fill="none" id="GMN389379-solution2" style="stroke:#A80036;stroke-width:1.0;stroke-dasharray:7.0,7.0;"/><!--MD5=[431c3f1848dccc83292155c400886313]
link Client to Target--><path codeLine="40" d="M435.406,37.5 C445.29,37.5 455.174,37.5 465.058,37.5 " fill="none" id="Client-to-Target" style="stroke:#A80036;stroke-width:1.0;"/><polygon fill="#A80036" points="470.226,37.5,461.226,33.5,465.226,37.5,461.226,41.5,470.226,37.5" style="stroke:#A80036;stroke-width:1.0;"/><!--MD5=[9675fe20cae3f8829dbb952287048428]
reverse link Target to Adaptateur1--><path codeLine="41" d="M463.453,80.114 C421.196,111.49 364.259,153.764 326.515,181.789 " fill="none" id="Target-backto-Adaptateur1" style="stroke:#A80036;stroke-width:1.0;stroke-dasharray:7.0,7.0;"/><polygon fill="none" points="459.48,74.346,479.711,68.043,467.826,85.586,459.48,74.346" style="stroke:#A80036;stroke-width:1.0;"/><!--MD5=[5e8deea049d21c5ae8ab081545ee5cf4]
reverse link Adaptateur1 to ISysComp1--><path codeLine="42" d="M248.028,252.624 C231.68,269.249 212.929,288.318 197.742,303.762 " fill="none" id="Adaptateur1-backto-ISysComp1" style="stroke:#A80036;stroke-width:1.0;"/><polygon fill="#FFFFFF" points="257.331,243.163,250.2722,244.6371,248.9179,251.7198,255.9767,250.2458,257.331,243.163" style="stroke:#A80036;stroke-width:1.0;"/><!--MD5=[8586c627afc86a1125892b5941cb4486]
reverse link Target to Adaptateur2--><path codeLine="43" d="M519.5,88.246 C519.5,118.527 519.5,156.19 519.5,181.859 " fill="none" id="Target-backto-Adaptateur2" style="stroke:#A80036;stroke-width:1.0;stroke-dasharray:7.0,7.0;"/><polygon fill="none" points="512.5,88.24,519.5,68.24,526.5,88.24,512.5,88.24" style="stroke:#A80036;stroke-width:1.0;"/><!--MD5=[f1edb59e8ba31a60f59d98e95fb0cc90]
reverse link Adaptateur2 to SysComp2--><path codeLine="44" d="M519.5,256.391 C519.5,272.08 519.5,289.473 519.5,303.762 " fill="none" id="Adaptateur2-backto-SysComp2" style="stroke:#A80036;stroke-width:1.0;"/><polygon fill="#FFFFFF" points="519.5,243.163,515.5,249.163,519.5,255.163,523.5,249.163,519.5,243.163" style="stroke:#A80036;stroke-width:1.0;"/><!--MD5=[2b8076eec698706f34d8600e62932c78]
reverse link ISysComp1 to ProxySysComp1--><path codeLine="46" d="M214.24,379.032 C236.459,400.178 262.578,425.037 282.445,443.944 " fill="none" id="ISysComp1-backto-ProxySysComp1" style="stroke:#A80036;stroke-width:1.0;stroke-dasharray:7.0,7.0;"/><polygon fill="none" points="209.268,383.963,199.606,365.104,218.92,373.822,209.268,383.963" style="stroke:#A80036;stroke-width:1.0;"/><!--MD5=[8aa9d87b620d91c0c7c72d5beeb29542]
reverse link ISysComp1 to SysComp1--><path codeLine="47" d="M164.897,385.226 C163.471,404.904 161.88,426.855 160.642,443.944 " fill="none" id="ISysComp1-backto-SysComp1" style="stroke:#A80036;stroke-width:1.0;stroke-dasharray:7.0,7.0;"/><polygon fill="none" points="157.927,384.546,166.355,365.104,171.891,385.558,157.927,384.546" style="stroke:#A80036;stroke-width:1.0;"/><!--MD5=[41340cfe2a59ab7690ad62f4dc3d876f]
link SysComp1 to ProxySysComp1--><path codeLine="48" d="M213.598,474.5 C220.915,474.5 228.232,474.5 235.549,474.5 " fill="none" id="SysComp1-to-ProxySysComp1" style="stroke:#A80036;stroke-width:1.0;"/><polygon fill="#FFFFFF" points="248.72,474.5,242.72,470.5,236.72,474.5,242.72,478.5,248.72,474.5" style="stroke:#A80036;stroke-width:1.0;"/><!--MD5=[cbbdbe34f0d4c5bf3bd6bc372e320b68]
reverse link Target to ProxyAdaptateur--><path codeLine="51" d="M574.825,80.114 C616.539,111.49 672.742,153.764 710,181.789 " fill="none" id="Target-backto-ProxyAdaptateur" style="stroke:#A80036;stroke-width:1.0;stroke-dasharray:7.0,7.0;"/><polygon fill="none" points="570.553,85.66,558.777,68.043,578.968,74.471,570.553,85.66" style="stroke:#A80036;stroke-width:1.0;"/><!--MD5=[6b2c6f213d9020b6010843e023245440]
link Target to ProxyAdaptateur--><path codeLine="53" d="M568.539,61.516 C594.999,74.311 624.615,89.352 636.5,98 C665.878,119.376 694.705,148.5 715.889,171.893 " fill="none" id="Target-to-ProxyAdaptateur" style="stroke:#A80036;stroke-width:1.0;"/><polygon fill="#FFFFFF" points="724.769,181.859,723.7637,174.7183,716.7857,172.8998,717.791,180.0405,724.769,181.859" style="stroke:#A80036;stroke-width:1.0;"/><text fill="#000000" font-family="sans-serif" font-size="13" lengthAdjust="spacing" textLength="82" x="657.5" y="111.0669">best solution</text><!--MD5=[223c47372f8280c627dd64de7dc87a30]
link Adaptateur2 to ProxyAdaptateur--><path codeLine="52" d="M572.555,212.5 C601.705,212.5 638.424,212.5 670.847,212.5 " fill="none" id="Adaptateur2-to-ProxyAdaptateur" style="stroke:#A80036;stroke-width:1.0;"/><polygon fill="#FFFFFF" points="683.972,212.5,677.972,208.5,671.972,212.5,677.972,216.5,683.972,212.5" style="stroke:#A80036;stroke-width:1.0;"/><text fill="#000000" font-family="sans-serif" font-size="13" lengthAdjust="spacing" textLength="55" x="600.75" y="190.5669">see best</text><text fill="#000000" font-family="sans-serif" font-size="13" lengthAdjust="spacing" textLength="75" x="590.75" y="205.6997">solution link</text><!--MD5=[68434f433479bc2e29ff70fb585cca3a]
@startuml
note right of Target: Proxy interface for solution 2
Interface Target {
    targetmethod()
}

note top of solution1: Proxy after adapter
package solution1 {
        class Adaptateur1 {
        targetMethod()
    }
    note right of ISysComp1: Proxy Interface
    Interface ISysComp1 {
        adapteeMethod()
    }
    class SysComp1 {
        adapteeMethod()
    }

    class ProxySysComp1 {
     adapteemethod()
    }

}

note top of solution2: proxy before adapter
package solution2 {

class Adaptateur2 {
    targetMethod()
}
class SysComp2 {
    saveMethod()
}

class ProxyAdaptateur{
    targetMethod()
}
}

Client  -r->  Target
Adaptateur1 .u.|> Target
Adaptateur1 o-d- ISysComp1
Adaptateur2 .u.|> Target
Adaptateur2 o- - SysComp2

ProxySysComp1 .u.|> ISysComp1
SysComp1 .u.|> ISysComp1
ProxySysComp1 o-left- SysComp1


ProxyAdaptateur .u.|> Target
ProxyAdaptateur o-l- Adaptateur2: see best\nsolution link
ProxyAdaptateur o-u- Target: best solution
@enduml

PlantUML version 1.2021.3beta7(Unknown compile time)
(GPL source distribution)
Java Runtime: Java(TM) SE Runtime Environment
JVM: Java HotSpot(TM) 64-Bit Server VM
Default Encoding: UTF-8
Language: en
Country: US
--></g></svg>