<?xml version="1.0" encoding="UTF-8" standalone="no"?>
<!DOCTYPE svg PUBLIC "-//W3C//DTD SVG 1.0//EN" "http://www.w3.org/TR/2001/REC-SVG-20010904/DTD/svg10.dtd">
<svg xmlns="http://www.w3.org/2000/svg" xmlns:xlink="http://www.w3.org/1999/xlink" fill-rule="evenodd" height="5.555555555555555in" preserveAspectRatio="none" stroke-linecap="round" viewBox="0 0 4109 3335" width="6.847222222222222in">
    <style type="text/css">
.brush0 { fill: rgb(255,255,255); }
.pen0 { stroke: rgb(0,0,0); stroke-width: 1; stroke-linejoin: round; }
.font0 { font-weight: bold; font-size: 109px; font-family: System, sans-serif; }
.pen1 { stroke: rgb(0,0,0); stroke-width: 2; stroke-linejoin: round; }
.brush1 { fill: none; }
.brush2 { fill: rgb(0,0,0); }
.pen2 { stroke: none; }
.font1 { font-size: 65px; font-family: Arial; }
.font2 { font-weight: bold; font-size: 11px; font-family: System, sans-serif; }
.font3 { font-weight: bold; font-size: 65px; font-family: Arial; }
.pen3 { stroke: rgb(255,255,255); stroke-width: 2; stroke-linejoin: round; }
.pen4 { stroke: rgb(0,0,0); stroke-width: 5; stroke-linejoin: round; }
.font4 { font-weight: bold; font-size: 11px; font-family: System, sans-serif; }
.font5 { font-weight: bold; font-size: 109px; font-family: System, sans-serif; }
</style>
    <g>
        <polyline class="pen1" fill="none" points="3114,1645 1293,1645"/>
        <polygon class="pen2 brush2" points="3105,1676 3169,1645 3105,1613 3105,1676"/>
        <text class="font1" fill="rgb(0,0,0)" stroke="none" style="dominant-baseline: alphabetic;" x="1802 1842 1882 1902 1942 1967 1987 2007 2048" xml:lang="en" xml:space="preserve" y="1630">enterItem</text>
        <text class="font1" fill="rgb(0,0,0)" stroke="none" style="dominant-baseline: alphabetic;" x="2108" xml:lang="en" xml:space="preserve" y="1630">(</text>
        <text class="font1" fill="rgb(0,0,0)" stroke="none" style="dominant-baseline: alphabetic;" x="2132 2148 2168 2209 2269 2289" xml:lang="en" xml:space="preserve" y="1630">itemID</text>
        <text class="font1" fill="rgb(0,0,0)" stroke="none" style="dominant-baseline: alphabetic;" x="2342 2362" xml:lang="en" xml:space="preserve" y="1630">, </text>
        <text class="font1" fill="rgb(0,0,0)" stroke="none" style="dominant-baseline: alphabetic;" x="2382 2422 2462 2502 2542 2563 2579 2599" xml:lang="en" xml:space="preserve" y="1630">quantity</text>
        <text class="font1" fill="rgb(0,0,0)" stroke="none" style="dominant-baseline: alphabetic;" x="2635" xml:lang="en" xml:space="preserve" y="1630">)</text>
        <polygon class="pen2 brush0" points="2843,1038 2843,1242 3495,1242 3495,1038 2843,1038"/>
        <polygon class="pen1 brush1" points="2843,1242 3495,1242 3495,1038 2843,1038 2843,1242"/>
        <text class="font1" fill="rgb(0,0,0)" stroke="none" style="dominant-baseline: alphabetic;" x="3038" xml:lang="en" xml:space="preserve" y="1162">:</text>
        <text class="font1" fill="rgb(0,0,0)" stroke="none" style="dominant-baseline: alphabetic;" x="3058 3106 3142 3178 3199 3239" xml:lang="en" xml:space="preserve" y="1162">System</text>
        <path class="pen0 brush2" d="M 3167,3196  L 3167,3164 3167,3163 3168,3163 3168,3162 3169,3162 3169,3162 3169,3163 3169,3163 3170,3164 3170,3196 3169,3196 3169,3197 3169,3197 3168,3197 3167,3196 3167,3196 3167,3196 z M 3167,3144  L 3167,3111 3167,3111 3168,3111 3168,3110 3169,3110 3169,3110 3169,3111 3169,3111 3170,3111 3170,3144 3169,3145 3169,3145 3169,3145 3169,3145 3168,3145 3168,3145 3167,3145 3167,3144 3167,3144 z M 3167,3092  L 3167,3059 3167,3059 3168,3059 3168,3059 3169,3059 3169,3059 3169,3059 3169,3059 3170,3059 3170,3092 3169,3092 3169,3092 3169,3093 3169,3093 3168,3093 3168,3092 3167,3092 3167,3092 3167,3092 z M 3167,3040  L 3167,3007 3167,3007 3168,3006 3168,3006 3169,3006 3169,3006 3169,3006 3169,3007 3170,3007 3170,3040 3169,3040 3169,3041 3169,3041 3169,3041 3168,3041 3168,3041 3167,3040 3167,3040 3167,3040 z M 3167,2988  L 3167,2955 3167,2955 3168,2954 3168,2954 3169,2954 3169,2954 3169,2954 3169,2955 3170,2955 3170,2988 3169,2988 3169,2989 3169,2989 3169,2989 3168,2989 3168,2989 3167,2988 3167,2988 3167,2988 z M 3167,2936  L 3167,2903 3167,2902 3168,2902 3168,2902 3169,2902 3169,2902 3169,2902 3169,2902 3170,2903 3170,2936 3169,2936 3169,2936 3169,2936 3168,2936 3167,2936 3167,2936 3167,2936 z M 3167,2883  L 3167,2851 3167,2850 3168,2850 3168,2850 3169,2850 3169,2850 3169,2850 3169,2850 3170,2851 3170,2883 3169,2884 3169,2884 3169,2884 3169,2885 3168,2884 3168,2884 3167,2884 3167,2883 3167,2883 z M 3167,2831  L 3167,2799 3167,2799 3168,2798 3168,2798 3169,2798 3169,2798 3169,2798 3169,2799 3170,2799 3170,2831 3169,2832 3169,2832 3169,2833 3169,2833 3168,2833 3168,2832 3167,2832 3167,2831 3167,2831 z M 3167,2779  L 3167,2746 3167,2746 3168,2746 3168,2746 3169,2746 3169,2746 3169,2746 3169,2746 3170,2746 3170,2779 3169,2780 3169,2780 3169,2780 3169,2780 3168,2780 3168,2780 3167,2780 3167,2779 3167,2779 z M 3167,2727  L 3167,2695 3167,2694 3168,2693 3168,2693 3169,2693 3169,2693 3169,2693 3169,2694 3170,2695 3170,2727 3169,2727 3169,2728 3169,2728 3169,2728 3168,2728 3168,2728 3167,2727 3167,2727 3167,2727 z M 3167,2675  L 3167,2643 3167,2642 3168,2642 3168,2641 3169,2641 3169,2641 3169,2642 3169,2642 3170,2643 3170,2675 3169,2675 3169,2676 3169,2676 3168,2676 3167,2675 3167,2675 3167,2675 z M 3167,2623  L 3167,2590 3167,2590 3168,2590 3168,2589 3169,2589 3169,2589 3169,2590 3169,2590 3170,2590 3170,2623 3169,2624 3169,2624 3169,2624 3169,2624 3168,2624 3168,2624 3167,2624 3167,2623 3167,2623 z M 3167,2571  L 3167,2538 3167,2538 3168,2537 3168,2537 3169,2537 3169,2537 3169,2537 3169,2538 3170,2538 3170,2571 3169,2571 3169,2571 3169,2572 3169,2572 3168,2572 3168,2571 3167,2571 3167,2571 3167,2571 z M 3167,2518  L 3167,2486 3167,2486 3168,2485 3168,2485 3169,2485 3169,2485 3169,2485 3169,2486 3170,2486 3170,2518 3169,2519 3169,2520 3169,2520 3169,2520 3168,2520 3168,2520 3167,2519 3167,2518 3167,2518 z M 3167,2467  L 3167,2434 3167,2434 3168,2433 3168,2433 3169,2433 3169,2433 3169,2433 3169,2434 3170,2434 3170,2467 3169,2467 3169,2468 3169,2468 3169,2468 3168,2468 3168,2468 3167,2467 3167,2467 3167,2467 z M 3167,2415  L 3167,2382 3167,2381 3168,2381 3168,2381 3169,2381 3169,2381 3169,2381 3169,2381 3170,2382 3170,2415 3169,2415 3169,2415 3169,2415 3168,2415 3167,2415 3167,2415 3167,2415 z M 3167,2362  L 3167,2330 3167,2329 3168,2329 3168,2328 3169,2328 3169,2328 3169,2329 3169,2329 3170,2330 3170,2362 3169,2363 3169,2363 3169,2363 3169,2364 3168,2363 3168,2363 3167,2363 3167,2362 3167,2362 z M 3167,2310  L 3167,2278 3167,2278 3168,2277 3168,2277 3169,2277 3169,2277 3169,2277 3169,2278 3170,2278 3170,2310 3169,2311 3169,2311 3169,2311 3169,2311 3168,2311 3168,2311 3167,2311 3167,2310 3167,2310 z M 3167,2258  L 3167,2225 3167,2225 3168,2225 3168,2225 3169,2225 3169,2225 3169,2225 3169,2225 3170,2225 3170,2258 3169,2259 3169,2259 3169,2259 3169,2259 3168,2259 3168,2259 3167,2259 3167,2258 3167,2258 z M 3167,2206  L 3167,2174 3167,2173 3168,2172 3168,2172 3169,2172 3169,2172 3169,2172 3169,2173 3170,2174 3170,2206 3169,2206 3169,2207 3169,2207 3169,2207 3168,2207 3168,2207 3167,2206 3167,2206 3167,2206 z M 3167,2154  L 3167,2121 3167,2121 3168,2121 3168,2120 3169,2120 3169,2120 3169,2121 3169,2121 3170,2121 3170,2154 3169,2154 3169,2155 3169,2155 3168,2155 3167,2154 3167,2154 3167,2154 z M 3167,2102  L 3167,2069 3167,2069 3168,2069 3168,2068 3169,2068 3169,2068 3169,2069 3169,2069 3170,2069 3170,2102 3169,2102 3169,2102 3169,2102 3169,2103 3168,2102 3168,2102 3167,2102 3167,2102 3167,2102 z M 3167,2050  L 3167,2017 3167,2017 3168,2016 3168,2016 3169,2016 3169,2016 3169,2016 3169,2017 3170,2017 3170,2050 3169,2050 3169,2050 3169,2051 3169,2051 3168,2051 3168,2050 3167,2050 3167,2050 3167,2050 z M 3167,1997  L 3167,1965 3167,1965 3168,1964 3168,1964 3169,1964 3169,1964 3169,1964 3169,1965 3170,1965 3170,1997 3169,1998 3169,1999 3169,1999 3169,1999 3168,1999 3168,1999 3167,1998 3167,1997 3167,1997 z M 3167,1946  L 3167,1913 3167,1912 3168,1912 3168,1912 3169,1912 3169,1912 3169,1912 3169,1912 3170,1913 3170,1946 3169,1946 3169,1946 3169,1946 3169,1946 3168,1946 3168,1946 3167,1946 3167,1946 3167,1946 z M 3167,1893  L 3167,1861 3167,1860 3168,1860 3168,1860 3169,1860 3169,1860 3169,1860 3169,1860 3170,1861 3170,1893 3169,1893 3169,1894 3169,1894 3168,1894 3167,1893 3167,1893 3167,1893 z M 3167,1841  L 3167,1809 3167,1808 3168,1808 3168,1807 3169,1807 3169,1807 3169,1808 3169,1808 3170,1809 3170,1841 3169,1842 3169,1842 3169,1842 3169,1843 3168,1842 3168,1842 3167,1842 3167,1841 3167,1841 z M 3167,1789  L 3167,1756 3167,1756 3168,1756 3168,1756 3169,1756 3169,1756 3169,1756 3169,1756 3170,1756 3170,1789 3169,1790 3169,1790 3169,1790 3169,1790 3168,1790 3168,1790 3167,1790 3167,1789 3167,1789 z M 3167,1737  L 3167,1704 3167,1704 3168,1703 3168,1703 3169,1703 3169,1703 3169,1703 3169,1704 3170,1704 3170,1737 3169,1737 3169,1738 3169,1738 3169,1738 3168,1738 3168,1738 3167,1737 3167,1737 3167,1737 z M 3167,1685  L 3167,1653 3167,1652 3168,1651 3168,1651 3169,1651 3169,1651 3169,1651 3169,1652 3170,1653 3170,1685 3169,1685 3169,1686 3169,1686 3169,1686 3168,1686 3168,1686 3167,1685 3167,1685 3167,1685 z M 3167,1633  L 3167,1600 3167,1600 3168,1600 3168,1599 3169,1599 3169,1599 3169,1600 3169,1600 3170,1600 3170,1633 3169,1633 3169,1634 3169,1634 3168,1634 3167,1633 3167,1633 3167,1633 z M 3167,1581  L 3167,1548 3167,1547 3168,1547 3168,1547 3169,1547 3169,1547 3169,1547 3169,1547 3170,1548 3170,1581 3169,1581 3169,1581 3169,1581 3169,1582 3168,1581 3168,1581 3167,1581 3167,1581 3167,1581 z M 3167,1528  L 3167,1496 3167,1496 3168,1495 3168,1495 3169,1495 3169,1495 3169,1495 3169,1496 3170,1496 3170,1528 3169,1529 3169,1529 3169,1530 3169,1530 3168,1530 3168,1529 3167,1529 3167,1528 3167,1528 z M 3167,1476  L 3167,1444 3167,1444 3168,1443 3168,1443 3169,1443 3169,1443 3169,1443 3169,1444 3170,1444 3170,1476 3169,1477 3169,1477 3169,1477 3169,1477 3168,1477 3168,1477 3167,1477 3167,1476 3167,1476 z M 3167,1425  L 3167,1392 3167,1391 3168,1391 3168,1391 3169,1391 3169,1391 3169,1391 3169,1391 3170,1392 3170,1425 3169,1425 3169,1425 3169,1425 3169,1425 3168,1425 3168,1425 3167,1425 3167,1425 3167,1425 z M 3167,1372  L 3167,1340 3167,1339 3168,1339 3168,1338 3169,1338 3169,1338 3169,1339 3169,1339 3170,1340 3170,1372 3169,1372 3169,1373 3169,1373 3168,1373 3167,1372 3167,1372 3167,1372 z M 3167,1320  L 3167,1287 3167,1287 3168,1287 3168,1286 3169,1286 3169,1286 3169,1287 3169,1287 3170,1287 3170,1320 3169,1321 3169,1321 3169,1321 3169,1321 3168,1321 3168,1321 3167,1321 3167,1320 3167,1320 z M 3167,1268  L 3167,1242 3167,1241 3168,1241 3168,1241 3169,1241 3169,1241 3169,1241 3169,1241 3170,1242 3170,1268 3169,1268 3169,1268 3169,1269 3169,1269 3168,1269 3168,1268 3167,1268 3167,1268 3167,1268 z" fill-rule="nonzero"/>
        <polygon class="pen2 brush0" points="1241,806 1241,800 1242,793 1244,787 1246,782 1248,777 1251,772 1255,767 1259,762 1263,758 1267,755 1273,752 1278,749 1284,747 1290,746 1295,745 1302,745 1308,745 1314,746 1320,747 1326,749 1331,752 1336,755 1341,758 1345,762 1349,767 1352,772 1356,777 1359,782 1361,787 1362,793 1363,800 1363,806 1363,806 1363,812 1362,818 1361,824 1359,829 1356,835 1352,840 1349,844 1345,849 1341,853 1336,857 1331,859 1326,862 1320,864 1314,865 1308,866 1302,867 1295,866 1290,865 1284,864 1278,862 1273,859 1267,857 1263,853 1259,849 1255,844 1251,840 1248,835 1246,829 1244,824 1242,818 1241,812 1241,806"/>
        <polyline class="pen1" fill="none" points="1241,806 1241,800 1242,793 1244,787 1246,782 1248,777 1251,772 1255,767 1259,762 1263,758 1267,755 1273,752 1278,749 1284,747 1290,746 1295,745 1302,745 1308,745 1314,746 1320,747 1326,749 1331,752 1336,755 1341,758 1345,762 1349,767 1352,772 1356,777 1359,782 1361,787 1362,793 1363,800 1363,806 1363,806 1363,812 1362,818 1361,824 1359,829 1356,835 1352,840 1349,844 1345,849 1341,853 1336,857 1331,859 1326,862 1320,864 1314,865 1308,866 1302,867 1295,866 1290,865 1284,864 1278,862 1273,859 1267,857 1263,853 1259,849 1255,844 1251,840 1248,835 1246,829 1244,824 1242,818 1241,812 1241,806"/>
        <polyline class="pen1" fill="none" points="1221,887 1384,887"/>
        <polyline class="pen1" fill="none" points="1302,867 1302,948"/>
        <polyline class="pen1" fill="none" points="1302,948 1221,1030"/>
        <polyline class="pen1" fill="none" points="1302,948 1384,1030"/>
        <text class="font1" fill="rgb(0,0,0)" stroke="none" style="dominant-baseline: alphabetic;" x="1157 1177" xml:lang="en" xml:space="preserve" y="1173">: </text>
        <text class="font1" fill="rgb(0,0,0)" stroke="none" style="dominant-baseline: alphabetic;" x="1197 1249 1289 1325 1365 1382 1422" xml:lang="en" xml:space="preserve" y="1173">Cashier</text>
        <polyline class="pen1" fill="none" points="3114,2299 1293,2299"/>
        <polygon class="pen2 brush2" points="3105,2330 3169,2299 3105,2267 3105,2330"/>
        <text class="font1" fill="rgb(0,0,0)" stroke="none" style="dominant-baseline: alphabetic;" x="2098 2138 2178 2218 2266 2306 2323" xml:lang="en" xml:space="preserve" y="2284">endSale</text>
        <polyline class="pen1" fill="none" points="3109,2814 1289,2814"/>
        <polygon class="pen2 brush2" points="3101,2845 3165,2814 3101,2782 3101,2845"/>
        <text class="font1" fill="rgb(0,0,0)" stroke="none" style="dominant-baseline: alphabetic;" x="1850 1910 1950 1986 2026 2075 2115 2151 2211 2251 2291" xml:lang="en" xml:space="preserve" y="2799">makePayment</text>
        <text class="font1" fill="rgb(0,0,0)" stroke="none" style="dominant-baseline: alphabetic;" x="2313" xml:lang="en" xml:space="preserve" y="2799">(</text>
        <text class="font1" fill="rgb(0,0,0)" stroke="none" style="dominant-baseline: alphabetic;" x="2337 2377 2438 2478 2518 2558" xml:lang="en" xml:space="preserve" y="2799">amount</text>
        <text class="font1" fill="rgb(0,0,0)" stroke="none" style="dominant-baseline: alphabetic;" x="2579" xml:lang="en" xml:space="preserve" y="2799">)</text>
        <polygon class="pen2 brush0" points="17,1401 17,1991 628,1991 628,1401 17,1401"/>
        <polygon class="pen1 brush1" points="17,1991 628,1991 628,1401 17,1401 17,1991"/>
        <text class="font1" fill="rgb(0,0,0)" stroke="none" style="dominant-baseline: alphabetic;" x="53 93 113 165 226 266 286 303 343 383 423" xml:lang="en" xml:space="preserve" y="1544">a UML loop </text>
        <text class="font3" fill="rgb(0,0,0)" stroke="none" style="dominant-baseline: alphabetic;" x="53 73 117 142 182 210 250 290 315 335 379 424" xml:lang="en" xml:space="preserve" y="1631">interaction </text>
        <text class="font3" fill="rgb(0,0,0)" stroke="none" style="dominant-baseline: alphabetic;" x="53 77 106 146 210" xml:lang="en" xml:space="preserve" y="1718">frame</text>
        <text class="font1" fill="rgb(0,0,0)" stroke="none" style="dominant-baseline: alphabetic;" x="250 270" xml:lang="en" xml:space="preserve" y="1718">, </text>
        <text class="font1" fill="rgb(0,0,0)" stroke="none" style="dominant-baseline: alphabetic;" x="290 343 359 379 419 440 480" xml:lang="en" xml:space="preserve" y="1718">with a </text>
        <text class="font1" fill="rgb(0,0,0)" stroke="none" style="dominant-baseline: alphabetic;" x="53 93 133 173 189 229 269 309" xml:lang="en" xml:space="preserve" y="1805">boolean </text>
        <text class="font3" fill="rgb(0,0,0)" stroke="none" style="dominant-baseline: alphabetic;" x="330 375 419 459 487 532" xml:lang="en" xml:space="preserve" y="1805">guard </text>
        <text class="font1" fill="rgb(0,0,0)" stroke="none" style="dominant-baseline: alphabetic;" x="53 93 129 169 193 233 269 305 322 362" xml:lang="en" xml:space="preserve" y="1891">expression</text>
        <polygon class="pen2 brush0" points="536,1401 628,1492 628,1401 536,1401"/>
        <polygon class="pen3 brush1" points="536,1401 628,1492 628,1401 536,1401"/>
        <polygon class="pen2 brush2" points="628,1492 536,1401 536,1492 628,1492"/>
        <polygon class="pen1 brush1" points="628,1492 536,1401 536,1492 628,1492"/>
        <polygon class="pen2 brush0" points="52,737 52,1026 873,1026 873,737 52,737"/>
        <polygon class="pen1 brush1" points="52,1026 873,1026 873,737 52,737 52,1026"/>
        <text class="font1" fill="rgb(0,0,0)" stroke="none" style="dominant-baseline: alphabetic;" x="88 128 164 184 224 249 289 329 345 366 406 442 462 502 527 547 568 608" xml:lang="en" xml:space="preserve" y="860">external actor to </text>
        <text class="font1" fill="rgb(0,0,0)" stroke="none" style="dominant-baseline: alphabetic;" x="88 124 160 196 216 256" xml:lang="en" xml:space="preserve" y="947">system</text>
        <polygon class="pen2 brush0" points="781,737 873,828 873,737 781,737"/>
        <polygon class="pen3 brush1" points="781,737 873,828 873,737 781,737"/>
        <polygon class="pen2 brush2" points="873,828 781,737 781,828 873,828"/>
        <polygon class="pen1 brush1" points="873,828 781,737 781,828 873,828"/>
        <polygon class="pen2 brush0" points="1710,745 1710,948 2648,948 2648,745 1710,745"/>
        <text class="font1" fill="rgb(0,0,0)" stroke="none" style="dominant-baseline: alphabetic;" x="1812 1860 1884 1925 1961 2001 2037 2073 2093 2141 2181 2198 2238 2258 2306 2342 2383 2423 2463 2487 2503" xml:lang="en" xml:space="preserve" y="868">Process Sale Scenario</text>
        <polyline class="pen4" fill="none" points="1812,876 2545,876"/>
        <polygon class="pen2 brush0" points="1901,17 1901,672 4002,672 4002,17 1901,17"/>
        <polygon class="pen1 brush1" points="1901,672 4002,672 4002,17 1901,17 1901,672"/>
        <text class="font1" fill="rgb(0,0,0)" stroke="none" style="dominant-baseline: alphabetic;" x="1937 1973 2009 2045 2066 2106 2166 2187 2227 2263 2283 2323 2340 2380 2416 2452 2472 2512 2552" xml:lang="en" xml:space="preserve" y="118">system as black box</text>
        <text class="font1" fill="rgb(0,0,0)" stroke="none" style="dominant-baseline: alphabetic;" x="1937 1958 1998 2038 2058 2098 2139 2199 2239 2260 2296 2336 2376 2392 2432 2452 2493 2533" xml:lang="en" xml:space="preserve" y="291">the name could be </text>
        <text class="font1" fill="rgb(0,0,0)" stroke="none" style="dominant-baseline: alphabetic;" x="2554" xml:lang="en" xml:space="preserve" y="291">"</text>
        <text class="font1" fill="rgb(0,0,0)" stroke="none" style="dominant-baseline: alphabetic;" x="2580 2632 2672 2708 2728 2785 2825 2865 2913 2970" xml:lang="en" xml:space="preserve" y="291">NextGenPOS</text>
        <text class="font1" fill="rgb(0,0,0)" stroke="none" style="dominant-baseline: alphabetic;" x="3019 3044" xml:lang="en" xml:space="preserve" y="291">" </text>
        <text class="font1" fill="rgb(0,0,0)" stroke="none" style="dominant-baseline: alphabetic;" x="3065 3105 3145 3165" xml:lang="en" xml:space="preserve" y="291">but </text>
        <text class="font1" fill="rgb(0,0,0)" stroke="none" style="dominant-baseline: alphabetic;" x="3186" xml:lang="en" xml:space="preserve" y="291">"</text>
        <text class="font1" fill="rgb(0,0,0)" stroke="none" style="dominant-baseline: alphabetic;" x="3211 3260 3296 3332 3352 3392" xml:lang="en" xml:space="preserve" y="291">System</text>
        <text class="font1" fill="rgb(0,0,0)" stroke="none" style="dominant-baseline: alphabetic;" x="3453 3479" xml:lang="en" xml:space="preserve" y="291">" </text>
        <text class="font1" fill="rgb(0,0,0)" stroke="none" style="dominant-baseline: alphabetic;" x="3499 3535 3575 3615 3655 3691 3712 3728 3748" xml:lang="en" xml:space="preserve" y="291">keeps it </text>
        <text class="font1" fill="rgb(0,0,0)" stroke="none" style="dominant-baseline: alphabetic;" x="1937 1973 1990 2050 2090 2107" xml:lang="en" xml:space="preserve" y="378">simple</text>
        <text class="font1" fill="rgb(0,0,0)" stroke="none" style="dominant-baseline: alphabetic;" x="1937 1958 1998 2038" xml:lang="en" xml:space="preserve" y="552">the </text>
        <text class="font1" fill="rgb(0,0,0)" stroke="none" style="dominant-baseline: alphabetic;" x="2058 2084 2105 2130" xml:lang="en" xml:space="preserve" y="552">":" </text>
        <text class="font1" fill="rgb(0,0,0)" stroke="none" style="dominant-baseline: alphabetic;" x="2150 2190 2230 2270 2291 2331 2371 2411 2451 2476 2492 2508 2548 2588 2609 2625 2686 2726 2742 2778 2798 2838 2879 2899 2915 2955 2991 3012 3052 3092 3128" xml:lang="en" xml:space="preserve" y="552">and underline imply an instance</text>
        <text class="font1" fill="rgb(0,0,0)" stroke="none" style="dominant-baseline: alphabetic;" x="3169 3190" xml:lang="en" xml:space="preserve" y="552">, </text>
        <text class="font1" fill="rgb(0,0,0)" stroke="none" style="dominant-baseline: alphabetic;" x="3209 3250 3290 3330 3350 3390 3415 3455 3475 3515 3551 3591 3608 3648 3664 3704 3744 3784 3805 3821 3861 3881 3922" xml:lang="en" xml:space="preserve" y="552">and are explained in a </text>
        <text class="font1" fill="rgb(0,0,0)" stroke="none" style="dominant-baseline: alphabetic;" x="1937 1954 1994 2014 2054 2079 2099 2135 2175 2215 2255 2276 2316 2340 2361 2401 2441 2461 2497 2537 2578 2618 2658 2698 2734 2774 2794 2834 2851 2891 2931 2955 2995 3056 3076 3116 3156 3177 3217 3237 3254 3294 3334 3354 3370 3411 3431 3451 3491 3532 3552 3604 3665" xml:lang="en" xml:space="preserve" y="639">later chapter on sequence diagram notation in the UML</text>
        <polygon class="pen2 brush0" points="3911,17 4002,107 4002,17 3911,17"/>
        <polygon class="pen3 brush1" points="3911,17 4002,107 4002,17 3911,17"/>
        <polygon class="pen2 brush2" points="4002,107 3911,17 3911,107 4002,107"/>
        <polygon class="pen1 brush1" points="4002,107 3911,17 3911,107 4002,107"/>
        <path class="pen0 brush2" d="M 2953,671  L 2953,671 2953,672 2953,672 2953,673 2951,673 2951,673 2951,673 2951,671 2951,671 2951,671 2952,671 2952,671 2953,671 2953,671 2953,671 z M 2959,680  L 2959,680 2959,681 2959,681 2959,682 2958,682 2958,682 2957,682 2957,682 2957,682 2957,680 2957,680 2957,680 2958,679 2958,679 2959,680 2959,680 2959,680 z M 2966,689  L 2966,689 2966,690 2965,690 2964,691 2964,690 2963,690 2963,690 2963,690 2964,689 2964,688 2965,688 2966,689 2966,689 z M 2972,698  L 2972,698 2972,698 2972,699 2971,699 2971,700 2970,699 2970,699 2970,699 2970,698 2970,698 2970,697 2971,697 2972,698 2972,698 2972,698 z M 2978,707  L 2978,707 2978,707 2978,708 2978,708 2977,709 2976,708 2976,708 2976,708 2976,707 2976,707 2977,707 2978,707 2978,707 z M 2985,715  L 2985,715 2985,716 2984,717 2983,717 2982,717 2982,717 2982,717 2982,716 2982,716 2982,715 2982,715 2983,715 2983,715 2985,715 2985,715 z M 2991,724  L 2991,724 2991,725 2990,726 2989,726 2989,726 2989,726 2989,726 2989,726 2989,725 2989,725 2989,724 2989,724 2990,724 2991,724 2991,724 z M 2997,733  L 2997,733 2997,734 2996,735 2996,735 2995,735 2995,734 2995,734 2995,734 2995,734 2995,734 2995,733 2995,733 2996,733 2997,733 2997,733 z M 3003,743  L 3003,743 3003,743 3003,743 3003,743 3003,744 3002,744 3002,744 3002,743 3002,743 3002,743 3001,743 3001,743 3002,742 3002,742 3002,742 3003,742 3003,743 3003,743 z M 3010,751  L 3010,751 3010,751 3010,752 3009,752 3009,753 3008,753 3008,753 3008,752 3008,752 3008,752 3008,751 3008,751 3008,751 3008,751 3010,751 3010,751 z M 3016,760  L 3016,760 3016,760 3016,761 3016,761 3015,762 3014,762 3014,761 3014,761 3014,761 3014,760 3014,760 3014,760 3014,760 3014,760 3015,760 3016,760 3016,760 z M 3022,769  L 3022,769 3022,769 3022,770 3022,770 3021,770 3021,770 3021,770 3020,770 3020,770 3020,770 3020,769 3021,768 3021,768 3021,768 3022,769 3022,769 z M 3028,778  L 3028,778 3029,778 3028,779 3028,779 3027,779 3027,779 3027,779 3027,779 3026,779 3026,778 3027,777 3027,777 3027,777 3028,778 3028,778 z M 3035,787  L 3035,787 3035,787 3035,787 3034,787 3034,788 3033,788 3033,788 3033,787 3033,787 3033,787 3033,787 3033,786 3033,786 3033,786 3035,787 3035,787 z M 3041,796  L 3041,796 3041,796 3041,796 3040,797 3040,797 3039,796 3039,796 3039,796 3039,796 3040,795 3040,795 3041,796 3041,796 z M 3047,804  L 3047,804 3047,804 3047,805 3047,806 3046,806 3045,805 3045,805 3045,805 3045,804 3045,804 3046,804 3046,804 3046,804 3047,804 3047,804 z M 3053,813  L 3053,813 3054,813 3053,814 3053,815 3052,815 3052,815 3052,815 3052,815 3051,814 3051,813 3052,812 3052,812 3052,812 3053,813 3053,813 z M 3060,822  L 3060,822 3060,822 3060,823 3059,823 3059,823 3059,823 3058,823 3058,823 3058,823 3058,822 3058,821 3059,821 3059,821 3060,822 3060,822 z M 3066,831  L 3066,831 3066,831 3066,831 3066,832 3065,832 3065,832 3065,832 3064,832 3064,832 3064,831 3064,831 3065,830 3065,830 3065,830 3066,831 3066,831 z M 3072,840  L 3072,840 3072,840 3072,840 3072,841 3071,841 3070,841 3070,841 3070,840 3070,840 3071,839 3072,839 3072,840 3072,840 z M 3078,848  L 3078,848 3079,849 3078,849 3078,850 3078,850 3078,850 3077,850 3077,850 3076,849 3076,848 3077,848 3077,848 3078,848 3078,848 3078,848 3078,848 z M 3085,857  L 3085,857 3085,858 3085,858 3084,859 3084,859 3084,859 3083,859 3083,859 3083,858 3083,858 3083,857 3084,857 3084,857 3084,857 3084,857 3085,857 3085,857 z M 3091,866  L 3091,866 3091,867 3091,867 3091,867 3091,868 3090,867 3089,867 3089,867 3089,867 3089,867 3090,866 3090,865 3091,865 3091,866 3091,866 3091,866 z M 3097,875  L 3097,875 3097,876 3097,876 3097,876 3097,876 3097,877 3096,876 3095,876 3095,876 3095,876 3096,875 3097,874 3097,874 3097,875 3097,875 3097,875 z M 3103,884  L 3103,884 3104,884 3103,884 3103,886 3103,886 3102,885 3102,885 3102,884 3102,884 3103,884 3103,884 3103,884 3103,884 z M 3110,893  L 3110,893 3110,893 3110,893 3110,895 3109,895 3109,895 3108,894 3108,894 3108,893 3108,893 3109,893 3109,893 3110,893 3110,893 3110,893 3110,893 z M 3116,901  L 3116,901 3116,902 3116,903 3116,903 3115,903 3114,903 3114,903 3114,902 3115,901 3115,901 3116,901 3116,901 3116,901 z M 3122,910  L 3122,910 3122,912 3122,912 3122,912 3121,912 3120,912 3120,912 3120,911 3121,910 3122,910 3122,910 3122,910 3122,910 z M 3129,920  L 3129,920 3129,920 3129,920 3129,921 3128,921 3128,921 3127,920 3127,920 3127,920 3127,919 3128,919 3129,920 3129,920 z M 3135,929  L 3135,929 3135,929 3135,930 3134,930 3133,929 3133,929 3133,929 3133,929 3133,929 3134,928 3135,928 3135,929 3135,929 z M 3141,937  L 3141,937 3141,938 3141,939 3141,939 3140,939 3140,939 3139,938 3139,938 3139,937 3139,937 3139,937 3140,937 3140,937 3141,937 3141,937 3141,937 z M 3148,946  L 3148,946 3148,947 3148,948 3147,948 3146,948 3146,948 3146,947 3146,947 3146,947 3146,946 3146,945 3147,945 3147,945 3148,946 3148,946 z M 3154,955  L 3154,955 3154,955 3154,956 3154,956 3153,956 3153,956 3152,956 3152,956 3152,956 3152,956 3152,955 3152,954 3153,954 3153,954 3154,955 3154,955 z" fill-rule="nonzero"/>
        <polyline class="pen1" fill="none" points="3154,956 3150,958 3148,961 3147,964 3146,968 3146,970 3146,971 3146,973 3146,975 3146,977 3147,979 3148,980 3149,982 3152,985 3154,987 3158,988 3161,990 3163,990 3165,990 3167,990 3168,990 3170,989 3172,988 3173,988 3175,986 3175,986 3178,984 3180,981 3182,977 3183,974 3183,973 3183,971 3183,969 3182,967 3182,965 3182,964 3181,962 3180,960 3177,958 3174,955 3171,954 3167,952 3166,952 3164,952 3162,952 3161,953 3158,953 3156,954 3155,955 3154,956"/>
        <polygon class="pen2 brush0" points="3405,2185 3405,2981 4093,2981 4093,2185 3405,2185"/>
        <polygon class="pen1 brush1" points="3405,2981 4093,2981 4093,2185 3405,2185 3405,2981"/>
        <text class="font1" fill="rgb(0,0,0)" stroke="none" style="dominant-baseline: alphabetic;" x="3441 3481 3502 3562 3602 3638 3674 3714 3754 3794 3815 3867 3883 3904 3944 3964" xml:lang="en" xml:space="preserve" y="2256">a message with  </text>
        <text class="font1" fill="rgb(0,0,0)" stroke="none" style="dominant-baseline: alphabetic;" x="3441 3481 3521 3546 3586 3646 3686 3707 3747 3771" xml:lang="en" xml:space="preserve" y="2343">parameters</text>
        <text class="font1" fill="rgb(0,0,0)" stroke="none" style="dominant-baseline: alphabetic;" x="3441 3457 3478 3498 3515 3551 3571 3611 3651 3671 3712 3752 3788 3808 3833 3873 3909 3929 3945 3985 4026" xml:lang="en" xml:space="preserve" y="2517">it is an abstraction </text>
        <text class="font1" fill="rgb(0,0,0)" stroke="none" style="dominant-baseline: alphabetic;" x="3441 3466 3506 3546 3570 3610 3646 3686 3727 3747 3763 3803 3843 3864 3884 3924 3964" xml:lang="en" xml:space="preserve" y="2604">representing the </text>
        <text class="font1" fill="rgb(0,0,0)" stroke="none" style="dominant-baseline: alphabetic;" x="3441 3477 3513 3549 3570 3610 3670 3691 3731 3767 3807 3847 3867 3888 3928 3948" xml:lang="en" xml:space="preserve" y="2691">system event of </text>
        <text class="font1" fill="rgb(0,0,0)" stroke="none" style="dominant-baseline: alphabetic;" x="3441 3481 3521 3542 3582 3606 3623 3663 3703 3723 3744 3784 3824" xml:lang="en" xml:space="preserve" y="2778">entering the </text>
        <text class="font1" fill="rgb(0,0,0)" stroke="none" style="dominant-baseline: alphabetic;" x="3441 3481 3521 3557 3618 3658 3698 3718 3739 3779 3819 3839 3879 3900 3940 3976" xml:lang="en" xml:space="preserve" y="2864">payment data by </text>
        <text class="font1" fill="rgb(0,0,0)" stroke="none" style="dominant-baseline: alphabetic;" x="3441 3477 3517 3578 3618 3638 3699 3739 3775 3815 3855 3895 3911 3947" xml:lang="en" xml:space="preserve" y="2951">some mechanism</text>
        <polygon class="pen2 brush0" points="4002,2185 4093,2275 4093,2185 4002,2185"/>
        <polygon class="pen3 brush1" points="4002,2185 4093,2275 4093,2185 4002,2185"/>
        <polygon class="pen2 brush2" points="4093,2275 4002,2185 4002,2275 4093,2275"/>
        <polygon class="pen1 brush1" points="4093,2275 4002,2185 4002,2275 4093,2275"/>
        <path class="pen0 brush2" d="M 1291,1895  L 1323,1895 1323,1895 1324,1895 1324,1896 1324,1897 1324,1897 1324,1898 1323,1898 1291,1898 1290,1898 1289,1897 1289,1897 1289,1896 1290,1895 1290,1895 1291,1895 1291,1895 z M 1343,1895  L 1376,1895 1376,1895 1376,1895 1376,1897 1376,1898 1376,1898 1343,1898 1342,1898 1342,1897 1342,1897 1342,1896 1342,1895 1342,1895 1343,1895 1343,1895 z M 1395,1895  L 1427,1895 1428,1895 1429,1895 1429,1896 1429,1897 1429,1897 1429,1898 1427,1898 1395,1898 1394,1898 1394,1897 1394,1897 1394,1896 1394,1895 1395,1895 1395,1895 1395,1895 z M 1447,1895  L 1479,1895 1480,1895 1480,1895 1481,1896 1481,1897 1481,1897 1480,1898 1479,1898 1447,1898 1446,1898 1446,1897 1446,1897 1446,1896 1446,1895 1446,1895 1447,1895 1447,1895 z M 1499,1895  L 1532,1895 1532,1895 1532,1895 1532,1896 1533,1897 1532,1897 1532,1898 1532,1898 1499,1898 1499,1898 1498,1897 1498,1897 1498,1896 1499,1895 1499,1895 1499,1895 1499,1895 z M 1552,1895  L 1584,1895 1584,1895 1585,1895 1585,1896 1585,1897 1585,1897 1585,1898 1584,1898 1552,1898 1551,1898 1550,1897 1550,1897 1550,1896 1551,1895 1551,1895 1552,1895 1552,1895 z M 1604,1895  L 1636,1895 1636,1895 1637,1895 1637,1897 1637,1898 1636,1898 1604,1898 1602,1898 1602,1897 1602,1897 1602,1896 1602,1895 1603,1895 1604,1895 1604,1895 z M 1655,1895  L 1688,1895 1689,1895 1689,1895 1689,1896 1689,1897 1689,1897 1689,1898 1688,1898 1655,1898 1655,1898 1655,1897 1655,1897 1655,1896 1655,1895 1655,1895 1655,1895 1655,1895 z M 1708,1895  L 1740,1895 1741,1895 1741,1895 1742,1896 1742,1897 1742,1897 1741,1898 1740,1898 1708,1898 1707,1898 1707,1897 1707,1897 1707,1896 1707,1895 1707,1895 1708,1895 1708,1895 z M 1760,1895  L 1793,1895 1793,1895 1793,1895 1793,1896 1794,1897 1793,1897 1793,1898 1793,1898 1760,1898 1759,1898 1759,1897 1759,1897 1759,1896 1759,1895 1759,1895 1760,1895 1760,1895 z M 1812,1895  L 1845,1895 1845,1895 1846,1895 1846,1896 1846,1897 1846,1897 1846,1898 1845,1898 1812,1898 1812,1898 1811,1897 1811,1897 1811,1896 1812,1895 1812,1895 1812,1895 1812,1895 z M 1865,1895  L 1897,1895 1897,1895 1898,1895 1898,1897 1898,1898 1897,1898 1865,1898 1863,1898 1863,1897 1863,1897 1863,1896 1863,1895 1864,1895 1865,1895 1865,1895 z M 1916,1895  L 1949,1895 1950,1895 1950,1895 1950,1896 1950,1897 1950,1897 1950,1898 1949,1898 1916,1898 1916,1898 1916,1897 1916,1897 1916,1896 1916,1895 1916,1895 1916,1895 1916,1895 z M 1969,1895  L 2001,1895 2002,1895 2002,1895 2003,1896 2003,1897 2003,1897 2002,1898 2001,1898 1969,1898 1968,1898 1968,1897 1968,1897 1968,1896 1968,1895 1968,1895 1969,1895 1969,1895 z M 2021,1895  L 2054,1895 2054,1895 2054,1895 2054,1896 2055,1897 2054,1897 2054,1898 2054,1898 2021,1898 2020,1898 2020,1897 2020,1897 2020,1896 2020,1895 2020,1895 2021,1895 2021,1895 z M 2073,1895  L 2106,1895 2106,1895 2107,1895 2107,1896 2107,1897 2107,1897 2107,1898 2106,1898 2073,1898 2073,1898 2072,1897 2072,1897 2072,1896 2073,1895 2073,1895 2073,1895 2073,1895 z M 2126,1895  L 2158,1895 2158,1895 2159,1895 2159,1897 2159,1898 2158,1898 2126,1898 2124,1898 2124,1897 2124,1897 2124,1896 2124,1895 2125,1895 2126,1895 2126,1895 z M 2177,1895  L 2210,1895 2211,1895 2211,1895 2211,1896 2211,1897 2211,1897 2211,1898 2210,1898 2177,1898 2177,1898 2177,1897 2177,1897 2177,1896 2177,1895 2177,1895 2177,1895 2177,1895 z M 2230,1895  L 2262,1895 2263,1895 2263,1895 2264,1896 2264,1897 2264,1897 2263,1898 2262,1898 2230,1898 2229,1898 2229,1897 2229,1897 2229,1896 2229,1895 2229,1895 2230,1895 2230,1895 z M 2282,1895  L 2315,1895 2315,1895 2315,1895 2315,1896 2316,1897 2315,1897 2315,1898 2315,1898 2282,1898 2281,1898 2281,1897 2281,1897 2281,1896 2281,1895 2281,1895 2282,1895 2282,1895 z M 2334,1895  L 2367,1895 2367,1895 2368,1895 2368,1896 2368,1897 2368,1897 2368,1898 2367,1898 2334,1898 2334,1898 2333,1897 2333,1897 2333,1896 2334,1895 2334,1895 2334,1895 2334,1895 z M 2387,1895  L 2419,1895 2419,1895 2420,1895 2420,1897 2420,1898 2419,1898 2387,1898 2385,1898 2385,1897 2385,1897 2385,1896 2385,1895 2386,1895 2387,1895 2387,1895 z M 2438,1895  L 2471,1895 2472,1895 2472,1895 2472,1896 2472,1897 2472,1897 2472,1898 2471,1898 2438,1898 2438,1898 2438,1897 2438,1897 2438,1896 2438,1895 2438,1895 2438,1895 2438,1895 z M 2491,1895  L 2523,1895 2524,1895 2524,1895 2525,1896 2525,1897 2525,1897 2524,1898 2523,1898 2491,1898 2490,1898 2490,1897 2490,1897 2490,1896 2490,1895 2490,1895 2491,1895 2491,1895 z M 2543,1895  L 2575,1895 2576,1895 2576,1895 2576,1896 2577,1897 2576,1897 2576,1898 2575,1898 2543,1898 2542,1898 2542,1897 2542,1897 2542,1896 2542,1895 2542,1895 2543,1895 2543,1895 z M 2595,1895  L 2628,1895 2628,1895 2628,1895 2628,1896 2628,1897 2628,1897 2628,1898 2628,1898 2595,1898 2595,1898 2594,1897 2594,1897 2594,1896 2595,1895 2595,1895 2595,1895 2595,1895 z M 2648,1895  L 2680,1895 2680,1895 2681,1895 2681,1897 2681,1898 2680,1898 2648,1898 2646,1898 2646,1897 2646,1897 2646,1896 2646,1895 2647,1895 2648,1895 2648,1895 z M 2699,1895  L 2732,1895 2732,1895 2733,1895 2733,1896 2733,1897 2733,1897 2733,1898 2732,1898 2699,1898 2698,1898 2698,1897 2698,1897 2698,1896 2698,1895 2699,1895 2699,1895 2699,1895 z M 2751,1895  L 2784,1895 2785,1895 2785,1895 2785,1896 2785,1897 2785,1897 2785,1898 2784,1898 2751,1898 2751,1898 2751,1897 2751,1897 2751,1896 2751,1895 2751,1895 2751,1895 2751,1895 z M 2804,1895  L 2836,1895 2837,1895 2837,1895 2837,1896 2838,1897 2837,1897 2837,1898 2836,1898 2804,1898 2803,1898 2802,1897 2802,1897 2802,1896 2803,1895 2803,1895 2804,1895 2804,1895 z M 2856,1895  L 2889,1895 2889,1895 2889,1895 2889,1896 2889,1897 2889,1897 2889,1898 2889,1898 2856,1898 2855,1898 2855,1897 2855,1897 2855,1896 2855,1895 2855,1895 2856,1895 2856,1895 z M 2908,1895  L 2941,1895 2941,1895 2942,1895 2942,1897 2942,1898 2941,1898 2908,1898 2907,1898 2907,1897 2907,1897 2907,1896 2907,1895 2908,1895 2908,1895 2908,1895 z M 2960,1895  L 2993,1895 2993,1895 2994,1895 2994,1896 2994,1897 2994,1897 2994,1898 2993,1898 2960,1898 2959,1898 2959,1897 2959,1897 2959,1896 2959,1895 2960,1895 2960,1895 2960,1895 z M 3012,1895  L 3045,1895 3046,1895 3046,1895 3046,1896 3046,1897 3046,1897 3046,1898 3045,1898 3012,1898 3012,1898 3012,1897 3012,1897 3012,1896 3012,1895 3012,1895 3012,1895 3012,1895 z M 3065,1895  L 3097,1895 3098,1895 3098,1895 3098,1896 3099,1897 3098,1897 3098,1898 3097,1898 3065,1898 3064,1898 3063,1897 3063,1897 3063,1896 3064,1895 3064,1895 3065,1895 3065,1895 z M 3117,1895  L 3150,1895 3150,1895 3150,1895 3150,1896 3150,1897 3150,1897 3150,1898 3150,1898 3117,1898 3116,1898 3116,1897 3116,1897 3116,1896 3116,1895 3116,1895 3117,1895 3117,1895 z" fill-rule="nonzero"/>
        <polyline class="pen1" fill="none" points="1354,1865 1350,1868 1348,1872 1344,1875 1341,1879 1337,1881 1333,1884 1329,1886 1326,1888 1321,1890 1317,1892 1313,1893 1308,1894 1304,1895 1299,1896 1295,1896 1291,1897 1295,1897 1299,1897 1304,1898 1308,1899 1313,1900 1317,1901 1321,1903 1326,1905 1329,1907 1333,1909 1337,1912 1341,1914 1344,1918 1348,1921 1350,1925 1354,1928"/>
        <text class="font1" fill="rgb(0,0,0)" stroke="none" style="dominant-baseline: alphabetic;" x="1964 2004 2044 2080 2116 2141 2157 2197 2217 2234 2274" xml:lang="en" xml:space="preserve" y="1882">description</text>
        <text class="font1" fill="rgb(0,0,0)" stroke="none" style="dominant-baseline: alphabetic;" x="2315 2335" xml:lang="en" xml:space="preserve" y="1882">, </text>
        <text class="font1" fill="rgb(0,0,0)" stroke="none" style="dominant-baseline: alphabetic;" x="2355 2375 2415 2436 2476" xml:lang="en" xml:space="preserve" y="1882">total</text>
        <polygon class="pen2 brush0" points="27,2297 27,3318 873,3318 873,2297 27,2297"/>
        <polygon class="pen1 brush1" points="27,3318 873,3318 873,2297 27,2297 27,3318"/>
        <text class="font1" fill="rgb(0,0,0)" stroke="none" style="dominant-baseline: alphabetic;" x="63 87 127 148 188 212 252 273 309 349 365 405" xml:lang="en" xml:space="preserve" y="2394">return value</text>
        <text class="font1" fill="rgb(0,0,0)" stroke="none" style="dominant-baseline: alphabetic;" x="445" xml:lang="en" xml:space="preserve" y="2394">(</text>
        <text class="font1" fill="rgb(0,0,0)" stroke="none" style="dominant-baseline: alphabetic;" x="470" xml:lang="en" xml:space="preserve" y="2394">s</text>
        <text class="font1" fill="rgb(0,0,0)" stroke="none" style="dominant-baseline: alphabetic;" x="506 530" xml:lang="en" xml:space="preserve" y="2394">) </text>
        <text class="font1" fill="rgb(0,0,0)" stroke="none" style="dominant-baseline: alphabetic;" x="63 103 139 175 215 251 267 307 328 368 408 428 481 497 517 557 578 598 638 678" xml:lang="en" xml:space="preserve" y="2481">associated with the </text>
        <text class="font1" fill="rgb(0,0,0)" stroke="none" style="dominant-baseline: alphabetic;" x="63 103 127 167 203 220 260 300 336 356 417 457 493 529 569 609" xml:lang="en" xml:space="preserve" y="2568">previous message</text>
        <text class="font1" fill="rgb(0,0,0)" stroke="none" style="dominant-baseline: alphabetic;" x="63 103 143 163 203 243 280 300 324 364 400 421 437 477 517 538 558 598 638 659" xml:lang="en" xml:space="preserve" y="2742">an abstraction that </text>
        <text class="font1" fill="rgb(0,0,0)" stroke="none" style="dominant-baseline: alphabetic;" x="63 79 119 159 199 224 264 300 320 360 385 425 461 501 541 561 602 622 638 678 718" xml:lang="en" xml:space="preserve" y="2829">ignores presentation </text>
        <text class="font1" fill="rgb(0,0,0)" stroke="none" style="dominant-baseline: alphabetic;" x="63 103 143 183 203 264 304 344 360 400 461 481 502" xml:lang="en" xml:space="preserve" y="2915">and medium   </text>
        <text class="font1" fill="rgb(0,0,0)" stroke="none" style="dominant-baseline: alphabetic;" x="63 83 123 163 184 208 248 269 309 333 373 394 410 426 466 506 527 543 579" xml:lang="en" xml:space="preserve" y="3089">the return line is </text>
        <text class="font1" fill="rgb(0,0,0)" stroke="none" style="dominant-baseline: alphabetic;" x="63 103 143 163 180 220 260 300 316 337 353 373 394 434 474 494 534 551 591 631 651 667 704" xml:lang="en" xml:space="preserve" y="3176">optional if nothing is </text>
        <text class="font1" fill="rgb(0,0,0)" stroke="none" style="dominant-baseline: alphabetic;" x="63 87 127 148 188 212 252 292" xml:lang="en" xml:space="preserve" y="3263">returned</text>
        <polygon class="pen2 brush0" points="781,2297 873,2387 873,2297 781,2297"/>
        <polygon class="pen3 brush1" points="781,2297 873,2387 873,2297 781,2297"/>
        <polygon class="pen2 brush2" points="873,2387 781,2297 781,2387 873,2387"/>
        <polygon class="pen1 brush1" points="873,2387 781,2297 781,2387 873,2387"/>
        <path class="pen0 brush2" d="M 1291,2547  L 1323,2547 1323,2547 1324,2547 1324,2548 1324,2548 1324,2548 1324,2549 1323,2549 1291,2549 1290,2549 1289,2548 1289,2548 1289,2548 1290,2547 1290,2547 1291,2547 1291,2547 z M 1343,2547  L 1376,2547 1376,2547 1376,2547 1376,2548 1376,2549 1376,2549 1343,2549 1342,2549 1342,2548 1342,2548 1342,2548 1342,2547 1342,2547 1343,2547 1343,2547 z M 1395,2547  L 1427,2547 1428,2547 1429,2547 1429,2548 1429,2548 1429,2548 1429,2549 1427,2549 1395,2549 1394,2549 1394,2548 1394,2548 1394,2548 1394,2547 1395,2547 1395,2547 1395,2547 z M 1447,2547  L 1479,2547 1480,2547 1480,2547 1481,2548 1481,2548 1481,2548 1480,2549 1479,2549 1447,2549 1446,2549 1446,2548 1446,2548 1446,2548 1446,2547 1446,2547 1447,2547 1447,2547 z M 1499,2547  L 1532,2547 1532,2547 1532,2547 1532,2548 1533,2548 1532,2548 1532,2549 1532,2549 1499,2549 1499,2549 1498,2548 1498,2548 1498,2548 1499,2547 1499,2547 1499,2547 1499,2547 z M 1552,2547  L 1584,2547 1584,2547 1585,2547 1585,2548 1585,2548 1585,2548 1585,2549 1584,2549 1552,2549 1551,2549 1550,2548 1550,2548 1550,2548 1551,2547 1551,2547 1552,2547 1552,2547 z M 1604,2547  L 1636,2547 1636,2547 1637,2547 1637,2548 1637,2549 1636,2549 1604,2549 1602,2549 1602,2548 1602,2548 1602,2548 1602,2547 1603,2547 1604,2547 1604,2547 z M 1655,2547  L 1688,2547 1689,2547 1689,2547 1689,2548 1689,2548 1689,2548 1689,2549 1688,2549 1655,2549 1655,2549 1655,2548 1655,2548 1655,2548 1655,2547 1655,2547 1655,2547 1655,2547 z M 1708,2547  L 1740,2547 1741,2547 1741,2547 1742,2548 1742,2548 1742,2548 1741,2549 1740,2549 1708,2549 1707,2549 1707,2548 1707,2548 1707,2548 1707,2547 1707,2547 1708,2547 1708,2547 z M 1760,2547  L 1793,2547 1793,2547 1793,2547 1793,2548 1794,2548 1793,2548 1793,2549 1793,2549 1760,2549 1759,2549 1759,2548 1759,2548 1759,2548 1759,2547 1759,2547 1760,2547 1760,2547 z M 1812,2547  L 1845,2547 1845,2547 1846,2547 1846,2548 1846,2548 1846,2548 1846,2549 1845,2549 1812,2549 1812,2549 1811,2548 1811,2548 1811,2548 1812,2547 1812,2547 1812,2547 1812,2547 z M 1865,2547  L 1897,2547 1897,2547 1898,2547 1898,2548 1898,2549 1897,2549 1865,2549 1863,2549 1863,2548 1863,2548 1863,2548 1863,2547 1864,2547 1865,2547 1865,2547 z M 1916,2547  L 1949,2547 1950,2547 1950,2547 1950,2548 1950,2548 1950,2548 1950,2549 1949,2549 1916,2549 1916,2549 1916,2548 1916,2548 1916,2548 1916,2547 1916,2547 1916,2547 1916,2547 z M 1969,2547  L 2001,2547 2002,2547 2002,2547 2003,2548 2003,2548 2003,2548 2002,2549 2001,2549 1969,2549 1968,2549 1968,2548 1968,2548 1968,2548 1968,2547 1968,2547 1969,2547 1969,2547 z M 2021,2547  L 2054,2547 2054,2547 2054,2547 2054,2548 2055,2548 2054,2548 2054,2549 2054,2549 2021,2549 2020,2549 2020,2548 2020,2548 2020,2548 2020,2547 2020,2547 2021,2547 2021,2547 z M 2073,2547  L 2106,2547 2106,2547 2107,2547 2107,2548 2107,2548 2107,2548 2107,2549 2106,2549 2073,2549 2073,2549 2072,2548 2072,2548 2072,2548 2073,2547 2073,2547 2073,2547 2073,2547 z M 2126,2547  L 2158,2547 2158,2547 2159,2547 2159,2548 2159,2549 2158,2549 2126,2549 2124,2549 2124,2548 2124,2548 2124,2548 2124,2547 2125,2547 2126,2547 2126,2547 z M 2177,2547  L 2210,2547 2211,2547 2211,2547 2211,2548 2211,2548 2211,2548 2211,2549 2210,2549 2177,2549 2177,2549 2177,2548 2177,2548 2177,2548 2177,2547 2177,2547 2177,2547 2177,2547 z M 2230,2547  L 2262,2547 2263,2547 2263,2547 2264,2548 2264,2548 2264,2548 2263,2549 2262,2549 2230,2549 2229,2549 2229,2548 2229,2548 2229,2548 2229,2547 2229,2547 2230,2547 2230,2547 z M 2282,2547  L 2315,2547 2315,2547 2315,2547 2315,2548 2316,2548 2315,2548 2315,2549 2315,2549 2282,2549 2281,2549 2281,2548 2281,2548 2281,2548 2281,2547 2281,2547 2282,2547 2282,2547 z M 2334,2547  L 2367,2547 2367,2547 2368,2547 2368,2548 2368,2548 2368,2548 2368,2549 2367,2549 2334,2549 2334,2549 2333,2548 2333,2548 2333,2548 2334,2547 2334,2547 2334,2547 2334,2547 z M 2387,2547  L 2419,2547 2419,2547 2420,2547 2420,2548 2420,2549 2419,2549 2387,2549 2385,2549 2385,2548 2385,2548 2385,2548 2385,2547 2386,2547 2387,2547 2387,2547 z M 2438,2547  L 2471,2547 2472,2547 2472,2547 2472,2548 2472,2548 2472,2548 2472,2549 2471,2549 2438,2549 2438,2549 2438,2548 2438,2548 2438,2548 2438,2547 2438,2547 2438,2547 2438,2547 z M 2491,2547  L 2523,2547 2524,2547 2524,2547 2525,2548 2525,2548 2525,2548 2524,2549 2523,2549 2491,2549 2490,2549 2490,2548 2490,2548 2490,2548 2490,2547 2490,2547 2491,2547 2491,2547 z M 2543,2547  L 2575,2547 2576,2547 2576,2547 2576,2548 2577,2548 2576,2548 2576,2549 2575,2549 2543,2549 2542,2549 2542,2548 2542,2548 2542,2548 2542,2547 2542,2547 2543,2547 2543,2547 z M 2595,2547  L 2628,2547 2628,2547 2628,2547 2628,2548 2628,2548 2628,2548 2628,2549 2628,2549 2595,2549 2595,2549 2594,2548 2594,2548 2594,2548 2595,2547 2595,2547 2595,2547 2595,2547 z M 2648,2547  L 2680,2547 2680,2547 2681,2547 2681,2548 2681,2549 2680,2549 2648,2549 2646,2549 2646,2548 2646,2548 2646,2548 2646,2547 2647,2547 2648,2547 2648,2547 z M 2699,2547  L 2732,2547 2732,2547 2733,2547 2733,2548 2733,2548 2733,2548 2733,2549 2732,2549 2699,2549 2698,2549 2698,2548 2698,2548 2698,2548 2698,2547 2699,2547 2699,2547 2699,2547 z M 2751,2547  L 2784,2547 2785,2547 2785,2547 2785,2548 2785,2548 2785,2548 2785,2549 2784,2549 2751,2549 2751,2549 2751,2548 2751,2548 2751,2548 2751,2547 2751,2547 2751,2547 2751,2547 z M 2804,2547  L 2836,2547 2837,2547 2837,2547 2837,2548 2838,2548 2837,2548 2837,2549 2836,2549 2804,2549 2803,2549 2802,2548 2802,2548 2802,2548 2803,2547 2803,2547 2804,2547 2804,2547 z M 2856,2547  L 2889,2547 2889,2547 2889,2547 2889,2548 2889,2548 2889,2548 2889,2549 2889,2549 2856,2549 2855,2549 2855,2548 2855,2548 2855,2548 2855,2547 2855,2547 2856,2547 2856,2547 z M 2908,2547  L 2941,2547 2941,2547 2942,2547 2942,2548 2942,2549 2941,2549 2908,2549 2907,2549 2907,2548 2907,2548 2907,2548 2907,2547 2908,2547 2908,2547 2908,2547 z M 2960,2547  L 2993,2547 2993,2547 2994,2547 2994,2548 2994,2548 2994,2548 2994,2549 2993,2549 2960,2549 2959,2549 2959,2548 2959,2548 2959,2548 2959,2547 2960,2547 2960,2547 2960,2547 z M 3012,2547  L 3045,2547 3046,2547 3046,2547 3046,2548 3046,2548 3046,2548 3046,2549 3045,2549 3012,2549 3012,2549 3012,2548 3012,2548 3012,2548 3012,2547 3012,2547 3012,2547 3012,2547 z M 3065,2547  L 3097,2547 3098,2547 3098,2547 3098,2548 3099,2548 3098,2548 3098,2549 3097,2549 3065,2549 3064,2549 3063,2548 3063,2548 3063,2548 3064,2547 3064,2547 3065,2547 3065,2547 z M 3117,2547  L 3140,2547 3141,2547 3141,2547 3141,2548 3141,2548 3141,2548 3141,2549 3140,2549 3117,2549 3116,2549 3116,2548 3116,2548 3116,2548 3116,2547 3116,2547 3117,2547 3117,2547 z" fill-rule="nonzero"/>
        <polyline class="pen1" fill="none" points="1354,2516 1350,2520 1348,2523 1344,2527 1341,2530 1337,2533 1333,2535 1329,2537 1326,2539 1321,2541 1317,2544 1313,2545 1308,2546 1304,2547 1299,2548 1295,2548 1291,2548 1295,2548 1299,2548 1304,2549 1308,2550 1313,2551 1317,2552 1321,2554 1326,2556 1329,2558 1333,2560 1337,2563 1341,2566 1344,2569 1348,2573 1350,2576 1354,2579"/>
        <text class="font1" fill="rgb(0,0,0)" stroke="none" style="dominant-baseline: alphabetic;" x="1976 1996 2036 2056 2096 2113 2133 2185 2202 2222 2262 2283 2303 2343 2379 2419" xml:lang="en" xml:space="preserve" y="2533">total with taxes</text>
        <path class="pen0 brush2" d="M 627,1695  L 633,1684 634,1682 634,1681 635,1681 636,1681 636,1682 636,1683 635,1685 629,1696 628,1697 628,1697 627,1697 627,1696 627,1695 627,1695 z M 640,1672  L 646,1662 648,1659 648,1659 649,1659 650,1660 650,1661 650,1661 648,1663 641,1674 640,1674 640,1674 640,1674 639,1673 639,1673 640,1672 640,1672 z M 655,1651  L 662,1642 665,1640 665,1639 666,1640 666,1640 666,1641 663,1643 656,1653 655,1653 655,1653 655,1653 654,1652 655,1651 655,1651 z M 672,1632  L 680,1624 683,1621 684,1621 684,1621 685,1621 685,1622 685,1622 685,1623 681,1626 674,1633 673,1634 672,1633 672,1632 672,1632 672,1632 z M 692,1615  L 699,1609 704,1606 705,1606 706,1606 706,1606 706,1606 706,1607 706,1608 701,1611 693,1616 693,1617 692,1616 691,1615 692,1615 692,1615 z M 714,1600  L 720,1597 727,1594 728,1593 729,1594 729,1594 729,1594 729,1595 729,1596 720,1599 715,1602 714,1602 714,1602 714,1602 713,1601 713,1601 714,1600 714,1600 z M 737,1589  L 740,1588 751,1585 752,1585 753,1585 754,1585 754,1585 754,1587 753,1587 753,1587 752,1587 742,1590 738,1591 737,1591 737,1591 737,1591 737,1590 737,1590 737,1589 737,1589 z M 763,1583  L 767,1583 772,1582 773,1582 773,1582 773,1583 773,1583 773,1584 772,1584 767,1585 763,1585 763,1585 763,1584 762,1584 763,1583 763,1583 763,1583 z" fill-rule="nonzero"/>
        <polyline class="pen1" fill="none" points="772,1583 772,1581 773,1579 773,1577 774,1576 776,1572 778,1570 781,1568 784,1566 786,1566 788,1565 790,1565 792,1565 794,1565 795,1566 797,1566 799,1567 802,1568 805,1571 807,1574 809,1577 809,1579 810,1581 810,1583 810,1585 810,1585 810,1587 809,1588 809,1590 808,1592 806,1595 803,1598 801,1600 797,1602 796,1602 794,1602 792,1602 790,1602 788,1602 786,1602 784,1602 783,1601 780,1599 777,1596 775,1594 773,1590 773,1589 772,1587 772,1585 772,1583"/>
        <path class="pen0 brush2" d="M 872,2806  L 881,2796 882,2795 882,2795 883,2795 884,2795 884,2796 883,2796 882,2797 873,2808 873,2808 872,2808 872,2808 871,2807 871,2807 872,2806 872,2806 z M 888,2786  L 890,2785 899,2775 899,2775 899,2775 901,2775 901,2776 901,2776 901,2776 901,2776 891,2786 890,2788 890,2788 890,2788 889,2788 888,2788 888,2787 888,2786 888,2786 z M 906,2767  L 909,2764 917,2756 917,2756 918,2756 918,2756 918,2756 918,2757 918,2757 918,2757 918,2758 910,2766 908,2769 907,2769 906,2769 906,2768 906,2768 906,2767 906,2767 906,2767 z M 924,2748  L 929,2744 935,2738 935,2738 936,2737 936,2738 937,2738 937,2738 937,2739 937,2739 930,2745 926,2750 925,2750 924,2750 924,2749 924,2749 924,2748 924,2748 924,2748 z M 943,2730  L 950,2723 954,2719 954,2719 956,2719 956,2720 956,2720 956,2721 956,2721 952,2725 944,2731 944,2731 943,2732 943,2731 943,2731 943,2731 943,2730 943,2730 z M 962,2712  L 971,2704 973,2702 974,2702 975,2702 975,2702 975,2703 975,2703 975,2704 973,2705 963,2714 963,2714 962,2714 962,2714 962,2714 962,2713 962,2712 962,2712 z M 981,2695  L 993,2685 994,2685 994,2685 994,2685 994,2685 994,2686 994,2687 983,2696 982,2697 981,2696 981,2696 981,2696 981,2695 981,2695 981,2695 z M 1001,2678  L 1013,2668 1013,2668 1013,2668 1015,2668 1015,2668 1015,2669 1015,2670 1014,2670 1002,2679 1002,2680 1002,2680 1001,2679 1001,2679 1000,2679 1001,2678 1001,2678 1001,2678 z M 1022,2662  L 1034,2652 1034,2652 1034,2652 1034,2652 1035,2652 1035,2653 1035,2653 1035,2654 1023,2663 1022,2664 1022,2664 1022,2663 1022,2663 1021,2662 1021,2662 1022,2662 1022,2662 z M 1042,2645  L 1051,2639 1054,2636 1055,2636 1055,2636 1056,2636 1056,2637 1056,2638 1055,2639 1052,2641 1043,2647 1043,2647 1043,2647 1042,2647 1042,2646 1042,2646 1042,2645 1042,2645 z M 1063,2630  L 1075,2622 1076,2622 1076,2621 1077,2621 1077,2622 1077,2622 1077,2622 1077,2623 1075,2624 1064,2632 1064,2632 1064,2632 1063,2632 1063,2631 1063,2630 1063,2630 1063,2630 z M 1085,2615  L 1085,2615 1097,2607 1098,2607 1098,2607 1098,2607 1099,2607 1099,2608 1099,2609 1099,2609 1098,2609 1087,2616 1086,2617 1085,2617 1085,2617 1085,2617 1084,2616 1084,2616 1085,2615 1085,2615 z M 1106,2601  L 1108,2600 1119,2593 1120,2593 1120,2593 1121,2594 1121,2594 1121,2594 1121,2595 1110,2602 1108,2603 1107,2603 1107,2603 1106,2603 1106,2602 1106,2602 1106,2601 1106,2601 z M 1129,2588  L 1131,2586 1142,2580 1143,2580 1143,2580 1144,2581 1144,2581 1144,2582 1143,2582 1132,2588 1130,2590 1130,2590 1129,2589 1129,2588 1129,2588 1129,2588 1129,2588 z M 1152,2575  L 1153,2574 1164,2569 1166,2568 1166,2568 1167,2569 1167,2569 1166,2570 1165,2571 1155,2576 1153,2577 1153,2577 1152,2577 1152,2577 1151,2577 1151,2576 1151,2575 1152,2575 1152,2575 z M 1175,2563  L 1185,2559 1189,2557 1190,2557 1191,2557 1191,2558 1191,2558 1191,2558 1191,2559 1190,2559 1186,2561 1176,2565 1176,2565 1175,2565 1175,2565 1175,2565 1174,2565 1174,2564 1175,2564 1175,2563 1175,2563 z M 1200,2553  L 1206,2551 1214,2548 1214,2548 1214,2548 1215,2548 1215,2549 1215,2549 1214,2550 1214,2550 1206,2553 1200,2555 1200,2555 1200,2555 1199,2555 1199,2554 1199,2554 1199,2553 1200,2553 1200,2553 z" fill-rule="nonzero"/>
        <polyline class="pen1" fill="none" points="1216,2548 1215,2546 1215,2544 1214,2543 1215,2541 1215,2539 1216,2537 1217,2534 1219,2531 1222,2529 1225,2527 1227,2525 1228,2525 1230,2525 1232,2524 1234,2524 1236,2525 1238,2525 1239,2525 1242,2527 1246,2529 1248,2531 1250,2534 1251,2535 1252,2537 1252,2537 1252,2539 1253,2541 1253,2543 1253,2545 1252,2547 1251,2548 1250,2552 1248,2555 1246,2557 1242,2559 1241,2560 1239,2560 1237,2561 1235,2561 1234,2562 1231,2561 1229,2561 1228,2560 1225,2559 1221,2557 1219,2554 1217,2552 1217,2550 1216,2548"/>
        <path class="pen0 brush2" d="M 1291,3102  L 1323,3102 1323,3102 1324,3102 1324,3102 1324,3103 1324,3103 1324,3103 1323,3104 1291,3104 1290,3103 1289,3103 1289,3103 1289,3102 1290,3102 1290,3102 1291,3102 1291,3102 z M 1343,3102  L 1376,3102 1376,3102 1376,3102 1376,3103 1376,3103 1376,3104 1343,3104 1342,3103 1342,3103 1342,3103 1342,3102 1342,3102 1342,3102 1343,3102 1343,3102 z M 1395,3102  L 1427,3102 1428,3102 1429,3102 1429,3102 1429,3103 1429,3103 1429,3103 1427,3104 1395,3104 1394,3103 1394,3103 1394,3103 1394,3102 1394,3102 1395,3102 1395,3102 1395,3102 z M 1447,3102  L 1479,3102 1480,3102 1480,3102 1481,3102 1481,3103 1481,3103 1480,3103 1479,3104 1447,3104 1446,3103 1446,3103 1446,3103 1446,3102 1446,3102 1446,3102 1447,3102 1447,3102 z M 1499,3102  L 1532,3102 1532,3102 1532,3102 1532,3102 1533,3103 1532,3103 1532,3103 1532,3104 1499,3104 1499,3103 1498,3103 1498,3103 1498,3102 1499,3102 1499,3102 1499,3102 1499,3102 z M 1552,3102  L 1584,3102 1584,3102 1585,3102 1585,3102 1585,3103 1585,3103 1585,3103 1584,3104 1552,3104 1551,3103 1550,3103 1550,3103 1550,3102 1551,3102 1551,3102 1552,3102 1552,3102 z M 1604,3102  L 1636,3102 1636,3102 1637,3102 1637,3103 1637,3103 1636,3104 1604,3104 1602,3103 1602,3103 1602,3103 1602,3102 1602,3102 1603,3102 1604,3102 1604,3102 z M 1655,3102  L 1688,3102 1689,3102 1689,3102 1689,3102 1689,3103 1689,3103 1689,3103 1688,3104 1655,3104 1655,3103 1655,3103 1655,3103 1655,3102 1655,3102 1655,3102 1655,3102 1655,3102 z M 1708,3102  L 1740,3102 1741,3102 1741,3102 1742,3102 1742,3103 1742,3103 1741,3103 1740,3104 1708,3104 1707,3103 1707,3103 1707,3103 1707,3102 1707,3102 1707,3102 1708,3102 1708,3102 z M 1760,3102  L 1793,3102 1793,3102 1793,3102 1793,3102 1794,3103 1793,3103 1793,3103 1793,3104 1760,3104 1759,3103 1759,3103 1759,3103 1759,3102 1759,3102 1759,3102 1760,3102 1760,3102 z M 1812,3102  L 1845,3102 1845,3102 1846,3102 1846,3102 1846,3103 1846,3103 1846,3103 1845,3104 1812,3104 1812,3103 1811,3103 1811,3103 1811,3102 1812,3102 1812,3102 1812,3102 1812,3102 z M 1865,3102  L 1897,3102 1897,3102 1898,3102 1898,3103 1898,3103 1897,3104 1865,3104 1863,3103 1863,3103 1863,3103 1863,3102 1863,3102 1864,3102 1865,3102 1865,3102 z M 1916,3102  L 1949,3102 1950,3102 1950,3102 1950,3102 1950,3103 1950,3103 1950,3103 1949,3104 1916,3104 1916,3103 1916,3103 1916,3103 1916,3102 1916,3102 1916,3102 1916,3102 1916,3102 z M 1969,3102  L 2001,3102 2002,3102 2002,3102 2003,3102 2003,3103 2003,3103 2002,3103 2001,3104 1969,3104 1968,3103 1968,3103 1968,3103 1968,3102 1968,3102 1968,3102 1969,3102 1969,3102 z M 2021,3102  L 2054,3102 2054,3102 2054,3102 2054,3102 2055,3103 2054,3103 2054,3103 2054,3104 2021,3104 2020,3103 2020,3103 2020,3103 2020,3102 2020,3102 2020,3102 2021,3102 2021,3102 z M 2073,3102  L 2106,3102 2106,3102 2107,3102 2107,3102 2107,3103 2107,3103 2107,3103 2106,3104 2073,3104 2073,3103 2072,3103 2072,3103 2072,3102 2073,3102 2073,3102 2073,3102 2073,3102 z M 2126,3102  L 2158,3102 2158,3102 2159,3102 2159,3103 2159,3103 2158,3104 2126,3104 2124,3103 2124,3103 2124,3103 2124,3102 2124,3102 2125,3102 2126,3102 2126,3102 z M 2177,3102  L 2210,3102 2211,3102 2211,3102 2211,3102 2211,3103 2211,3103 2211,3103 2210,3104 2177,3104 2177,3103 2177,3103 2177,3103 2177,3102 2177,3102 2177,3102 2177,3102 2177,3102 z M 2230,3102  L 2262,3102 2263,3102 2263,3102 2264,3102 2264,3103 2264,3103 2263,3103 2262,3104 2230,3104 2229,3103 2229,3103 2229,3103 2229,3102 2229,3102 2229,3102 2230,3102 2230,3102 z M 2282,3102  L 2315,3102 2315,3102 2315,3102 2315,3102 2316,3103 2315,3103 2315,3103 2315,3104 2282,3104 2281,3103 2281,3103 2281,3103 2281,3102 2281,3102 2281,3102 2282,3102 2282,3102 z M 2334,3102  L 2367,3102 2367,3102 2368,3102 2368,3102 2368,3103 2368,3103 2368,3103 2367,3104 2334,3104 2334,3103 2333,3103 2333,3103 2333,3102 2334,3102 2334,3102 2334,3102 2334,3102 z M 2387,3102  L 2419,3102 2419,3102 2420,3102 2420,3103 2420,3103 2419,3104 2387,3104 2385,3103 2385,3103 2385,3103 2385,3102 2385,3102 2386,3102 2387,3102 2387,3102 z M 2438,3102  L 2471,3102 2472,3102 2472,3102 2472,3102 2472,3103 2472,3103 2472,3103 2471,3104 2438,3104 2438,3103 2438,3103 2438,3103 2438,3102 2438,3102 2438,3102 2438,3102 2438,3102 z M 2491,3102  L 2523,3102 2524,3102 2524,3102 2525,3102 2525,3103 2525,3103 2524,3103 2523,3104 2491,3104 2490,3103 2490,3103 2490,3103 2490,3102 2490,3102 2490,3102 2491,3102 2491,3102 z M 2543,3102  L 2575,3102 2576,3102 2576,3102 2576,3102 2577,3103 2576,3103 2576,3103 2575,3104 2543,3104 2542,3103 2542,3103 2542,3103 2542,3102 2542,3102 2542,3102 2543,3102 2543,3102 z M 2595,3102  L 2628,3102 2628,3102 2628,3102 2628,3102 2628,3103 2628,3103 2628,3103 2628,3104 2595,3104 2595,3103 2594,3103 2594,3103 2594,3102 2595,3102 2595,3102 2595,3102 2595,3102 z M 2648,3102  L 2680,3102 2680,3102 2681,3102 2681,3103 2681,3103 2680,3104 2648,3104 2646,3103 2646,3103 2646,3103 2646,3102 2646,3102 2647,3102 2648,3102 2648,3102 z M 2699,3102  L 2732,3102 2732,3102 2733,3102 2733,3102 2733,3103 2733,3103 2733,3103 2732,3104 2699,3104 2698,3103 2698,3103 2698,3103 2698,3102 2698,3102 2699,3102 2699,3102 2699,3102 z M 2751,3102  L 2784,3102 2785,3102 2785,3102 2785,3102 2785,3103 2785,3103 2785,3103 2784,3104 2751,3104 2751,3103 2751,3103 2751,3103 2751,3102 2751,3102 2751,3102 2751,3102 2751,3102 z M 2804,3102  L 2836,3102 2837,3102 2837,3102 2837,3102 2838,3103 2837,3103 2837,3103 2836,3104 2804,3104 2803,3103 2802,3103 2802,3103 2802,3102 2803,3102 2803,3102 2804,3102 2804,3102 z M 2856,3102  L 2889,3102 2889,3102 2889,3102 2889,3102 2889,3103 2889,3103 2889,3103 2889,3104 2856,3104 2855,3103 2855,3103 2855,3103 2855,3102 2855,3102 2855,3102 2856,3102 2856,3102 z M 2908,3102  L 2941,3102 2941,3102 2942,3102 2942,3103 2942,3103 2941,3104 2908,3104 2907,3103 2907,3103 2907,3103 2907,3102 2907,3102 2908,3102 2908,3102 2908,3102 z M 2960,3102  L 2993,3102 2993,3102 2994,3102 2994,3102 2994,3103 2994,3103 2994,3103 2993,3104 2960,3104 2959,3103 2959,3103 2959,3103 2959,3102 2959,3102 2960,3102 2960,3102 2960,3102 z M 3012,3102  L 3045,3102 3046,3102 3046,3102 3046,3102 3046,3103 3046,3103 3046,3103 3045,3104 3012,3104 3012,3103 3012,3103 3012,3103 3012,3102 3012,3102 3012,3102 3012,3102 3012,3102 z M 3065,3102  L 3097,3102 3098,3102 3098,3102 3098,3102 3099,3103 3098,3103 3098,3103 3097,3104 3065,3104 3064,3103 3063,3103 3063,3103 3063,3102 3064,3102 3064,3102 3065,3102 3065,3102 z M 3117,3102  L 3150,3102 3150,3102 3150,3102 3150,3102 3150,3103 3150,3103 3150,3103 3150,3104 3117,3104 3116,3103 3116,3103 3116,3103 3116,3102 3116,3102 3116,3102 3117,3102 3117,3102 z" fill-rule="nonzero"/>
        <polyline class="pen1" fill="none" points="1354,3071 1350,3075 1348,3078 1344,3082 1341,3084 1337,3087 1333,3090 1329,3092 1326,3095 1322,3097 1317,3098 1313,3099 1309,3101 1304,3101 1299,3102 1295,3103 1291,3103 1295,3103 1299,3103 1304,3104 1309,3105 1313,3106 1317,3107 1322,3109 1326,3111 1329,3113 1333,3116 1337,3118 1341,3121 1344,3124 1348,3127 1350,3130 1354,3135"/>
        <text class="font1" fill="rgb(0,0,0)" stroke="none" style="dominant-baseline: alphabetic;" x="1910 1946 1986 2026 2066 2106 2146 2166 2207 2247" xml:lang="en" xml:space="preserve" y="3088">change due</text>
        <text class="font1" fill="rgb(0,0,0)" stroke="none" style="dominant-baseline: alphabetic;" x="2289 2309" xml:lang="en" xml:space="preserve" y="3088">, </text>
        <text class="font1" fill="rgb(0,0,0)" stroke="none" style="dominant-baseline: alphabetic;" x="2329 2353 2393 2429 2469 2486 2526" xml:lang="en" xml:space="preserve" y="3088">receipt</text>
        <path class="pen0 brush2" d="M 3405,2584  L 3390,2584 3390,2584 3390,2584 3389,2584 3389,2584 3389,2583 3390,2583 3390,2582 3390,2582 3405,2582 3406,2582 3406,2582 3406,2582 3406,2582 3406,2583 3406,2583 3406,2584 3405,2584 3405,2584 z M 3379,2585  L 3364,2586 3364,2586 3364,2586 3363,2586 3363,2585 3363,2584 3364,2584 3364,2584 3379,2583 3379,2583 3380,2583 3380,2584 3381,2584 3380,2585 3380,2585 3379,2585 3379,2585 z M 3353,2587  L 3339,2588 3338,2588 3337,2588 3337,2588 3337,2587 3337,2586 3337,2586 3338,2586 3338,2586 3353,2584 3353,2584 3354,2585 3354,2586 3354,2586 3354,2586 3353,2586 3353,2587 3353,2587 z M 3328,2589  L 3312,2590 3311,2590 3311,2590 3311,2589 3311,2588 3311,2588 3312,2588 3327,2587 3328,2587 3328,2588 3328,2588 3328,2588 3328,2589 3328,2589 3328,2589 z M 3301,2591  L 3286,2593 3286,2592 3286,2592 3285,2592 3285,2592 3285,2591 3286,2591 3286,2590 3286,2590 3301,2589 3302,2589 3302,2589 3303,2590 3303,2590 3302,2591 3302,2591 3301,2591 3301,2591 z M 3275,2594  L 3262,2595 3260,2595 3260,2595 3260,2595 3259,2595 3259,2594 3259,2594 3260,2593 3260,2593 3262,2593 3275,2592 3275,2592 3276,2592 3277,2592 3276,2594 3276,2594 3275,2594 3275,2594 z M 3250,2596  L 3235,2598 3234,2598 3233,2598 3233,2598 3233,2597 3233,2596 3234,2596 3250,2594 3250,2594 3250,2594 3250,2595 3250,2596 3250,2596 3250,2596 3250,2596 3250,2596 3250,2596 z M 3224,2600  L 3212,2601 3209,2602 3208,2602 3207,2602 3207,2601 3207,2600 3208,2600 3212,2599 3224,2598 3224,2598 3224,2598 3224,2599 3224,2600 3224,2600 z M 3198,2603  L 3183,2605 3182,2605 3182,2605 3182,2605 3182,2604 3182,2603 3182,2603 3197,2601 3199,2601 3199,2602 3199,2602 3199,2603 3199,2603 3198,2603 3198,2603 3198,2603 z M 3172,2607  L 3163,2608 3157,2609 3156,2609 3156,2609 3156,2608 3156,2608 3156,2607 3156,2607 3156,2607 3162,2606 3171,2605 3172,2605 3173,2605 3173,2605 3173,2606 3173,2606 3173,2607 3172,2607 3172,2607 3172,2607 z M 3146,2611  L 3131,2613 3130,2613 3130,2612 3130,2611 3131,2611 3131,2611 3146,2609 3146,2609 3147,2609 3147,2609 3147,2609 3147,2610 3147,2611 3146,2611 3146,2611 3146,2611 z M 3120,2615  L 3112,2616 3105,2617 3105,2617 3105,2617 3104,2617 3104,2617 3104,2616 3104,2615 3105,2615 3105,2615 3112,2614 3120,2613 3120,2613 3121,2613 3121,2613 3121,2615 3120,2615 3120,2615 z M 3095,2620  L 3080,2622 3079,2622 3079,2622 3078,2622 3078,2621 3078,2621 3078,2620 3080,2620 3095,2617 3095,2617 3095,2617 3095,2617 3095,2618 3095,2618 3095,2619 3095,2619 3095,2620 3095,2620 z M 3069,2624  L 3063,2625 3054,2626 3054,2626 3053,2626 3052,2626 3053,2625 3054,2624 3063,2623 3069,2622 3069,2622 3070,2623 3070,2623 3069,2624 3069,2624 3069,2624 z M 3044,2629  L 3029,2632 3028,2632 3027,2632 3027,2631 3027,2631 3027,2630 3027,2630 3028,2630 3043,2626 3044,2626 3044,2627 3044,2627 3044,2628 3044,2628 3044,2628 3044,2629 3044,2629 z M 3018,2634  L 3014,2634 3003,2636 3002,2636 3002,2636 3002,2636 3002,2635 3002,2635 3002,2634 3014,2632 3017,2632 3018,2632 3018,2632 3019,2632 3019,2632 3019,2633 3019,2633 3018,2634 3018,2634 z M 2992,2639  L 2978,2642 2977,2642 2976,2642 2976,2641 2976,2641 2976,2641 2977,2640 2992,2637 2992,2637 2993,2637 2993,2638 2993,2638 2993,2639 2992,2639 2992,2639 z M 2967,2645  L 2966,2645 2952,2648 2951,2648 2951,2648 2951,2647 2951,2647 2951,2646 2951,2646 2951,2646 2966,2643 2966,2643 2967,2643 2967,2643 2968,2643 2968,2643 2968,2644 2967,2645 2967,2645 z M 2941,2651  L 2927,2654 2926,2654 2925,2653 2925,2653 2925,2653 2925,2653 2925,2652 2925,2652 2926,2651 2941,2648 2941,2648 2942,2648 2942,2649 2942,2649 2942,2650 2942,2650 2941,2651 2941,2651 z M 2916,2656  L 2901,2660 2901,2660 2900,2660 2900,2660 2900,2660 2900,2658 2900,2658 2901,2658 2915,2654 2916,2654 2917,2655 2917,2655 2917,2655 2917,2655 2917,2656 2916,2656 2916,2656 z M 2891,2663  L 2876,2666 2875,2666 2874,2666 2874,2666 2874,2665 2874,2665 2875,2664 2890,2661 2891,2660 2891,2661 2891,2661 2891,2662 2891,2662 2891,2662 2891,2662 2891,2663 2891,2663 z M 2866,2670  L 2851,2674 2850,2673 2849,2672 2849,2672 2849,2672 2850,2672 2850,2671 2865,2667 2865,2667 2866,2667 2866,2668 2866,2668 2866,2669 2866,2669 2866,2670 2866,2670 z M 2840,2677  L 2832,2679 2826,2681 2826,2681 2825,2681 2825,2680 2824,2680 2824,2679 2824,2679 2825,2679 2825,2679 2832,2677 2840,2674 2840,2674 2840,2674 2841,2675 2841,2675 2841,2676 2840,2676 2840,2677 2840,2677 z M 2815,2684  L 2801,2688 2800,2688 2800,2688 2800,2688 2800,2687 2799,2687 2800,2687 2800,2686 2800,2686 2815,2682 2815,2681 2815,2682 2816,2682 2816,2683 2816,2683 2816,2683 2815,2684 2815,2684 z M 2790,2691  L 2776,2696 2775,2696 2775,2696 2775,2696 2775,2694 2775,2694 2775,2694 2790,2689 2790,2689 2791,2689 2791,2690 2791,2690 2791,2691 2791,2691 2790,2691 2790,2691 z M 2766,2700  L 2754,2704 2751,2704 2751,2704 2750,2704 2750,2704 2749,2704 2750,2703 2751,2702 2754,2702 2765,2698 2765,2698 2766,2698 2766,2698 2766,2698 2766,2698 2766,2699 2766,2699 2766,2700 2766,2700 z M 2741,2708  L 2737,2710 2727,2714 2726,2714 2726,2713 2726,2713 2725,2712 2726,2712 2726,2712 2726,2712 2736,2708 2741,2706 2741,2706 2741,2706 2741,2706 2742,2707 2741,2708 2741,2708 2741,2708 2741,2708 z M 2717,2717  L 2703,2723 2703,2723 2702,2723 2701,2723 2701,2723 2701,2722 2701,2722 2701,2721 2702,2721 2703,2721 2716,2715 2717,2715 2717,2716 2717,2716 2717,2717 2717,2717 2717,2717 2717,2717 2717,2717 z M 2693,2727  L 2688,2729 2688,2729 2688,2729 2687,2729 2687,2729 2687,2728 2687,2728 2687,2727 2688,2727 2692,2725 2692,2725 2693,2725 2693,2726 2693,2727 2693,2727 2693,2727 2693,2727 z" fill-rule="nonzero"/>
        <polyline class="pen1" fill="none" points="2688,2728 2686,2725 2684,2722 2680,2720 2677,2719 2675,2718 2673,2718 2672,2717 2670,2717 2668,2718 2667,2718 2664,2719 2662,2719 2660,2721 2657,2723 2654,2727 2653,2730 2652,2734 2652,2735 2652,2737 2652,2739 2652,2740 2653,2742 2654,2744 2654,2744 2656,2747 2658,2750 2661,2753 2664,2754 2668,2755 2669,2755 2671,2755 2673,2755 2675,2755 2677,2754 2679,2753 2682,2751 2685,2748 2687,2746 2688,2742 2689,2739 2690,2738 2690,2736 2689,2734 2689,2732 2688,2730 2688,2728"/>
        <path class="pen0 brush2" d="M 1289,3192  L 1289,3160 1289,3159 1290,3159 1290,3158 1291,3158 1291,3158 1291,3159 1291,3159 1291,3160 1291,3192 1291,3192 1291,3193 1291,3193 1291,3193 1290,3193 1290,3193 1289,3192 1289,3192 1289,3192 z M 1289,3140  L 1289,3107 1289,3107 1290,3107 1290,3106 1291,3106 1291,3106 1291,3107 1291,3107 1291,3107 1291,3140 1291,3141 1291,3141 1291,3141 1291,3141 1290,3141 1290,3141 1289,3141 1289,3140 1289,3140 z M 1289,3088  L 1289,3055 1289,3054 1290,3054 1290,3054 1291,3054 1291,3054 1291,3054 1291,3054 1291,3055 1291,3088 1291,3088 1291,3088 1291,3089 1291,3089 1290,3089 1290,3088 1289,3088 1289,3088 1289,3088 z M 1289,3035  L 1289,3003 1289,3003 1290,3002 1290,3002 1291,3002 1291,3002 1291,3002 1291,3003 1291,3003 1291,3035 1291,3036 1291,3037 1291,3037 1291,3037 1290,3037 1290,3037 1289,3036 1289,3035 1289,3035 z M 1289,2984  L 1289,2951 1289,2951 1290,2950 1290,2950 1291,2950 1291,2950 1291,2950 1291,2951 1291,2951 1291,2984 1291,2984 1291,2985 1291,2985 1290,2985 1289,2984 1289,2984 1289,2984 z M 1289,2932  L 1289,2899 1289,2898 1290,2898 1290,2898 1291,2898 1291,2898 1291,2898 1291,2898 1291,2899 1291,2932 1291,2932 1291,2932 1291,2932 1291,2932 1290,2932 1290,2932 1289,2932 1289,2932 1289,2932 z M 1289,2879  L 1289,2847 1289,2846 1290,2846 1290,2845 1291,2845 1291,2845 1291,2846 1291,2846 1291,2847 1291,2879 1291,2880 1291,2880 1291,2880 1291,2881 1290,2880 1290,2880 1289,2880 1289,2879 1289,2879 z M 1289,2827  L 1289,2795 1289,2794 1290,2794 1290,2794 1291,2794 1291,2794 1291,2794 1291,2794 1291,2795 1291,2827 1291,2828 1291,2828 1291,2829 1291,2829 1290,2829 1290,2828 1289,2828 1289,2827 1289,2827 z M 1289,2775  L 1289,2742 1289,2742 1290,2742 1290,2742 1291,2742 1291,2742 1291,2742 1291,2742 1291,2742 1291,2775 1291,2776 1291,2776 1291,2776 1291,2776 1290,2776 1290,2776 1289,2776 1289,2775 1289,2775 z M 1289,2723  L 1289,2691 1289,2690 1290,2689 1290,2689 1291,2689 1291,2689 1291,2689 1291,2690 1291,2691 1291,2723 1291,2723 1291,2724 1291,2724 1290,2724 1289,2723 1289,2723 1289,2723 z M 1289,2671  L 1289,2639 1289,2638 1290,2638 1290,2637 1291,2637 1291,2637 1291,2638 1291,2638 1291,2639 1291,2671 1291,2671 1291,2672 1291,2672 1291,2672 1290,2672 1290,2672 1289,2671 1289,2671 1289,2671 z M 1289,2619  L 1289,2586 1289,2586 1290,2586 1290,2585 1291,2585 1291,2585 1291,2586 1291,2586 1291,2586 1291,2619 1291,2620 1291,2620 1291,2620 1291,2620 1290,2620 1290,2620 1289,2620 1289,2619 1289,2619 z M 1289,2567  L 1289,2534 1289,2533 1290,2533 1290,2533 1291,2533 1291,2533 1291,2533 1291,2533 1291,2534 1291,2567 1291,2567 1291,2567 1291,2568 1291,2568 1290,2568 1290,2567 1289,2567 1289,2567 1289,2567 z M 1289,2514  L 1289,2482 1289,2482 1290,2481 1290,2481 1291,2481 1291,2481 1291,2481 1291,2482 1291,2482 1291,2514 1291,2515 1291,2516 1291,2516 1291,2516 1290,2516 1290,2516 1289,2515 1289,2514 1289,2514 z M 1289,2463  L 1289,2430 1289,2430 1290,2429 1290,2429 1291,2429 1291,2429 1291,2429 1291,2430 1291,2430 1291,2463 1291,2463 1291,2463 1291,2463 1290,2463 1289,2463 1289,2463 1289,2463 z M 1289,2411  L 1289,2378 1289,2377 1290,2377 1290,2377 1291,2377 1291,2377 1291,2377 1291,2377 1291,2378 1291,2411 1291,2411 1291,2411 1291,2411 1291,2411 1290,2411 1290,2411 1289,2411 1289,2411 1289,2411 z M 1289,2358  L 1289,2326 1289,2325 1290,2325 1290,2324 1291,2324 1291,2324 1291,2325 1291,2325 1291,2326 1291,2358 1291,2359 1291,2359 1291,2359 1291,2360 1290,2359 1290,2359 1289,2359 1289,2358 1289,2358 z M 1289,2306  L 1289,2273 1289,2273 1290,2273 1290,2273 1291,2273 1291,2273 1291,2273 1291,2273 1291,2273 1291,2306 1291,2307 1291,2307 1291,2307 1291,2307 1290,2307 1290,2307 1289,2307 1289,2306 1289,2306 z M 1289,2254  L 1289,2221 1289,2221 1290,2221 1290,2221 1291,2221 1291,2221 1291,2221 1291,2221 1291,2221 1291,2254 1291,2254 1291,2255 1291,2255 1291,2255 1290,2255 1290,2255 1289,2254 1289,2254 1289,2254 z M 1289,2202  L 1289,2170 1289,2169 1290,2168 1290,2168 1291,2168 1291,2168 1291,2168 1291,2169 1291,2170 1291,2202 1291,2202 1291,2203 1291,2203 1290,2203 1289,2202 1289,2202 1289,2202 z M 1289,2150  L 1289,2117 1289,2117 1290,2117 1290,2116 1291,2116 1291,2116 1291,2117 1291,2117 1291,2117 1291,2150 1291,2150 1291,2151 1291,2151 1291,2151 1290,2151 1290,2151 1289,2150 1289,2150 1289,2150 z M 1289,2098  L 1289,2065 1289,2064 1290,2064 1290,2064 1291,2064 1291,2064 1291,2064 1291,2064 1291,2065 1291,2098 1291,2098 1291,2098 1291,2098 1291,2099 1290,2098 1290,2098 1289,2098 1289,2098 1289,2098 z M 1289,2045  L 1289,2013 1289,2012 1290,2012 1290,2012 1291,2012 1291,2012 1291,2012 1291,2012 1291,2013 1291,2045 1291,2046 1291,2046 1291,2047 1291,2047 1290,2047 1290,2046 1289,2046 1289,2045 1289,2045 z M 1289,1993  L 1289,1961 1289,1961 1290,1960 1290,1960 1291,1960 1291,1960 1291,1960 1291,1961 1291,1961 1291,1993 1291,1994 1291,1995 1291,1995 1291,1995 1290,1995 1290,1995 1289,1994 1289,1993 1289,1993 z M 1289,1942  L 1289,1909 1289,1908 1290,1908 1290,1908 1291,1908 1291,1908 1291,1908 1291,1908 1291,1909 1291,1942 1291,1942 1291,1942 1291,1942 1290,1942 1289,1942 1289,1942 1289,1942 z M 1289,1889  L 1289,1857 1289,1856 1290,1856 1290,1855 1291,1855 1291,1855 1291,1856 1291,1856 1291,1857 1291,1889 1291,1889 1291,1890 1291,1890 1291,1890 1290,1890 1290,1890 1289,1889 1289,1889 1289,1889 z M 1289,1837  L 1289,1805 1289,1804 1290,1804 1290,1803 1291,1803 1291,1803 1291,1804 1291,1804 1291,1805 1291,1837 1291,1838 1291,1838 1291,1838 1291,1838 1290,1838 1290,1838 1289,1838 1289,1837 1289,1837 z M 1289,1785  L 1289,1752 1289,1752 1290,1752 1290,1752 1291,1752 1291,1752 1291,1752 1291,1752 1291,1752 1291,1785 1291,1786 1291,1786 1291,1786 1291,1786 1290,1786 1290,1786 1289,1786 1289,1785 1289,1785 z M 1289,1733  L 1289,1700 1289,1700 1290,1699 1290,1699 1291,1699 1291,1699 1291,1699 1291,1700 1291,1700 1291,1733 1291,1733 1291,1734 1291,1734 1291,1734 1290,1734 1290,1734 1289,1733 1289,1733 1289,1733 z M 1289,1681  L 1289,1648 1289,1648 1290,1647 1290,1647 1291,1647 1291,1647 1291,1647 1291,1648 1291,1648 1291,1681 1291,1681 1291,1682 1291,1682 1290,1682 1289,1681 1289,1681 1289,1681 z M 1289,1629  L 1289,1596 1289,1596 1290,1596 1290,1595 1291,1595 1291,1595 1291,1596 1291,1596 1291,1596 1291,1629 1291,1629 1291,1629 1291,1629 1291,1629 1290,1629 1290,1629 1289,1629 1289,1629 1289,1629 z M 1289,1577  L 1289,1544 1289,1543 1290,1543 1290,1543 1291,1543 1291,1543 1291,1543 1291,1543 1291,1544 1291,1577 1291,1577 1291,1577 1291,1577 1291,1578 1290,1577 1290,1577 1289,1577 1289,1577 1289,1577 z M 1289,1524  L 1289,1492 1289,1491 1290,1491 1290,1491 1291,1491 1291,1491 1291,1491 1291,1491 1291,1492 1291,1524 1291,1525 1291,1525 1291,1526 1291,1526 1290,1526 1290,1525 1289,1525 1289,1524 1289,1524 z M 1289,1472  L 1289,1439 1289,1439 1290,1439 1290,1439 1291,1439 1291,1439 1291,1439 1291,1439 1291,1439 1291,1472 1291,1473 1291,1473 1291,1473 1291,1473 1290,1473 1290,1473 1289,1473 1289,1472 1289,1472 z M 1289,1420  L 1289,1388 1289,1387 1290,1387 1290,1387 1291,1387 1291,1387 1291,1387 1291,1387 1291,1388 1291,1420 1291,1420 1291,1421 1291,1421 1290,1421 1289,1420 1289,1420 1289,1420 z M 1289,1368  L 1289,1336 1289,1335 1290,1335 1290,1334 1291,1334 1291,1334 1291,1335 1291,1335 1291,1336 1291,1368 1291,1368 1291,1369 1291,1369 1291,1369 1290,1369 1290,1369 1289,1368 1289,1368 1289,1368 z M 1289,1316  L 1289,1283 1289,1283 1290,1283 1290,1282 1291,1282 1291,1282 1291,1283 1291,1283 1291,1283 1291,1316 1291,1317 1291,1317 1291,1317 1291,1317 1290,1317 1290,1317 1289,1317 1289,1316 1289,1316 z M 1289,1264  L 1289,1238 1289,1237 1290,1237 1290,1237 1291,1237 1291,1237 1291,1237 1291,1237 1291,1238 1291,1264 1291,1264 1291,1264 1291,1265 1291,1265 1290,1265 1290,1264 1289,1264 1289,1264 1289,1264 z" fill-rule="nonzero"/>
        <polyline class="pen1" fill="none" points="3114,1355 1293,1355"/>
        <polygon class="pen2 brush2" points="3105,1387 3169,1355 3105,1323 3105,1387"/>
        <text class="font1" fill="rgb(0,0,0)" stroke="none" style="dominant-baseline: alphabetic;" x="1997 2058 2098 2134 2174 2226 2266 2319 2367 2407 2423" xml:lang="en" xml:space="preserve" y="1340">makeNewSale</text>
        <path class="pen0 brush2" d="M 873,880  L 888,882 888,882 888,883 889,883 888,884 888,884 888,884 872,882 872,882 871,882 871,882 871,882 871,881 872,881 873,880 873,880 z M 899,883  L 913,885 914,885 914,885 915,886 914,886 913,887 899,885 898,885 898,885 897,884 897,884 897,884 898,884 898,883 899,883 899,883 z M 924,886  L 939,888 940,888 941,888 941,888 941,888 940,890 940,890 939,890 924,888 924,888 923,887 924,886 924,886 924,886 924,886 924,886 z M 950,888  L 966,891 966,891 966,892 966,893 966,893 965,893 950,891 949,891 949,891 949,890 949,890 949,889 950,888 950,888 z M 977,891  L 992,893 992,893 992,893 992,894 992,895 992,895 992,895 991,895 976,894 976,893 975,893 975,893 975,892 976,892 977,891 977,891 z M 1002,895  L 1017,896 1018,896 1018,897 1018,897 1018,897 1018,897 1018,898 1017,898 1017,898 1002,897 1001,896 1001,896 1001,895 1002,895 1002,895 1002,895 1002,895 z M 1028,897  L 1043,899 1044,899 1045,899 1045,900 1044,900 1044,901 1043,901 1043,901 1028,899 1028,899 1027,898 1028,897 1028,897 1028,897 z M 1054,900  L 1069,901 1070,902 1070,902 1070,903 1070,903 1070,903 1070,903 1069,903 1054,902 1053,902 1053,901 1053,901 1053,901 1053,900 1053,900 1054,900 1054,900 z M 1080,903  L 1096,904 1096,904 1096,905 1096,905 1096,905 1096,906 1096,906 1096,906 1095,906 1080,905 1079,904 1079,904 1079,903 1079,903 1079,903 1080,903 1080,903 1080,903 z M 1106,905  L 1121,907 1122,907 1122,907 1122,908 1122,909 1122,909 1121,909 1121,909 1106,907 1105,907 1105,907 1105,906 1105,906 1105,905 1106,905 1106,905 1106,905 z M 1132,908  L 1139,909 1140,909 1140,910 1140,910 1140,910 1140,910 1140,911 1139,911 1132,910 1132,910 1131,910 1131,910 1131,909 1131,909 1131,908 1132,908 1132,908 1132,908 z" fill-rule="nonzero"/>
        <polyline class="pen1" fill="none" points="1139,910 1139,912 1139,914 1140,916 1140,918 1141,921 1143,924 1146,926 1149,929 1152,930 1154,931 1156,931 1158,931 1159,931 1161,931 1164,930 1167,929 1170,926 1172,924 1174,921 1176,918 1176,916 1176,914 1176,914 1176,912 1176,910 1176,908 1176,907 1174,903 1172,900 1170,898 1167,896 1166,895 1164,894 1161,894 1160,893 1158,893 1156,893 1154,894 1153,894 1149,895 1146,897 1144,900 1142,903 1140,905 1140,906 1140,908 1139,910"/>
        <polygon class="pen1 brush1" points="832,2052 3278,2052 3278,1462 832,1462 832,2052"/>
        <polygon class="pen2 brush0" points="1164,1492 1164,1579 1602,1579 1602,1492 1164,1492"/>
        <text class="font1" fill="rgb(0,0,0)" stroke="none" style="dominant-baseline: alphabetic;" x="1167 1187" xml:lang="en" xml:space="preserve" y="1557">[ </text>
        <text class="font1" fill="rgb(0,0,0)" stroke="none" style="dominant-baseline: alphabetic;" x="1207 1267 1308 1332 1372 1393 1409 1429 1469 1530 1566" xml:lang="en" xml:space="preserve" y="1557">more items </text>
        <text class="font1" fill="rgb(0,0,0)" stroke="none" style="dominant-baseline: alphabetic;" x="1585" xml:lang="en" xml:space="preserve" y="1557">]</text>
        <polyline class="pen1" fill="none" points="832,2052 3278,2052"/>
        <polyline class="pen1" fill="none" points="832,2052 3278,2052"/>
        <polyline class="pen1" fill="none" points="832,2052 3278,2052"/>
        <polyline class="pen1" fill="none" points="832,2052 3278,2052"/>
        <polyline class="pen1" fill="none" points="832,2052 3278,2052"/>
        <polyline class="pen1" fill="none" points="832,2052 3278,2052"/>
        <polyline class="pen1" fill="none" points="832,2052 3278,2052"/>
        <polyline class="pen1" fill="none" points="832,2052 3278,2052"/>
        <polygon class="pen1 brush1" points="832,1625 1036,1625 1117,1543 1117,1462 832,1462 832,1625"/>
        <text class="font3" fill="rgb(0,0,0)" stroke="none" style="dominant-baseline: alphabetic;" x="898 918 962 1007" xml:lang="en" xml:space="preserve" y="1565">loop</text>
    </g>
    <g/>
</svg>
