<?xml version="1.0" encoding="UTF-8" standalone="no"?>
<!DOCTYPE svg PUBLIC "-//W3C//DTD SVG 1.0//EN" "http://www.w3.org/TR/2001/REC-SVG-20010904/DTD/svg10.dtd">
<svg xmlns="http://www.w3.org/2000/svg" xmlns:xlink="http://www.w3.org/1999/xlink" fill-rule="evenodd" height="5.512152777777778in" preserveAspectRatio="none" stroke-linecap="round" viewBox="0 0 5009 3308" width="8.347222222222221in">
    <style type="text/css">
.brush0 { fill: rgb(255,255,255); }
.pen0 { stroke: rgb(0,0,0); stroke-width: 1; stroke-linejoin: round; }
.font0 { font-weight: bold; font-size: 11px; font-family: System, sans-serif; }
.pen1 { stroke: rgb(0,0,0); stroke-width: 3; stroke-linejoin: round; }
.brush1 { fill: none; }
.pen2 { stroke: none; }
.font1 { font-size: 95px; font-family: Helvetica, sans-serif; }
.font2 { font-weight: bold; font-size: 14px; font-family: System, sans-serif; }
.brush2 { fill: rgb(0,0,0); }
.font3 { font-weight: bold; font-size: 95px; font-family: Helvetica, sans-serif; }
.pen3 { stroke: rgb(0,0,0); stroke-width: 14; stroke-linejoin: round; }
.font4 { font-style: italic; font-size: 95px; font-family: Helvetica, sans-serif; }
.pen4 { stroke: rgb(255,255,255); stroke-width: 3; stroke-linejoin: round; }
.font5 { font-size: 95px; font-family: Helvetica, sans-serif; }
.font6 { font-size: 106px; font-family: Arial, sans-serif; }
.font7 { font-size: 95px; font-family: Helvetica, sans-serif; }
.font8 { font-weight: bold; font-size: 11px; font-family: System, sans-serif; }
</style>
    <g>
        <polygon class="pen1 brush0" points="1767,612 2809,612 2809,398 1767,398 1767,612"/>
        <text class="font1" fill="rgb(0,0,0)" stroke="none" style="dominant-baseline: alphabetic;" x="2103 2180 2244 2301 2397 2462 2526" xml:lang="en" xml:space="preserve" y="533">Payment</text>
        <polygon class="pen1 brush0" points="1767,825 2809,825 2809,612 1767,612 1767,825"/>
        <text class="font1" fill="rgb(0,0,0)" stroke="none" style="dominant-baseline: alphabetic;" x="1824 1888 1984 2048 2111 2175" xml:lang="en" xml:space="preserve" y="747">amount</text>
        <polygon class="pen1 brush0" points="3609,557 4650,557 4650,343 3609,343 3609,557"/>
        <text class="font1" fill="rgb(0,0,0)" stroke="none" style="dominant-baseline: alphabetic;" x="4036 4113 4177 4203" xml:lang="en" xml:space="preserve" y="479">Sale</text>
        <polygon class="pen1 brush0" points="3609,880 4650,880 4650,557 3609,557 3609,880"/>
        <text class="font1" fill="rgb(0,0,0)" stroke="none" style="dominant-baseline: alphabetic;" x="3665 3729 3793 3825" xml:lang="en" xml:space="preserve" y="690">date</text>
        <text class="font1" fill="rgb(0,0,0)" stroke="none" style="dominant-baseline: alphabetic;" x="3665 3697 3723 3819" xml:lang="en" xml:space="preserve" y="804">time</text>
        <polyline class="pen1" fill="none" points="2809,612 3209,612 3609,612"/>
        <text class="font1" fill="rgb(0,0,0)" stroke="none" style="dominant-baseline: alphabetic;" x="3034 3111 3175 3232 3289 3327 3359 3423" xml:lang="en" xml:space="preserve" y="592">Pays-for</text>
        <polygon class="pen1 brush0" points="1727,1896 2768,1896 2768,1682 1727,1682 1727,1896"/>
        <text class="font1" fill="rgb(0,0,0)" stroke="none" style="dominant-baseline: alphabetic;" x="2063 2140 2204 2261 2357 2421 2485" xml:lang="en" xml:space="preserve" y="1817">Payment</text>
        <polygon class="pen1 brush0" points="1727,2109 2768,2109 2768,1896 1727,1896 1727,2109"/>
        <text class="font1" fill="rgb(0,0,0)" stroke="none" style="dominant-baseline: alphabetic;" x="1784 1848 1944 2008 2071 2135 2167 2200 2232 2328 2392 2456 2520" xml:lang="en" xml:space="preserve" y="2031">amount: Money</text>
        <polygon class="pen1 brush0" points="1727,2323 2768,2323 2768,2109 1727,2109 1727,2323"/>
        <text class="font1" fill="rgb(0,0,0)" stroke="none" style="dominant-baseline: alphabetic;" x="1784 1848 1912 1944 2021 2085 2111 2175 2239 2296 2360 2397 2436 2468 2500 2595 2660 2724 2788" xml:lang="en" xml:space="preserve" y="2244">getBalance(): Money</text>
        <polygon class="pen1 brush0" points="3594,1787 4636,1787 4636,1573 3594,1573 3594,1787"/>
        <text class="font1" fill="rgb(0,0,0)" stroke="none" style="dominant-baseline: alphabetic;" x="4022 4099 4163 4189" xml:lang="en" xml:space="preserve" y="1708">Sale</text>
        <polygon class="pen1 brush0" points="3594,2109 4636,2109 4636,1787 3594,1787 3594,2109"/>
        <text class="font1" fill="rgb(0,0,0)" stroke="none" style="dominant-baseline: alphabetic;" x="3651 3715 3779 3811 3875 3907 3938 4022 4086 4118" xml:lang="en" xml:space="preserve" y="1920">date: Date</text>
        <text class="font1" fill="rgb(0,0,0)" stroke="none" style="dominant-baseline: alphabetic;" x="3651 3708 3740 3804 3842 3874 3943 3970 4066 4130 4162 4194 4264 4289 4386" xml:lang="en" xml:space="preserve" y="2034">startTime: Time</text>
        <polygon class="pen1 brush0" points="3594,2432 4636,2432 4636,2109 3594,2109 3594,2432"/>
        <text class="font1" fill="rgb(0,0,0)" stroke="none" style="dominant-baseline: alphabetic;" x="3651 3715 3779 3811 3881 3945 3977 4041 4067 4105 4143 4175 4207 4303 4367 4430 4494" xml:lang="en" xml:space="preserve" y="2242">getTotal(): Money</text>
        <text class="font1" fill="rgb(0,0,0)" stroke="none" style="dominant-baseline: alphabetic;" x="3651 3683 3715 3747 3779" xml:lang="en" xml:space="preserve" y="2356">. . .</text>
        <polyline class="pen1" fill="none" points="2768,2002 3181,2002 3594,2002"/>
        <polyline class="pen1" fill="none" points="2868,1952 2768,2002 2868,2052"/>
        <polyline class="pen1" fill="none" points="3495,2052 3594,2002 3495,1952"/>
        <text class="font1" fill="rgb(0,0,0)" stroke="none" style="dominant-baseline: alphabetic;" x="3007 3084 3148 3205 3262 3300 3332 3396" xml:lang="en" xml:space="preserve" y="1984">Pays-for</text>
        <text class="font3" fill="rgb(0,0,0)" stroke="none" style="dominant-baseline: alphabetic;" x="2786 2866 2940 2971 3051 3118 3216 3278 3308 3375 3406 3498 3565 3632 3693" xml:lang="en" xml:space="preserve" y="155">UP Domain Model</text>
        <text class="font1" fill="rgb(0,0,0)" stroke="none" style="dominant-baseline: alphabetic;" x="1762 1839 1871 1935 1992 2056 2120 2184 2210 2274 2338 2375 2397 2454 2486 2543 2570 2634 2716 2749 2813 2845 2877 2909 2973 3037 3069 3132 3196 3228 3293 3376 3440 3478 3510 3574 3631 3663 3720 3784 3848 3905 3969 4032 4064 4121 4153 4180 4244 4276 4308 4371 4435 4467 4531 4596 4692 4756 4781 4846" xml:lang="en" xml:space="preserve" y="269">Stakeholder's view of the noteworthy concepts in the domain.</text>
        <line class="pen3" fill="none" x1="1714" x2="1942" y1="1151" y2="1151"/>
        <line class="pen3" fill="none" x1="2070" x2="2298" y1="1151" y2="1151"/>
        <line class="pen3" fill="none" x1="2426" x2="2654" y1="1151" y2="1151"/>
        <line class="pen3" fill="none" x1="2782" x2="3010" y1="1151" y2="1151"/>
        <line class="pen3" fill="none" x1="3138" x2="3366" y1="1151" y2="1151"/>
        <line class="pen3" fill="none" x1="3494" x2="3722" y1="1151" y2="1151"/>
        <line class="pen3" fill="none" x1="3850" x2="4078" y1="1151" y2="1151"/>
        <line class="pen3" fill="none" x1="4206" x2="4434" y1="1151" y2="1151"/>
        <line class="pen3" fill="none" x1="4562" x2="4665" y1="1151" y2="1151"/>
        <text class="font3" fill="rgb(0,0,0)" stroke="none" style="dominant-baseline: alphabetic;" x="2892 2972 3046 3077 3157 3218 3280 3310 3377 3444 3476 3567 3634 3701 3762" xml:lang="en" xml:space="preserve" y="2643">UP Design Model</text>
        <text class="font1" fill="rgb(0,0,0)" stroke="none" style="dominant-baseline: alphabetic;" x="1618 1688 1752 1816 1848 1912 1976 2002 2066 2123 2155 2193 2256 2295 2321 2385 2449 2481 2545 2609 2641 2705 2768 2826 2890 2916 2980 3044 3108 3146 3178 3242 3306 3363 3395 3427 3490 3547 3612 3676 3708 3734 3798 3855 3919 3945 3982 4047 4079 4105 4169 4233 4264 4297 4335 4399 4494 4527 4559 4623 4687 4719 4756 4821 4885 4911 4943 5026 5090 5127 5154 5218 5250 5314 5378 5474 5538 5564" xml:lang="en" xml:space="preserve" y="2757">The object-oriented developer has taken inspiration from the real world domain</text>
        <text class="font1" fill="rgb(0,0,0)" stroke="none" style="dominant-baseline: alphabetic;" x="1618 1644 1708 1740 1797 1835 1899 1963 1994 2021 2085 2149 2181 2238 2302 2334 2365 2449 2513 2551 2615 2647 2704 2730 2794 2851 2908 2972 3029" xml:lang="en" xml:space="preserve" y="2871">in creating software classes.</text>
        <text class="font1" fill="rgb(0,0,0)" stroke="none" style="dominant-baseline: alphabetic;" x="1618 1688 1752 1816 1853 1918 1950 2014 2052 2116 2148 2180 2212 2276 2340 2372 2410 2474 2538 2575 2640 2697 2761 2825 2857 2921 2953 2979 3043 3107 3171 3197 3228 3293 3357 3421 3453 3517 3581 3613 3696 3760 3824 3888 3920 3984 4048 4131 4163 4220 4252 4316 4373 4437 4501 4565 4591 4655 4719 4756 4813 4846 4902 4967 5031 5088 5152 5178 5235 5299 5331 5362 5427" xml:lang="en" xml:space="preserve" y="3099">Therefore, the representational gap between how stakeholders conceive the</text>
        <text class="font1" fill="rgb(0,0,0)" stroke="none" style="dominant-baseline: alphabetic;" x="1618 1682 1746 1842 1905 1932 1996 2028 2060 2124 2188 2252 2284 2310 2342 2399 2431 2469 2533 2597 2635 2699 2756 2820 2884 2916 2980 3012 3038 3102 3166 3198 3223 3288 3320 3377 3441 3473 3505 3588 3652 3690 3754 3786 3818 3882 3945 4002 4034 4099 4163 4227 4291 4323 4348 4413 4496 4560 4598 4662 4726" xml:lang="en" xml:space="preserve" y="3213">domain, and its representation in software, has been lowered.</text>
        <text class="font1" fill="rgb(0,0,0)" stroke="none" style="dominant-baseline: alphabetic;" x="2871" xml:lang="en" xml:space="preserve" y="587">1</text>
        <text class="font1" fill="rgb(0,0,0)" stroke="none" style="dominant-baseline: alphabetic;" x="3512" xml:lang="en" xml:space="preserve" y="573">1</text>
        <text class="font1" fill="rgb(0,0,0)" stroke="none" style="dominant-baseline: alphabetic;" x="2818" xml:lang="en" xml:space="preserve" y="1951">1</text>
        <text class="font1" fill="rgb(0,0,0)" stroke="none" style="dominant-baseline: alphabetic;" x="3458" xml:lang="en" xml:space="preserve" y="1924">1</text>
        <polygon class="pen1 brush0" points="11,2131 1517,2131 1517,296 11,296 11,2131"/>
        <text class="font1" fill="rgb(0,0,0)" stroke="none" style="dominant-baseline: alphabetic;" x="58 135 167 244 308 365 461 526 590 622 654 679 743 775 807 872 936 968 1050 1114 1210 1275 1300 1364 1396 1492 1557 1621 1685" xml:lang="en" xml:space="preserve" y="559">A Payment in the Domain Model</text>
        <text class="font1" fill="rgb(0,0,0)" stroke="none" style="dominant-baseline: alphabetic;" x="58 85 142 174 237 269 326 390 454 511 575 639 671 704 736 800 864 895 927 991 1023 1100 1164 1221 1317 1381 1445 1478 1510 1535" xml:lang="en" xml:space="preserve" y="673">is a concept, but a Payment in</text>
        <text class="font1" fill="rgb(0,0,0)" stroke="none" style="dominant-baseline: alphabetic;" x="58 90 155 219 251 333 397 454 481 545 608 640 736 800 864 929 954 986 1013 1070 1102 1166 1198 1255 1319 1350 1382 1465 1529 1567" xml:lang="en" xml:space="preserve" y="787">the Design Model is a software</text>
        <text class="font1" fill="rgb(0,0,0)" stroke="none" style="dominant-baseline: alphabetic;" x="58 115 142 205 262 320 351 383 454 518 582 639 670 734 773 837 869 932 996 1028 1060 1092 1156 1220 1253 1309 1374 1470" xml:lang="en" xml:space="preserve" y="901">class. They are not the same</text>
        <text class="font1" fill="rgb(0,0,0)" stroke="none" style="dominant-baseline: alphabetic;" x="58 90 155 180 244 308 340 372 437 501 533 565 597 660 724 756 788 852 890 986 1050 1089" xml:lang="en" xml:space="preserve" y="1015">thing, but the former </text>
        <text class="font4" fill="rgb(0,0,0)" stroke="none" style="dominant-baseline: alphabetic;" x="925 951 1015 1072 1136 1162 1200 1264 1328" xml:lang="en" xml:space="preserve" y="1015">inspired </text>
        <text class="font1" fill="rgb(0,0,0)" stroke="none" style="dominant-baseline: alphabetic;" x="1279 1311 1375" xml:lang="en" xml:space="preserve" y="1015">the</text>
        <text class="font1" fill="rgb(0,0,0)" stroke="none" style="dominant-baseline: alphabetic;" x="58 122 187 283 308 372 437 469 533 597 660 692 756 820 852 879 942 968 1000 1026 1090 1154 1186 1250 1282 1314 1346 1411" xml:lang="en" xml:space="preserve" y="1129">naming and definition of the</text>
        <text class="font1" fill="rgb(0,0,0)" stroke="none" style="dominant-baseline: alphabetic;" x="58 85 148 180 212 276 315" xml:lang="en" xml:space="preserve" y="1243">latter.</text>
        <text class="font1" fill="rgb(0,0,0)" stroke="none" style="dominant-baseline: alphabetic;" x="58 128 192 219 276 308 345 409 474 538 595 659 716 748 780 843 907 939 978 1042 1105 1144 1208 1265 1329 1392 1424 1488 1520 1547 1611 1675 1738" xml:lang="en" xml:space="preserve" y="1470">This reduces the representational</text>
        <text class="font1" fill="rgb(0,0,0)" stroke="none" style="dominant-baseline: alphabetic;" x="58 122 187 251" xml:lang="en" xml:space="preserve" y="1584">gap.</text>
        <text class="font1" fill="rgb(0,0,0)" stroke="none" style="dominant-baseline: alphabetic;" x="58 128 192 219 276 308 333 390 422 486 550 615 647 711 743 775 806 870 934 966 1030 1057 1120 1152 1178 1243 1307 1371 1428 1460 1485" xml:lang="en" xml:space="preserve" y="1812">This is one of the big ideas in</text>
        <text class="font1" fill="rgb(0,0,0)" stroke="none" style="dominant-baseline: alphabetic;" x="58 122 187 212 276 333 365 397 429 493 550 615 679 743 768 832 896 953" xml:lang="en" xml:space="preserve" y="1926">object technology.</text>
        <polygon class="pen4 brush0" points="1398,296 1517,416 1517,296 1398,296"/>
        <polygon class="pen1 brush2" points="1517,416 1398,296 1398,416 1517,416"/>
        <line class="pen1" fill="none" x1="1517" x2="1519" y1="1214" y2="1211"/>
        <line class="pen1" fill="none" x1="1524" x2="1525" y1="1198" y2="1196"/>
        <line class="pen1" fill="none" x1="1530" x2="1532" y1="1182" y2="1180"/>
        <line class="pen1" fill="none" x1="1537" x2="1538" y1="1167" y2="1164"/>
        <line class="pen1" fill="none" x1="1544" x2="1544" y1="1151" y2="1149"/>
        <line class="pen1" fill="none" x1="1550" x2="1551" y1="1136" y2="1133"/>
        <line class="pen1" fill="none" x1="1557" x2="1557" y1="1120" y2="1117"/>
        <line class="pen1" fill="none" x1="1563" x2="1564" y1="1104" y2="1102"/>
        <line class="pen1" fill="none" x1="1569" x2="1571" y1="1089" y2="1086"/>
        <line class="pen1" fill="none" x1="1576" x2="1577" y1="1072" y2="1070"/>
        <line class="pen1" fill="none" x1="1583" x2="1584" y1="1057" y2="1054"/>
        <line class="pen1" fill="none" x1="1589" x2="1590" y1="1041" y2="1038"/>
        <line class="pen1" fill="none" x1="1596" x2="1597" y1="1025" y2="1023"/>
        <line class="pen1" fill="none" x1="1602" x2="1604" y1="1009" y2="1007"/>
        <line class="pen1" fill="none" x1="1609" x2="1610" y1="993" y2="990"/>
        <line class="pen1" fill="none" x1="1616" x2="1616" y1="978" y2="975"/>
        <line class="pen1" fill="none" x1="1622" x2="1623" y1="962" y2="959"/>
        <line class="pen1" fill="none" x1="1628" x2="1630" y1="946" y2="943"/>
        <line class="pen1" fill="none" x1="1636" x2="1636" y1="930" y2="927"/>
        <line class="pen1" fill="none" x1="1642" x2="1643" y1="914" y2="911"/>
        <line class="pen1" fill="none" x1="1648" x2="1649" y1="899" y2="896"/>
        <line class="pen1" fill="none" x1="1655" x2="1656" y1="883" y2="880"/>
        <line class="pen1" fill="none" x1="1661" x2="1663" y1="867" y2="864"/>
        <line class="pen1" fill="none" x1="1668" x2="1669" y1="851" y2="848"/>
        <line class="pen1" fill="none" x1="1675" x2="1675" y1="835" y2="832"/>
        <line class="pen1" fill="none" x1="1681" x2="1683" y1="820" y2="817"/>
        <line class="pen1" fill="none" x1="1688" x2="1689" y1="803" y2="801"/>
        <line class="pen1" fill="none" x1="1695" x2="1695" y1="788" y2="785"/>
        <line class="pen1" fill="none" x1="1701" x2="1702" y1="772" y2="769"/>
        <line class="pen1" fill="none" x1="1708" x2="1709" y1="756" y2="753"/>
        <line class="pen1" fill="none" x1="1714" x2="1715" y1="740" y2="737"/>
        <line class="pen1" fill="none" x1="1721" x2="1722" y1="724" y2="721"/>
        <line class="pen1" fill="none" x1="1727" x2="1728" y1="709" y2="706"/>
        <line class="pen1" fill="none" x1="1734" x2="1735" y1="693" y2="690"/>
        <line class="pen1" fill="none" x1="1740" x2="1742" y1="677" y2="674"/>
        <line class="pen1" fill="none" x1="1747" x2="1748" y1="661" y2="659"/>
        <line class="pen1" fill="none" x1="1754" x2="1755" y1="645" y2="642"/>
        <polyline class="pen1" fill="none" points="1758,634 1752,630 1747,624 1744,617 1743,610 1745,602 1749,596 1755,591 1762,588 1769,587 1777,589 1784,593 1789,599 1792,606 1792,614 1790,621 1787,628 1780,633 1773,636 1766,636 1758,634"/>
        <line class="pen1" fill="none" x1="1517" x2="1518" y1="1214" y2="1217"/>
        <line class="pen1" fill="none" x1="1522" x2="1522" y1="1230" y2="1233"/>
        <line class="pen1" fill="none" x1="1526" x2="1527" y1="1247" y2="1250"/>
        <line class="pen1" fill="none" x1="1530" x2="1531" y1="1263" y2="1266"/>
        <line class="pen1" fill="none" x1="1535" x2="1536" y1="1280" y2="1282"/>
        <line class="pen1" fill="none" x1="1539" x2="1540" y1="1296" y2="1299"/>
        <line class="pen1" fill="none" x1="1544" x2="1544" y1="1312" y2="1315"/>
        <line class="pen1" fill="none" x1="1548" x2="1549" y1="1329" y2="1332"/>
        <line class="pen1" fill="none" x1="1552" x2="1553" y1="1345" y2="1348"/>
        <line class="pen1" fill="none" x1="1557" x2="1557" y1="1361" y2="1364"/>
        <line class="pen1" fill="none" x1="1561" x2="1562" y1="1378" y2="1381"/>
        <line class="pen1" fill="none" x1="1565" x2="1566" y1="1394" y2="1397"/>
        <line class="pen1" fill="none" x1="1570" x2="1571" y1="1411" y2="1413"/>
        <line class="pen1" fill="none" x1="1574" x2="1575" y1="1427" y2="1430"/>
        <line class="pen1" fill="none" x1="1579" x2="1579" y1="1443" y2="1446"/>
        <line class="pen1" fill="none" x1="1583" x2="1584" y1="1460" y2="1463"/>
        <line class="pen1" fill="none" x1="1587" x2="1588" y1="1476" y2="1479"/>
        <line class="pen1" fill="none" x1="1591" x2="1592" y1="1493" y2="1495"/>
        <line class="pen1" fill="none" x1="1596" x2="1596" y1="1509" y2="1512"/>
        <line class="pen1" fill="none" x1="1600" x2="1601" y1="1525" y2="1528"/>
        <line class="pen1" fill="none" x1="1605" x2="1606" y1="1542" y2="1544"/>
        <line class="pen1" fill="none" x1="1609" x2="1610" y1="1558" y2="1561"/>
        <line class="pen1" fill="none" x1="1614" x2="1614" y1="1574" y2="1577"/>
        <line class="pen1" fill="none" x1="1618" x2="1619" y1="1591" y2="1594"/>
        <line class="pen1" fill="none" x1="1622" x2="1623" y1="1607" y2="1610"/>
        <line class="pen1" fill="none" x1="1626" x2="1627" y1="1624" y2="1626"/>
        <line class="pen1" fill="none" x1="1631" x2="1631" y1="1640" y2="1643"/>
        <line class="pen1" fill="none" x1="1635" x2="1636" y1="1656" y2="1659"/>
        <line class="pen1" fill="none" x1="1640" x2="1641" y1="1673" y2="1676"/>
        <line class="pen1" fill="none" x1="1644" x2="1645" y1="1689" y2="1692"/>
        <line class="pen1" fill="none" x1="1648" x2="1649" y1="1705" y2="1708"/>
        <line class="pen1" fill="none" x1="1653" x2="1653" y1="1722" y2="1725"/>
        <line class="pen1" fill="none" x1="1657" x2="1658" y1="1738" y2="1741"/>
        <line class="pen1" fill="none" x1="1661" x2="1662" y1="1755" y2="1757"/>
        <line class="pen1" fill="none" x1="1665" x2="1666" y1="1771" y2="1774"/>
        <line class="pen1" fill="none" x1="1670" x2="1670" y1="1787" y2="1790"/>
        <line class="pen1" fill="none" x1="1675" x2="1675" y1="1804" y2="1807"/>
        <line class="pen1" fill="none" x1="1679" x2="1680" y1="1820" y2="1823"/>
        <line class="pen1" fill="none" x1="1683" x2="1684" y1="1836" y2="1839"/>
        <line class="pen1" fill="none" x1="1688" x2="1688" y1="1853" y2="1856"/>
        <line class="pen1" fill="none" x1="1692" x2="1693" y1="1869" y2="1872"/>
        <line class="pen1" fill="none" x1="1696" x2="1697" y1="1886" y2="1888"/>
        <line class="pen1" fill="none" x1="1700" x2="1701" y1="1902" y2="1905"/>
        <line class="pen1" fill="none" x1="1705" x2="1705" y1="1918" y2="1921"/>
        <line class="pen1" fill="none" x1="1710" x2="1710" y1="1935" y2="1938"/>
        <line class="pen1" fill="none" x1="1714" x2="1715" y1="1951" y2="1954"/>
        <line class="pen1" fill="none" x1="1718" x2="1719" y1="1967" y2="1970"/>
        <polyline class="pen1" fill="none" points="1721,1979 1714,1982 1708,1987 1705,1994 1703,2002 1704,2009 1707,2016 1712,2022 1718,2026 1726,2027 1734,2027 1741,2023 1747,2018 1750,2012 1752,2004 1751,1997 1748,1990 1743,1984 1736,1980 1729,1978 1721,1979"/>
        <polygon class="pen2 brush0" points="3092,1264 3636,1264 3636,937 3092,937 3092,1264"/>
        <text class="font1" fill="rgb(0,0,0)" stroke="none" style="dominant-baseline: alphabetic;" x="3204 3230 3293 3350 3414 3441 3478 3542" xml:lang="en" xml:space="preserve" y="1070">inspires</text>
        <text class="font1" fill="rgb(0,0,0)" stroke="none" style="dominant-baseline: alphabetic;" x="3216 3280 3345 3370 3434 3491 3523" xml:lang="en" xml:space="preserve" y="1184">objects</text>
        <text class="font1" fill="rgb(0,0,0)" stroke="none" style="dominant-baseline: alphabetic;" x="3287 3351 3415" xml:lang="en" xml:space="preserve" y="1298">and</text>
        <text class="font1" fill="rgb(0,0,0)" stroke="none" style="dominant-baseline: alphabetic;" x="3174 3238 3302 3399 3462 3520 3551 3577" xml:lang="en" xml:space="preserve" y="1412">names in</text>
        <polygon class="pen1 brush0" points="3065,984 2926,984 2926,1342 2855,1342 2996,1411 3136,1342 3065,1342 3065,984"/>
    </g>
    <g/>
</svg>
