<?xml version="1.0" encoding="UTF-8" standalone="no"?>
<!DOCTYPE svg PUBLIC "-//W3C//DTD SVG 1.0//EN" "http://www.w3.org/TR/2001/REC-SVG-20010904/DTD/svg10.dtd">
<svg xmlns="http://www.w3.org/2000/svg" xmlns:xlink="http://www.w3.org/1999/xlink" fill-rule="evenodd" height="5.520833333333333in" preserveAspectRatio="none" stroke-linecap="round" viewBox="0 0 4509 3314" width="7.513888888888889in">
    <style type="text/css">
.brush0 { fill: rgb(255,255,255); }
.pen0 { stroke: rgb(0,0,0); stroke-width: 1; stroke-linejoin: round; }
.font0 { font-weight: bold; font-size: 151px; font-family: System, sans-serif; }
.pen1 { stroke: none; }
.pen2 { stroke: rgb(0,0,0); stroke-width: 3; stroke-linejoin: round; }
.brush1 { fill: none; }
.font1 { font-size: 89px; font-family: Arial; }
.font2 { font-weight: bold; font-size: 15px; font-family: System, sans-serif; }
.font3 { font-size: 157px; font-family: Arial; }
.font4 { font-size: 111px; font-family: Arial; }
.font5 { font-size: 100px; font-family: Marlett; }
.pen3 { stroke: rgb(255,255,255); stroke-width: 3; stroke-linejoin: round; }
.brush2 { fill: rgb(0,0,0); }
.font6 { font-weight: bold; font-size: 15px; font-family: System, sans-serif; }
.font7 { font-weight: bold; font-size: 151px; font-family: System, sans-serif; }
</style>
    <g>
        <polygon class="pen1 brush0" points="3556,2608 3556,2833 4458,2833 4458,2608 3556,2608"/>
        <polygon class="pen2 brush1" points="3556,2833 4458,2833 4458,2608 3556,2608 3556,2833"/>
        <text class="font1" fill="rgb(0,0,0)" stroke="none" style="dominant-baseline: alphabetic;" x="3821 3893 3949 4004 4027 4077 4105 4160" xml:lang="en" xml:space="preserve" y="2749">Register</text>
        <polygon class="pen1 brush0" points="3556,2833 3556,3058 4458,3058 4458,2833 3556,2833"/>
        <polygon class="pen2 brush1" points="3556,3058 4458,3058 4458,2833 3556,2833 3556,3058"/>
        <polygon class="pen1 brush0" points="3556,134 3556,359 4458,359 4458,134 3556,134"/>
        <polygon class="pen2 brush1" points="3556,359 4458,359 4458,134 3556,134 3556,359"/>
        <text class="font1" fill="rgb(0,0,0)" stroke="none" style="dominant-baseline: alphabetic;" x="3910 3939 3967 4022" xml:lang="en" xml:space="preserve" y="276">Item</text>
        <polygon class="pen1 brush0" points="3556,359 3556,584 4458,584 4458,359 3556,359"/>
        <polygon class="pen2 brush1" points="3556,584 4458,584 4458,359 3556,359 3556,584"/>
        <polygon class="pen1 brush0" points="3556,1483 3556,1708 4458,1708 4458,1483 3556,1483"/>
        <polygon class="pen2 brush1" points="3556,1708 4458,1708 4458,1483 3556,1483 3556,1708"/>
        <text class="font1" fill="rgb(0,0,0)" stroke="none" style="dominant-baseline: alphabetic;" x="3888 3954 3983 4038 4072" xml:lang="en" xml:space="preserve" y="1626">Store</text>
        <polygon class="pen1 brush0" points="3556,1708 3556,2049 4458,2049 4458,1708 3556,1708"/>
        <polygon class="pen2 brush1" points="3556,2049 4458,2049 4458,1708 3556,1708 3556,2049"/>
        <text class="font1" fill="rgb(0,0,0)" stroke="none" style="dominant-baseline: alphabetic;" x="3615 3671 3726 3782 3815 3871 3921" xml:lang="en" xml:space="preserve" y="1848">address</text>
        <text class="font1" fill="rgb(0,0,0)" stroke="none" style="dominant-baseline: alphabetic;" x="3615 3671 3726 3810" xml:lang="en" xml:space="preserve" y="1968">name</text>
        <polygon class="pen1 brush0" points="1374,1483 1374,1708 2276,1708 2276,1483 1374,1483"/>
        <polygon class="pen2 brush1" points="1374,1708 2276,1708 2276,1483 1374,1483 1374,1708"/>
        <text class="font1" fill="rgb(0,0,0)" stroke="none" style="dominant-baseline: alphabetic;" x="1724 1791 1846 1869" xml:lang="en" xml:space="preserve" y="1626">Sale</text>
        <polygon class="pen1 brush0" points="1374,1708 1374,2049 2276,2049 2276,1708 1374,1708"/>
        <polygon class="pen2 brush1" points="1374,2049 2276,2049 2276,1708 1374,1708 1374,2049"/>
        <text class="font1" fill="rgb(0,0,0)" stroke="none" style="dominant-baseline: alphabetic;" x="1432 1487 1543 1571 1627" xml:lang="en" xml:space="preserve" y="1848">date </text>
        <text class="font1" fill="rgb(0,0,0)" stroke="none" style="dominant-baseline: alphabetic;" x="1432 1460 1483 1566" xml:lang="en" xml:space="preserve" y="1968">time</text>
        <polygon class="pen1 brush0" points="1374,2842 1374,3068 2276,3068 2276,2842 1374,2842"/>
        <polygon class="pen2 brush1" points="1374,3068 2276,3068 2276,2842 1374,2842 1374,3068"/>
        <text class="font1" fill="rgb(0,0,0)" stroke="none" style="dominant-baseline: alphabetic;" x="1627 1693 1749 1798 1882 1937 1993" xml:lang="en" xml:space="preserve" y="2985">Payment</text>
        <polygon class="pen1 brush0" points="1374,3068 1374,3293 2276,3293 2276,3068 1374,3068"/>
        <polygon class="pen2 brush1" points="1374,3293 2276,3293 2276,3068 1374,3068 1374,3293"/>
        <text class="font1" fill="rgb(0,0,0)" stroke="none" style="dominant-baseline: alphabetic;" x="1432 1487 1571 1627 1682 1737" xml:lang="en" xml:space="preserve" y="3210">amount</text>
        <polygon class="pen1 brush0" points="1374,75 1374,416 2276,416 2276,75 1374,75"/>
        <polygon class="pen2 brush1" points="1374,416 2276,416 2276,75 1374,75 1374,416"/>
        <text class="font1" fill="rgb(0,0,0)" stroke="none" style="dominant-baseline: alphabetic;" x="1699 1766 1821 1844 1899" xml:lang="en" xml:space="preserve" y="216">Sales</text>
        <text class="font1" fill="rgb(0,0,0)" stroke="none" style="dominant-baseline: alphabetic;" x="1632 1688 1710 1766 1821 1849 1877 1933" xml:lang="en" xml:space="preserve" y="336">LineItem</text>
        <polygon class="pen1 brush0" points="1374,416 1374,642 2276,642 2276,416 1374,416"/>
        <polygon class="pen2 brush1" points="1374,642 2276,642 2276,416 1374,416 1374,642"/>
        <text class="font1" fill="rgb(0,0,0)" stroke="none" style="dominant-baseline: alphabetic;" x="1432 1487 1543 1598 1654 1682 1704 1733" xml:lang="en" xml:space="preserve" y="559">quantity</text>
        <polyline class="pen2" fill="none" points="4007,584 4007,1483"/>
        <text class="font1" fill="rgb(0,0,0)" stroke="none" style="dominant-baseline: alphabetic;" x="3454 3520 3549 3604 3654 3704 3759" xml:lang="en" xml:space="preserve" y="1012">Stocked</text>
        <text class="font1" fill="rgb(0,0,0)" stroke="none" style="dominant-baseline: alphabetic;" x="3816" xml:lang="en" xml:space="preserve" y="1012">-</text>
        <text class="font1" fill="rgb(0,0,0)" stroke="none" style="dominant-baseline: alphabetic;" x="3849 3872" xml:lang="en" xml:space="preserve" y="1012">in</text>
        <text class="font3" fill="rgb(0,0,0)" stroke="none" style="dominant-baseline: alphabetic;" x="4199" xml:lang="en" xml:space="preserve" y="750">*</text>
        <polyline class="pen2" fill="none" points="4007,2608 4007,2049"/>
        <text class="font1" fill="rgb(0,0,0)" stroke="none" style="dominant-baseline: alphabetic;" x="4151 4223 4279 4334 4384 4439" xml:lang="en" xml:space="preserve" y="2304">Houses</text>
        <text class="font1" fill="rgb(0,0,0)" stroke="none" style="dominant-baseline: alphabetic;" x="4151" xml:lang="en" xml:space="preserve" y="2532">1</text>
        <text class="font1" fill="rgb(0,0,0)" stroke="none" style="dominant-baseline: alphabetic;" x="4207 4235" xml:lang="en" xml:space="preserve" y="2532">..</text>
        <text class="font4" fill="rgb(0,0,0)" stroke="none" style="dominant-baseline: alphabetic;" x="4263" xml:lang="en" xml:space="preserve" y="2532">*</text>
        <polyline class="pen2" fill="none" points="1825,1483 1825,642"/>
        <text class="font1" fill="rgb(0,0,0)" stroke="none" style="dominant-baseline: alphabetic;" x="1214 1286 1342 1397 1425 1481 1503 1559 1614" xml:lang="en" xml:space="preserve" y="1132">Contained</text>
        <text class="font1" fill="rgb(0,0,0)" stroke="none" style="dominant-baseline: alphabetic;" x="1672" xml:lang="en" xml:space="preserve" y="1132">-</text>
        <text class="font1" fill="rgb(0,0,0)" stroke="none" style="dominant-baseline: alphabetic;" x="1704 1727" xml:lang="en" xml:space="preserve" y="1132">in</text>
        <text class="font1" fill="rgb(0,0,0)" stroke="none" style="dominant-baseline: alphabetic;" x="1837" xml:lang="en" xml:space="preserve" y="791">1</text>
        <text class="font1" fill="rgb(0,0,0)" stroke="none" style="dominant-baseline: alphabetic;" x="1892 1921" xml:lang="en" xml:space="preserve" y="791">..</text>
        <text class="font4" fill="rgb(0,0,0)" stroke="none" style="dominant-baseline: alphabetic;" x="1948" xml:lang="en" xml:space="preserve" y="791">*</text>
        <polyline class="pen2" fill="none" points="2276,359 3556,359"/>
        <text class="font1" fill="rgb(0,0,0)" stroke="none" style="dominant-baseline: alphabetic;" x="2562 2635 2690 2740 2795 2829 2884" xml:lang="en" xml:space="preserve" y="338">Records</text>
        <text class="font1" fill="rgb(0,0,0)" stroke="none" style="dominant-baseline: alphabetic;" x="2935" xml:lang="en" xml:space="preserve" y="338">-</text>
        <text class="font1" fill="rgb(0,0,0)" stroke="none" style="dominant-baseline: alphabetic;" x="2969 3019 3074 3097" xml:lang="en" xml:space="preserve" y="338">sale</text>
        <text class="font1" fill="rgb(0,0,0)" stroke="none" style="dominant-baseline: alphabetic;" x="3152" xml:lang="en" xml:space="preserve" y="338">-</text>
        <text class="font1" fill="rgb(0,0,0)" stroke="none" style="dominant-baseline: alphabetic;" x="3186 3241 3270" xml:lang="en" xml:space="preserve" y="338">of </text>
        <text class="font1" fill="rgb(0,0,0)" stroke="none" style="dominant-baseline: alphabetic;" x="2311" xml:lang="en" xml:space="preserve" y="530">0</text>
        <text class="font1" fill="rgb(0,0,0)" stroke="none" style="dominant-baseline: alphabetic;" x="2367 2395" xml:lang="en" xml:space="preserve" y="530">..</text>
        <text class="font1" fill="rgb(0,0,0)" stroke="none" style="dominant-baseline: alphabetic;" x="2423" xml:lang="en" xml:space="preserve" y="530">1</text>
        <polyline class="pen2" fill="none" points="1825,2842 1825,2049"/>
        <text class="font1" fill="rgb(0,0,0)" stroke="none" style="dominant-baseline: alphabetic;" x="1429 1496 1551 1574" xml:lang="en" xml:space="preserve" y="2494">Paid</text>
        <text class="font1" fill="rgb(0,0,0)" stroke="none" style="dominant-baseline: alphabetic;" x="1629" xml:lang="en" xml:space="preserve" y="2494">-</text>
        <text class="font1" fill="rgb(0,0,0)" stroke="none" style="dominant-baseline: alphabetic;" x="1663 1719" xml:lang="en" xml:space="preserve" y="2494">by</text>
        <text class="font1" fill="rgb(0,0,0)" stroke="none" style="dominant-baseline: alphabetic;" x="4205" xml:lang="en" xml:space="preserve" y="2135">1</text>
        <text class="font1" fill="rgb(0,0,0)" stroke="none" style="dominant-baseline: alphabetic;" x="4203" xml:lang="en" xml:space="preserve" y="1403">1</text>
        <text class="font1" fill="rgb(0,0,0)" stroke="none" style="dominant-baseline: alphabetic;" x="3416" xml:lang="en" xml:space="preserve" y="502">1</text>
        <text class="font1" fill="rgb(0,0,0)" stroke="none" style="dominant-baseline: alphabetic;" x="1704" xml:lang="en" xml:space="preserve" y="2760">1</text>
        <text class="font1" fill="rgb(0,0,0)" stroke="none" style="dominant-baseline: alphabetic;" x="1704" xml:lang="en" xml:space="preserve" y="2192">1</text>
        <text class="font1" fill="rgb(0,0,0)" stroke="none" style="dominant-baseline: alphabetic;" x="1889" xml:lang="en" xml:space="preserve" y="1411">1</text>
        <text class="font1" fill="rgb(0,0,0)" stroke="none" style="dominant-baseline: alphabetic;" x="2355" xml:lang="en" xml:space="preserve" y="2008">0</text>
        <text class="font1" fill="rgb(0,0,0)" stroke="none" style="dominant-baseline: alphabetic;" x="2411 2439" xml:lang="en" xml:space="preserve" y="2008">..</text>
        <text class="font1" fill="rgb(0,0,0)" stroke="none" style="dominant-baseline: alphabetic;" x="2466" xml:lang="en" xml:space="preserve" y="2008">1</text>
        <text class="font1" fill="rgb(0,0,0)" stroke="none" style="dominant-baseline: alphabetic;" x="3431" xml:lang="en" xml:space="preserve" y="3066">1</text>
        <polyline class="pen2" fill="none" points="2276,1765 2614,1765 2614,2950 3556,2950"/>
        <text class="font1" fill="rgb(0,0,0)" stroke="none" style="dominant-baseline: alphabetic;" x="2667 2740 2795 2851 2879 2934 2968 3023" xml:lang="en" xml:space="preserve" y="2867">Captured</text>
        <text class="font1" fill="rgb(0,0,0)" stroke="none" style="dominant-baseline: alphabetic;" x="3080" xml:lang="en" xml:space="preserve" y="2867">-</text>
        <text class="font1" fill="rgb(0,0,0)" stroke="none" style="dominant-baseline: alphabetic;" x="3113 3168 3224" xml:lang="en" xml:space="preserve" y="2867">on </text>
        <text class="font5" fill="rgb(0,0,0)" stroke="none" style="dominant-baseline: alphabetic;" x="3253" xml:lang="en" xml:space="preserve" y="2867">4</text>
        <polygon class="pen1 brush0" points="21,21 21,598 810,598 810,21 21,21"/>
        <polygon class="pen2 brush1" points="21,598 810,598 810,21 21,21 21,598"/>
        <text class="font1" fill="rgb(0,0,0)" stroke="none" style="dominant-baseline: alphabetic;" x="71 121 176 231 281 337 392" xml:lang="en" xml:space="preserve" y="219">concept</text>
        <text class="font1" fill="rgb(0,0,0)" stroke="none" style="dominant-baseline: alphabetic;" x="71 126 160 188 244 299 383 438 461 516" xml:lang="en" xml:space="preserve" y="339">or domain </text>
        <text class="font1" fill="rgb(0,0,0)" stroke="none" style="dominant-baseline: alphabetic;" x="71 126 182 204 260 309" xml:lang="en" xml:space="preserve" y="459">object</text>
        <polygon class="pen1 brush0" points="683,21 810,147 810,21 683,21"/>
        <polygon class="pen3 brush1" points="683,21 810,147 810,21 683,21"/>
        <polygon class="pen1 brush2" points="810,147 683,21 683,147 810,147"/>
        <polygon class="pen2 brush1" points="810,147 683,21 683,147 810,147"/>
        <path class="pen0 brush2" d="M 810,308  L 810,308 810,308 811,308 811,309 811,310 810,311 810,311 810,311 809,310 808,309 808,309 808,308 810,308 810,308 z M 825,307  L 825,307 826,308 826,309 826,310 825,310 825,310 825,310 824,310 824,310 823,309 823,308 823,308 825,307 825,307 z M 840,307  L 840,307 840,307 841,307 841,308 841,310 840,310 840,310 840,310 839,310 839,310 838,309 838,308 838,307 839,307 840,307 840,307 z M 855,307  L 855,307 855,307 856,307 856,307 856,308 856,309 855,310 855,310 855,310 854,309 853,308 853,308 853,307 855,307 855,307 z M 870,306  L 870,306 871,307 871,307 871,308 871,309 870,309 870,309 870,309 869,309 869,309 868,308 868,307 868,307 870,306 870,306 z M 885,306  L 885,306 885,306 886,306 886,307 886,307 886,309 885,309 885,309 885,309 884,309 884,309 883,308 883,307 883,306 884,306 885,306 885,306 z M 900,306  L 900,306 900,306 901,306 901,306 901,307 901,308 900,309 900,309 900,309 899,308 898,307 898,307 898,306 900,306 900,306 z M 915,305  L 915,305 916,306 916,306 916,307 916,308 915,308 915,308 915,308 914,308 914,308 913,307 913,306 913,306 915,305 915,305 z M 930,305  L 930,305 930,305 931,305 931,306 931,306 931,308 930,308 930,308 930,308 929,308 929,308 928,307 928,306 928,305 929,305 930,305 930,305 z M 945,305  L 945,305 945,305 946,305 946,305 946,306 946,307 945,308 945,308 945,308 944,307 944,306 944,306 944,305 945,305 945,305 z M 960,305  L 960,305 961,305 961,305 961,306 961,307 960,307 960,307 960,307 959,307 959,307 959,306 959,305 959,305 960,305 960,305 z M 975,305  L 975,305 975,305 976,305 976,305 976,305 976,307 975,307 975,307 975,307 975,307 975,307 974,306 974,305 974,305 975,305 975,305 975,305 z M 990,305  L 990,305 990,305 991,305 991,305 991,305 991,306 990,307 990,307 990,307 990,306 989,305 989,305 989,305 990,305 990,305 z M 1006,304  L 1006,304 1006,305 1006,305 1006,305 1006,306 1006,306 1006,306 1006,306 1005,306 1005,306 1004,305 1004,305 1004,305 1006,304 1006,304 z M 1021,304  L 1021,304 1021,304 1021,304 1021,305 1021,305 1021,306 1021,306 1021,306 1021,306 1020,306 1020,306 1019,305 1019,305 1019,304 1020,304 1021,304 1021,304 z M 1036,304  L 1036,304 1036,304 1037,304 1037,304 1037,305 1037,305 1036,306 1036,306 1036,306 1035,305 1034,305 1034,305 1034,304 1036,304 1036,304 z M 1051,303  L 1051,303 1052,304 1052,304 1052,305 1052,305 1051,305 1051,305 1051,305 1050,305 1050,305 1049,305 1049,304 1049,304 1051,303 1051,303 z M 1066,303  L 1066,303 1066,303 1067,303 1067,304 1067,304 1067,305 1066,305 1066,305 1066,305 1065,305 1065,305 1064,305 1064,304 1064,303 1065,303 1066,303 1066,303 z M 1081,303  L 1081,303 1081,303 1082,303 1082,303 1082,304 1082,305 1081,305 1081,305 1081,305 1080,305 1079,304 1079,304 1079,303 1081,303 1081,303 z M 1096,302  L 1096,302 1097,303 1097,303 1097,304 1097,305 1096,305 1096,305 1096,305 1095,305 1095,305 1094,304 1094,303 1094,303 1096,302 1096,302 z M 1111,302  L 1111,302 1111,302 1112,302 1112,303 1112,303 1112,305 1111,305 1111,305 1111,305 1110,305 1110,305 1109,304 1109,303 1109,302 1110,302 1111,302 1111,302 z" fill-rule="nonzero"/>
        <polyline class="pen2" fill="none" points="1122,303 1122,300 1123,298 1123,295 1124,292 1126,289 1130,285 1133,281 1137,278 1140,278 1143,277 1145,276 1147,276 1150,276 1153,277 1155,277 1158,278 1162,280 1166,284 1169,288 1172,291 1173,294 1174,297 1174,299 1174,302 1174,302 1174,305 1174,307 1173,309 1172,312 1170,317 1167,320 1163,323 1159,326 1156,327 1154,328 1151,328 1148,328 1146,328 1144,328 1141,327 1138,326 1134,324 1130,321 1127,318 1124,313 1124,310 1123,308 1122,305 1122,303"/>
        <polygon class="pen1 brush0" points="21,965 21,1218 810,1218 810,965 21,965"/>
        <polygon class="pen2 brush1" points="21,1218 810,1218 810,965 21,965 21,1218"/>
        <text class="font1" fill="rgb(0,0,0)" stroke="none" style="dominant-baseline: alphabetic;" x="71 126 176 226 281 331 354 409 437 460 515" xml:lang="en" xml:space="preserve" y="1104">association</text>
        <polygon class="pen1 brush0" points="683,965 810,1090 810,965 683,965"/>
        <polygon class="pen3 brush1" points="683,965 810,1090 810,965 683,965"/>
        <polygon class="pen1 brush2" points="810,1090 683,965 683,1090 810,1090"/>
        <polygon class="pen2 brush1" points="810,1090 683,965 683,1090 810,1090"/>
        <path class="pen0 brush2" d="M 810,1089  L 810,1089 810,1089 811,1090 811,1090 811,1091 811,1091 811,1092 810,1092 810,1092 810,1092 809,1092 809,1092 808,1091 808,1091 808,1090 809,1090 809,1089 810,1089 810,1089 z M 825,1089  L 825,1089 825,1089 826,1090 826,1090 826,1091 826,1091 826,1092 825,1092 825,1092 825,1092 824,1092 824,1092 823,1091 824,1090 824,1089 825,1089 825,1089 z M 840,1089  L 840,1089 840,1089 841,1090 841,1090 841,1091 841,1091 841,1092 840,1092 840,1092 840,1092 839,1092 839,1092 838,1091 839,1090 839,1089 840,1089 840,1089 z M 855,1089  L 855,1089 855,1089 856,1090 856,1090 856,1091 856,1091 856,1092 855,1092 855,1092 855,1092 854,1092 854,1092 853,1091 854,1090 854,1089 855,1089 855,1089 z M 870,1089  L 870,1089 870,1089 871,1090 871,1090 871,1091 871,1091 871,1092 870,1092 870,1092 870,1092 869,1092 869,1092 868,1091 869,1090 869,1089 870,1089 870,1089 z M 885,1089  L 885,1089 885,1089 886,1090 886,1091 886,1092 885,1092 885,1092 885,1092 884,1092 884,1092 883,1091 884,1090 884,1089 885,1089 885,1089 z M 900,1089  L 900,1089 900,1089 901,1090 901,1091 901,1092 900,1092 900,1092 900,1092 899,1092 899,1092 898,1091 899,1090 899,1089 900,1089 900,1089 z M 915,1089  L 915,1089 915,1089 916,1090 916,1091 916,1092 915,1092 915,1092 915,1092 914,1092 914,1092 913,1091 914,1090 914,1089 915,1089 915,1089 z M 930,1089  L 930,1089 930,1089 931,1090 931,1091 931,1092 930,1092 930,1092 930,1092 929,1092 929,1092 928,1091 929,1090 929,1089 930,1089 930,1089 z M 945,1089  L 945,1089 945,1089 946,1090 946,1091 946,1092 945,1092 945,1092 945,1092 944,1092 944,1092 944,1091 944,1090 944,1089 945,1089 945,1089 z M 960,1089  L 960,1089 960,1089 961,1090 961,1091 961,1092 960,1092 960,1092 960,1092 959,1092 959,1092 959,1091 959,1090 959,1089 960,1089 960,1089 z M 975,1089  L 975,1089 975,1089 976,1090 976,1091 976,1092 975,1092 975,1092 975,1092 975,1092 975,1092 974,1091 975,1090 975,1089 975,1089 975,1089 z M 990,1089  L 990,1089 990,1089 991,1090 991,1091 991,1092 990,1092 990,1092 990,1092 990,1092 990,1092 989,1091 989,1091 989,1090 990,1090 990,1089 990,1089 990,1089 z M 1006,1089  L 1006,1089 1006,1089 1006,1090 1006,1091 1006,1092 1006,1092 1006,1092 1006,1092 1005,1092 1005,1092 1004,1091 1004,1091 1004,1090 1005,1090 1005,1089 1006,1089 1006,1089 z M 1021,1089  L 1021,1089 1021,1089 1021,1090 1021,1091 1021,1092 1021,1092 1021,1092 1021,1092 1020,1092 1020,1092 1019,1091 1019,1091 1019,1090 1020,1090 1020,1089 1021,1089 1021,1089 z M 1036,1089  L 1036,1089 1036,1089 1037,1090 1037,1091 1037,1092 1036,1092 1036,1092 1036,1092 1035,1092 1035,1092 1034,1091 1034,1091 1034,1090 1035,1090 1035,1089 1036,1089 1036,1089 z M 1051,1089  L 1051,1089 1051,1089 1052,1090 1052,1090 1052,1091 1052,1091 1052,1092 1051,1092 1051,1092 1051,1092 1050,1092 1050,1092 1049,1091 1049,1091 1049,1090 1050,1090 1050,1089 1051,1089 1051,1089 z M 1066,1089  L 1066,1089 1066,1089 1067,1090 1067,1090 1067,1091 1067,1091 1067,1092 1066,1092 1066,1092 1066,1092 1065,1092 1065,1092 1064,1091 1064,1091 1064,1090 1065,1090 1065,1089 1066,1089 1066,1089 z M 1081,1089  L 1081,1089 1081,1089 1082,1090 1082,1090 1082,1091 1082,1091 1082,1092 1081,1092 1081,1092 1081,1092 1080,1092 1080,1092 1079,1091 1079,1091 1079,1090 1080,1090 1080,1089 1081,1089 1081,1089 z" fill-rule="nonzero"/>
        <polyline class="pen2" fill="none" points="1094,1091 1094,1093 1095,1096 1095,1099 1096,1101 1099,1105 1101,1109 1105,1113 1110,1115 1112,1116 1114,1117 1117,1117 1120,1117 1122,1117 1125,1117 1128,1116 1130,1115 1134,1113 1138,1109 1142,1105 1144,1101 1145,1099 1146,1096 1146,1093 1146,1091 1146,1091 1146,1089 1146,1086 1145,1083 1144,1081 1142,1076 1138,1073 1134,1070 1130,1067 1128,1066 1125,1066 1122,1065 1120,1065 1117,1065 1114,1066 1112,1066 1110,1067 1105,1070 1101,1073 1099,1076 1096,1081 1095,1083 1095,1086 1094,1089 1094,1091"/>
        <polygon class="pen1 brush0" points="21,1697 21,1950 810,1950 810,1697 21,1697"/>
        <polygon class="pen2 brush1" points="21,1950 810,1950 810,1697 21,1697 21,1950"/>
        <text class="font1" fill="rgb(0,0,0)" stroke="none" style="dominant-baseline: alphabetic;" x="71 126 154 183 216 239 294 350 378 433" xml:lang="en" xml:space="preserve" y="1837">attributes</text>
        <polygon class="pen1 brush0" points="683,1697 810,1823 810,1697 683,1697"/>
        <polygon class="pen3 brush1" points="683,1697 810,1823 810,1697 683,1697"/>
        <polygon class="pen1 brush2" points="810,1823 683,1697 683,1823 810,1823"/>
        <polygon class="pen2 brush1" points="810,1823 683,1697 683,1823 810,1823"/>
        <path class="pen0 brush2" d="M 810,1822  L 810,1822 810,1822 811,1823 811,1823 811,1824 811,1824 811,1825 810,1825 810,1825 810,1825 809,1825 809,1825 808,1824 808,1824 808,1823 809,1823 809,1822 810,1822 810,1822 z M 825,1822  L 825,1822 825,1822 826,1823 826,1823 826,1824 826,1824 826,1825 825,1825 825,1825 825,1825 824,1825 824,1825 823,1824 824,1823 824,1822 825,1822 825,1822 z M 840,1822  L 840,1822 840,1822 841,1823 841,1823 841,1824 841,1824 841,1825 840,1825 840,1825 840,1825 839,1825 839,1825 838,1824 839,1823 839,1822 840,1822 840,1822 z M 855,1822  L 855,1822 855,1822 856,1823 856,1823 856,1824 856,1824 856,1825 855,1825 855,1825 855,1825 854,1825 854,1825 853,1824 854,1823 854,1822 855,1822 855,1822 z M 870,1822  L 870,1822 870,1822 871,1823 871,1823 871,1824 871,1824 871,1825 870,1825 870,1825 870,1825 869,1825 869,1825 868,1824 869,1823 869,1822 870,1822 870,1822 z M 885,1822  L 885,1822 885,1822 886,1823 886,1824 886,1825 885,1825 885,1825 885,1825 884,1825 884,1825 883,1824 884,1823 884,1822 885,1822 885,1822 z M 900,1822  L 900,1822 900,1822 901,1823 901,1824 901,1825 900,1825 900,1825 900,1825 899,1825 899,1825 898,1824 899,1823 899,1822 900,1822 900,1822 z M 915,1822  L 915,1822 915,1822 916,1823 916,1824 916,1825 915,1825 915,1825 915,1825 914,1825 914,1825 913,1824 914,1823 914,1822 915,1822 915,1822 z M 930,1822  L 930,1822 930,1822 931,1823 931,1824 931,1825 930,1825 930,1825 930,1825 929,1825 929,1825 928,1824 929,1823 929,1822 930,1822 930,1822 z M 945,1822  L 945,1822 945,1822 946,1823 946,1824 946,1825 945,1825 945,1825 945,1825 944,1825 944,1825 944,1824 944,1823 944,1822 945,1822 945,1822 z M 960,1822  L 960,1822 960,1822 961,1823 961,1824 961,1825 960,1825 960,1825 960,1825 959,1825 959,1825 959,1824 959,1823 959,1822 960,1822 960,1822 z M 975,1822  L 975,1822 975,1822 976,1823 976,1824 976,1825 975,1825 975,1825 975,1825 975,1825 975,1825 974,1824 975,1823 975,1822 975,1822 975,1822 z M 990,1822  L 990,1822 990,1822 991,1823 991,1824 991,1825 990,1825 990,1825 990,1825 990,1825 990,1825 989,1824 989,1824 989,1823 990,1823 990,1822 990,1822 990,1822 z M 1006,1822  L 1006,1822 1006,1822 1006,1823 1006,1824 1006,1825 1006,1825 1006,1825 1006,1825 1005,1825 1005,1825 1004,1824 1004,1824 1004,1823 1005,1823 1005,1822 1006,1822 1006,1822 z M 1021,1822  L 1021,1822 1021,1822 1021,1823 1021,1824 1021,1825 1021,1825 1021,1825 1021,1825 1020,1825 1020,1825 1019,1824 1019,1824 1019,1823 1020,1823 1020,1822 1021,1822 1021,1822 z M 1036,1822  L 1036,1822 1036,1822 1037,1823 1037,1824 1037,1825 1036,1825 1036,1825 1036,1825 1035,1825 1035,1825 1034,1824 1034,1824 1034,1823 1035,1823 1035,1822 1036,1822 1036,1822 z M 1051,1822  L 1051,1822 1051,1822 1052,1823 1052,1823 1052,1824 1052,1824 1052,1825 1051,1825 1051,1825 1051,1825 1050,1825 1050,1825 1049,1824 1049,1824 1049,1823 1050,1823 1050,1822 1051,1822 1051,1822 z M 1066,1822  L 1066,1822 1066,1822 1067,1823 1067,1823 1067,1824 1067,1824 1067,1825 1066,1825 1066,1825 1066,1825 1065,1825 1065,1825 1064,1824 1064,1824 1064,1823 1065,1823 1065,1822 1066,1822 1066,1822 z M 1081,1822  L 1081,1822 1081,1822 1082,1823 1082,1823 1082,1824 1082,1824 1082,1825 1081,1825 1081,1825 1081,1825 1080,1825 1080,1825 1079,1824 1079,1824 1079,1823 1080,1823 1080,1822 1081,1822 1081,1822 z M 1096,1822  L 1096,1822 1096,1822 1097,1823 1097,1823 1097,1824 1097,1824 1097,1825 1096,1825 1096,1825 1096,1825 1095,1825 1095,1825 1094,1824 1094,1824 1094,1823 1095,1823 1095,1822 1096,1822 1096,1822 z M 1111,1822  L 1111,1822 1111,1822 1112,1823 1112,1823 1112,1824 1112,1824 1112,1825 1111,1825 1111,1825 1111,1825 1110,1825 1110,1825 1109,1824 1109,1824 1109,1823 1110,1823 1110,1822 1111,1822 1111,1822 z M 1126,1822  L 1126,1822 1126,1822 1127,1823 1127,1823 1127,1824 1127,1824 1127,1825 1126,1825 1126,1825 1126,1825 1125,1825 1125,1825 1124,1824 1124,1824 1124,1823 1125,1823 1125,1822 1126,1822 1126,1822 z M 1141,1822  L 1141,1822 1141,1822 1142,1823 1142,1823 1142,1824 1142,1824 1142,1825 1141,1825 1141,1825 1141,1825 1140,1825 1140,1825 1139,1824 1139,1824 1139,1823 1140,1823 1140,1822 1141,1822 1141,1822 z M 1156,1822  L 1156,1822 1156,1822 1157,1823 1157,1823 1157,1824 1157,1824 1157,1825 1156,1825 1156,1825 1156,1825 1155,1825 1155,1825 1154,1824 1154,1824 1154,1823 1155,1823 1155,1822 1156,1822 1156,1822 z M 1171,1822  L 1171,1822 1171,1822 1172,1823 1172,1823 1172,1824 1172,1824 1172,1825 1171,1825 1171,1825 1171,1825 1170,1825 1170,1825 1169,1824 1169,1824 1169,1823 1170,1823 1170,1822 1171,1822 1171,1822 z M 1186,1822  L 1186,1822 1186,1822 1187,1823 1187,1823 1187,1824 1187,1824 1187,1825 1186,1825 1186,1825 1186,1825 1185,1825 1185,1825 1184,1824 1184,1824 1184,1823 1185,1823 1185,1822 1186,1822 1186,1822 z M 1201,1822  L 1201,1822 1201,1822 1202,1823 1202,1823 1202,1824 1202,1824 1202,1825 1201,1825 1201,1825 1201,1825 1200,1825 1200,1825 1199,1824 1199,1824 1199,1823 1200,1823 1200,1822 1201,1822 1201,1822 z M 1216,1822  L 1216,1822 1216,1822 1217,1823 1217,1823 1217,1824 1217,1824 1217,1825 1216,1825 1216,1825 1216,1825 1215,1825 1215,1825 1214,1824 1214,1824 1214,1823 1215,1823 1215,1822 1216,1822 1216,1822 z M 1231,1822  L 1231,1822 1231,1822 1232,1823 1232,1823 1232,1824 1232,1824 1232,1825 1231,1825 1231,1825 1231,1825 1230,1825 1230,1825 1229,1824 1229,1824 1229,1823 1230,1823 1230,1822 1231,1822 1231,1822 z M 1246,1822  L 1246,1822 1246,1822 1247,1823 1247,1823 1247,1824 1247,1824 1247,1825 1246,1825 1246,1825 1246,1825 1245,1825 1245,1825 1244,1824 1244,1824 1244,1823 1245,1823 1245,1822 1246,1822 1246,1822 z M 1261,1822  L 1261,1822 1261,1822 1262,1823 1262,1823 1262,1824 1262,1824 1262,1825 1261,1825 1261,1825 1261,1825 1260,1825 1260,1825 1259,1824 1259,1824 1259,1823 1260,1823 1260,1822 1261,1822 1261,1822 z M 1276,1822  L 1276,1822 1276,1822 1277,1823 1277,1823 1277,1824 1277,1824 1277,1825 1276,1825 1276,1825 1276,1825 1275,1825 1275,1825 1274,1824 1274,1824 1274,1823 1275,1823 1275,1822 1276,1822 1276,1822 z M 1291,1822  L 1291,1822 1291,1822 1292,1823 1292,1823 1292,1824 1292,1824 1292,1825 1291,1825 1291,1825 1291,1825 1290,1825 1290,1825 1289,1824 1289,1824 1289,1823 1290,1823 1290,1822 1291,1822 1291,1822 z" fill-rule="nonzero"/>
        <polyline class="pen2" fill="none" points="1291,1824 1291,1826 1292,1828 1292,1831 1293,1833 1296,1838 1299,1842 1302,1845 1307,1847 1309,1848 1312,1849 1315,1849 1317,1849 1319,1849 1322,1849 1325,1848 1327,1847 1332,1845 1335,1842 1339,1838 1341,1833 1342,1831 1343,1828 1343,1826 1343,1824 1343,1824 1343,1821 1343,1818 1342,1815 1341,1813 1339,1809 1335,1805 1332,1802 1327,1799 1325,1798 1322,1798 1319,1797 1317,1797 1315,1797 1312,1798 1309,1798 1307,1799 1302,1802 1299,1805 1296,1809 1293,1813 1292,1815 1292,1818 1291,1821 1291,1824"/>
    </g>
    <g/>
</svg>
