<svg xmlns="http://www.w3.org/2000/svg" fill="none" stroke-linecap="square" stroke-miterlimit="10" x="0px" y="0px" viewBox="0 0 100 125"><path fill="#000" d="M55.163 1.642V7.03c1.747.026 3.15.494 4.21 1.403 1.059.91 1.588 2.173 1.588 3.791 0 .903-.204 1.89-.614 2.963a256.572 256.572 0 0 1-1.345 3.391 49.099 49.099 0 0 0-1.344 3.684 12.273 12.273 0 0 0-.624 3.85c0 1.002.12 1.927.336 2.792h6.252c-.672-.845-1.014-1.91-1.014-3.202 0-.896.208-1.88.624-2.953.41-1.078.858-2.209 1.345-3.391a43.92 43.92 0 0 0 1.325-3.684c.397-1.273.595-2.56.595-3.86 0-1.597-.273-3.03-.819-4.297-.552-1.273-1.325-2.339-2.32-3.196-1-.864-2.199-1.527-3.595-1.988-1.397-.462-2.93-.692-4.6-.692zm14.969 0V7.03c1.747.026 3.15.494 4.21 1.403 1.059.91 1.588 2.173 1.588 3.791 0 .903-.204 1.89-.614 2.963a256.573 256.573 0 0 1-1.345 3.391 49.1 49.1 0 0 0-1.344 3.684 12.273 12.273 0 0 0-.624 3.85c0 1.002.12 1.927.336 2.792h6.252c-.672-.845-1.014-1.91-1.014-3.202 0-.896.208-1.88.624-2.953.41-1.078.858-2.209 1.345-3.391.487-1.183.929-2.41 1.325-3.684.397-1.273.595-2.56.595-3.86 0-1.597-.273-3.03-.819-4.297-.552-1.273-1.325-2.339-2.32-3.196-1-.864-2.199-1.527-3.595-1.988-1.397-.462-2.93-.692-4.6-.692zm-29.938.002v5.39c1.747.025 3.15.493 4.21 1.403 1.059.91 1.588 2.173 1.588 3.79 0 .904-.204 1.891-.614 2.963a256.575 256.575 0 0 1-1.345 3.392 49.102 49.102 0 0 0-1.344 3.683 12.273 12.273 0 0 0-.624 3.85c0 1.002.12 1.926.335 2.79h6.25c-.67-.845-1.01-1.908-1.01-3.2 0-.896.207-1.88.623-2.952.41-1.079.858-2.21 1.345-3.392s.929-2.41 1.325-3.683c.396-1.274.595-2.56.595-3.86 0-1.598-.273-3.03-.819-4.297-.552-1.274-1.325-2.34-2.32-3.197-1-.864-2.199-1.527-3.595-1.988-1.397-.461-2.93-.692-4.6-.692zm-4.16 32.26a2.495 2.495 0 0 0-2.494 2.495v7.486H19.207a5.864 5.864 0 0 0-5.86 5.86v19.167a2.495 2.495 0 0 0 2.494 2.495H33.54v24.435a2.495 2.495 0 0 0 2.495 2.495h39.174a10.333 10.333 0 0 0 10.33-10.33V36.4a2.495 2.495 0 0 0-2.495-2.495zm2.496 4.99h42.02v49.113a5.338 5.338 0 0 1-5.34 5.34H38.53V46.38zm-19.323 9.98H33.54v17.543H18.336V49.745a.868.868 0 0 1 .87-.87zm47.103 6.397c-2.554.037-5.273 1.551-6.77 5.013-1.498-3.462-4.217-4.975-6.771-5.012-6.528-.094-11.981 9.463 6.77 20.836 18.753-11.373 13.3-20.93 6.771-20.837z"/><text x="0" y="115" fill="#000000" font-size="5px" font-weight="bold" font-family="'Helvetica Neue', Helvetica, Arial-Unicode, Arial, Sans-serif">Created by Swen-Peter Ekkebus</text><text x="0" y="120" fill="#000000" font-size="5px" font-weight="bold" font-family="'Helvetica Neue', Helvetica, Arial-Unicode, Arial, Sans-serif">from the Noun Project</text></svg>