<?xml version="1.0" encoding="UTF-8" standalone="no"?><svg xmlns="http://www.w3.org/2000/svg" xmlns:xlink="http://www.w3.org/1999/xlink" contentScriptType="application/ecmascript" contentStyleType="text/css" height="1133px" preserveAspectRatio="none" style="width:804px;height:1133px;" version="1.1" viewBox="0 0 804 1133" width="804px" zoomAndPan="magnify"><defs/><g><rect fill="#FFFFFF" height="191.9297" style="stroke:#000000;stroke-width:2.0;" width="681.5" x="10" y="581.4219"/><rect fill="#FFFFFF" height="191.9297" style="stroke:#000000;stroke-width:2.0;" width="686.5" x="101" y="917.8828"/><line style="stroke:#A80036;stroke-width:1.0;stroke-dasharray:5.0,5.0;" x1="60" x2="60" y1="84.2969" y2="1126.8125"/><line style="stroke:#A80036;stroke-width:1.0;stroke-dasharray:5.0,5.0;" x1="151" x2="151" y1="84.2969" y2="1126.8125"/><line style="stroke:#A80036;stroke-width:1.0;stroke-dasharray:5.0,5.0;" x1="446" x2="446" y1="84.2969" y2="1126.8125"/><line style="stroke:#A80036;stroke-width:1.0;stroke-dasharray:5.0,5.0;" x1="637.5" x2="637.5" y1="84.2969" y2="1126.8125"/><line style="stroke:#A80036;stroke-width:1.0;stroke-dasharray:5.0,5.0;" x1="734.5" x2="734.5" y1="84.2969" y2="1126.8125"/><text fill="#000000" font-family="sans-serif" font-size="14" lengthAdjust="spacing" textLength="75" x="20" y="80.9951">:Etudiant1</text><ellipse cx="60.5" cy="15" fill="#FEFECE" rx="8" ry="8" style="stroke:#A80036;stroke-width:2.0;"/><path d="M60.5,23 L60.5,50 M47.5,31 L73.5,31 M60.5,50 L47.5,65 M60.5,50 L73.5,65 " fill="none" style="stroke:#A80036;stroke-width:2.0;"/><text fill="#000000" font-family="sans-serif" font-size="14" lengthAdjust="spacing" textLength="74" x="111" y="80.9951">:Etudiant2</text><ellipse cx="151" cy="15" fill="#FEFECE" rx="8" ry="8" style="stroke:#A80036;stroke-width:2.0;"/><path d="M151,23 L151,50 M138,31 L164,31 M151,50 L138,65 M151,50 L164,65 " fill="none" style="stroke:#A80036;stroke-width:2.0;"/><rect fill="#FEFECE" height="30.2969" style="stroke:#A80036;stroke-width:1.5;" width="68" x="412" y="53"/><text fill="#000000" font-family="sans-serif" font-size="14" lengthAdjust="spacing" textLength="54" x="419" y="72.9951">:Master</text><rect fill="#FEFECE" height="30.2969" style="stroke:#A80036;stroke-width:1.5;" width="87" x="594.5" y="53"/><text fill="#000000" font-family="sans-serif" font-size="14" lengthAdjust="spacing" textLength="73" x="601.5" y="72.9951">:Branche1</text><rect fill="#FEFECE" height="30.2969" style="stroke:#A80036;stroke-width:1.5;" width="86" x="691.5" y="53"/><text fill="#000000" font-family="sans-serif" font-size="14" lengthAdjust="spacing" textLength="72" x="698.5" y="72.9951">:Branche2</text><polygon fill="#A80036" points="434,111.4297,444,115.4297,434,119.4297" style="stroke:#A80036;stroke-width:1.0;"/><line style="stroke:#A80036;stroke-width:1.0;" x1="60.5" x2="440" y1="115.4297" y2="115.4297"/><text fill="#000000" font-family="sans-serif" font-size="13" lengthAdjust="spacing" textLength="104" x="67.5" y="110.3638">git clone master</text><polygon fill="#A80036" points="434,140.5625,444,144.5625,434,148.5625" style="stroke:#A80036;stroke-width:1.0;"/><line style="stroke:#A80036;stroke-width:1.0;" x1="60.5" x2="440" y1="144.5625" y2="144.5625"/><text fill="#000000" font-family="sans-serif" font-size="13" lengthAdjust="spacing" textLength="159" x="67.5" y="139.4966">git checkout -b Branche1</text><line style="stroke:#A80036;stroke-width:1.0;" x1="636" x2="626" y1="173.6953" y2="169.6953"/><line style="stroke:#A80036;stroke-width:1.0;" x1="636" x2="626" y1="173.6953" y2="177.6953"/><line style="stroke:#A80036;stroke-width:1.0;stroke-dasharray:2.0,2.0;" x1="60.5" x2="637" y1="173.6953" y2="173.6953"/><text fill="#000000" font-family="sans-serif" font-size="13" lengthAdjust="spacing" textLength="80" x="67.5" y="168.6294">modify code</text><line style="stroke:#A80036;stroke-width:1.0;" x1="636" x2="626" y1="202.8281" y2="198.8281"/><line style="stroke:#A80036;stroke-width:1.0;" x1="636" x2="626" y1="202.8281" y2="206.8281"/><line style="stroke:#A80036;stroke-width:1.0;stroke-dasharray:2.0,2.0;" x1="60.5" x2="637" y1="202.8281" y2="202.8281"/><text fill="#000000" font-family="sans-serif" font-size="13" lengthAdjust="spacing" textLength="58" x="67.5" y="197.7622">npm test</text><line style="stroke:#A80036;stroke-width:1.0;" x1="636" x2="626" y1="231.9609" y2="227.9609"/><line style="stroke:#A80036;stroke-width:1.0;" x1="636" x2="626" y1="231.9609" y2="235.9609"/><line style="stroke:#A80036;stroke-width:1.0;stroke-dasharray:2.0,2.0;" x1="60.5" x2="637" y1="231.9609" y2="231.9609"/><text fill="#000000" font-family="sans-serif" font-size="13" lengthAdjust="spacing" textLength="271" x="67.5" y="226.895">git commit -am "code modifed because..."</text><line style="stroke:#A80036;stroke-width:1.0;" x1="636" x2="626" y1="261.0938" y2="257.0938"/><line style="stroke:#A80036;stroke-width:1.0;" x1="636" x2="626" y1="261.0938" y2="265.0938"/><line style="stroke:#A80036;stroke-width:1.0;stroke-dasharray:2.0,2.0;" x1="60.5" x2="637" y1="261.0938" y2="261.0938"/><text fill="#000000" font-family="sans-serif" font-size="13" lengthAdjust="spacing" textLength="51" x="67.5" y="256.0278">git push</text><polygon fill="#A80036" points="434,286.2266,444,290.2266,434,294.2266" style="stroke:#A80036;stroke-width:1.0;"/><line style="stroke:#A80036;stroke-width:1.0;" x1="151" x2="440" y1="290.2266" y2="290.2266"/><text fill="#000000" font-family="sans-serif" font-size="13" lengthAdjust="spacing" textLength="104" x="158" y="285.1606">git clone master</text><polygon fill="#A80036" points="434,315.3594,444,319.3594,434,323.3594" style="stroke:#A80036;stroke-width:1.0;"/><line style="stroke:#A80036;stroke-width:1.0;" x1="151" x2="440" y1="319.3594" y2="319.3594"/><text fill="#000000" font-family="sans-serif" font-size="13" lengthAdjust="spacing" textLength="159" x="158" y="314.2935">git checkout -b Branche2</text><line style="stroke:#A80036;stroke-width:1.0;" x1="732.5" x2="722.5" y1="348.4922" y2="344.4922"/><line style="stroke:#A80036;stroke-width:1.0;" x1="732.5" x2="722.5" y1="348.4922" y2="352.4922"/><line style="stroke:#A80036;stroke-width:1.0;stroke-dasharray:2.0,2.0;" x1="151" x2="733.5" y1="348.4922" y2="348.4922"/><text fill="#000000" font-family="sans-serif" font-size="13" lengthAdjust="spacing" textLength="80" x="158" y="343.4263">modify code</text><line style="stroke:#A80036;stroke-width:1.0;" x1="732.5" x2="722.5" y1="377.625" y2="373.625"/><line style="stroke:#A80036;stroke-width:1.0;" x1="732.5" x2="722.5" y1="377.625" y2="381.625"/><line style="stroke:#A80036;stroke-width:1.0;stroke-dasharray:2.0,2.0;" x1="151" x2="733.5" y1="377.625" y2="377.625"/><text fill="#000000" font-family="sans-serif" font-size="13" lengthAdjust="spacing" textLength="58" x="158" y="372.5591">npm test</text><line style="stroke:#A80036;stroke-width:1.0;" x1="732.5" x2="722.5" y1="406.7578" y2="402.7578"/><line style="stroke:#A80036;stroke-width:1.0;" x1="732.5" x2="722.5" y1="406.7578" y2="410.7578"/><line style="stroke:#A80036;stroke-width:1.0;stroke-dasharray:2.0,2.0;" x1="151" x2="733.5" y1="406.7578" y2="406.7578"/><text fill="#000000" font-family="sans-serif" font-size="13" lengthAdjust="spacing" textLength="271" x="158" y="401.6919">git commit -am "code modifed because..."</text><line style="stroke:#A80036;stroke-width:1.0;" x1="732.5" x2="722.5" y1="435.8906" y2="431.8906"/><line style="stroke:#A80036;stroke-width:1.0;" x1="732.5" x2="722.5" y1="435.8906" y2="439.8906"/><line style="stroke:#A80036;stroke-width:1.0;stroke-dasharray:2.0,2.0;" x1="151" x2="733.5" y1="435.8906" y2="435.8906"/><text fill="#000000" font-family="sans-serif" font-size="13" lengthAdjust="spacing" textLength="51" x="158" y="430.8247">git push</text><rect fill="#EEEEEE" height="3" style="stroke:#EEEEEE;stroke-width:1.0;" width="797.5" x="0" y="464.457"/><line style="stroke:#000000;stroke-width:1.0;" x1="0" x2="797.5" y1="464.457" y2="464.457"/><line style="stroke:#000000;stroke-width:1.0;" x1="0" x2="797.5" y1="467.457" y2="467.457"/><rect fill="#EEEEEE" height="23.1328" style="stroke:#000000;stroke-width:2.0;" width="153" x="322.25" y="453.8906"/><text fill="#000000" font-family="sans-serif" font-size="13" font-weight="bold" lengthAdjust="spacing" textLength="139" x="328.25" y="469.9575">release Etudiant 1</text><polygon fill="#A80036" points="626,504.1563,636,508.1563,626,512.1563" style="stroke:#A80036;stroke-width:1.0;"/><line style="stroke:#A80036;stroke-width:1.0;" x1="60.5" x2="632" y1="508.1563" y2="508.1563"/><text fill="#000000" font-family="sans-serif" font-size="13" lengthAdjust="spacing" textLength="112" x="67.5" y="503.0903">git merge master</text><polygon fill="#A80036" points="457,533.2891,447,537.2891,457,541.2891" style="stroke:#A80036;stroke-width:1.0;"/><line style="stroke:#A80036;stroke-width:1.0;" x1="451" x2="637" y1="537.2891" y2="537.2891"/><text fill="#000000" font-family="sans-serif" font-size="13" lengthAdjust="spacing" textLength="168" x="463" y="532.2231">merge Master in Branche1</text><polygon fill="#A80036" points="626,562.4219,636,566.4219,626,570.4219" style="stroke:#A80036;stroke-width:1.0;"/><line style="stroke:#A80036;stroke-width:1.0;" x1="60.5" x2="632" y1="566.4219" y2="566.4219"/><text fill="#000000" font-family="sans-serif" font-size="13" lengthAdjust="spacing" textLength="106" x="67.5" y="561.356">valid = npm test</text><path d="M10,581.4219 L82,581.4219 L82,588.4219 L72,598.4219 L10,598.4219 L10,581.4219 " fill="#EEEEEE" style="stroke:#000000;stroke-width:1.0;"/><rect fill="none" height="191.9297" style="stroke:#000000;stroke-width:2.0;" width="681.5" x="10" y="581.4219"/><text fill="#000000" font-family="sans-serif" font-size="13" font-weight="bold" lengthAdjust="spacing" textLength="27" x="25" y="594.4888">opt</text><text fill="#000000" font-family="sans-serif" font-size="11" font-weight="bold" lengthAdjust="spacing" textLength="41" x="97" y="593.6323">[valid]</text><polygon fill="#A80036" points="434,615.6875,444,619.6875,434,623.6875" style="stroke:#A80036;stroke-width:1.0;"/><line style="stroke:#A80036;stroke-width:1.0;" x1="60.5" x2="440" y1="619.6875" y2="619.6875"/><text fill="#000000" font-family="sans-serif" font-size="13" lengthAdjust="spacing" textLength="128" x="67.5" y="614.6216">git checkout master</text><polygon fill="#A80036" points="434,644.8203,444,648.8203,434,652.8203" style="stroke:#A80036;stroke-width:1.0;"/><line style="stroke:#A80036;stroke-width:1.0;" x1="60.5" x2="440" y1="648.8203" y2="648.8203"/><text fill="#000000" font-family="sans-serif" font-size="13" lengthAdjust="spacing" textLength="118" x="67.5" y="643.7544">git merge branch1</text><polygon fill="#A80036" points="626,673.9531,636,677.9531,626,681.9531" style="stroke:#A80036;stroke-width:1.0;"/><line style="stroke:#A80036;stroke-width:1.0;" x1="446" x2="632" y1="677.9531" y2="677.9531"/><text fill="#000000" font-family="sans-serif" font-size="13" lengthAdjust="spacing" textLength="163" x="453" y="672.8872">merge branch1 in master</text><polygon fill="#A80036" points="434,703.0859,444,707.0859,434,711.0859" style="stroke:#A80036;stroke-width:1.0;"/><line style="stroke:#A80036;stroke-width:1.0;" x1="60.5" x2="440" y1="707.0859" y2="707.0859"/><text fill="#000000" font-family="sans-serif" font-size="13" lengthAdjust="spacing" textLength="58" x="67.5" y="702.02">npm test</text><polygon fill="#A80036" points="434,732.2188,444,736.2188,434,740.2188" style="stroke:#A80036;stroke-width:1.0;"/><line style="stroke:#A80036;stroke-width:1.0;" x1="60.5" x2="440" y1="736.2188" y2="736.2188"/><text fill="#000000" font-family="sans-serif" font-size="13" lengthAdjust="spacing" textLength="271" x="67.5" y="731.1528">git commit -am "code modifed because..."</text><polygon fill="#A80036" points="434,761.3516,444,765.3516,434,769.3516" style="stroke:#A80036;stroke-width:1.0;"/><line style="stroke:#A80036;stroke-width:1.0;" x1="60.5" x2="440" y1="765.3516" y2="765.3516"/><text fill="#000000" font-family="sans-serif" font-size="13" lengthAdjust="spacing" textLength="51" x="67.5" y="760.2856">git push</text><rect fill="#EEEEEE" height="3" style="stroke:#EEEEEE;stroke-width:1.0;" width="797.5" x="0" y="800.918"/><line style="stroke:#000000;stroke-width:1.0;" x1="0" x2="797.5" y1="800.918" y2="800.918"/><line style="stroke:#000000;stroke-width:1.0;" x1="0" x2="797.5" y1="803.918" y2="803.918"/><rect fill="#EEEEEE" height="23.1328" style="stroke:#000000;stroke-width:2.0;" width="153" x="322.25" y="790.3516"/><text fill="#000000" font-family="sans-serif" font-size="13" font-weight="bold" lengthAdjust="spacing" textLength="139" x="328.25" y="806.4185">release Etudiant 2</text><polygon fill="#A80036" points="722.5,840.6172,732.5,844.6172,722.5,848.6172" style="stroke:#A80036;stroke-width:1.0;"/><line style="stroke:#A80036;stroke-width:1.0;" x1="151" x2="728.5" y1="844.6172" y2="844.6172"/><text fill="#000000" font-family="sans-serif" font-size="13" lengthAdjust="spacing" textLength="112" x="158" y="839.5513">git merge master</text><polygon fill="#A80036" points="457,869.75,447,873.75,457,877.75" style="stroke:#A80036;stroke-width:1.0;"/><line style="stroke:#A80036;stroke-width:1.0;" x1="451" x2="733.5" y1="873.75" y2="873.75"/><text fill="#000000" font-family="sans-serif" font-size="13" lengthAdjust="spacing" textLength="168" x="463" y="868.6841">merge Master in Branche1</text><polygon fill="#A80036" points="722.5,898.8828,732.5,902.8828,722.5,906.8828" style="stroke:#A80036;stroke-width:1.0;"/><line style="stroke:#A80036;stroke-width:1.0;" x1="151" x2="728.5" y1="902.8828" y2="902.8828"/><text fill="#000000" font-family="sans-serif" font-size="13" lengthAdjust="spacing" textLength="106" x="158" y="897.8169">valid = npm test</text><path d="M101,917.8828 L173,917.8828 L173,924.8828 L163,934.8828 L101,934.8828 L101,917.8828 " fill="#EEEEEE" style="stroke:#000000;stroke-width:1.0;"/><rect fill="none" height="191.9297" style="stroke:#000000;stroke-width:2.0;" width="686.5" x="101" y="917.8828"/><text fill="#000000" font-family="sans-serif" font-size="13" font-weight="bold" lengthAdjust="spacing" textLength="27" x="116" y="930.9497">opt</text><text fill="#000000" font-family="sans-serif" font-size="11" font-weight="bold" lengthAdjust="spacing" textLength="41" x="188" y="930.0933">[valid]</text><polygon fill="#A80036" points="434,952.1484,444,956.1484,434,960.1484" style="stroke:#A80036;stroke-width:1.0;"/><line style="stroke:#A80036;stroke-width:1.0;" x1="151" x2="440" y1="956.1484" y2="956.1484"/><text fill="#000000" font-family="sans-serif" font-size="13" lengthAdjust="spacing" textLength="128" x="158" y="951.0825">git checkout master</text><polygon fill="#A80036" points="434,981.2813,444,985.2813,434,989.2813" style="stroke:#A80036;stroke-width:1.0;"/><line style="stroke:#A80036;stroke-width:1.0;" x1="151" x2="440" y1="985.2813" y2="985.2813"/><text fill="#000000" font-family="sans-serif" font-size="13" lengthAdjust="spacing" textLength="118" x="158" y="980.2153">git merge branch2</text><polygon fill="#A80036" points="722.5,1010.4141,732.5,1014.4141,722.5,1018.4141" style="stroke:#A80036;stroke-width:1.0;"/><line style="stroke:#A80036;stroke-width:1.0;" x1="446" x2="728.5" y1="1014.4141" y2="1014.4141"/><text fill="#000000" font-family="sans-serif" font-size="13" lengthAdjust="spacing" textLength="163" x="453" y="1009.3481">merge branch2 in master</text><polygon fill="#A80036" points="434,1039.5469,444,1043.5469,434,1047.5469" style="stroke:#A80036;stroke-width:1.0;"/><line style="stroke:#A80036;stroke-width:1.0;" x1="151" x2="440" y1="1043.5469" y2="1043.5469"/><text fill="#000000" font-family="sans-serif" font-size="13" lengthAdjust="spacing" textLength="58" x="158" y="1038.481">npm test</text><polygon fill="#A80036" points="434,1068.6797,444,1072.6797,434,1076.6797" style="stroke:#A80036;stroke-width:1.0;"/><line style="stroke:#A80036;stroke-width:1.0;" x1="151" x2="440" y1="1072.6797" y2="1072.6797"/><text fill="#000000" font-family="sans-serif" font-size="13" lengthAdjust="spacing" textLength="271" x="158" y="1067.6138">git commit -am "code modifed because..."</text><polygon fill="#A80036" points="434,1097.8125,444,1101.8125,434,1105.8125" style="stroke:#A80036;stroke-width:1.0;"/><line style="stroke:#A80036;stroke-width:1.0;" x1="151" x2="440" y1="1101.8125" y2="1101.8125"/><text fill="#000000" font-family="sans-serif" font-size="13" lengthAdjust="spacing" textLength="51" x="158" y="1096.7466">git push</text><!--MD5=[a7333e8da85e2f12df91f0b679e6fd7a]
@startuml
skinparam style strictuml
actor ":Etudiant1" as E1
actor ":Etudiant2" as E2

participant ":Master" as M 
participant ":Branche1" as B1
participant ":Branche2" as B2

E1 -> M: git clone master
E1 -> M: git checkout -b Branche1
E1 - ->> B1: modify code
E1 - ->> B1: npm test
E1 - ->> B1: git commit -am "code modifed because..."
E1 - ->> B1: git push


E2 -> M: git clone master
E2 -> M: git checkout -b Branche2
E2 - ->> B2: modify code
E2 - ->> B2: npm test
E2 - ->> B2: git commit -am "code modifed because..."
E2 - ->> B2: git push

== release Etudiant 1==

E1 -> B1: git merge master
B1->M: merge Master in Branche1
E1 -> B1: valid = npm test
opt valid
    E1->M: git checkout master
    E1 ->M: git merge branch1
    M->B1: merge branch1 in master
    E1->M: npm test
    E1 -> M: git commit -am "code modifed because..."
    E1 -> M: git push
end

== release Etudiant 2==


E2 -> B2: git merge master
B2->M: merge Master in Branche1
E2 -> B2: valid = npm test
opt valid
    E2->M: git checkout master
    E2 ->M: git merge branch2
    M->B2: merge branch2 in master
    E2->M: npm test
    E2 -> M: git commit -am "code modifed because..."
    E2 -> M: git push


end
@enduml

PlantUML version 1.2021.2(Sun Mar 07 11:10:27 UTC 2021)
(GPL source distribution)
Java Runtime: Java(TM) SE Runtime Environment
JVM: Java HotSpot(TM) 64-Bit Server VM
Default Encoding: UTF-8
Language: en
Country: US
--></g></svg>