<?xml version="1.0" encoding="UTF-8" standalone="no"?><svg xmlns="http://www.w3.org/2000/svg" xmlns:xlink="http://www.w3.org/1999/xlink" contentScriptType="application/ecmascript" contentStyleType="text/css" height="319px" preserveAspectRatio="none" style="width:191px;height:319px;background:#FFFFFF;" version="1.1" viewBox="0 0 191 319" width="191px" zoomAndPan="magnify"><defs><filter height="300%" id="fgoeye5hn18xy" width="300%" x="-1" y="-1"><feGaussianBlur result="blurOut" stdDeviation="2.0"/><feColorMatrix in="blurOut" result="blurOut2" type="matrix" values="0 0 0 0 0 0 0 0 0 0 0 0 0 0 0 0 0 0 .4 0"/><feOffset dx="4.0" dy="4.0" in="blurOut2" result="blurOut3"/><feBlend in="SourceGraphic" in2="blurOut3" mode="normal"/></filter></defs><g><!--MD5=[241fc117608423b41437da83aafad110]
class Registre--><rect codeLine="1" fill="#FEFECE" filter="url(#fgoeye5hn18xy)" height="48" id="Registre" style="stroke:#A80036;stroke-width:1.5;" width="79" x="10" y="7"/><ellipse cx="25" cy="23" fill="#ADD1B2" rx="11" ry="11" style="stroke:#A80036;stroke-width:1.0;"/><path d="M27.4731,29.1431 Q26.8921,29.4419 26.2529,29.5913 Q25.6138,29.7407 24.9082,29.7407 Q22.4014,29.7407 21.0815,28.0889 Q19.7617,26.437 19.7617,23.3159 Q19.7617,20.1865 21.0815,18.5347 Q22.4014,16.8828 24.9082,16.8828 Q25.6138,16.8828 26.2612,17.0322 Q26.9087,17.1816 27.4731,17.4805 L27.4731,20.2031 Q26.8423,19.6221 26.2488,19.3523 Q25.6553,19.0825 25.0244,19.0825 Q23.6797,19.0825 22.9949,20.1492 Q22.3101,21.2158 22.3101,23.3159 Q22.3101,25.4077 22.9949,26.4744 Q23.6797,27.541 25.0244,27.541 Q25.6553,27.541 26.2488,27.2712 Q26.8423,27.0015 27.4731,26.4204 Z " fill="#000000"/><text fill="#000000" font-family="sans-serif" font-size="12" lengthAdjust="spacing" textLength="47" x="39" y="27.5352">Registre</text><line style="stroke:#A80036;stroke-width:1.5;" x1="11" x2="88" y1="39" y2="39"/><line style="stroke:#A80036;stroke-width:1.5;" x1="11" x2="88" y1="47" y2="47"/><!--MD5=[af358a925ab72893600c8103e45e46a7]
class Vente--><rect codeLine="2" fill="#FEFECE" filter="url(#fgoeye5hn18xy)" height="48" id="Vente" style="stroke:#A80036;stroke-width:1.5;" width="65" x="17" y="132"/><ellipse cx="32" cy="148" fill="#ADD1B2" rx="11" ry="11" style="stroke:#A80036;stroke-width:1.0;"/><path d="M34.4731,154.1431 Q33.8921,154.4419 33.2529,154.5913 Q32.6138,154.7407 31.9082,154.7407 Q29.4014,154.7407 28.0815,153.0889 Q26.7617,151.437 26.7617,148.3159 Q26.7617,145.1865 28.0815,143.5347 Q29.4014,141.8828 31.9082,141.8828 Q32.6138,141.8828 33.2612,142.0322 Q33.9087,142.1816 34.4731,142.4805 L34.4731,145.2031 Q33.8423,144.6221 33.2488,144.3523 Q32.6553,144.0825 32.0244,144.0825 Q30.6797,144.0825 29.9949,145.1492 Q29.3101,146.2158 29.3101,148.3159 Q29.3101,150.4077 29.9949,151.4744 Q30.6797,152.541 32.0244,152.541 Q32.6553,152.541 33.2488,152.2712 Q33.8423,152.0015 34.4731,151.4204 Z " fill="#000000"/><text fill="#000000" font-family="sans-serif" font-size="12" lengthAdjust="spacing" textLength="33" x="46" y="152.5352">Vente</text><line style="stroke:#A80036;stroke-width:1.5;" x1="18" x2="81" y1="164" y2="164"/><line style="stroke:#A80036;stroke-width:1.5;" x1="18" x2="81" y1="172" y2="172"/><!--MD5=[72030ae3ecfac43e095a217e694cb8cb]
class Paiement--><rect codeLine="3" fill="#FEFECE" filter="url(#fgoeye5hn18xy)" height="48" id="Paiement" style="stroke:#A80036;stroke-width:1.5;" width="85" x="7" y="257"/><ellipse cx="22" cy="273" fill="#ADD1B2" rx="11" ry="11" style="stroke:#A80036;stroke-width:1.0;"/><path d="M24.4731,279.1431 Q23.8921,279.4419 23.2529,279.5913 Q22.6138,279.7407 21.9082,279.7407 Q19.4014,279.7407 18.0815,278.0889 Q16.7617,276.437 16.7617,273.3159 Q16.7617,270.1865 18.0815,268.5347 Q19.4014,266.8828 21.9082,266.8828 Q22.6138,266.8828 23.2612,267.0322 Q23.9087,267.1816 24.4731,267.4805 L24.4731,270.2031 Q23.8423,269.6221 23.2488,269.3523 Q22.6553,269.0825 22.0244,269.0825 Q20.6797,269.0825 19.9949,270.1492 Q19.3101,271.2158 19.3101,273.3159 Q19.3101,275.4077 19.9949,276.4744 Q20.6797,277.541 22.0244,277.541 Q22.6553,277.541 23.2488,277.2712 Q23.8423,277.0015 24.4731,276.4204 Z " fill="#000000"/><text fill="#000000" font-family="sans-serif" font-size="12" lengthAdjust="spacing" textLength="53" x="36" y="277.5352">Paiement</text><line style="stroke:#A80036;stroke-width:1.5;" x1="8" x2="91" y1="289" y2="289"/><line style="stroke:#A80036;stroke-width:1.5;" x1="8" x2="91" y1="297" y2="297"/><!--MD5=[1a786b98fe2e9764d5720238a0ea1722]
link Registre to Vente--><path codeLine="4" d="M49.5,55.14 C49.5,77.13 49.5,110.01 49.5,131.97 " fill="none" id="Registre-Vente" style="stroke:#A80036;stroke-width:1.0;"/><polygon fill="#000000" points="54.5,88.6553,51.5611,97.7004,57.4389,97.7004,54.5,88.6553" style="stroke:#000000;stroke-width:1.0;"/><text fill="#000000" font-family="sans-serif" font-size="13" lengthAdjust="spacing" textLength="120" x="63.5" y="98.5684">sont capturés dans</text><text fill="#000000" font-family="sans-serif" font-size="13" lengthAdjust="spacing" textLength="8" x="40.525" y="75.4585">1</text><text fill="#000000" font-family="sans-serif" font-size="13" lengthAdjust="spacing" textLength="6" x="42.6938" y="121.1064">*</text><!--MD5=[4508c4f021184254a37d65f681b87577]
link Vente to Paiement--><path codeLine="5" d="M49.5,180.14 C49.5,202.13 49.5,235.01 49.5,256.97 " fill="none" id="Vente-Paiement" style="stroke:#A80036;stroke-width:1.0;"/><polygon fill="#000000" points="54.5,223.6553,57.4389,214.6102,51.5611,214.6102,54.5,223.6553" style="stroke:#000000;stroke-width:1.0;"/><text fill="#000000" font-family="sans-serif" font-size="13" lengthAdjust="spacing" textLength="83" x="63.5" y="223.5684">est payée par</text><text fill="#000000" font-family="sans-serif" font-size="13" lengthAdjust="spacing" textLength="8" x="40.525" y="200.4585">1</text><text fill="#000000" font-family="sans-serif" font-size="13" lengthAdjust="spacing" textLength="8" x="40.425" y="246.1064">1</text><!--MD5=[a162a74ab9b9d6f816b609f32c30b5c2]
@startuml mdd-registre-vente-paiement
class Registre
class Vente
class Paiement
Registre "1"- -"*" Vente: sont capturés dans <
Vente "1" - - "1" Paiement: est payée par >
@enduml

PlantUML version 1.2021.7(Sun May 23 08:40:07 EDT 2021)
(GPL source distribution)
Java Runtime: Java(TM) SE Runtime Environment
JVM: Java HotSpot(TM) 64-Bit Server VM
Default Encoding: UTF-8
Language: fr
Country: CA
--></g></svg>