<?xml version="1.0" encoding="UTF-8" standalone="no"?><svg xmlns="http://www.w3.org/2000/svg" xmlns:xlink="http://www.w3.org/1999/xlink" contentScriptType="application/ecmascript" contentStyleType="text/css" height="465px" preserveAspectRatio="none" style="width:442px;height:465px;" version="1.1" viewBox="0 0 442 465" width="442px" zoomAndPan="magnify"><defs/><g><!--MD5=[032e7484c064e0fca583c8f22cf9e818]
class CatalogueLivres--><rect codeLine="3" fill="#FEFECE" height="40.1875" id="CatalogueLivres" style="stroke:#A80036;stroke-width:1.5;" width="63" x="201.76" y="7"/><text fill="#000000" font-family="sans-serif" font-size="12" lengthAdjust="spacing" textLength="57" x="204.76" y="24.457">Catalogue</text><text fill="#000000" font-family="sans-serif" font-size="12" lengthAdjust="spacing" textLength="33" x="216.76" y="39.5508">Livres</text><!--MD5=[e6c689e0fb2094b6e7ddc8286563ae4c]
class Livre--><rect fill="#FEFECE" height="25.0938" id="Livre" style="stroke:#A80036;stroke-width:1.5;" width="32" x="150.26" y="125"/><text fill="#000000" font-family="sans-serif" font-size="12" lengthAdjust="spacing" textLength="26" x="153.26" y="142.457">Livre</text><!--MD5=[18cc4c69606d473731604386bcf93e26]
class Membre--><rect fill="#FEFECE" height="25.0938" id="Membre" style="stroke:#A80036;stroke-width:1.5;" width="51" x="140.76" y="228"/><text fill="#000000" font-family="sans-serif" font-size="12" lengthAdjust="spacing" textLength="45" x="143.76" y="245.457">Membre</text><!--MD5=[386988d0c39d7d616e04269ec528b1b2]
class Exemplaire--><rect fill="#FEFECE" height="25.0938" id="Exemplaire" style="stroke:#A80036;stroke-width:1.5;" width="68" x="161.26" y="434"/><text fill="#000000" font-family="sans-serif" font-size="12" lengthAdjust="spacing" textLength="62" x="164.26" y="451.457">Exemplaire</text><!--MD5=[ccb7afe720e7db2f3c99657b86265671]
class Bibliothèque--><rect fill="#FEFECE" height="25.0938" id="Bibliothèque" style="stroke:#A80036;stroke-width:1.5;" width="75" x="262.76" y="331"/><text fill="#000000" font-family="sans-serif" font-size="12" lengthAdjust="spacing" textLength="69" x="265.76" y="348.457">Bibliothèque</text><!--MD5=[5138dc61e72a6f1d3d8bb66b9a95bcfb]
link Livre to Membre--><path codeLine="4" d="M166.26,150.09 C166.26,169.46 166.26,208.24 166.26,227.74 " fill="none" id="Livre-Membre" style="stroke:#808080;stroke-width:2.0;"/><polygon fill="#000000" points="171.26,184.1758,168.3211,193.2209,174.1989,193.2209,171.26,184.1758" style="stroke:#000000;stroke-width:1.0;"/><text fill="#000000" font-family="sans-serif" font-size="13" lengthAdjust="spacing" textLength="14" x="180.26" y="194.4951">Lit</text><text fill="#000000" font-family="sans-serif" font-size="13" lengthAdjust="spacing" textLength="5" x="160.3069" y="171.4842">*</text><text fill="#000000" font-family="sans-serif" font-size="13" lengthAdjust="spacing" textLength="5" x="160.2756" y="217.1116">*</text><!--MD5=[a3a78078778e54137462b7eb9e12430f]
link Livre to Exemplaire--><path codeLine="5" d="M150.01,146.21 C109,166.88 6,227.01 26.26,301 C40.31,352.31 46.62,369.66 87.26,404 C108.43,421.89 138.16,432.55 161.07,438.58 " fill="none" id="Livre-Exemplaire" style="stroke:#A80036;stroke-width:1.0;"/><polygon fill="#000000" points="31.449,297.1722,34.0439,288.0225,28.1703,288.2447,31.449,297.1722" style="stroke:#000000;stroke-width:1.0;"/><text fill="#000000" font-family="sans-serif" font-size="13" lengthAdjust="spacing" textLength="34" x="40.26" y="297.4951">Décrit</text><text fill="#000000" font-family="sans-serif" font-size="13" lengthAdjust="spacing" textLength="7" x="135.2334" y="144.0354">1</text><text fill="#000000" font-family="sans-serif" font-size="13" lengthAdjust="spacing" textLength="5" x="148.0441" y="432.6208">*</text><!--MD5=[ac49e8bec252f94e47d28fb4f750c146]
link Bibliothèque to CatalogueLivres--><path codeLine="6" d="M301.69,330.76 C305.84,292.4 315.3,168.02 276.26,77 C271.53,65.97 263.35,55.68 255.38,47.4 " fill="none" id="Bibliothèque-CatalogueLivres" style="stroke:#A80036;stroke-width:1.0;"/><polygon fill="#000000" points="307.4535,184.2412,306.012,193.6419,311.8129,192.6939,307.4535,184.2412" style="stroke:#000000;stroke-width:1.0;"/><text fill="#000000" font-family="sans-serif" font-size="13" lengthAdjust="spacing" textLength="27" x="317.26" y="194.4951">Offre</text><text fill="#000000" font-family="sans-serif" font-size="13" lengthAdjust="spacing" textLength="7" x="293.8749" y="320.1395">1</text><text fill="#000000" font-family="sans-serif" font-size="13" lengthAdjust="spacing" textLength="7" x="253.3841" y="68.5497">1</text><!--MD5=[d41f7c9423fc107da381db91a14b00de]
link CatalogueLivres to Livre--><path codeLine="7" d="M218.71,47.16 C212.19,56.06 204.56,66.88 198.26,77 C188.22,93.13 178.07,112.67 171.97,124.85 " fill="none" id="CatalogueLivres-Livre" style="stroke:#A80036;stroke-width:1.0;"/><polygon fill="#000000" points="200.6824,90.4602,207.8636,84.2247,202.827,81.1946,200.6824,90.4602" style="stroke:#000000;stroke-width:1.0;"/><text fill="#000000" font-family="sans-serif" font-size="13" lengthAdjust="spacing" textLength="59" x="212.26" y="91.4951">Répertorie</text><text fill="#000000" font-family="sans-serif" font-size="13" lengthAdjust="spacing" textLength="7" x="206.6334" y="68.5982">1</text><text fill="#000000" font-family="sans-serif" font-size="13" lengthAdjust="spacing" textLength="5" x="168.2339" y="114.2649">*</text><!--MD5=[070fc7041887f9d7a0f2ce10f8b1d962]
link Bibliothèque to Exemplaire--><path codeLine="8" d="M267,356.01 C251.47,362.76 233.72,372.62 221.26,386 C208.51,399.7 201.36,420.65 197.91,433.69 " fill="none" id="Bibliothèque-Exemplaire" style="stroke:#A80036;stroke-width:1.0;"/><polygon fill="#000000" points="222.9371,398.9118,231.1443,394.1064,226.7523,390.2001,222.9371,398.9118" style="stroke:#000000;stroke-width:1.0;"/><text fill="#000000" font-family="sans-serif" font-size="13" lengthAdjust="spacing" textLength="41" x="235.26" y="400.4951">Stocke</text><text fill="#000000" font-family="sans-serif" font-size="13" lengthAdjust="spacing" textLength="7" x="247.8233" y="376.3418">1</text><text fill="#000000" font-family="sans-serif" font-size="13" lengthAdjust="spacing" textLength="5" x="199.9378" y="423.0419">*</text><!--MD5=[070fc7041887f9d7a0f2ce10f8b1d962]
link Bibliothèque to Exemplaire--><path codeLine="11" d="M299.24,356.35 C297.55,369.43 293.06,390.41 281.26,404 C267.78,419.52 247.18,429.74 229.52,436.16 " fill="none" id="Bibliothèque-Exemplaire-1" style="stroke:#808080;stroke-width:2.0;"/><polygon fill="#000000" points="293.9705,398.9413,302.1346,394.0629,297.7079,390.1959,293.9705,398.9413" style="stroke:#000000;stroke-width:1.0;"/><text fill="#000000" font-family="sans-serif" font-size="13" lengthAdjust="spacing" textLength="41" x="306.26" y="400.4951">Achète</text><text fill="#000000" font-family="sans-serif" font-size="13" lengthAdjust="spacing" textLength="7" x="290.5733" y="377.5811">1</text><text fill="#000000" font-family="sans-serif" font-size="13" lengthAdjust="spacing" textLength="5" x="237.1018" y="429.8991">*</text><!--MD5=[070fc7041887f9d7a0f2ce10f8b1d962]
link Bibliothèque to Exemplaire--><path codeLine="12" d="M324.63,356.19 C345.44,367.77 369.99,386.28 356.26,404 C340.88,423.85 272.03,435.89 229.5,441.56 " fill="none" id="Bibliothèque-Exemplaire-2" style="stroke:#808080;stroke-width:2.0;"/><polygon fill="#000000" points="360.5387,398.5153,369.2335,394.6614,365.3077,390.2868,360.5387,398.5153" style="stroke:#000000;stroke-width:1.0;"/><text fill="#000000" font-family="sans-serif" font-size="13" lengthAdjust="spacing" textLength="61" x="373.26" y="400.4951">Désinfecte</text><text fill="#000000" font-family="sans-serif" font-size="13" lengthAdjust="spacing" textLength="7" x="325.5867" y="377.6223">1</text><text fill="#000000" font-family="sans-serif" font-size="13" lengthAdjust="spacing" textLength="5" x="237.0776" y="455.7128">*</text><!--MD5=[9ff8552f21ada4d262ba2be05762c2af]
link Membre to Bibliothèque--><path codeLine="9" d="M175.65,253.02 C186.46,265.81 205.18,286.53 224.26,301 C239.95,312.9 259.48,323.49 274.82,330.99 " fill="none" id="Membre-Bibliothèque" style="stroke:#808080;stroke-width:2.0;"/><polygon fill="#000000" points="233.1906,295.2661,227.8965,287.3653,224.2636,291.986,233.1906,295.2661" style="stroke:#000000;stroke-width:1.0;"/><text fill="#000000" font-family="sans-serif" font-size="13" lengthAdjust="spacing" textLength="33" x="238.26" y="297.4951">Visite</text><text fill="#000000" font-family="sans-serif" font-size="13" lengthAdjust="spacing" textLength="5" x="173.3629" y="274.6456">*</text><text fill="#000000" font-family="sans-serif" font-size="13" lengthAdjust="spacing" textLength="7" x="255.8823" y="320.0779">1</text><!--MD5=[6ff85b1ab7d0fab6fb288d914cc822d7]
link Membre to Exemplaire--><path codeLine="10" d="M143.65,253.06 C109.12,272.39 49.44,313.34 71.26,356 C90.97,394.53 135.85,420.28 165.86,433.9 " fill="none" id="Membre-Exemplaire" style="stroke:#808080;stroke-width:2.0;"/><polygon fill="#000000" points="76.8695,348.6385,78.6839,339.3026,72.8499,340.0191,76.8695,348.6385" style="stroke:#000000;stroke-width:1.0;"/><text fill="#000000" font-family="sans-serif" font-size="13" lengthAdjust="spacing" textLength="37" x="85.26" y="348.9951">Abime</text><text fill="#000000" font-family="sans-serif" font-size="13" lengthAdjust="spacing" textLength="5" x="128.7629" y="274.7014">*</text><text fill="#000000" font-family="sans-serif" font-size="13" lengthAdjust="spacing" textLength="5" x="148.2994" y="423.3346">*</text><!--MD5=[6ff85b1ab7d0fab6fb288d914cc822d7]
link Membre to Exemplaire--><path codeLine="13" d="M167.9,253.05 C172.98,288.79 188.41,397.32 193.56,433.57 " fill="none" id="Membre-Exemplaire-1" style="stroke:#A80036;stroke-width:1.0;"/><polygon fill="#000000" points="187.9637,348.626,189.6004,339.2574,183.7811,340.0845,187.9637,348.626" style="stroke:#000000;stroke-width:1.0;"/><text fill="#000000" font-family="sans-serif" font-size="13" lengthAdjust="spacing" textLength="46" x="196.26" y="348.9951">Réserve</text><text fill="#000000" font-family="sans-serif" font-size="13" lengthAdjust="spacing" textLength="7" x="160.1676" y="274.6874">1</text><text fill="#000000" font-family="sans-serif" font-size="13" lengthAdjust="spacing" textLength="5" x="186.9588" y="423.1347">*</text><!--MD5=[4145d5588111ff3fdd804e858f249e5d]
@startuml AssociationsJustifications
skinparam style strictuml
hide empty members
class "Catalogue\nLivres" as CatalogueLivres
Livre "*" -[#gray,bold]- "*" Membre : < Lit
Livre "1" - - "*" Exemplaire : Décrit >
Bibliothèque "1" - - "1" CatalogueLivres : Offre >
CatalogueLivres "1" - - "*" Livre : Répertorie >
Bibliothèque "1" - - "*" Exemplaire : Stocke > 
Membre "*" -[#gray,bold]- "1" Bibliothèque : Visite >
Membre "*" -[#gray,bold]- "*" Exemplaire : Abime >
Bibliothèque "1" -[#gray,bold]- "*" Exemplaire : Achète >
Bibliothèque "1" -[#gray,bold]- "*" Exemplaire : Désinfecte >
Membre "1" - - "*" Exemplaire : Réserve >
@enduml

PlantUML version 1.2021.4(Sun Apr 04 04:49:39 EDT 2021)
(GPL source distribution)
Java Runtime: OpenJDK Runtime Environment
JVM: OpenJDK 64-Bit Server VM
Default Encoding: Cp1252
Language: en
Country: US
--></g></svg>