<?xml version="1.0" encoding="UTF-8" standalone="no"?><svg xmlns="http://www.w3.org/2000/svg" xmlns:xlink="http://www.w3.org/1999/xlink" contentScriptType="application/ecmascript" contentStyleType="text/css" height="723px" preserveAspectRatio="none" style="width:465px;height:723px;background:#FFFFFF;" version="1.1" viewBox="0 0 465 723" width="465px" zoomAndPan="magnify"><defs><filter height="300%" id="f21im7732m1oz" width="300%" x="-1" y="-1"><feGaussianBlur result="blurOut" stdDeviation="2.0"/><feColorMatrix in="blurOut" result="blurOut2" type="matrix" values="0 0 0 0 0 0 0 0 0 0 0 0 0 0 0 0 0 0 .4 0"/><feOffset dx="4.0" dy="4.0" in="blurOut2" result="blurOut3"/><feBlend in="SourceGraphic" in2="blurOut3" mode="normal"/></filter></defs><g><text fill="#000000" font-family="sans-serif" font-size="18" lengthAdjust="spacing" textLength="456" x="2" y="16.708">MDD CU01 - Ajouter un Item à la vente (solution)</text><!--MD5=[91b4eae50c1ecb44ef3085ce437a29c0]
class MagasinEnLigne--><rect codeLine="3" fill="#FEFECE" filter="url(#f21im7732m1oz)" height="53.9375" id="MagasinEnLigne" style="stroke:#A80036;stroke-width:1.5;" width="127" x="177.75" y="27.9531"/><ellipse cx="192.75" cy="46.9219" fill="#ADD1B2" rx="11" ry="11" style="stroke:#A80036;stroke-width:1.0;"/><path d="M195.0938,42.5938 C194.1563,42.1563 193.5625,42.0156 192.6875,42.0156 C190.0625,42.0156 188.0625,44.0938 188.0625,46.8125 L188.0625,47.9375 C188.0625,50.5156 190.1719,52.4063 193.0625,52.4063 C194.2813,52.4063 195.4375,52.1094 196.1875,51.5625 C196.7656,51.1563 197.0938,50.7031 197.0938,50.3125 C197.0938,49.8594 196.7031,49.4688 196.2344,49.4688 C196.0156,49.4688 195.8125,49.5469 195.625,49.7344 C195.1719,50.2188 195.1719,50.2188 194.9844,50.3125 C194.5625,50.5781 193.875,50.7031 193.1094,50.7031 C191.0625,50.7031 189.7656,49.6094 189.7656,47.9063 L189.7656,46.8125 C189.7656,45.0313 191.0156,43.7188 192.75,43.7188 C193.3281,43.7188 193.9375,43.875 194.4063,44.125 C194.8906,44.4063 195.0625,44.625 195.1563,45.0313 C195.2188,45.4375 195.25,45.5625 195.3906,45.6875 C195.5313,45.8281 195.7656,45.9375 195.9844,45.9375 C196.25,45.9375 196.5156,45.7969 196.6875,45.5781 C196.7969,45.4219 196.8281,45.2344 196.8281,44.8125 L196.8281,43.3906 C196.8281,42.9531 196.8125,42.8281 196.7188,42.6719 C196.5625,42.4063 196.2813,42.2656 195.9844,42.2656 C195.6875,42.2656 195.4844,42.3594 195.2656,42.6719 L195.0938,42.5938 Z " fill="#000000"/><text fill="#000000" font-family="sans-serif" font-size="12" font-style="italic" lengthAdjust="spacing" textLength="90" x="209.25" y="44.0918">«Organisation»</text><text fill="#000000" font-family="sans-serif" font-size="12" lengthAdjust="spacing" textLength="95" x="206.75" y="58.0605">MagasinEnLigne</text><line style="stroke:#A80036;stroke-width:1.5;" x1="178.75" x2="303.75" y1="65.8906" y2="65.8906"/><line style="stroke:#A80036;stroke-width:1.5;" x1="178.75" x2="303.75" y1="73.8906" y2="73.8906"/><!--MD5=[18cc4c69606d473731604386bcf93e26]
class Membre--><rect codeLine="6" fill="#FEFECE" filter="url(#f21im7732m1oz)" height="79.5469" id="Membre" style="stroke:#A80036;stroke-width:1.5;" width="129" x="80.75" y="158.9531"/><ellipse cx="116.9" cy="177.9219" fill="#ADD1B2" rx="11" ry="11" style="stroke:#A80036;stroke-width:1.0;"/><path d="M119.2438,173.5938 C118.3063,173.1563 117.7125,173.0156 116.8375,173.0156 C114.2125,173.0156 112.2125,175.0938 112.2125,177.8125 L112.2125,178.9375 C112.2125,181.5156 114.3219,183.4063 117.2125,183.4063 C118.4313,183.4063 119.5875,183.1094 120.3375,182.5625 C120.9156,182.1563 121.2438,181.7031 121.2438,181.3125 C121.2438,180.8594 120.8531,180.4688 120.3844,180.4688 C120.1656,180.4688 119.9625,180.5469 119.775,180.7344 C119.3219,181.2188 119.3219,181.2188 119.1344,181.3125 C118.7125,181.5781 118.025,181.7031 117.2594,181.7031 C115.2125,181.7031 113.9156,180.6094 113.9156,178.9063 L113.9156,177.8125 C113.9156,176.0313 115.1656,174.7188 116.9,174.7188 C117.4781,174.7188 118.0875,174.875 118.5563,175.125 C119.0406,175.4063 119.2125,175.625 119.3063,176.0313 C119.3688,176.4375 119.4,176.5625 119.5406,176.6875 C119.6813,176.8281 119.9156,176.9375 120.1344,176.9375 C120.4,176.9375 120.6656,176.7969 120.8375,176.5781 C120.9469,176.4219 120.9781,176.2344 120.9781,175.8125 L120.9781,174.3906 C120.9781,173.9531 120.9625,173.8281 120.8688,173.6719 C120.7125,173.4063 120.4313,173.2656 120.1344,173.2656 C119.8375,173.2656 119.6344,173.3594 119.4156,173.6719 L119.2438,173.5938 Z " fill="#000000"/><text fill="#000000" font-family="sans-serif" font-size="12" font-style="italic" lengthAdjust="spacing" textLength="39" x="141.1" y="175.0918">«Role»</text><text fill="#000000" font-family="sans-serif" font-size="12" lengthAdjust="spacing" textLength="50" x="135.6" y="189.0605">Membre</text><line style="stroke:#A80036;stroke-width:1.5;" x1="81.75" x2="208.75" y1="196.8906" y2="196.8906"/><text fill="#000000" font-family="sans-serif" font-size="11" lengthAdjust="spacing" textLength="117" x="86.75" y="211.1011">string nomUtilisateur</text><text fill="#000000" font-family="sans-serif" font-size="11" lengthAdjust="spacing" textLength="107" x="86.75" y="223.9058">string motDePasse</text><line style="stroke:#A80036;stroke-width:1.5;" x1="81.75" x2="208.75" y1="230.5" y2="230.5"/><!--MD5=[44a1b4afaef76c16e6c9ec4990ad0c8d]
class Item--><rect codeLine="11" fill="#FEFECE" filter="url(#f21im7732m1oz)" height="66.7422" id="Item" style="stroke:#A80036;stroke-width:1.5;" width="133" x="144.75" y="472.9531"/><ellipse cx="159.75" cy="491.9219" fill="#ADD1B2" rx="11" ry="11" style="stroke:#A80036;stroke-width:1.0;"/><path d="M162.0938,487.5938 C161.1563,487.1563 160.5625,487.0156 159.6875,487.0156 C157.0625,487.0156 155.0625,489.0938 155.0625,491.8125 L155.0625,492.9375 C155.0625,495.5156 157.1719,497.4063 160.0625,497.4063 C161.2813,497.4063 162.4375,497.1094 163.1875,496.5625 C163.7656,496.1563 164.0938,495.7031 164.0938,495.3125 C164.0938,494.8594 163.7031,494.4688 163.2344,494.4688 C163.0156,494.4688 162.8125,494.5469 162.625,494.7344 C162.1719,495.2188 162.1719,495.2188 161.9844,495.3125 C161.5625,495.5781 160.875,495.7031 160.1094,495.7031 C158.0625,495.7031 156.7656,494.6094 156.7656,492.9063 L156.7656,491.8125 C156.7656,490.0313 158.0156,488.7188 159.75,488.7188 C160.3281,488.7188 160.9375,488.875 161.4063,489.125 C161.8906,489.4063 162.0625,489.625 162.1563,490.0313 C162.2188,490.4375 162.25,490.5625 162.3906,490.6875 C162.5313,490.8281 162.7656,490.9375 162.9844,490.9375 C163.25,490.9375 163.5156,490.7969 163.6875,490.5781 C163.7969,490.4219 163.8281,490.2344 163.8281,489.8125 L163.8281,488.3906 C163.8281,487.9531 163.8125,487.8281 163.7188,487.6719 C163.5625,487.4063 163.2813,487.2656 162.9844,487.2656 C162.6875,487.2656 162.4844,487.3594 162.2656,487.6719 L162.0938,487.5938 Z " fill="#000000"/><text fill="#000000" font-family="sans-serif" font-size="12" font-style="italic" lengthAdjust="spacing" textLength="105" x="171.75" y="489.0918">«Objet physique»</text><text fill="#000000" font-family="sans-serif" font-size="12" lengthAdjust="spacing" textLength="26" x="211.25" y="503.0605">Item</text><line style="stroke:#A80036;stroke-width:1.5;" x1="145.75" x2="276.75" y1="510.8906" y2="510.8906"/><text fill="#000000" font-family="sans-serif" font-size="11" lengthAdjust="spacing" textLength="71" x="150.75" y="525.1011">serial: String</text><line style="stroke:#A80036;stroke-width:1.5;" x1="145.75" x2="276.75" y1="531.6953" y2="531.6953"/><!--MD5=[fe79217f40e74d8d9110552c4d8e5122]
class ID--><rect codeLine="15" fill="#FEFECE" filter="url(#f21im7732m1oz)" height="92.3516" id="ID" style="stroke:#A80036;stroke-width:1.5;" width="160" x="201.25" y="616.9531"/><ellipse cx="216.25" cy="635.9219" fill="#ADD1B2" rx="11" ry="11" style="stroke:#A80036;stroke-width:1.0;"/><path d="M218.5938,631.5938 C217.6563,631.1563 217.0625,631.0156 216.1875,631.0156 C213.5625,631.0156 211.5625,633.0938 211.5625,635.8125 L211.5625,636.9375 C211.5625,639.5156 213.6719,641.4063 216.5625,641.4063 C217.7813,641.4063 218.9375,641.1094 219.6875,640.5625 C220.2656,640.1563 220.5938,639.7031 220.5938,639.3125 C220.5938,638.8594 220.2031,638.4688 219.7344,638.4688 C219.5156,638.4688 219.3125,638.5469 219.125,638.7344 C218.6719,639.2188 218.6719,639.2188 218.4844,639.3125 C218.0625,639.5781 217.375,639.7031 216.6094,639.7031 C214.5625,639.7031 213.2656,638.6094 213.2656,636.9063 L213.2656,635.8125 C213.2656,634.0313 214.5156,632.7188 216.25,632.7188 C216.8281,632.7188 217.4375,632.875 217.9063,633.125 C218.3906,633.4063 218.5625,633.625 218.6563,634.0313 C218.7188,634.4375 218.75,634.5625 218.8906,634.6875 C219.0313,634.8281 219.2656,634.9375 219.4844,634.9375 C219.75,634.9375 220.0156,634.7969 220.1875,634.5781 C220.2969,634.4219 220.3281,634.2344 220.3281,633.8125 L220.3281,632.3906 C220.3281,631.9531 220.3125,631.8281 220.2188,631.6719 C220.0625,631.4063 219.7813,631.2656 219.4844,631.2656 C219.1875,631.2656 218.9844,631.3594 218.7656,631.6719 L218.5938,631.5938 Z " fill="#000000"/><text fill="#000000" font-family="sans-serif" font-size="12" font-style="italic" lengthAdjust="spacing" textLength="132" x="228.25" y="633.0918">«Description d'entité»</text><text fill="#000000" font-family="sans-serif" font-size="12" lengthAdjust="spacing" textLength="95" x="246.75" y="647.0605">ItemDescription</text><line style="stroke:#A80036;stroke-width:1.5;" x1="202.25" x2="360.25" y1="654.8906" y2="654.8906"/><text fill="#000000" font-family="sans-serif" font-size="11" lengthAdjust="spacing" textLength="99" x="207.25" y="669.1011">UpcCode: Integer</text><text fill="#000000" font-family="sans-serif" font-size="11" lengthAdjust="spacing" textLength="65" x="207.25" y="681.9058">nom: String</text><text fill="#000000" font-family="sans-serif" font-size="11" lengthAdjust="spacing" textLength="53" x="207.25" y="694.7104">prix: Real</text><line style="stroke:#A80036;stroke-width:1.5;" x1="202.25" x2="360.25" y1="701.3047" y2="701.3047"/><!--MD5=[67795369a0169a6ec527a79565ea23e1]
class Commande--><rect codeLine="21" fill="#FEFECE" filter="url(#f21im7732m1oz)" height="79.5469" id="Commande" style="stroke:#A80036;stroke-width:1.5;" width="140" x="129.25" y="315.9531"/><ellipse cx="156.85" cy="334.9219" fill="#ADD1B2" rx="11" ry="11" style="stroke:#A80036;stroke-width:1.0;"/><path d="M159.1938,330.5938 C158.2563,330.1563 157.6625,330.0156 156.7875,330.0156 C154.1625,330.0156 152.1625,332.0938 152.1625,334.8125 L152.1625,335.9375 C152.1625,338.5156 154.2719,340.4063 157.1625,340.4063 C158.3813,340.4063 159.5375,340.1094 160.2875,339.5625 C160.8656,339.1563 161.1938,338.7031 161.1938,338.3125 C161.1938,337.8594 160.8031,337.4688 160.3344,337.4688 C160.1156,337.4688 159.9125,337.5469 159.725,337.7344 C159.2719,338.2188 159.2719,338.2188 159.0844,338.3125 C158.6625,338.5781 157.975,338.7031 157.2094,338.7031 C155.1625,338.7031 153.8656,337.6094 153.8656,335.9063 L153.8656,334.8125 C153.8656,333.0313 155.1156,331.7188 156.85,331.7188 C157.4281,331.7188 158.0375,331.875 158.5063,332.125 C158.9906,332.4063 159.1625,332.625 159.2563,333.0313 C159.3188,333.4375 159.35,333.5625 159.4906,333.6875 C159.6313,333.8281 159.8656,333.9375 160.0844,333.9375 C160.35,333.9375 160.6156,333.7969 160.7875,333.5781 C160.8969,333.4219 160.9281,333.2344 160.9281,332.8125 L160.9281,331.3906 C160.9281,330.9531 160.9125,330.8281 160.8188,330.6719 C160.6625,330.4063 160.3813,330.2656 160.0844,330.2656 C159.7875,330.2656 159.5844,330.3594 159.3656,330.6719 L159.1938,330.5938 Z " fill="#000000"/><text fill="#000000" font-family="sans-serif" font-size="12" font-style="italic" lengthAdjust="spacing" textLength="84" x="171.65" y="332.0918">«Transaction»</text><text fill="#000000" font-family="sans-serif" font-size="12" lengthAdjust="spacing" textLength="68" x="179.65" y="346.0605">Commande</text><line style="stroke:#A80036;stroke-width:1.5;" x1="130.25" x2="268.25" y1="353.8906" y2="353.8906"/><text fill="#000000" font-family="sans-serif" font-size="11" lengthAdjust="spacing" textLength="128" x="135.25" y="368.1011">noCommande: Integer</text><text fill="#000000" font-family="sans-serif" font-size="11" lengthAdjust="spacing" textLength="90" x="135.25" y="380.9058">date: DateTime</text><line style="stroke:#A80036;stroke-width:1.5;" x1="130.25" x2="268.25" y1="387.5" y2="387.5"/><!--MD5=[820f4d9c0cedad80d4f61f3fe69231ff]
link MagasinEnLigne to ID--><path codeLine="27" d="M294.016,82.0441 C306.094,90.1681 317.838,100.1541 326.25,111.9531 C349.153,144.0781 348.25,158.5001 348.25,197.9531 C348.25,197.9531 348.25,197.9531 348.25,507.4531 C348.25,546.6301 329.893,587.1241 312.396,616.8233 " fill="none" id="MagasinEnLigne-ID" style="stroke:#A80036;stroke-width:1.0;"/><polygon fill="#000000" points="353.4217,361.0166,356.0482,351.8759,350.1739,352.0778,353.4217,361.0166" style="stroke:#000000;stroke-width:1.0;"/><text fill="#000000" font-family="sans-serif" font-size="13" lengthAdjust="spacing" textLength="29" x="362.25" y="360.52">gère</text><text fill="#000000" font-family="sans-serif" font-size="13" lengthAdjust="spacing" textLength="8" x="297.2931" y="102.1328">1</text><text fill="#000000" font-family="sans-serif" font-size="13" lengthAdjust="spacing" textLength="7" x="309.4565" y="605.997">*</text><!--MD5=[4537da7730cda9b9aaa39b6237270562]
link MagasinEnLigne to Membre--><path codeLine="28" d="M177.4926,74.6121 C159.7638,83.0571 142.5597,95.0661 132.25,111.9531 C123.7523,125.8721 124.7383,143.3531 128.7185,158.9141 " fill="none" id="MagasinEnLigne-Membre" style="stroke:#A80036;stroke-width:1.0;"/><polygon fill="#000000" points="134.7461,124.8474,141.8196,118.49,136.7319,115.5464,134.7461,124.8474" style="stroke:#000000;stroke-width:1.0;"/><text fill="#000000" font-family="sans-serif" font-size="13" lengthAdjust="spacing" textLength="175" x="146.25" y="125.02">offe un service au membre</text><text fill="#000000" font-family="sans-serif" font-size="13" lengthAdjust="spacing" textLength="8" x="161.6582" y="73.0962">1</text><text fill="#000000" font-family="sans-serif" font-size="13" lengthAdjust="spacing" textLength="7" x="118.2756" y="147.8606">*</text><!--MD5=[e62d4734f788b279f7092422ead9ca17]
link Membre to Commande--><path codeLine="29" d="M158.8765,239.0661 C167.0625,262.5631 177.4427,292.3581 185.628,315.8521 " fill="none" id="Membre-Commande" style="stroke:#A80036;stroke-width:1.0;"/><polygon fill="#000000" points="180.895,282.2412,180.6945,272.7327,175.1439,274.6665,180.895,282.2412" style="stroke:#000000;stroke-width:1.0;"/><text fill="#000000" font-family="sans-serif" font-size="13" lengthAdjust="spacing" textLength="54" x="188.25" y="282.02">effectue</text><text fill="#000000" font-family="sans-serif" font-size="13" lengthAdjust="spacing" textLength="8" x="152.3506" y="258.4686">1</text><text fill="#000000" font-family="sans-serif" font-size="13" lengthAdjust="spacing" textLength="7" x="175.685" y="304.788">*</text><!--MD5=[0a2838be764bddba7c143d690e540cca]
link Commande to Item--><path codeLine="30" d="M202.403,395.9701 C204.333,419.8591 206.776,450.0841 208.605,472.7201 " fill="none" id="Commande-Item" style="stroke:#A80036;stroke-width:1.0;"/><polygon fill="#000000" points="211.6527,439.5033,213.8536,430.2509,207.9948,430.7243,211.6527,439.5033" style="stroke:#000000;stroke-width:1.0;"/><text fill="#000000" font-family="sans-serif" font-size="13" lengthAdjust="spacing" textLength="53" x="220.25" y="439.02">est pour</text><text fill="#000000" font-family="sans-serif" font-size="13" lengthAdjust="spacing" textLength="8" x="194.268" y="415.6567">1</text><text fill="#000000" font-family="sans-serif" font-size="13" lengthAdjust="spacing" textLength="7" x="200.4336" y="461.9642">*</text><!--MD5=[4609f475997dc810aea8d876c92d1d02]
link Item to ID--><path codeLine="31" d="M207.558,540.2201 C207.121,554.9881 208.36,572.3511 214.25,586.9531 C218.496,597.4781 224.905,607.4931 232.105,616.5793 " fill="none" id="Item-ID" style="stroke:#A80036;stroke-width:1.0;"/><polygon fill="#000000" points="220.7802,583.2796,220.8099,573.7691,215.2141,575.568,220.7802,583.2796" style="stroke:#000000;stroke-width:1.0;"/><text fill="#000000" font-family="sans-serif" font-size="13" lengthAdjust="spacing" textLength="93" x="228.25" y="583.02">sont décrit par</text><text fill="#000000" font-family="sans-serif" font-size="13" lengthAdjust="spacing" textLength="7" x="199.2769" y="559.6725">*</text><text fill="#000000" font-family="sans-serif" font-size="13" lengthAdjust="spacing" textLength="8" x="216.6315" y="606.0546">1</text><!--MD5=[7b4ff994fb864926b110576a784ca5f6]
@startuml
title MDD CU01 - Ajouter un Item à la vente (solution)

    class MagasinEnLigne <<Organisation>>{

    }
    class Membre as "Membre" <<Role>> {
        string nomUtilisateur
        string motDePasse

    }
    class Item as "Item" <<Objet physique>>{
         serial: String
    }

    class ID as "ItemDescription" <<Description d'entité>>{
        UpcCode: Integer
        nom: String
        prix: Real
    }

    class Commande <<Transaction>> {
      noCommande: Integer 
      date: DateTime
    }


    MagasinEnLigne "1" - - "*" ID: gère >
    MagasinEnLigne "1" - - "*" Membre: offe un service au membre >
    Membre "1" - - "*" Commande: effectue >
    Commande "1" - - "*" Item: est pour >
    Item "*" - - "1" ID: sont décrit par >
@enduml

PlantUML version 1.2021.9beta2(Unknown compile time)
(GPL source distribution)
Java Runtime: Java(TM) SE Runtime Environment
JVM: Java HotSpot(TM) 64-Bit Server VM
Default Encoding: UTF-8
Language: en
Country: US
--></g></svg>