<?xml version="1.0" encoding="UTF-8" standalone="no"?><svg xmlns="http://www.w3.org/2000/svg" xmlns:xlink="http://www.w3.org/1999/xlink" contentScriptType="application/ecmascript" contentStyleType="text/css" height="867px" preserveAspectRatio="none" style="width:371px;height:867px;background:#FFFFFF;" version="1.1" viewBox="0 0 371 867" width="371px" zoomAndPan="magnify"><defs><filter height="300%" id="f1144kpcx73on9" width="300%" x="-1" y="-1"><feGaussianBlur result="blurOut" stdDeviation="2.0"/><feColorMatrix in="blurOut" result="blurOut2" type="matrix" values="0 0 0 0 0 0 0 0 0 0 0 0 0 0 0 0 0 0 .4 0"/><feOffset dx="4.0" dy="4.0" in="blurOut2" result="blurOut3"/><feBlend in="SourceGraphic" in2="blurOut3" mode="normal"/></filter></defs><g><text fill="#000000" font-family="sans-serif" font-size="18" lengthAdjust="spacing" textLength="362" x="2" y="16.708">MDD CU01 - Ajouter un Item à la vente</text><!--MD5=[91b4eae50c1ecb44ef3085ce437a29c0]
class MagasinEnLigne--><rect codeLine="3" fill="#FEFECE" filter="url(#f1144kpcx73on9)" height="53.9375" id="MagasinEnLigne" style="stroke:#A80036;stroke-width:1.5;" width="127" x="135.25" y="27.9531"/><ellipse cx="150.25" cy="46.9219" fill="#ADD1B2" rx="11" ry="11" style="stroke:#A80036;stroke-width:1.0;"/><path d="M152.5938,42.5938 C151.6563,42.1563 151.0625,42.0156 150.1875,42.0156 C147.5625,42.0156 145.5625,44.0938 145.5625,46.8125 L145.5625,47.9375 C145.5625,50.5156 147.6719,52.4063 150.5625,52.4063 C151.7813,52.4063 152.9375,52.1094 153.6875,51.5625 C154.2656,51.1563 154.5938,50.7031 154.5938,50.3125 C154.5938,49.8594 154.2031,49.4688 153.7344,49.4688 C153.5156,49.4688 153.3125,49.5469 153.125,49.7344 C152.6719,50.2188 152.6719,50.2188 152.4844,50.3125 C152.0625,50.5781 151.375,50.7031 150.6094,50.7031 C148.5625,50.7031 147.2656,49.6094 147.2656,47.9063 L147.2656,46.8125 C147.2656,45.0313 148.5156,43.7188 150.25,43.7188 C150.8281,43.7188 151.4375,43.875 151.9063,44.125 C152.3906,44.4063 152.5625,44.625 152.6563,45.0313 C152.7188,45.4375 152.75,45.5625 152.8906,45.6875 C153.0313,45.8281 153.2656,45.9375 153.4844,45.9375 C153.75,45.9375 154.0156,45.7969 154.1875,45.5781 C154.2969,45.4219 154.3281,45.2344 154.3281,44.8125 L154.3281,43.3906 C154.3281,42.9531 154.3125,42.8281 154.2188,42.6719 C154.0625,42.4063 153.7813,42.2656 153.4844,42.2656 C153.1875,42.2656 152.9844,42.3594 152.7656,42.6719 L152.5938,42.5938 Z " fill="#000000"/><text fill="#000000" font-family="sans-serif" font-size="12" font-style="italic" lengthAdjust="spacing" textLength="90" x="166.75" y="44.0918">«Organisation»</text><text fill="#000000" font-family="sans-serif" font-size="12" lengthAdjust="spacing" textLength="95" x="164.25" y="58.0605">MagasinEnLigne</text><line style="stroke:#A80036;stroke-width:1.5;" x1="136.25" x2="261.25" y1="65.8906" y2="65.8906"/><line style="stroke:#A80036;stroke-width:1.5;" x1="136.25" x2="261.25" y1="73.8906" y2="73.8906"/><!--MD5=[18cc4c69606d473731604386bcf93e26]
class Membre--><rect codeLine="6" fill="#FEFECE" filter="url(#f1144kpcx73on9)" height="79.5469" id="Membre" style="stroke:#A80036;stroke-width:1.5;" width="129" x="29.25" y="158.9531"/><ellipse cx="65.4" cy="177.9219" fill="#ADD1B2" rx="11" ry="11" style="stroke:#A80036;stroke-width:1.0;"/><path d="M67.7438,173.5938 C66.8063,173.1563 66.2125,173.0156 65.3375,173.0156 C62.7125,173.0156 60.7125,175.0938 60.7125,177.8125 L60.7125,178.9375 C60.7125,181.5156 62.8219,183.4063 65.7125,183.4063 C66.9313,183.4063 68.0875,183.1094 68.8375,182.5625 C69.4156,182.1563 69.7438,181.7031 69.7438,181.3125 C69.7438,180.8594 69.3531,180.4688 68.8844,180.4688 C68.6656,180.4688 68.4625,180.5469 68.275,180.7344 C67.8219,181.2188 67.8219,181.2188 67.6344,181.3125 C67.2125,181.5781 66.525,181.7031 65.7594,181.7031 C63.7125,181.7031 62.4156,180.6094 62.4156,178.9063 L62.4156,177.8125 C62.4156,176.0313 63.6656,174.7188 65.4,174.7188 C65.9781,174.7188 66.5875,174.875 67.0563,175.125 C67.5406,175.4063 67.7125,175.625 67.8063,176.0313 C67.8688,176.4375 67.9,176.5625 68.0406,176.6875 C68.1813,176.8281 68.4156,176.9375 68.6344,176.9375 C68.9,176.9375 69.1656,176.7969 69.3375,176.5781 C69.4469,176.4219 69.4781,176.2344 69.4781,175.8125 L69.4781,174.3906 C69.4781,173.9531 69.4625,173.8281 69.3688,173.6719 C69.2125,173.4063 68.9313,173.2656 68.6344,173.2656 C68.3375,173.2656 68.1344,173.3594 67.9156,173.6719 L67.7438,173.5938 Z " fill="#000000"/><text fill="#000000" font-family="sans-serif" font-size="12" font-style="italic" lengthAdjust="spacing" textLength="39" x="89.6" y="175.0918">«Role»</text><text fill="#000000" font-family="sans-serif" font-size="12" lengthAdjust="spacing" textLength="50" x="84.1" y="189.0605">Membre</text><line style="stroke:#A80036;stroke-width:1.5;" x1="30.25" x2="157.25" y1="196.8906" y2="196.8906"/><text fill="#000000" font-family="sans-serif" font-size="11" lengthAdjust="spacing" textLength="117" x="35.25" y="211.1011">string nomUtilisateur</text><text fill="#000000" font-family="sans-serif" font-size="11" lengthAdjust="spacing" textLength="107" x="35.25" y="223.9058">string motDePasse</text><line style="stroke:#A80036;stroke-width:1.5;" x1="30.25" x2="157.25" y1="230.5" y2="230.5"/><!--MD5=[44a1b4afaef76c16e6c9ec4990ad0c8d]
class Item--><rect codeLine="11" fill="#FEFECE" filter="url(#f1144kpcx73on9)" height="66.7422" id="Item" style="stroke:#A80036;stroke-width:1.5;" width="133" x="107.25" y="616.9531"/><ellipse cx="122.25" cy="635.9219" fill="#ADD1B2" rx="11" ry="11" style="stroke:#A80036;stroke-width:1.0;"/><path d="M124.5938,631.5938 C123.6563,631.1563 123.0625,631.0156 122.1875,631.0156 C119.5625,631.0156 117.5625,633.0938 117.5625,635.8125 L117.5625,636.9375 C117.5625,639.5156 119.6719,641.4063 122.5625,641.4063 C123.7813,641.4063 124.9375,641.1094 125.6875,640.5625 C126.2656,640.1563 126.5938,639.7031 126.5938,639.3125 C126.5938,638.8594 126.2031,638.4688 125.7344,638.4688 C125.5156,638.4688 125.3125,638.5469 125.125,638.7344 C124.6719,639.2188 124.6719,639.2188 124.4844,639.3125 C124.0625,639.5781 123.375,639.7031 122.6094,639.7031 C120.5625,639.7031 119.2656,638.6094 119.2656,636.9063 L119.2656,635.8125 C119.2656,634.0313 120.5156,632.7188 122.25,632.7188 C122.8281,632.7188 123.4375,632.875 123.9063,633.125 C124.3906,633.4063 124.5625,633.625 124.6563,634.0313 C124.7188,634.4375 124.75,634.5625 124.8906,634.6875 C125.0313,634.8281 125.2656,634.9375 125.4844,634.9375 C125.75,634.9375 126.0156,634.7969 126.1875,634.5781 C126.2969,634.4219 126.3281,634.2344 126.3281,633.8125 L126.3281,632.3906 C126.3281,631.9531 126.3125,631.8281 126.2188,631.6719 C126.0625,631.4063 125.7813,631.2656 125.4844,631.2656 C125.1875,631.2656 124.9844,631.3594 124.7656,631.6719 L124.5938,631.5938 Z " fill="#000000"/><text fill="#000000" font-family="sans-serif" font-size="12" font-style="italic" lengthAdjust="spacing" textLength="105" x="134.25" y="633.0918">«Objet physique»</text><text fill="#000000" font-family="sans-serif" font-size="12" lengthAdjust="spacing" textLength="26" x="173.75" y="647.0605">Item</text><line style="stroke:#A80036;stroke-width:1.5;" x1="108.25" x2="239.25" y1="654.8906" y2="654.8906"/><text fill="#000000" font-family="sans-serif" font-size="11" lengthAdjust="spacing" textLength="71" x="113.25" y="669.1011">serial: String</text><line style="stroke:#A80036;stroke-width:1.5;" x1="108.25" x2="239.25" y1="675.6953" y2="675.6953"/><!--MD5=[fe79217f40e74d8d9110552c4d8e5122]
class ID--><rect codeLine="15" fill="#FEFECE" filter="url(#f1144kpcx73on9)" height="92.3516" id="ID" style="stroke:#A80036;stroke-width:1.5;" width="160" x="159.75" y="760.9531"/><ellipse cx="174.75" cy="779.9219" fill="#ADD1B2" rx="11" ry="11" style="stroke:#A80036;stroke-width:1.0;"/><path d="M177.0938,775.5938 C176.1563,775.1563 175.5625,775.0156 174.6875,775.0156 C172.0625,775.0156 170.0625,777.0938 170.0625,779.8125 L170.0625,780.9375 C170.0625,783.5156 172.1719,785.4063 175.0625,785.4063 C176.2813,785.4063 177.4375,785.1094 178.1875,784.5625 C178.7656,784.1563 179.0938,783.7031 179.0938,783.3125 C179.0938,782.8594 178.7031,782.4688 178.2344,782.4688 C178.0156,782.4688 177.8125,782.5469 177.625,782.7344 C177.1719,783.2188 177.1719,783.2188 176.9844,783.3125 C176.5625,783.5781 175.875,783.7031 175.1094,783.7031 C173.0625,783.7031 171.7656,782.6094 171.7656,780.9063 L171.7656,779.8125 C171.7656,778.0313 173.0156,776.7188 174.75,776.7188 C175.3281,776.7188 175.9375,776.875 176.4063,777.125 C176.8906,777.4063 177.0625,777.625 177.1563,778.0313 C177.2188,778.4375 177.25,778.5625 177.3906,778.6875 C177.5313,778.8281 177.7656,778.9375 177.9844,778.9375 C178.25,778.9375 178.5156,778.7969 178.6875,778.5781 C178.7969,778.4219 178.8281,778.2344 178.8281,777.8125 L178.8281,776.3906 C178.8281,775.9531 178.8125,775.8281 178.7188,775.6719 C178.5625,775.4063 178.2813,775.2656 177.9844,775.2656 C177.6875,775.2656 177.4844,775.3594 177.2656,775.6719 L177.0938,775.5938 Z " fill="#000000"/><text fill="#000000" font-family="sans-serif" font-size="12" font-style="italic" lengthAdjust="spacing" textLength="132" x="186.75" y="777.0918">«Description d'entité»</text><text fill="#000000" font-family="sans-serif" font-size="12" lengthAdjust="spacing" textLength="95" x="205.25" y="791.0605">ItemDescription</text><line style="stroke:#A80036;stroke-width:1.5;" x1="160.75" x2="318.75" y1="798.8906" y2="798.8906"/><text fill="#000000" font-family="sans-serif" font-size="11" lengthAdjust="spacing" textLength="98" x="165.75" y="813.1011">upcCode: Integer</text><text fill="#000000" font-family="sans-serif" font-size="11" lengthAdjust="spacing" textLength="65" x="165.75" y="825.9058">nom: String</text><text fill="#000000" font-family="sans-serif" font-size="11" lengthAdjust="spacing" textLength="53" x="165.75" y="838.7104">prix: Real</text><line style="stroke:#A80036;stroke-width:1.5;" x1="160.75" x2="318.75" y1="845.3047" y2="845.3047"/><!--MD5=[67795369a0169a6ec527a79565ea23e1]
class Commande--><rect codeLine="21" fill="#FEFECE" filter="url(#f1144kpcx73on9)" height="79.5469" id="Commande" style="stroke:#A80036;stroke-width:1.5;" width="140" x="84.75" y="315.9531"/><ellipse cx="112.35" cy="334.9219" fill="#ADD1B2" rx="11" ry="11" style="stroke:#A80036;stroke-width:1.0;"/><path d="M114.6938,330.5938 C113.7563,330.1563 113.1625,330.0156 112.2875,330.0156 C109.6625,330.0156 107.6625,332.0938 107.6625,334.8125 L107.6625,335.9375 C107.6625,338.5156 109.7719,340.4063 112.6625,340.4063 C113.8813,340.4063 115.0375,340.1094 115.7875,339.5625 C116.3656,339.1563 116.6938,338.7031 116.6938,338.3125 C116.6938,337.8594 116.3031,337.4688 115.8344,337.4688 C115.6156,337.4688 115.4125,337.5469 115.225,337.7344 C114.7719,338.2188 114.7719,338.2188 114.5844,338.3125 C114.1625,338.5781 113.475,338.7031 112.7094,338.7031 C110.6625,338.7031 109.3656,337.6094 109.3656,335.9063 L109.3656,334.8125 C109.3656,333.0313 110.6156,331.7188 112.35,331.7188 C112.9281,331.7188 113.5375,331.875 114.0063,332.125 C114.4906,332.4063 114.6625,332.625 114.7563,333.0313 C114.8188,333.4375 114.85,333.5625 114.9906,333.6875 C115.1313,333.8281 115.3656,333.9375 115.5844,333.9375 C115.85,333.9375 116.1156,333.7969 116.2875,333.5781 C116.3969,333.4219 116.4281,333.2344 116.4281,332.8125 L116.4281,331.3906 C116.4281,330.9531 116.4125,330.8281 116.3188,330.6719 C116.1625,330.4063 115.8813,330.2656 115.5844,330.2656 C115.2875,330.2656 115.0844,330.3594 114.8656,330.6719 L114.6938,330.5938 Z " fill="#000000"/><text fill="#000000" font-family="sans-serif" font-size="12" font-style="italic" lengthAdjust="spacing" textLength="84" x="127.15" y="332.0918">«Transaction»</text><text fill="#000000" font-family="sans-serif" font-size="12" lengthAdjust="spacing" textLength="68" x="135.15" y="346.0605">Commande</text><line style="stroke:#A80036;stroke-width:1.5;" x1="85.75" x2="223.75" y1="353.8906" y2="353.8906"/><text fill="#000000" font-family="sans-serif" font-size="11" lengthAdjust="spacing" textLength="128" x="90.75" y="368.1011">noCommande: Integer</text><text fill="#000000" font-family="sans-serif" font-size="11" lengthAdjust="spacing" textLength="125" x="90.75" y="380.9058">dateHeure: DateTime</text><line style="stroke:#A80036;stroke-width:1.5;" x1="85.75" x2="223.75" y1="387.5" y2="387.5"/><!--MD5=[10e7be0a200f3b00e9bef2239fdaa40e]
class CommandeItem--><rect codeLine="26" fill="#FEFECE" filter="url(#f1144kpcx73on9)" height="66.7422" id="CommandeItem" style="stroke:#A80036;stroke-width:1.5;" width="126" x="106.75" y="472.9531"/><ellipse cx="121.75" cy="491.9219" fill="#ADD1B2" rx="11" ry="11" style="stroke:#A80036;stroke-width:1.0;"/><path d="M124.0938,487.5938 C123.1563,487.1563 122.5625,487.0156 121.6875,487.0156 C119.0625,487.0156 117.0625,489.0938 117.0625,491.8125 L117.0625,492.9375 C117.0625,495.5156 119.1719,497.4063 122.0625,497.4063 C123.2813,497.4063 124.4375,497.1094 125.1875,496.5625 C125.7656,496.1563 126.0938,495.7031 126.0938,495.3125 C126.0938,494.8594 125.7031,494.4688 125.2344,494.4688 C125.0156,494.4688 124.8125,494.5469 124.625,494.7344 C124.1719,495.2188 124.1719,495.2188 123.9844,495.3125 C123.5625,495.5781 122.875,495.7031 122.1094,495.7031 C120.0625,495.7031 118.7656,494.6094 118.7656,492.9063 L118.7656,491.8125 C118.7656,490.0313 120.0156,488.7188 121.75,488.7188 C122.3281,488.7188 122.9375,488.875 123.4063,489.125 C123.8906,489.4063 124.0625,489.625 124.1563,490.0313 C124.2188,490.4375 124.25,490.5625 124.3906,490.6875 C124.5313,490.8281 124.7656,490.9375 124.9844,490.9375 C125.25,490.9375 125.5156,490.7969 125.6875,490.5781 C125.7969,490.4219 125.8281,490.2344 125.8281,489.8125 L125.8281,488.3906 C125.8281,487.9531 125.8125,487.8281 125.7188,487.6719 C125.5625,487.4063 125.2813,487.2656 124.9844,487.2656 C124.6875,487.2656 124.4844,487.3594 124.2656,487.6719 L124.0938,487.5938 Z " fill="#000000"/><text fill="#000000" font-family="sans-serif" font-size="12" font-style="italic" lengthAdjust="spacing" textLength="84" x="140.75" y="489.0918">«Transaction»</text><text fill="#000000" font-family="sans-serif" font-size="12" lengthAdjust="spacing" textLength="94" x="135.75" y="503.0605">CommandeItem</text><line style="stroke:#A80036;stroke-width:1.5;" x1="107.75" x2="231.75" y1="510.8906" y2="510.8906"/><text fill="#000000" font-family="sans-serif" font-size="11" lengthAdjust="spacing" textLength="95" x="112.75" y="525.1011">quantite: Integer</text><line style="stroke:#A80036;stroke-width:1.5;" x1="107.75" x2="231.75" y1="531.6953" y2="531.6953"/><!--MD5=[820f4d9c0cedad80d4f61f3fe69231ff]
link MagasinEnLigne to ID--><path codeLine="30" d="M251.516,82.0441 C263.594,90.1681 275.338,100.1541 283.75,111.9531 C306.653,144.0781 305.75,158.5001 305.75,197.9531 C305.75,197.9531 305.75,197.9531 305.75,651.4531 C305.75,690.5381 287.667,731.0371 270.431,760.7607 " fill="none" id="MagasinEnLigne-ID" style="stroke:#A80036;stroke-width:1.0;"/><polygon fill="#000000" points="310.8893,439.5176,313.5751,430.3941,307.6995,430.5579,310.8893,439.5176" style="stroke:#000000;stroke-width:1.0;"/><text fill="#000000" font-family="sans-serif" font-size="13" lengthAdjust="spacing" textLength="29" x="319.75" y="439.02">gère</text><text fill="#000000" font-family="sans-serif" font-size="13" lengthAdjust="spacing" textLength="8" x="254.7931" y="102.1328">1</text><text fill="#000000" font-family="sans-serif" font-size="13" lengthAdjust="spacing" textLength="7" x="267.4232" y="749.9259">*</text><!--MD5=[4537da7730cda9b9aaa39b6237270562]
link MagasinEnLigne to Membre--><path codeLine="31" d="M134.993,74.6121 C117.2638,83.0571 100.0597,95.0661 89.75,111.9531 C81.3387,125.7311 80.7364,143.1901 82.8512,158.7721 " fill="none" id="MagasinEnLigne-Membre" style="stroke:#A80036;stroke-width:1.0;"/><polygon fill="#000000" points="92.1167,124.7699,99.3787,118.6288,94.3821,115.5331,92.1167,124.7699" style="stroke:#000000;stroke-width:1.0;"/><text fill="#000000" font-family="sans-serif" font-size="13" lengthAdjust="spacing" textLength="175" x="103.75" y="125.02">offe un service au membre</text><text fill="#000000" font-family="sans-serif" font-size="13" lengthAdjust="spacing" textLength="8" x="119.1582" y="73.0962">1</text><text fill="#000000" font-family="sans-serif" font-size="13" lengthAdjust="spacing" textLength="7" x="73.4664" y="147.9904">*</text><!--MD5=[e62d4734f788b279f7092422ead9ca17]
link Membre to Commande--><path codeLine="32" d="M109.1429,239.0661 C118.39,262.5631 130.116,292.3581 139.362,315.8521 " fill="none" id="Membre-Commande" style="stroke:#A80036;stroke-width:1.0;"/><polygon fill="#000000" points="133.5811,282.1722,133.0034,272.6792,127.5339,274.8317,133.5811,282.1722" style="stroke:#000000;stroke-width:1.0;"/><text fill="#000000" font-family="sans-serif" font-size="13" lengthAdjust="spacing" textLength="54" x="140.75" y="282.02">effectue</text><text fill="#000000" font-family="sans-serif" font-size="13" lengthAdjust="spacing" textLength="8" x="102.8874" y="258.4686">1</text><text fill="#000000" font-family="sans-serif" font-size="13" lengthAdjust="spacing" textLength="7" x="129.1156" y="304.788">*</text><!--MD5=[6feb8bf664cdd4b38e4d2080d69e4a8c]
link Commande to CommandeItem--><path codeLine="33" d="M158.691,395.9701 C161.104,419.8591 164.157,450.0841 166.444,472.7201 " fill="none" id="Commande-CommandeItem" style="stroke:#A80036;stroke-width:1.0;"/><polygon fill="#000000" points="169.2525,439.4942,171.2675,430.1996,165.4194,430.7903,169.2525,439.4942" style="stroke:#000000;stroke-width:1.0;"/><text fill="#000000" font-family="sans-serif" font-size="13" lengthAdjust="spacing" textLength="52" x="177.75" y="439.02">contient</text><text fill="#000000" font-family="sans-serif" font-size="13" lengthAdjust="spacing" textLength="8" x="150.6816" y="415.6567">1</text><text fill="#000000" font-family="sans-serif" font-size="13" lengthAdjust="spacing" textLength="7" x="158.1466" y="461.9642">*</text><!--MD5=[ba045801f9e64991188670100c011169]
link CommandeItem to Item--><path codeLine="34" d="M170.668,540.0311 C171.314,562.9571 172.175,593.5331 172.823,616.5351 " fill="none" id="CommandeItem-Item" style="stroke:#A80036;stroke-width:1.0;"/><polygon fill="#000000" points="177.8908,583.5175,180.5739,574.3933,174.6983,574.5588,177.8908,583.5175" style="stroke:#000000;stroke-width:1.0;"/><text fill="#000000" font-family="sans-serif" font-size="13" lengthAdjust="spacing" textLength="53" x="186.75" y="583.02">est pour</text><text fill="#000000" font-family="sans-serif" font-size="13" lengthAdjust="spacing" textLength="7" x="163.1919" y="559.7078">*</text><text fill="#000000" font-family="sans-serif" font-size="13" lengthAdjust="spacing" textLength="8" x="163.9146" y="606.0016">1</text><!--MD5=[4609f475997dc810aea8d876c92d1d02]
link Item to ID--><path codeLine="35" d="M167.357,684.1441 C165.861,698.8981 166.084,716.2691 171.75,730.9531 C175.863,741.6111 182.27,751.6931 189.543,760.8025 " fill="none" id="Item-ID" style="stroke:#A80036;stroke-width:1.0;"/><polygon fill="#000000" points="178.14,727.3224,178.4485,717.8169,172.8024,719.4509,178.14,727.3224" style="stroke:#000000;stroke-width:1.0;"/><text fill="#000000" font-family="sans-serif" font-size="13" lengthAdjust="spacing" textLength="93" x="185.75" y="727.02">sont décrit par</text><text fill="#000000" font-family="sans-serif" font-size="13" lengthAdjust="spacing" textLength="7" x="158.533" y="703.8416">*</text><text fill="#000000" font-family="sans-serif" font-size="13" lengthAdjust="spacing" textLength="8" x="173.5813" y="749.973">1</text><!--MD5=[f814c0e8c74e929a09453809bbf0cd74]
@startuml
title MDD CU01 - Ajouter un Item à la vente

    class MagasinEnLigne <<Organisation>>{

    }
    class Membre as "Membre" <<Role>> {
        string nomUtilisateur
        string motDePasse

    }
    class Item as "Item" <<Objet physique>>{
         serial: String
    }

    class ID as "ItemDescription" <<Description d'entité>>{
        upcCode: Integer
        nom: String
        prix: Real
    }

    class Commande <<Transaction>> {
      noCommande: Integer 
      dateHeure: DateTime
    }

    Class CommandeItem <<Transaction>> {
      quantite: Integer
    }

    MagasinEnLigne "1" - - "*" ID: gère >
    MagasinEnLigne "1" - - "*" Membre: offe un service au membre >
    Membre "1" - - "*" Commande: effectue >
    Commande "1" - - "*" CommandeItem: contient >
    CommandeItem "*" - - "1" Item: est pour >
    Item "*" - - "1" ID: sont décrit par >
@enduml

PlantUML version 1.2021.9beta2(Unknown compile time)
(GPL source distribution)
Java Runtime: Java(TM) SE Runtime Environment
JVM: Java HotSpot(TM) 64-Bit Server VM
Default Encoding: UTF-8
Language: en
Country: US
--></g></svg>