<svg viewBox="0 0 96 96" xmlns="http://www.w3.org/2000/svg" xmlns:xlink="http://www.w3.org/1999/xlink" id="Icons_Team_M" overflow="hidden"><g id="Icons"><path d="M27.97 34.979C27.4177 34.979 26.97 35.4267 26.97 35.979L26.959 86 21.969 86 21.969 58 19.969 58 19.969 86 14.969 86 14.969 35.979C14.969 35.4267 14.5213 34.979 13.969 34.979 13.4167 34.979 12.969 35.4267 12.969 35.979L12.969 88 28.959 88 28.97 35.979C28.97 35.4267 28.5223 34.979 27.97 34.979Z"/><path d="M20.969 22C24.835 22 27.969 18.866 27.969 15 27.969 11.134 24.835 8 20.969 8 17.103 8 13.969 11.134 13.969 15 13.9734 18.8642 17.1048 21.9956 20.969 22ZM20.969 10C23.7304 10 25.969 12.2386 25.969 15 25.969 17.7614 23.7304 20 20.969 20 18.2076 20 15.969 17.7614 15.969 15 15.9723 12.2399 18.2089 10.0033 20.969 10Z"/><path d="M81.97 34.979C81.4177 34.979 80.97 35.4267 80.97 35.979L80.959 86 75.969 86 75.969 58 73.969 58 73.969 86 68.969 86 68.969 35.979C68.969 35.4267 68.5213 34.979 67.969 34.979 67.4167 34.979 66.969 35.4267 66.969 35.979L66.969 88 82.959 88 82.97 35.979C82.97 35.4267 82.5223 34.979 81.97 34.979Z"/><path d="M74.969 22C78.835 22 81.969 18.866 81.969 15 81.969 11.134 78.835 8 74.969 8 71.103 8 67.969 11.134 67.969 15 67.9734 18.8642 71.1048 21.9956 74.969 22ZM74.969 10C77.7304 10 79.969 12.2386 79.969 15 79.969 17.7614 77.7304 20 74.969 20 72.2076 20 69.969 17.7614 69.969 15 69.9723 12.2399 72.2089 10.0033 74.969 10Z"/><path d="M90.938 52.259 89.038 32.41C88.9579 31.7754 88.7663 31.1599 88.472 30.592 88.2618 30.2021 88.0107 29.8358 87.723 29.499 85.7548 27.4111 83.3 25.8434 80.578 24.936 76.9484 23.6911 73.0076 23.6911 69.378 24.936 66.8977 25.7644 64.636 27.1412 62.761 28.964 63.1515 29.5539 63.4625 30.1928 63.686 30.864 65.4327 29.0177 67.6095 27.6328 70.022 26.833 73.2336 25.7297 76.7215 25.7297 79.933 26.833 82.3302 27.6275 84.4943 29.0014 86.233 30.833 86.4166 31.0529 86.5771 31.2912 86.712 31.544 86.8897 31.8923 87.0067 32.2684 87.058 32.656L88.958 52.498C89.1287 53.1887 89.0029 53.9192 88.611 54.513 88.2309 54.8747 87.712 55.0525 87.19 55 86.6377 55 86.19 55.4477 86.19 56 86.19 56.5523 86.6377 57 87.19 57 88.2921 57.0643 89.3649 56.6309 90.113 55.819 90.8938 54.8093 91.1951 53.5092 90.938 52.259Z"/><path d="M8.747 55C8.22595 55.0489 7.70942 54.8685 7.332 54.506 6.93599 53.8981 6.81201 53.1524 6.99 52.449L8.88 32.7C8.92843 32.2952 9.04721 31.9019 9.231 31.538 9.35632 31.3026 9.50364 31.0796 9.671 30.872 11.4199 29.0184 13.6019 27.6284 16.021 26.827 17.6131 26.2667 19.2903 25.9869 20.978 26 22.665 25.9874 24.3413 26.2682 25.932 26.83 28.3274 27.6252 30.4897 28.9991 32.227 30.83 32.251 30.859 32.267 30.895 32.291 30.925 32.5128 30.2452 32.8239 29.5979 33.216 29 31.3382 27.1621 29.0679 25.7743 26.576 24.941 24.8082 24.3223 22.9489 24.0059 21.076 24.005L20.981 24.005C19.0754 24.0001 17.1825 24.3148 15.381 24.936 12.6351 25.8517 10.1606 27.4371 8.181 29.549 7.91066 29.8733 7.67379 30.2241 7.474 30.596 7.17314 31.1778 6.97875 31.8087 6.9 32.459L5.005 52.217C4.73921 53.479 5.0384 54.7942 5.824 55.817 6.57197 56.6292 7.64466 57.0634 8.747 57 9.29928 57 9.747 56.5523 9.747 56 9.747 55.4477 9.29928 55 8.747 55Z"/><path d="M54.97 34.979C54.4177 34.979 53.97 35.4267 53.97 35.979L53.959 86 48.969 86 48.969 58 46.969 58 46.969 86 41.969 86 41.969 35.979C41.969 35.4267 41.5213 34.979 40.969 34.979 40.4167 34.979 39.969 35.4267 39.969 35.979L39.969 88 55.959 88 55.97 35.979C55.97 35.4267 55.5223 34.979 54.97 34.979Z"/><path d="M47.969 22C51.835 22 54.969 18.866 54.969 15 54.969 11.134 51.835 8 47.969 8 44.103 8 40.969 11.134 40.969 15 40.9734 18.8642 44.1048 21.9956 47.969 22ZM47.969 10C50.7304 10 52.969 12.2386 52.969 15 52.969 17.7614 50.7304 20 47.969 20 45.2076 20 42.969 17.7614 42.969 15 42.9723 12.2399 45.209 10.0033 47.969 10Z"/><path d="M62.036 32.41C61.9559 31.7754 61.7643 31.1599 61.47 30.592 61.2598 30.2021 61.0087 29.8358 60.721 29.499 57.3985 26.0084 52.797 24.0227 47.978 24 46.0724 23.9949 44.1795 24.3096 42.378 24.931 39.6321 25.8467 37.1576 27.4321 35.178 29.544 34.9077 29.8683 34.6708 30.2191 34.471 30.591 34.1703 31.1745 33.9765 31.8072 33.899 32.459L32.005 52.217C31.7392 53.479 32.0384 54.7942 32.824 55.817 33.572 56.6292 34.6447 57.0634 35.747 57 36.2993 57 36.747 56.5523 36.747 56 36.747 55.4477 36.2993 55 35.747 55 35.2259 55.0489 34.7094 54.8685 34.332 54.506 33.936 53.8981 33.812 53.1523 33.99 52.449L35.88 32.7C35.9284 32.2952 36.0472 31.9019 36.231 31.538 36.3563 31.3026 36.5036 31.0796 36.671 30.872 38.4199 29.0184 40.6019 27.6284 43.021 26.827 44.6139 26.2698 46.2905 25.9901 47.978 26 49.6649 25.9877 51.3412 26.2685 52.932 26.83 55.3274 27.6252 57.4897 28.9991 59.227 30.83 59.4106 31.0499 59.5711 31.2882 59.706 31.541 59.8837 31.8893 60.0007 32.2654 60.052 32.653L61.952 52.495C62.1227 53.1857 61.9969 53.9162 61.605 54.51 61.2269 54.8711 60.7104 55.0499 60.19 55 59.6377 55 59.19 55.4477 59.19 56 59.19 56.5523 59.6377 57 60.19 57 61.2921 57.0643 62.3649 56.6309 63.113 55.819 63.8938 54.8093 64.1951 53.5092 63.938 52.259Z"/></g></svg>