<svg viewBox="0 0 96 96" xmlns="http://www.w3.org/2000/svg" xmlns:xlink="http://www.w3.org/1999/xlink" id="Icons_Cheers_M" overflow="hidden"><g id="Icons"><path d="M54.63 90.2644 52.63 90.2644 52.63 79.8765C52.63 79.5021 52.8391 79.159 53.172 78.9875 54.1583 78.4792 55.8536 76.5405 56.1231 69.2681 56.1288 69.1096 56.1723 68.9547 56.2501 68.8164L60.1101 61.9216C60.2069 61.7179 60.2276 61.4863 60.1686 61.2686 60.1158 61.0736 59.9812 60.9109 59.7995 60.8225 59.412 60.5856 58.9058 60.7078 58.6689 61.0953 58.6657 61.1005 58.6626 61.1058 58.6595 61.1111L54.9602 67.6811C54.689 68.1622 54.0791 68.3323 53.598 68.0611 53.2053 67.8397 53.0093 67.3829 53.1194 66.9457L55.6016 57.11C55.6661 56.8952 55.6351 56.663 55.5166 56.4726 55.4046 56.2932 55.2219 56.1697 55.0137 56.1326 54.7803 56.0519 54.5234 56.0775 54.3105 56.2026 54.1307 56.3144 54.007 56.4975 53.9705 56.7061L51.8426 65.2271C51.7083 65.7628 51.1652 66.0883 50.6295 65.954 50.1848 65.8426 49.8729 65.443 49.8726 64.9846L49.8726 55.8217C49.8786 55.3733 49.5385 54.9957 49.0919 54.9549 48.6295 54.9235 48.2293 55.2728 48.1978 55.7352 48.1966 55.7539 48.1959 55.7727 48.1959 55.7915L48.1959 65.6277C48.1947 66.18 47.746 66.6267 47.1938 66.6255 46.7302 66.6245 46.3281 66.3051 46.2223 65.8538L44.109 56.7529C44.0063 56.3 43.5558 56.0161 43.1029 56.1188 42.65 56.2216 42.3661 56.672 42.4689 57.1249 42.4727 57.1419 42.4771 57.1588 42.482 57.1755L45.0445 68.0647C45.0674 68.1629 45.0753 68.2641 45.068 68.3647 44.9545 69.6642 44.7304 70.9516 44.398 72.2129 44.2639 72.7487 43.7209 73.0743 43.1852 72.9402 42.9899 72.8914 42.814 72.7848 42.6803 72.6343 42.6102 72.5737 42.549 72.5035 42.4986 72.4258 41.1429 70.2281 39.077 68.5595 36.6432 67.6965 36.4642 67.6362 36.2681 67.6543 36.1032 67.7465 35.9291 67.8504 35.8015 68.0173 35.7468 68.2126 35.6454 68.588 35.8675 68.9744 36.2429 69.0758 36.2519 69.0782 36.2611 69.0805 36.2702 69.0826 37.7602 69.4239 38.8933 71.1678 40.2048 73.1871L40.3142 73.3561C41.7542 75.6061 43.4987 78.1205 46.0349 79.5582 46.3482 79.7358 46.5417 80.0681 46.5417 80.4282L46.5417 90.2646 44.5417 90.2646 44.5417 80.9937C42.1165 79.2679 40.0997 77.0306 38.6338 74.44L38.5283 74.2762C37.5883 72.8301 36.5234 71.191 35.7583 71.0144 34.3118 70.6461 33.4378 69.175 33.8061 67.7285 33.8137 67.6984 33.8219 67.6685 33.8306 67.6387 34.0313 66.9536 34.4875 66.3718 35.105 66.0135 35.7363 65.6469 36.4918 65.5599 37.1899 65.7735 39.4183 66.4906 41.395 67.8305 42.8865 69.6349 42.8904 69.6388 42.8968 69.6387 42.9006 69.6348 42.9019 69.6335 42.9028 69.632 42.9032 69.6303 42.9701 69.2216 43.0264 68.7969 43.062 68.3719L40.5244 57.5833C40.1683 56.0562 41.1176 54.5296 42.6447 54.1735 44.1718 53.8175 45.6984 54.7667 46.0545 56.2938 46.0586 56.3116 46.0626 56.3295 46.0664 56.3474L46.1773 56.8219C46.1878 56.8675 46.1963 56.8665 46.1963 56.8198L46.1963 55.8511C46.1843 54.3018 47.4011 53.0212 48.949 52.9541 50.5178 52.9087 51.8264 54.1437 51.8718 55.7125 51.8726 55.7388 51.873 55.7652 51.873 55.7915L51.873 56.7783C51.873 56.8217 51.8816 56.8227 51.892 56.7806L52.0166 56.2844C52.1632 55.5488 52.6075 54.9066 53.2441 54.51 53.903 54.0967 54.7048 53.9781 55.4551 54.1828 56.1829 54.3319 56.8172 54.774 57.209 55.4052 57.6218 56.0644 57.7403 56.8661 57.5361 57.6166L56.9049 60.1176C56.896 60.1529 56.9038 60.1564 56.9223 60.1251 56.9552 60.0769 56.9833 60.0255 57.006 59.9717 57.8029 58.7453 59.4083 58.337 60.6943 59.0336 61.3802 59.3727 61.8894 59.9878 62.0943 60.725 62.2903 61.4381 62.2127 62.1987 61.8766 62.8574L58.1123 69.584C57.8711 75.3672 56.7295 78.9297 54.6299 80.434Z"/><path d="M7.332 68.1526 6.3887 66.3894 15.4873 61.5173C15.8196 61.3396 16.2235 61.3638 16.5322 61.5798 18.0713 62.657 21.6522 61.9268 26.3564 59.574 26.499 59.5032 26.6562 59.4671 26.8154 59.4685L34.8115 59.5603C35.2746 59.5571 35.6474 59.179 35.6441 58.716 35.6409 58.2529 35.2629 57.8801 34.7998 57.8833L27.3428 57.7913C26.7906 57.7845 26.3484 57.3313 26.3552 56.779 26.3608 56.3264 26.6698 55.934 27.1084 55.8223L36.8506 53.3403C37.0665 53.2815 37.2498 53.1385 37.3594 52.9434 37.456 52.7757 37.48 52.5759 37.4258 52.3901 37.3715 52.1583 37.2237 51.9592 37.0176 51.8401 36.8499 51.7441 36.6505 51.7201 36.4648 51.7737L27.9756 53.99C27.4412 54.1294 26.895 53.8092 26.7555 53.2749 26.6396 52.8306 26.8411 52.3645 27.2441 52.1446L35.332 47.7322C35.7366 47.5154 35.8888 47.0117 35.6721 46.6071 35.4553 46.2025 34.9516 46.0503 34.547 46.2671 34.5352 46.2734 34.5235 46.28 34.512 46.2869L25.8948 50.8719C25.407 51.1308 24.8016 50.9452 24.5427 50.4574 24.326 50.0489 24.4175 49.5452 24.764 49.2391L31.749 43.08C31.9113 42.931 32.0091 42.7246 32.0215 42.5046 32.0422 42.2917 31.9772 42.0794 31.8408 41.9146 31.6925 41.7535 31.4872 41.6566 31.2686 41.6446 31.0559 41.6244 30.8438 41.6891 30.6786 41.8246L22.2217 49.18C22.1503 49.2423 22.0704 49.294 21.9844 49.3336 20.762 49.9058 19.4656 50.3041 18.1328 50.5169 17.5873 50.6013 17.0767 50.2276 16.9923 49.6822 16.9844 49.6314 16.9805 49.5801 16.9805 49.5287 16.9803 49.24 17.0948 48.963 17.2988 48.7587 18.4991 46.5672 18.9454 44.0417 18.5688 41.5715 18.5293 41.3931 18.4151 41.2402 18.2553 41.1515 18.0655 41.041 17.8426 41.0017 17.6264 41.0404 17.2456 41.1808 17.0296 41.5835 17.1234 41.9784 17.475 43.4992 16.5082 45.3446 15.39 47.4813 13.9779 50.1049 12.7211 52.6622 12.64 55.5324 12.6293 55.8887 12.4299 56.2124 12.1166 56.3824L3.4766 61.0706 2.5234 59.3128 10.6709 54.8914C11.0597 51.9441 12.0599 49.1105 13.6074 46.5721 14.4336 44.9942 15.3594 43.2269 15.168 42.3985 14.8395 40.9144 15.7569 39.4397 17.2334 39.0785 17.9319 38.9442 18.6555 39.0681 19.2695 39.4272 19.9166 39.7937 20.3737 40.4219 20.5234 41.1503 20.9394 43.468 20.6889 45.8562 19.8011 48.0371 19.7996 48.0424 19.8026 48.048 19.8079 48.0495 19.8096 48.05 19.8114 48.05 19.8131 48.0496 20.2158 47.9136 20.6177 47.7554 21.0186 47.5749L29.3643 40.3158C30.5486 39.3155 32.314 39.4397 33.3467 40.5958 33.8333 41.1643 34.0743 41.9027 34.0167 42.6488 33.9648 43.3919 33.6245 44.0852 33.0685 44.5809L32.5375 45.0493C32.5035 45.0793 32.5084 45.0862 32.5483 45.065L33.5948 44.5084C34.974 43.773 36.6883 44.295 37.4237 45.6742 38.1591 47.0534 37.6371 48.7677 36.2579 49.5031L35.4212 49.9598C35.384 49.9798 35.3872 49.9881 35.4282 49.9775 35.4282 49.9775 35.5431 49.947 35.5712 49.9408 36.3737 49.7468 37.216 49.7991 37.9884 50.0908 38.6608 50.4642 39.152 51.0956 39.3484 51.8393 39.5513 52.5345 39.4648 53.2823 39.1084 53.9128 38.7349 54.5846 38.1042 55.0755 37.3613 55.2728L35.0119 55.8714C34.9806 55.8794 34.9819 55.8871 35.0137 55.8894 36.5776 56.0024 37.7537 57.3618 37.6407 58.9257 37.5331 60.4138 36.292 61.5648 34.8 61.56L27.0334 61.4709C21.9602 63.9753 18.2316 64.6709 15.9387 63.5439Z"/><path d="M86.3828 72.8215 80.15 66.0676C76.9566 66.6562 73.8639 65.9076 71.3512 65.3015 70.1422 64.9866 67.6612 64.3406 66.9185 64.7476 66.2818 65.1016 65.5248 65.1691 64.8355 64.9333 64.1664 64.7077 63.6065 64.2387 63.2672 63.6194 62.91 62.9819 62.8409 62.2225 63.0772 61.531 63.3027 60.8618 63.7716 60.3018 64.3907 59.9622 66.5061 58.9556 68.8662 58.5781 71.19 58.8745 71.1955 58.8746 71.2001 58.8702 71.2002 58.8647 71.2002 58.863 71.1998 58.8613 71.199 58.8598 70.9648 58.5043 70.7125 58.1504 70.4404 57.8098L61.2793 51.5498C60.008 50.6451 59.6858 48.8939 60.5518 47.5959 61.3975 46.3284 62.7118 45.6534 64.0128 46.5216L64.9645 47.1652C65.0023 47.1908 65.0079 47.1843 64.9769 47.1508L64.2344 46.3467C63.1727 45.2595 63.1934 43.5174 64.2807 42.4558 64.3045 42.4325 64.3288 42.4096 64.3535 42.3872 64.8879 41.8389 65.633 41.5482 66.3975 41.5898 67.1332 41.6345 67.826 41.9515 68.3408 42.479L69.1177 43.3129C69.1464 43.3437 69.1534 43.3387 69.1332 43.3017L68.7793 42.655C68.4308 41.9889 68.3467 41.2157 68.5439 40.4902 68.7483 39.7526 69.2575 39.1371 69.9439 38.7983 70.603 38.4628 71.3635 38.3853 72.0767 38.5811 72.8139 38.7854 73.4288 39.2948 73.7667 39.9811L75.01 42.2331C75.0265 42.2631 75.0345 42.2601 75.0278 42.2266 75.0278 42.2266 75.0202 42.1958 75.0178 42.1813 74.6858 40.6494 75.6585 39.1385 77.1903 38.8064 78.6914 38.4811 80.1788 39.4089 80.5469 40.9L82.334 48.408C84.5625 50.9194 87.8457 55.3135 87.1289 58.7332L93.7373 65.9524 92.2627 67.303 85.2773 59.673C85.0236 59.3965 84.9464 59.0011 85.0773 58.6495 85.8928 56.4557 83.3381 52.5128 80.6773 49.5545 80.5648 49.4305 80.4857 49.28 80.4473 49.117L78.6094 41.395C78.4923 40.9315 78.0217 40.6507 77.5582 40.7677 77.557 40.768 77.5559 40.7683 77.5547 40.7686 77.113 40.9045 76.8591 41.3666 76.9814 41.8123L78.7158 49.02C78.8465 49.5566 78.5174 50.0975 77.9808 50.2282 77.5412 50.3352 77.0846 50.1338 76.8672 49.7371L71.9961 40.9119C71.9103 40.7138 71.74 40.5649 71.5322 40.5064 71.2987 40.4465 71.0512 40.4756 70.8379 40.5879 70.6554 40.6748 70.5204 40.8376 70.4688 41.033 70.4089 41.2667 70.4381 41.5144 70.5508 41.7278L74.7608 49.417C75.0255 49.9017 74.847 50.5093 74.3623 50.7739 73.9617 50.9926 73.464 50.9123 73.1524 50.5789L66.9024 43.8682C66.7408 43.7052 66.5259 43.6058 66.297 43.5882 66.0981 43.5807 65.9055 43.6586 65.7677 43.8021 65.4236 44.077 65.3675 44.5787 65.6424 44.9228 65.6531 44.9363 65.6643 44.9494 65.6759 44.9621L72.4122 52.2529C72.7865 52.659 72.7606 53.2917 72.3545 53.6659 72.0133 53.9804 71.5006 54.0188 71.1163 53.7587L63.3963 48.5187C63.0138 48.2472 62.4836 48.3372 62.2121 48.7196 61.9448 49.0963 62.0274 49.6175 62.3982 49.893L71.6902 56.2424C71.7689 56.2964 71.8396 56.3613 71.9002 56.435 72.7087 57.4601 73.4204 58.558 74.0262 59.7145 74.2907 60.1993 74.1122 60.8068 73.6274 61.0713 73.4804 61.1515 73.3156 61.1935 73.1482 61.1935 73.0412 61.1934 72.9345 61.1847 72.8289 61.1674 70.3477 60.4885 67.7087 60.6823 65.3533 61.7162 65.1767 61.8144 65.0422 61.974 64.9754 62.1647 64.9186 62.3244 64.9332 62.5009 65.0154 62.6491 65.1133 62.8299 65.2748 62.9681 65.4686 63.0368 65.6286 63.0935 65.8053 63.0789 65.9539 62.9968 67.2939 62.2654 69.4109 62.73 71.8377 63.363 74.2801 63.9521 77.3406 64.6897 80.2713 64.0007 80.6226 63.9183 80.9911 64.031 81.2361 64.2959L87.8533 71.4659Z"/><path d="M62.2158 41.1792C61.7518 41.2079 61.2897 41.0977 60.8887 40.8625 60.2277 40.519 59.7394 39.916 59.541 39.198 59.345 38.485 59.4227 37.7244 59.7588 37.0657L60.0634 36.4921C60.0865 36.4498 60.0795 36.4449 60.0478 36.4812L59.291 37.345C58.7766 37.992 57.9863 38.3571 57.1602 38.3293 56.5051 38.3153 55.8734 38.083 55.3652 37.6693 54.7795 37.17 54.4174 36.4575 54.3594 35.69 54.3018 34.9439 54.5428 34.2055 55.0294 33.6371L55.6465 32.9365C55.6772 32.9016 55.6714 32.8953 55.6337 32.9223L55.3107 33.1441C54.8581 33.5424 54.2706 33.753 53.6681 33.733 52.7341 33.7273 51.8668 33.2479 51.3652 32.46 50.4984 31.1581 50.8252 29.4027 52.1025 28.5L54.0854 27.1336C54.1104 27.1164 54.1063 27.1092 54.0769 27.1169 53.8237 27.1829 53.5624 27.213 53.3008 27.2063 52.0504 27.1786 50.948 26.3791 50.5332 25.1992 49.988 23.722 50.727 22.0804 52.1943 21.5092L59.542 18.9092C63.5205 14.7484 66.7031 12.8345 69.2734 13.0855L75.707 5.6934 77.2148 7.0063 70.4141 14.82C70.1669 15.1027 69.7826 15.2237 69.418 15.1337 68.3486 14.8668 65.808 15.2008 60.8271 20.4589 60.7183 20.5738 60.5838 20.6612 60.4346 20.714L52.8984 23.38C52.4619 23.5546 52.2425 24.0438 52.4023 24.4859 52.525 24.888 52.8816 25.1738 53.3008 25.2059 53.4112 25.2143 53.5221 25.2005 53.627 25.1653L60.5938 22.69C61.1141 22.5047 61.6861 22.7763 61.8713 23.2965 62.0234 23.7234 61.8694 24.1991 61.4961 24.4559L53.2246 30.155C52.8552 30.4405 52.7699 30.9632 53.0293 31.3513 53.163 31.5793 53.4039 31.7233 53.668 31.7329 53.7743 31.7418 53.8806 31.7158 53.9707 31.6587 54.0134 31.6162 54.0598 31.5775 54.1094 31.5432L61.2783 26.5791C61.7327 26.2651 62.3555 26.379 62.6695 26.8333 62.9302 27.2106 62.9008 27.7169 62.5983 28.0615L56.5329 34.9563C56.3978 35.1208 56.3335 35.3323 56.3542 35.5442 56.3665 35.763 56.4633 35.9684 56.6242 36.1172 56.7736 36.2468 56.9628 36.3216 57.1604 36.3293 57.393 36.353 57.6207 36.2511 57.758 36.0618L64.3127 28.5806C64.6758 28.1645 65.3075 28.1215 65.7236 28.4846 66.075 28.7911 66.1678 29.2997 65.9475 29.7106L61.5363 37.984C61.4319 38.1919 61.407 38.4307 61.4663 38.6557 61.5184 38.8512 61.6536 39.014 61.8363 39.101 61.8737 39.1199 61.9099 39.141 61.9447 39.1642 62.0344 39.1788 62.1254 39.1839 62.2162 39.1796 62.55 39.162 62.8493 38.9686 63.0024 38.6715L68.3197 28.7672C68.3657 28.681 68.4243 28.6021 68.4936 28.5331 69.4369 27.6083 70.4805 26.7916 71.6049 26.0981 72.0708 25.8015 72.6889 25.9387 72.9855 26.4045 73.0877 26.5651 73.142 26.7515 73.142 26.9418 73.142 26.9845 73.1391 27.1195 73.1342 27.1618 72.7207 29.7043 73.1801 32.3119 74.4375 34.56 74.6576 34.8919 75.1051 34.9826 75.437 34.7625 75.7689 34.5424 75.8595 34.0949 75.6395 33.763 75.636 33.7578 75.6325 33.7526 75.6289 33.7475 74.7979 32.4418 75.0557 30.3866 75.3545 28.0075L75.377 27.8286C75.7617 25.0371 76.0586 22.0942 75.1445 19.3523 75.0321 19.0157 75.1064 18.6447 75.3398 18.3774L81.7734 11.0234 83.2793 12.34 77.2129 19.2743C77.8767 22.1701 77.9266 25.1728 77.3594 28.089L77.3394 28.2562C77.1206 29.9999 76.8726 31.9762 77.3052 32.6562 78.1361 33.9083 77.7947 35.5969 76.5426 36.4278 75.2957 37.2553 73.6145 36.9205 72.7798 35.6784 71.5599 33.6612 70.9482 31.3347 71.0181 28.9784 71.0177 28.9729 71.0128 28.9688 71.0073 28.9692 71.0056 28.9694 71.0039 28.97 71.0024 28.971 70.6443 29.2576 70.3164 29.547 70.0103 29.8454L64.751 39.6409C64.2436 40.5718 63.2758 41.159 62.2158 41.1792Z"/><path d="M38.418 39.6162C37.3754 39.659 36.3983 39.108 35.8955 38.1936L34.5991 35.87C34.5827 35.8406 34.5747 35.8435 34.5813 35.8765L34.6123 35.9926C34.9328 37.4682 34.0617 38.9413 32.6143 39.3715 32.3586 39.4848 32.0802 39.5373 31.8008 39.5248 30.4965 39.5374 29.3612 38.6358 29.0781 37.3625L27.22 29.927C26.1673 28.8218 21.49 23.6277 22.5677 19.6438L15.9077 12.5498 17.3667 11.1812 24.4429 18.719C24.7206 19.0151 24.7918 19.4498 24.6229 19.819 23.5529 22.1626 26.6375 26.5205 28.8329 28.7168 28.9609 28.845 29.0517 29.0056 29.0956 29.1814L31.0256 36.9033C31.1025 37.2694 31.4279 37.5299 31.802 37.5246 31.8658 37.4994 31.9318 37.4804 31.9992 37.4677 32.4717 37.3597 32.7672 36.889 32.6592 36.4165 32.6583 36.4126 32.6574 36.4088 32.6565 36.405L30.92 29.1978C30.7907 28.6609 31.1211 28.1208 31.658 27.9914 32.0943 27.8863 32.5472 28.0848 32.7657 28.4768L37.6367 37.21C37.7836 37.4984 38.0975 37.6617 38.418 37.6162 38.5461 37.6107 38.6708 37.5739 38.7813 37.5088 38.8161 37.4857 38.8523 37.4648 38.8896 37.446 39.0659 37.3531 39.1962 37.1919 39.25 37 39.3206 36.7832 39.302 36.5472 39.1982 36.3442L34.97 28.7131C34.7023 28.23 34.8769 27.6214 35.36 27.3537 35.7617 27.1311 36.2635 27.2108 36.5765 27.5469L42.8265 34.2576C43.1918 34.5674 43.7256 34.5744 44.0989 34.2742 44.3968 33.9456 44.3968 33.4446 44.0989 33.116L37.4121 25.97C37.0349 25.5666 37.0562 24.9338 37.4597 24.5566 37.7993 24.2391 38.3129 24.1975 38.6992 24.4563L46.5117 29.6963C46.6508 29.7719 46.8076 29.8086 46.9658 29.8028 47.2557 29.7969 47.526 29.6552 47.6958 29.4202 47.9534 29.0375 47.874 28.5211 47.5132 28.2335L38.14 21.9822C38.0573 21.9271 37.9831 21.86 37.92 21.7832 37.1112 20.7581 36.3994 19.6601 35.794 18.5032 35.5295 18.0184 35.708 17.4109 36.1928 17.1464 36.3398 17.0662 36.5046 17.0242 36.672 17.0242 36.779 17.0242 36.8858 17.0329 36.9913 17.0503 39.4725 17.7286 42.1113 17.5348 44.4669 16.5015 44.6228 16.417 44.7375 16.2725 44.7843 16.1015 44.8323 15.9213 44.8066 15.7293 44.713 15.568 44.6288 15.4082 44.4826 15.2901 44.3087 15.2413 44.1281 15.1943 43.9363 15.22 43.7745 15.3129 42.4571 16.0321 40.4327 15.5929 38.088 15.0829L37.9298 15.0485C35.4552 14.4511 32.4005 13.713 29.4835 14.4867 29.1276 14.5805 28.749 14.4717 28.4972 14.2033L21.7882 7.0333 23.249 5.6665 29.5615 12.4136C32.7615 11.7436 35.8584 12.4915 38.377 13.0994L38.5127 13.1287C40.1348 13.4819 42.1514 13.9216 42.8105 13.5615 43.4292 13.2144 44.16 13.1258 44.8438 13.3149 45.5339 13.5066 46.1172 13.9693 46.4609 14.5977 46.8111 15.2177 46.9011 15.9514 46.7109 16.6377 46.5196 17.328 46.0571 17.9114 45.4287 18.2551 43.3187 19.2734 40.9572 19.6533 38.6343 19.348 38.6288 19.3479 38.6242 19.3524 38.6242 19.3579 38.6242 19.3595 38.6245 19.3611 38.6253 19.3626 38.8575 19.7149 39.1068 20.0654 39.376 20.4026L48.623 26.5689C49.9243 27.4809 50.2399 29.275 49.328 30.5763 48.7883 31.3465 47.9062 31.8043 46.9658 31.8023 46.4117 31.8099 45.8675 31.6557 45.3998 31.3585 45.3998 31.3585 45.1787 31.2114 44.9141 31.0327 44.8752 31.0064 44.87 31.0127 44.902 31.0474L45.582 31.774C46.6123 32.9126 46.5615 34.661 45.4668 35.7378 45.4337 35.7713 45.3981 35.8022 45.3604 35.8304 44.8188 36.2475 44.1571 36.4789 43.4736 36.4904 42.6922 36.5032 41.9391 36.1983 41.3867 35.6455L40.7267 34.9362C40.6973 34.9045 40.6903 34.9095 40.7113 34.9473L40.9476 35.3735C41.3159 36.0532 41.3928 36.8532 41.1605 37.5905 40.9538 38.2846 40.4776 38.8669 39.8382 39.207 39.4106 39.4696 38.9197 39.6111 38.418 39.6162Z"/></g></svg>