<svg viewBox="0 0 96 96" xmlns="http://www.w3.org/2000/svg" xmlns:xlink="http://www.w3.org/1999/xlink" id="Icons_Blueprint" overflow="hidden"><path d="M78.8 21.39 82.361 17.855C83.136 17.1741 83.2123 15.9938 82.5314 15.2187 82.4929 15.175 82.4524 15.133 82.41 15.093L78.91 11.593C78.1516 10.8168 76.9075 10.8023 76.1313 11.5607 76.1204 11.5714 76.1096 11.5821 76.099 11.593L72.538 15.128Z"/><path d="M66.002 60.5 66.002 57.5 58.502 57.5 58.502 68.5 57.002 68.5 57.002 71.5 76.502 71.5 76.502 36.5 68.061 36.5 65.061 39.5 73.502 39.5 73.502 48.5 58 48.5 58 51.5 73.502 51.5 73.502 57.5 71.002 57.5 71.002 60.5 73.502 60.5 73.502 68.5 61.502 68.5 61.502 60.5 66.002 60.5Z"/><path d="M81.561 23 75.561 29 83 29 83 78 24.475 78C24.7067 77.3535 24.863 76.6824 24.941 76L25 75 25 29 54.48 29 60.469 23 25 23 25 22C25 17.0294 20.9706 13 16 13 11.0294 13 7 17.0294 7 22L7 75 7.059 76C7.55651 80.382 11.1543 83.7588 15.559 83.978L15.559 84 89 84 89 23ZM16 78C14.3431 78 13 76.6569 13 75 13 73.3431 14.3431 72 16 72 17.6569 72 19 73.3431 19 75 19 76.6569 17.6569 78 16 78ZM19 66.525C17.0612 65.825 14.9388 65.825 13 66.525L13 22C13 20.3431 14.3431 19 16 19 17.6569 19 19 20.3431 19 22Z"/><path d="M44.001 39.5 46.995 36.5 31.5 36.5 31.5 71.5 51.002 71.5 51.002 68.5 49.502 68.5 49.502 57.5 42.002 57.5 42.002 60.5 46.502 60.5 46.502 68.5 34.5 68.5 34.5 60.5 37.002 60.5 37.002 57.5 34.5 57.5 34.5 51.5 40.011 51.5 41.006 48.5 34.5 48.5 34.5 39.5 44.001 39.5Z"/><path d="M71.14 16.554 46.609 41.133 43.5 50.5 52.92 47.393 77.45 22.862ZM51.886 45.67 47.694 47.052 46.955 46.312 48.335 42.12C49.3366 41.1718 50.911 41.1936 51.886 42.169 52.8528 43.1078 52.8755 44.6525 51.9367 45.6193 51.92 45.6365 51.9031 45.6534 51.886 45.67Z"/></svg>