<svg viewBox="0 0 96 96" xmlns="http://www.w3.org/2000/svg" xmlns:xlink="http://www.w3.org/1999/xlink" id="Icons_Workflow_LTR_M" overflow="hidden"><g id="Icons"><path d="M59.836 24 71.125 35.289 82.414 24 71.125 12.711ZM71.125 32.461 62.664 24 71.125 15.539 79.586 24Z"/><path d="M24 14C18.4772 14 14 18.4772 14 24 14 29.5228 18.4772 34 24 34 29.5228 34 34 29.5228 34 24 33.9939 18.4797 29.5203 14.0061 24 14ZM24 32C19.5817 32 16 28.4183 16 24 16 19.5817 19.5817 16 24 16 28.4183 16 32 19.5817 32 24 31.995 28.4162 28.4162 31.995 24 32Z"/><path d="M61 73C61 78.5229 65.4771 83 71 83 76.5229 83 81 78.5229 81 73 81 67.4771 76.5229 63 71 63 65.4797 63.0061 61.0061 67.4797 61 73ZM71 65C75.4183 65 79 68.5817 79 73 79 77.4183 75.4183 81 71 81 66.5817 81 63 77.4183 63 73 63.005 68.5838 66.5838 65.005 71 65Z"/><path d="M14 83 34 83 34 63 14 63ZM16 65 32 65 32 81 16 81Z"/><path d="M71 38C70.4477 38 70 38.4477 70 39L70 57.586 66.707 54.293C66.3097 53.9093 65.6767 53.9203 65.293 54.3176 64.9187 54.7051 64.9187 55.3195 65.293 55.707L70.293 60.707C70.6835 61.0974 71.3165 61.0974 71.707 60.707L76.707 55.707C77.0907 55.3097 77.0797 54.6767 76.6824 54.293 76.2949 53.9187 75.6805 53.9187 75.293 54.293L72 57.586 72 39C72 38.4477 71.5523 38 71 38Z"/><path d="M57.707 23.293 52.707 18.293C52.3097 17.9093 51.6767 17.9203 51.293 18.3176 50.9187 18.7051 50.9187 19.3195 51.293 19.707L54.586 23 38 23C37.4477 23 37 23.4477 37 24 37 24.5523 37.4477 25 38 25L54.586 25 51.293 28.293C50.8957 28.6767 50.8847 29.3097 51.2684 29.707 51.6521 30.1042 52.2852 30.1153 52.6824 29.7316 52.6908 29.7235 52.699 29.7153 52.707 29.707L57.707 24.707C58.0974 24.3165 58.0974 23.6835 57.707 23.293Z"/><path d="M58 73C58 72.4477 57.5523 72 57 72L39.414 72 42.707 68.707C43.1043 68.3233 43.1153 67.6903 42.7316 67.293 42.3479 66.8957 41.7148 66.8847 41.3176 67.2684 41.3092 67.2765 41.301 67.2847 41.293 67.293L36.293 72.293C35.9026 72.6835 35.9026 73.3165 36.293 73.707L41.293 78.707C41.6767 79.1043 42.3097 79.1153 42.707 78.7316 43.1043 78.3479 43.1153 77.7148 42.7316 77.3176 42.7235 77.3092 42.7153 77.301 42.707 77.293L39.414 74 57 74C57.5523 74 58 73.5523 58 73Z"/></g></svg>