<?xml version="1.0" encoding="UTF-8" standalone="no"?>
<svg
   viewBox="0 0 99.719307 89.037675"
   id="Icons_GoldenRatio_M"
   overflow="hidden"
   version="1.1"
   sodipodi:docname="PatternCurves.svg"
   width="99.719307"
   height="89.037674"
   inkscape:version="1.1 (c68e22c387, 2021-05-23)"
   xmlns:inkscape="http://www.inkscape.org/namespaces/inkscape"
   xmlns:sodipodi="http://sodipodi.sourceforge.net/DTD/sodipodi-0.dtd"
   xmlns="http://www.w3.org/2000/svg"
   xmlns:svg="http://www.w3.org/2000/svg">
  <defs
     id="defs8" />
  <sodipodi:namedview
     id="namedview6"
     pagecolor="#ffffff"
     bordercolor="#666666"
     borderopacity="1.0"
     inkscape:pageshadow="2"
     inkscape:pageopacity="0.0"
     inkscape:pagecheckerboard="0"
     showgrid="false"
     fit-margin-top="0"
     fit-margin-left="0"
     fit-margin-right="0"
     fit-margin-bottom="0"
     inkscape:zoom="4.3333333"
     inkscape:cx="-3.5769231"
     inkscape:cy="56.192308"
     inkscape:window-width="1920"
     inkscape:window-height="1017"
     inkscape:window-x="1272"
     inkscape:window-y="-8"
     inkscape:window-maximized="1"
     inkscape:current-layer="Icons_GoldenRatio_M" />
  <g
     id="Icons"
     transform="translate(2.8397832,-20.1)">
    <path
       d="M 59.408,20.1 H 3 v 56.408 h 69.25 v 0 h 20.779 v -20.784 0 V 20.1 Z m 0,2.025 c 17.2204,0.5474 31.0526,14.3796 31.6,31.6 h -31.6 z m 10.842,33.6 v 5.942 H 59.408 v -5.943 z m 0,7.942 V 74.455 C 64.5078,73.9616 59.9534,69.4081 59.459,63.666 Z m 2,-2 V 55.724 H 90.982 C 90.4595,65.8453 82.3712,73.934 72.25,74.457 Z M 91.032,43.14 C 87.5234,33.3301 79.8028,25.6091 69.993,22.1 H 91.032 Z M 5,22.1 H 43.69 C 24.9256,27.3136 10.2563,41.9642 5.019,60.722 5.008,60.759 5,60.758 5,60.722 Z M 57.408,74.508 H 5.025 C 5.5933,45.8164 28.7164,22.6933 57.408,22.125 Z m 2,-4.714 c 1.1668,1.9299 2.7848,3.5476 4.715,4.714 H 59.408 Z M 80.359,74.5 c 4.7079,-2.182 8.4889,-5.9637 10.67,-10.672 V 74.5 Z"
       id="path2" />
  </g>
  <text
     xml:space="preserve"
     style="font-style:normal;font-variant:normal;font-weight:normal;font-stretch:normal;font-size:40px;line-height:1.25;font-family:'xkcd Script';-inkscape-font-specification:'xkcd Script, Normal';font-variant-ligatures:normal;font-variant-caps:normal;font-variant-numeric:normal;font-variant-east-asian:normal;text-align:center;letter-spacing:0px;word-spacing:0px;text-anchor:middle"
     x="50.326942"
     y="88.476929"
     id="text6486"><tspan
       sodipodi:role="line"
       id="tspan6484"
       x="50.326942"
       y="88.476929">GRASP</tspan></text>
</svg>
