<?xml version="1.0" encoding="UTF-8" standalone="no"?>
<!DOCTYPE svg PUBLIC "-//W3C//DTD SVG 1.0//EN" "http://www.w3.org/TR/2001/REC-SVG-20010904/DTD/svg10.dtd">
<svg xmlns="http://www.w3.org/2000/svg" xmlns:xlink="http://www.w3.org/1999/xlink" fill-rule="evenodd" height="5.286458333333333in" preserveAspectRatio="none" stroke-linecap="round" viewBox="0 0 5309 3173" width="8.847222222222221in">
    <style type="text/css">
.brush0 { fill: rgb(255,255,255); }
.pen0 { stroke: rgb(0,0,0); stroke-width: 1; stroke-linejoin: round; }
.font0 { font-weight: bold; font-size: 139px; font-family: System, sans-serif; }
.brush1 { fill: rgb(128,128,128); }
.pen1 { stroke: none; }
.pen2 { stroke: rgb(0,0,0); stroke-width: 3; stroke-linejoin: round; }
.brush2 { fill: none; }
.font1 { font-size: 83px; font-family: Arial; }
.font2 { font-weight: bold; font-size: 14px; font-family: System, sans-serif; }
.pen3 { stroke: rgb(0,0,0); stroke-width: 9; stroke-linejoin: round; }
.pen4 { stroke: rgb(0,0,0); stroke-width: 7; stroke-linejoin: round; }
.brush3 { fill: rgb(0,0,0); }
.font3 { font-weight: bold; font-size: 83px; font-family: Arial; }
.font4 { font-weight: bold; font-size: 14px; font-family: System, sans-serif; }
.font5 { font-weight: bold; font-size: 139px; font-family: System, sans-serif; }
</style>
    <g>
        <polygon class="pen1 brush1" points="2128,1959 2128,2011 2181,2064 2027,2064 1923,1959 2128,1959"/>
        <polygon class="pen2 brush2" points="2128,1959 2128,2011 2181,2064 2027,2064 1923,1959 2128,1959"/>
        <polygon class="pen1 brush1" points="2128,1803 2181,1907 2128,2011 2233,2116 2285,2011 2233,1907 2128,1803"/>
        <polygon class="pen2 brush2" points="2128,1803 2181,1907 2128,2011 2233,2116 2285,2011 2233,1907 2128,1803"/>
        <polyline class="pen2" fill="none" points="2181,1907 2285,2011"/>
        <polygon class="pen1 brush0" points="1912,1857 1912,1958 1934,1958 1934,1857 1912,1857"/>
        <polygon class="pen1 brush0" points="1923,1959 2128,1959 2128,2011 2181,1907 2128,1803 2128,1855 1923,1855 1923,1959"/>
        <polyline class="pen2" fill="none" points="1923,1959 2128,1959 2128,2011 2181,1907 2128,1803 2128,1855 1923,1855"/>
        <polygon class="pen1 brush0" points="2425,98 2425,89 2426,82 2429,75 2432,68 2435,61 2439,54 2443,48 2448,42 2453,37 2459,33 2466,29 2473,26 2480,23 2488,21 2495,20 2504,20 2512,20 2520,21 2527,23 2534,26 2541,29 2547,33 2554,37 2559,42 2564,48 2568,54 2573,61 2576,68 2579,75 2581,82 2581,89 2582,98 2582,98 2581,106 2581,114 2579,121 2576,128 2573,135 2568,141 2564,148 2559,153 2554,158 2547,162 2541,167 2534,170 2527,173 2520,174 2512,175 2504,176 2495,175 2488,174 2480,173 2473,170 2466,167 2459,162 2453,158 2448,153 2443,148 2439,141 2435,135 2432,128 2429,121 2426,114 2425,106 2425,98"/>
        <polyline class="pen2" fill="none" points="2425,98 2425,89 2426,82 2429,75 2432,68 2435,61 2439,54 2443,48 2448,42 2453,37 2459,33 2466,29 2473,26 2480,23 2488,21 2495,20 2504,20 2512,20 2520,21 2527,23 2534,26 2541,29 2547,33 2554,37 2559,42 2564,48 2568,54 2573,61 2576,68 2579,75 2581,82 2581,89 2582,98 2582,98 2581,106 2581,114 2579,121 2576,128 2573,135 2568,141 2564,148 2559,153 2554,158 2547,162 2541,167 2534,170 2527,173 2520,174 2512,175 2504,176 2495,175 2488,174 2480,173 2473,170 2466,167 2459,162 2453,158 2448,153 2443,148 2439,141 2435,135 2432,128 2429,121 2426,114 2425,106 2425,98"/>
        <polyline class="pen2" fill="none" points="2399,202 2608,202"/>
        <polyline class="pen2" fill="none" points="2504,176 2504,280"/>
        <polyline class="pen2" fill="none" points="2504,280 2399,385"/>
        <polyline class="pen2" fill="none" points="2504,280 2608,385"/>
        <text class="font1" fill="rgb(0,0,0)" stroke="none" style="dominant-baseline: alphabetic;" x="2317 2344" xml:lang="en" xml:space="preserve" y="569">: </text>
        <text class="font1" fill="rgb(0,0,0)" stroke="none" style="dominant-baseline: alphabetic;" x="2369 2436 2487 2533 2585 2606 2657" xml:lang="en" xml:space="preserve" y="569">Cashier</text>
        <polygon class="pen1 brush0" points="4613,380 4613,640 5290,640 5290,380 4613,380"/>
        <polygon class="pen2 brush2" points="4613,640 5290,640 5290,380 4613,380 4613,640"/>
        <text class="font1" fill="rgb(0,0,0)" stroke="none" style="dominant-baseline: alphabetic;" x="4783" xml:lang="en" xml:space="preserve" y="538">:</text>
        <text class="font1" fill="rgb(0,0,0)" stroke="none" style="dominant-baseline: alphabetic;" x="4809 4871 4917 4964 4990 5041" xml:lang="en" xml:space="preserve" y="538">System</text>
        <polygon class="pen1 brush0" points="22,552 22,3054 1843,3054 1843,552 22,552"/>
        <polygon class="pen3 brush2" points="22,3054 1843,3054 1843,552 22,552 22,3054"/>
        <text class="font1" fill="rgb(0,0,0)" stroke="none" style="dominant-baseline: alphabetic;" x="69 130 151 229 280 301 353 379 425 476 522" xml:lang="en" xml:space="preserve" y="885">Simple cash</text>
        <text class="font1" fill="rgb(0,0,0)" stroke="none" style="dominant-baseline: alphabetic;" x="575" xml:lang="en" xml:space="preserve" y="885">-</text>
        <text class="font1" fill="rgb(0,0,0)" stroke="none" style="dominant-baseline: alphabetic;" x="606 657 709 730 776" xml:lang="en" xml:space="preserve" y="885">only </text>
        <text class="font1" fill="rgb(0,0,0)" stroke="none" style="dominant-baseline: alphabetic;" x="802 864 895 947 993 1044 1090 1136 1163 1224 1276 1297" xml:lang="en" xml:space="preserve" y="885">Process Sale</text>
        <text class="font1" fill="rgb(0,0,0)" stroke="none" style="dominant-baseline: alphabetic;" x="1349 1375 1421 1467 1519 1570 1622 1653 1674" xml:lang="en" xml:space="preserve" y="885"> scenario</text>
        <text class="font1" fill="rgb(0,0,0)" stroke="none" style="dominant-baseline: alphabetic;" x="1726" xml:lang="en" xml:space="preserve" y="885">:</text>
        <polyline class="pen4" fill="none" points="69,895 1752,895"/>
        <text class="font1" fill="rgb(0,0,0)" stroke="none" style="dominant-baseline: alphabetic;" x="69" xml:lang="en" xml:space="preserve" y="1108">1</text>
        <text class="font1" fill="rgb(0,0,0)" stroke="none" style="dominant-baseline: alphabetic;" x="120 146" xml:lang="en" xml:space="preserve" y="1108">. </text>
        <text class="font1" fill="rgb(0,0,0)" stroke="none" style="dominant-baseline: alphabetic;" x="172 239 291 337 363 414 492 543 575 601 652 684 715 736 782 833 879 906 957 983 1009 1061 1087 1149 1221 1283 1309 1355 1406 1458 1504 1550 1602 1653 1679" xml:lang="en" xml:space="preserve" y="1108">Customer arrives at a POS checkout </text>
        <text class="font1" fill="rgb(0,0,0)" stroke="none" style="dominant-baseline: alphabetic;" x="69 136 157 183 234 260 312 363 414 466 512 538 589 641" xml:lang="en" xml:space="preserve" y="1219">with goods and</text>
        <text class="font1" fill="rgb(0,0,0)" stroke="none" style="dominant-baseline: alphabetic;" x="694" xml:lang="en" xml:space="preserve" y="1219">/</text>
        <text class="font1" fill="rgb(0,0,0)" stroke="none" style="dominant-baseline: alphabetic;" x="719 771 802 828 874 926 957 1003 1024 1070 1122 1168 1194 1220 1271 1298 1349 1400 1432 1478 1529 1581 1627" xml:lang="en" xml:space="preserve" y="1219">or services to purchase</text>
        <text class="font1" fill="rgb(0,0,0)" stroke="none" style="dominant-baseline: alphabetic;" x="1680" xml:lang="en" xml:space="preserve" y="1219">.</text>
        <text class="font1" fill="rgb(0,0,0)" stroke="none" style="dominant-baseline: alphabetic;" x="69" xml:lang="en" xml:space="preserve" y="1330">2</text>
        <text class="font1" fill="rgb(0,0,0)" stroke="none" style="dominant-baseline: alphabetic;" x="120 146" xml:lang="en" xml:space="preserve" y="1330">. </text>
        <text class="font1" fill="rgb(0,0,0)" stroke="none" style="dominant-baseline: alphabetic;" x="172 239 291 337 388 409 461 492 518 564 590 642 673 699 745 771 823 849 900 952 1019 1045 1091 1143 1163" xml:lang="en" xml:space="preserve" y="1330">Cashier starts a new sale</text>
        <text class="font1" fill="rgb(0,0,0)" stroke="none" style="dominant-baseline: alphabetic;" x="1215" xml:lang="en" xml:space="preserve" y="1330">.</text>
        <text class="font1" fill="rgb(0,0,0)" stroke="none" style="dominant-baseline: alphabetic;" x="69" xml:lang="en" xml:space="preserve" y="1441">3</text>
        <text class="font1" fill="rgb(0,0,0)" stroke="none" style="dominant-baseline: alphabetic;" x="120 146" xml:lang="en" xml:space="preserve" y="1441">. </text>
        <text class="font1" fill="rgb(0,0,0)" stroke="none" style="dominant-baseline: alphabetic;" x="172 239 291 337 388 409 461 492 518 569 621 647 698 730 776 802 823 849 900 978 1004 1025 1076 1128 1179 1205 1226 1252 1273 1325" xml:lang="en" xml:space="preserve" y="1441">Cashier enters item identifier</text>
        <text class="font1" fill="rgb(0,0,0)" stroke="none" style="dominant-baseline: alphabetic;" x="1354" xml:lang="en" xml:space="preserve" y="1441">.</text>
        <text class="font1" fill="rgb(0,0,0)" stroke="none" style="dominant-baseline: alphabetic;" x="69" xml:lang="en" xml:space="preserve" y="1553">4</text>
        <text class="font1" fill="rgb(0,0,0)" stroke="none" style="dominant-baseline: alphabetic;" x="120 146" xml:lang="en" xml:space="preserve" y="1553">. </text>
        <text class="font1" fill="rgb(0,0,0)" stroke="none" style="dominant-baseline: alphabetic;" x="172 234 280 326 353 404 481 508 539 590 636 688 719 771 817 843 889 940 961 1013 1039 1060 1081 1132 1183 1210 1230 1257 1308 1386 1412 1463 1514 1566" xml:lang="en" xml:space="preserve" y="1553">System records sale line item and </text>
        <text class="font1" fill="rgb(0,0,0)" stroke="none" style="dominant-baseline: alphabetic;" x="69 120 151 203 249 300 352 378 424 450 471 497 549 626 652 704 755 801 847 879 900 951 977 998 1049" xml:lang="en" xml:space="preserve" y="1664">presents item description</text>
        <text class="font1" fill="rgb(0,0,0)" stroke="none" style="dominant-baseline: alphabetic;" x="1102 1128" xml:lang="en" xml:space="preserve" y="1664">, </text>
        <text class="font1" fill="rgb(0,0,0)" stroke="none" style="dominant-baseline: alphabetic;" x="1153 1204 1236 1257 1303" xml:lang="en" xml:space="preserve" y="1664">price</text>
        <text class="font1" fill="rgb(0,0,0)" stroke="none" style="dominant-baseline: alphabetic;" x="1354 1380" xml:lang="en" xml:space="preserve" y="1664">, </text>
        <text class="font1" fill="rgb(0,0,0)" stroke="none" style="dominant-baseline: alphabetic;" x="1406 1458 1509 1561" xml:lang="en" xml:space="preserve" y="1664">and </text>
        <text class="font1" fill="rgb(0,0,0)" stroke="none" style="dominant-baseline: alphabetic;" x="69 100 151 203 254 275 326 378 404 430 481 508 559" xml:lang="en" xml:space="preserve" y="1775">running total</text>
        <text class="font1" fill="rgb(0,0,0)" stroke="none" style="dominant-baseline: alphabetic;" x="580 606" xml:lang="en" xml:space="preserve" y="1775">. </text>
        <text class="font1" fill="rgb(0,0,0)" stroke="none" style="dominant-baseline: alphabetic;" x="69 136 187 233 285 305 357 388 414 446 497 549 600 651 677 724 750 796 822 873 925 971" xml:lang="en" xml:space="preserve" y="1886">Cashier repeats steps </text>
        <text class="font1" fill="rgb(0,0,0)" stroke="none" style="dominant-baseline: alphabetic;" x="998" xml:lang="en" xml:space="preserve" y="1886">3</text>
        <text class="font1" fill="rgb(0,0,0)" stroke="none" style="dominant-baseline: alphabetic;" x="1050" xml:lang="en" xml:space="preserve" y="1886">-</text>
        <text class="font1" fill="rgb(0,0,0)" stroke="none" style="dominant-baseline: alphabetic;" x="1081 1132" xml:lang="en" xml:space="preserve" y="1886">4 </text>
        <text class="font1" fill="rgb(0,0,0)" stroke="none" style="dominant-baseline: alphabetic;" x="1158 1210 1261 1287 1308 1329 1355 1376 1427 1479 1500 1546 1597 1623 1675 1721" xml:lang="en" xml:space="preserve" y="1886">until indicates </text>
        <text class="font1" fill="rgb(0,0,0)" stroke="none" style="dominant-baseline: alphabetic;" x="69 120 171 223" xml:lang="en" xml:space="preserve" y="1998">done</text>
        <text class="font1" fill="rgb(0,0,0)" stroke="none" style="dominant-baseline: alphabetic;" x="275" xml:lang="en" xml:space="preserve" y="1998">.</text>
        <text class="font1" fill="rgb(0,0,0)" stroke="none" style="dominant-baseline: alphabetic;" x="69" xml:lang="en" xml:space="preserve" y="2109">5</text>
        <text class="font1" fill="rgb(0,0,0)" stroke="none" style="dominant-baseline: alphabetic;" x="120 146" xml:lang="en" xml:space="preserve" y="2109">. </text>
        <text class="font1" fill="rgb(0,0,0)" stroke="none" style="dominant-baseline: alphabetic;" x="172 234 280 326 353 404 481 508 559 590 642 688 739 791 817 863 889 915 967 993 1044 1065 1091 1158 1179 1205 1257 1283 1309 1360 1406 1458 1504" xml:lang="en" xml:space="preserve" y="2109">System presents total with taxes </text>
        <text class="font1" fill="rgb(0,0,0)" stroke="none" style="dominant-baseline: alphabetic;" x="69 115 166 187 233 285 305 357 383 434" xml:lang="en" xml:space="preserve" y="2220">calculated</text>
        <text class="font1" fill="rgb(0,0,0)" stroke="none" style="dominant-baseline: alphabetic;" x="487" xml:lang="en" xml:space="preserve" y="2220">.</text>
        <text class="font1" fill="rgb(0,0,0)" stroke="none" style="dominant-baseline: alphabetic;" x="69" xml:lang="en" xml:space="preserve" y="2331">6</text>
        <text class="font1" fill="rgb(0,0,0)" stroke="none" style="dominant-baseline: alphabetic;" x="120 146" xml:lang="en" xml:space="preserve" y="2331">. </text>
        <text class="font1" fill="rgb(0,0,0)" stroke="none" style="dominant-baseline: alphabetic;" x="172 239 291 337 388 409 461 492 518 544 596 616 637 684 710 777 828 874 900 952 1029 1081 1112 1138 1164 1216 1267 1293 1319 1371 1397 1448" xml:lang="en" xml:space="preserve" y="2331">Cashier tells Customer the total</text>
        <text class="font1" fill="rgb(0,0,0)" stroke="none" style="dominant-baseline: alphabetic;" x="1468 1494" xml:lang="en" xml:space="preserve" y="2331">, </text>
        <text class="font1" fill="rgb(0,0,0)" stroke="none" style="dominant-baseline: alphabetic;" x="1520 1571 1622 1674" xml:lang="en" xml:space="preserve" y="2331">and </text>
        <text class="font1" fill="rgb(0,0,0)" stroke="none" style="dominant-baseline: alphabetic;" x="69 120 166 212 258 285 311 362 393 420 471 522 569 646 697 749" xml:lang="en" xml:space="preserve" y="2442">asks for payment</text>
        <text class="font1" fill="rgb(0,0,0)" stroke="none" style="dominant-baseline: alphabetic;" x="776" xml:lang="en" xml:space="preserve" y="2442">.</text>
        <text class="font1" fill="rgb(0,0,0)" stroke="none" style="dominant-baseline: alphabetic;" x="69" xml:lang="en" xml:space="preserve" y="2554">7</text>
        <text class="font1" fill="rgb(0,0,0)" stroke="none" style="dominant-baseline: alphabetic;" x="120 146" xml:lang="en" xml:space="preserve" y="2554">. </text>
        <text class="font1" fill="rgb(0,0,0)" stroke="none" style="dominant-baseline: alphabetic;" x="172 239 291 337 363 414 492 543 575 601 652 704 750 796 822 873 925 976 1002 1064 1110 1156 1183 1234 1311 1338 1389 1440 1492 1543 1564 1615 1662" xml:lang="en" xml:space="preserve" y="2554">Customer pays and System handles </text>
        <text class="font1" fill="rgb(0,0,0)" stroke="none" style="dominant-baseline: alphabetic;" x="69 120 171 218 295 346 398" xml:lang="en" xml:space="preserve" y="2665">payment</text>
        <text class="font1" fill="rgb(0,0,0)" stroke="none" style="dominant-baseline: alphabetic;" x="425" xml:lang="en" xml:space="preserve" y="2665">.</text>
        <text class="font1" fill="rgb(0,0,0)" stroke="none" style="dominant-baseline: alphabetic;" x="69 95 121" xml:lang="en" xml:space="preserve" y="2776">...</text>
        <polyline class="pen2" fill="none" points="4874,1145 2541,1145"/>
        <polygon class="pen1 brush3" points="4864,1185 4945,1145 4864,1104 4864,1185"/>
        <text class="font1" fill="rgb(0,0,0)" stroke="none" style="dominant-baseline: alphabetic;" x="3193 3244 3296 3322 3373 3404 3431 3457 3508" xml:lang="en" xml:space="preserve" y="1126">enterItem</text>
        <text class="font1" fill="rgb(0,0,0)" stroke="none" style="dominant-baseline: alphabetic;" x="3585" xml:lang="en" xml:space="preserve" y="1126">(</text>
        <text class="font1" fill="rgb(0,0,0)" stroke="none" style="dominant-baseline: alphabetic;" x="3616 3637 3663 3715 3792 3818" xml:lang="en" xml:space="preserve" y="1126">itemID</text>
        <text class="font1" fill="rgb(0,0,0)" stroke="none" style="dominant-baseline: alphabetic;" x="3884 3911" xml:lang="en" xml:space="preserve" y="1126">, </text>
        <text class="font1" fill="rgb(0,0,0)" stroke="none" style="dominant-baseline: alphabetic;" x="3936 3987 4039 4090 4141 4167 4188 4215" xml:lang="en" xml:space="preserve" y="1126">quantity</text>
        <text class="font1" fill="rgb(0,0,0)" stroke="none" style="dominant-baseline: alphabetic;" x="4262" xml:lang="en" xml:space="preserve" y="1126">)</text>
        <path class="pen0 brush3" d="M 4944,3153  L 4944,3112 4944,3111 4944,3111 4944,3110 4945,3110 4945,3110 4946,3111 4946,3112 4946,3153 4946,3154 4945,3154 4944,3154 4944,3153 4944,3153 4944,3153 z M 4944,3086  L 4944,3045 4944,3044 4944,3044 4944,3043 4945,3043 4945,3043 4946,3044 4946,3045 4946,3086 4946,3087 4945,3087 4945,3088 4944,3087 4944,3087 4944,3087 4944,3086 4944,3086 z M 4944,3019  L 4944,2978 4944,2978 4944,2977 4944,2977 4945,2977 4945,2977 4946,2977 4946,2978 4946,3019 4946,3020 4945,3021 4945,3021 4944,3021 4944,3020 4944,3020 4944,3019 4944,3019 z M 4944,2952  L 4944,2911 4944,2911 4944,2910 4944,2910 4945,2910 4945,2910 4946,2910 4946,2911 4946,2952 4946,2954 4945,2954 4945,2954 4944,2954 4944,2954 4944,2953 4944,2952 4944,2952 z M 4944,2886  L 4944,2845 4944,2844 4944,2843 4944,2843 4945,2843 4945,2843 4946,2843 4946,2845 4946,2886 4946,2887 4945,2887 4945,2887 4944,2887 4944,2887 4944,2886 4944,2886 4944,2886 z M 4944,2820  L 4944,2778 4944,2777 4944,2777 4944,2776 4945,2776 4945,2776 4946,2777 4946,2778 4946,2820 4946,2820 4945,2820 4944,2820 4944,2820 4944,2820 4944,2820 z M 4944,2753  L 4944,2711 4944,2710 4944,2710 4944,2709 4945,2709 4945,2709 4946,2710 4946,2711 4946,2753 4946,2754 4945,2754 4945,2754 4944,2754 4944,2754 4944,2754 4944,2753 4944,2753 z M 4944,2686  L 4944,2644 4944,2644 4944,2643 4944,2643 4945,2643 4945,2643 4946,2643 4946,2644 4946,2686 4946,2687 4945,2687 4945,2687 4944,2687 4944,2687 4944,2687 4944,2686 4944,2686 z M 4944,2619  L 4944,2577 4944,2577 4944,2576 4944,2576 4945,2576 4945,2576 4946,2576 4946,2577 4946,2619 4946,2621 4945,2621 4945,2621 4944,2621 4944,2621 4944,2620 4944,2619 4944,2619 z M 4944,2553  L 4944,2511 4944,2510 4944,2509 4944,2509 4945,2509 4945,2509 4946,2509 4946,2511 4946,2553 4946,2554 4945,2554 4945,2554 4944,2554 4944,2554 4944,2553 4944,2553 4944,2553 z M 4944,2486  L 4944,2444 4944,2443 4944,2443 4944,2442 4945,2442 4945,2442 4946,2443 4946,2444 4946,2486 4946,2487 4945,2487 4944,2487 4944,2486 4944,2486 4944,2486 z M 4944,2419  L 4944,2377 4944,2376 4944,2376 4944,2376 4945,2376 4945,2376 4946,2376 4946,2377 4946,2419 4946,2420 4945,2420 4945,2421 4944,2420 4944,2420 4944,2420 4944,2419 4944,2419 z M 4944,2352  L 4944,2310 4944,2310 4944,2309 4944,2309 4945,2309 4945,2309 4946,2309 4946,2310 4946,2352 4946,2353 4945,2354 4945,2354 4944,2354 4944,2353 4944,2353 4944,2352 4944,2352 z M 4944,2285  L 4944,2243 4944,2243 4944,2243 4944,2243 4945,2243 4945,2243 4946,2243 4946,2243 4946,2285 4946,2287 4945,2287 4945,2287 4944,2287 4944,2287 4944,2286 4944,2285 4944,2285 z M 4944,2219  L 4944,2177 4944,2177 4944,2176 4944,2176 4945,2176 4945,2176 4946,2176 4946,2177 4946,2219 4946,2220 4945,2220 4945,2220 4944,2220 4944,2220 4944,2219 4944,2219 4944,2219 z M 4944,2152  L 4944,2110 4944,2110 4944,2110 4944,2109 4945,2109 4945,2109 4946,2110 4946,2110 4946,2152 4946,2153 4945,2153 4944,2153 4944,2152 4944,2152 4944,2152 z M 4944,2085  L 4944,2044 4944,2043 4944,2043 4944,2042 4945,2042 4945,2042 4946,2043 4946,2044 4946,2085 4946,2086 4945,2086 4945,2087 4944,2086 4944,2086 4944,2086 4944,2085 4944,2085 z M 4944,2018  L 4944,1977 4944,1977 4944,1976 4944,1976 4945,1976 4945,1976 4946,1976 4946,1977 4946,2018 4946,2019 4945,2020 4945,2020 4944,2020 4944,2019 4944,2019 4944,2018 4944,2018 z M 4944,1951  L 4944,1910 4944,1910 4944,1909 4944,1909 4945,1909 4945,1909 4946,1909 4946,1910 4946,1951 4946,1953 4945,1953 4945,1953 4944,1953 4944,1953 4944,1952 4944,1951 4944,1951 z M 4944,1885  L 4944,1844 4944,1843 4944,1842 4944,1842 4945,1842 4945,1842 4946,1842 4946,1844 4946,1885 4946,1886 4945,1886 4945,1886 4944,1886 4944,1886 4944,1885 4944,1885 4944,1885 z M 4944,1819  L 4944,1777 4944,1776 4944,1776 4944,1775 4945,1775 4945,1775 4946,1776 4946,1777 4946,1819 4946,1819 4945,1819 4944,1819 4944,1819 4944,1819 4944,1819 z M 4944,1752  L 4944,1710 4944,1709 4944,1709 4944,1708 4945,1708 4945,1708 4946,1709 4946,1710 4946,1752 4946,1752 4945,1752 4945,1753 4944,1752 4944,1752 4944,1752 4944,1752 4944,1752 z M 4944,1685  L 4944,1643 4944,1643 4944,1642 4944,1642 4945,1642 4945,1642 4946,1642 4946,1643 4946,1685 4946,1686 4945,1686 4945,1686 4944,1686 4944,1686 4944,1686 4944,1685 4944,1685 z M 4944,1618  L 4944,1576 4944,1576 4944,1575 4944,1575 4945,1575 4945,1575 4946,1575 4946,1576 4946,1618 4946,1620 4945,1620 4945,1620 4944,1620 4944,1620 4944,1619 4944,1618 4944,1618 z M 4944,1552  L 4944,1510 4944,1509 4944,1508 4944,1508 4945,1508 4945,1508 4946,1508 4946,1510 4946,1552 4946,1553 4945,1553 4945,1553 4944,1553 4944,1553 4944,1552 4944,1552 4944,1552 z M 4944,1485  L 4944,1443 4944,1442 4944,1442 4944,1441 4945,1441 4945,1441 4946,1442 4946,1443 4946,1485 4946,1486 4945,1486 4944,1486 4944,1485 4944,1485 4944,1485 z M 4944,1418  L 4944,1376 4944,1375 4944,1375 4944,1374 4945,1374 4945,1374 4946,1375 4946,1376 4946,1418 4946,1419 4945,1419 4945,1420 4944,1419 4944,1419 4944,1419 4944,1418 4944,1418 z M 4944,1351  L 4944,1309 4944,1309 4944,1308 4944,1308 4945,1308 4945,1308 4946,1308 4946,1309 4946,1351 4946,1352 4945,1353 4945,1353 4944,1353 4944,1352 4944,1352 4944,1351 4944,1351 z M 4944,1284  L 4944,1242 4944,1242 4944,1242 4944,1242 4945,1242 4945,1242 4946,1242 4946,1242 4946,1284 4946,1286 4945,1286 4945,1286 4944,1286 4944,1286 4944,1285 4944,1284 4944,1284 z M 4944,1218  L 4944,1176 4944,1175 4944,1175 4944,1175 4945,1175 4945,1175 4946,1175 4946,1176 4946,1218 4946,1219 4945,1219 4945,1219 4944,1219 4944,1219 4944,1218 4944,1218 4944,1218 z M 4944,1151  L 4944,1109 4944,1109 4944,1109 4944,1108 4945,1108 4945,1108 4946,1109 4946,1109 4946,1151 4946,1152 4945,1152 4944,1152 4944,1151 4944,1151 4944,1151 z M 4944,1084  L 4944,1043 4944,1042 4944,1042 4944,1041 4945,1041 4945,1041 4946,1042 4946,1043 4946,1084 4946,1085 4945,1085 4945,1086 4944,1085 4944,1085 4944,1085 4944,1084 4944,1084 z M 4944,1017  L 4944,976 4944,976 4944,975 4944,975 4945,975 4945,975 4946,975 4946,976 4946,1017 4946,1018 4945,1019 4945,1019 4944,1019 4944,1018 4944,1018 4944,1017 4944,1017 z M 4944,950  L 4944,909 4944,909 4944,908 4944,908 4945,908 4945,908 4946,908 4946,909 4946,950 4946,952 4945,952 4945,952 4944,952 4944,952 4944,951 4944,950 4944,950 z M 4944,884  L 4944,843 4944,842 4944,841 4944,841 4945,841 4945,841 4946,841 4946,843 4946,884 4946,885 4945,885 4945,885 4944,885 4944,885 4944,884 4944,884 4944,884 z M 4944,817  L 4944,776 4944,775 4944,775 4944,774 4945,774 4945,774 4946,775 4946,776 4946,817 4946,818 4945,818 4944,818 4944,817 4944,817 4944,817 z M 4944,751  L 4944,709 4944,708 4944,708 4944,707 4945,707 4945,707 4946,708 4946,709 4946,751 4946,751 4945,751 4945,752 4944,751 4944,751 4944,751 4944,751 4944,751 z M 4944,684  L 4944,651 4944,650 4944,650 4944,649 4945,649 4945,649 4946,650 4946,651 4946,684 4946,685 4945,685 4945,685 4944,685 4944,685 4944,685 4944,684 4944,684 z" fill-rule="nonzero"/>
        <polyline class="pen2" fill="none" points="4874,2004 2541,2004"/>
        <polygon class="pen1 brush3" points="4864,2044 4945,2004 4864,1964 4864,2044"/>
        <text class="font1" fill="rgb(0,0,0)" stroke="none" style="dominant-baseline: alphabetic;" x="3573 3624 3675 3727 3789 3840 3861" xml:lang="en" xml:space="preserve" y="1985">endSale</text>
        <polyline class="pen2" fill="none" points="4869,2663 2535,2663"/>
        <polygon class="pen1 brush3" points="4858,2703 4939,2663 4858,2622 4858,2703"/>
        <text class="font1" fill="rgb(0,0,0)" stroke="none" style="dominant-baseline: alphabetic;" x="3255 3332 3384 3430 3481 3543 3594 3641 3718 3769 3821" xml:lang="en" xml:space="preserve" y="2644">makePayment</text>
        <text class="font1" fill="rgb(0,0,0)" stroke="none" style="dominant-baseline: alphabetic;" x="3848" xml:lang="en" xml:space="preserve" y="2644">(</text>
        <text class="font1" fill="rgb(0,0,0)" stroke="none" style="dominant-baseline: alphabetic;" x="3879 3931 4008 4059 4111 4162" xml:lang="en" xml:space="preserve" y="2644">amount</text>
        <text class="font1" fill="rgb(0,0,0)" stroke="none" style="dominant-baseline: alphabetic;" x="4189" xml:lang="en" xml:space="preserve" y="2644">)</text>
        <path class="pen0 brush3" d="M 2537,1487  L 2579,1487 2580,1487 2581,1487 2581,1488 2581,1489 2581,1489 2581,1490 2579,1490 2537,1490 2536,1490 2536,1489 2536,1489 2536,1488 2536,1487 2537,1487 2537,1487 2537,1487 z M 2604,1487  L 2646,1487 2647,1487 2647,1487 2648,1488 2648,1489 2648,1489 2647,1490 2646,1490 2604,1490 2603,1490 2603,1489 2603,1489 2603,1488 2603,1487 2603,1487 2604,1487 2604,1487 z M 2671,1487  L 2713,1487 2714,1487 2714,1487 2714,1488 2715,1489 2714,1489 2714,1490 2713,1490 2671,1490 2670,1490 2669,1489 2669,1489 2669,1488 2670,1487 2670,1487 2671,1487 2671,1487 z M 2738,1487  L 2780,1487 2780,1487 2781,1487 2781,1488 2781,1489 2781,1489 2781,1490 2780,1490 2738,1490 2737,1490 2736,1489 2736,1489 2736,1488 2737,1487 2737,1487 2738,1487 2738,1487 z M 2805,1487  L 2847,1487 2847,1487 2848,1487 2848,1489 2848,1490 2847,1490 2805,1490 2804,1490 2804,1489 2804,1489 2804,1488 2804,1487 2804,1487 2805,1487 2805,1487 z M 2871,1487  L 2913,1487 2914,1487 2915,1487 2915,1488 2915,1489 2915,1489 2915,1490 2913,1490 2871,1490 2871,1490 2871,1489 2871,1489 2871,1488 2871,1487 2871,1487 2871,1487 2871,1487 z M 2939,1487  L 2980,1487 2981,1487 2981,1487 2982,1488 2982,1489 2982,1489 2981,1490 2980,1490 2939,1490 2938,1490 2938,1489 2938,1489 2938,1488 2938,1487 2938,1487 2939,1487 2939,1487 z M 3006,1487  L 3047,1487 3048,1487 3048,1487 3048,1488 3049,1489 3048,1489 3048,1490 3047,1490 3006,1490 3005,1490 3004,1489 3004,1489 3004,1488 3005,1487 3005,1487 3006,1487 3006,1487 z M 3073,1487  L 3114,1487 3114,1487 3115,1487 3115,1488 3115,1489 3115,1489 3115,1490 3114,1490 3073,1490 3072,1490 3071,1489 3071,1489 3071,1488 3072,1487 3072,1487 3073,1487 3073,1487 z M 3140,1487  L 3182,1487 3182,1487 3182,1487 3182,1489 3182,1490 3182,1490 3140,1490 3138,1490 3138,1489 3138,1489 3138,1488 3138,1487 3139,1487 3140,1487 3140,1487 z M 3206,1487  L 3248,1487 3249,1487 3249,1487 3249,1488 3249,1489 3249,1489 3249,1490 3248,1490 3206,1490 3205,1490 3205,1489 3205,1489 3205,1488 3205,1487 3206,1487 3206,1487 3206,1487 z M 3273,1487  L 3315,1487 3316,1487 3316,1487 3317,1488 3317,1489 3317,1489 3316,1490 3315,1490 3273,1490 3272,1490 3272,1489 3272,1489 3272,1488 3272,1487 3272,1487 3273,1487 3273,1487 z M 3340,1487  L 3382,1487 3383,1487 3383,1487 3383,1488 3384,1489 3383,1489 3383,1490 3382,1490 3340,1490 3339,1490 3338,1489 3338,1489 3338,1488 3339,1487 3339,1487 3340,1487 3340,1487 z M 3407,1487  L 3449,1487 3449,1487 3450,1487 3450,1488 3450,1489 3450,1489 3450,1490 3449,1490 3407,1490 3406,1490 3405,1489 3405,1489 3405,1488 3406,1487 3406,1487 3407,1487 3407,1487 z M 3474,1487  L 3516,1487 3516,1487 3517,1487 3517,1489 3517,1490 3516,1490 3474,1490 3472,1490 3472,1489 3472,1489 3472,1488 3472,1487 3473,1487 3474,1487 3474,1487 z M 3540,1487  L 3582,1487 3583,1487 3584,1487 3584,1488 3584,1489 3584,1489 3584,1490 3582,1490 3540,1490 3539,1490 3539,1489 3539,1489 3539,1488 3539,1487 3540,1487 3540,1487 3540,1487 z M 3607,1487  L 3649,1487 3650,1487 3650,1487 3651,1488 3651,1489 3651,1489 3650,1490 3649,1490 3607,1490 3607,1490 3607,1489 3607,1489 3607,1488 3607,1487 3607,1487 3607,1487 3607,1487 z M 3674,1487  L 3716,1487 3717,1487 3717,1487 3717,1488 3718,1489 3717,1489 3717,1490 3716,1490 3674,1490 3674,1490 3673,1489 3673,1489 3673,1488 3674,1487 3674,1487 3674,1487 3674,1487 z M 3742,1487  L 3783,1487 3783,1487 3784,1487 3784,1488 3784,1489 3784,1489 3784,1490 3783,1490 3742,1490 3741,1490 3740,1489 3740,1489 3740,1488 3741,1487 3741,1487 3742,1487 3742,1487 z M 3809,1487  L 3850,1487 3850,1487 3851,1487 3851,1489 3851,1490 3850,1490 3809,1490 3807,1490 3807,1489 3807,1489 3807,1488 3807,1487 3808,1487 3809,1487 3809,1487 z M 3875,1487  L 3917,1487 3918,1487 3918,1487 3918,1488 3918,1489 3918,1489 3918,1490 3917,1490 3875,1490 3874,1490 3874,1489 3874,1489 3874,1488 3874,1487 3875,1487 3875,1487 3875,1487 z M 3942,1487  L 3984,1487 3985,1487 3985,1487 3985,1488 3985,1489 3985,1489 3985,1490 3984,1490 3942,1490 3941,1490 3941,1489 3941,1489 3941,1488 3941,1487 3941,1487 3942,1487 3942,1487 z M 4009,1487  L 4051,1487 4052,1487 4052,1487 4052,1488 4053,1489 4052,1489 4052,1490 4051,1490 4009,1490 4008,1490 4007,1489 4007,1489 4007,1488 4008,1487 4008,1487 4009,1487 4009,1487 z M 4076,1487  L 4118,1487 4118,1487 4119,1487 4119,1488 4119,1489 4119,1489 4119,1490 4118,1490 4076,1490 4075,1490 4074,1489 4074,1489 4074,1488 4075,1487 4075,1487 4076,1487 4076,1487 z M 4143,1487  L 4185,1487 4185,1487 4186,1487 4186,1489 4186,1490 4185,1490 4143,1490 4141,1490 4141,1489 4141,1489 4141,1488 4141,1487 4142,1487 4143,1487 4143,1487 z M 4209,1487  L 4251,1487 4252,1487 4253,1487 4253,1488 4253,1489 4253,1489 4253,1490 4251,1490 4209,1490 4208,1490 4208,1489 4208,1489 4208,1488 4208,1487 4209,1487 4209,1487 4209,1487 z M 4276,1487  L 4318,1487 4319,1487 4319,1487 4320,1488 4320,1489 4320,1489 4319,1490 4318,1490 4276,1490 4275,1490 4275,1489 4275,1489 4275,1488 4275,1487 4275,1487 4276,1487 4276,1487 z M 4343,1487  L 4385,1487 4386,1487 4386,1487 4386,1488 4387,1489 4386,1489 4386,1490 4385,1490 4343,1490 4343,1490 4342,1489 4342,1489 4342,1488 4343,1487 4343,1487 4343,1487 4343,1487 z M 4410,1487  L 4452,1487 4452,1487 4453,1487 4453,1488 4453,1489 4453,1489 4453,1490 4452,1490 4410,1490 4410,1490 4409,1489 4409,1489 4409,1488 4410,1487 4410,1487 4410,1487 4410,1487 z M 4478,1487  L 4519,1487 4519,1487 4520,1487 4520,1489 4520,1490 4519,1490 4478,1490 4476,1490 4476,1489 4476,1489 4476,1488 4476,1487 4477,1487 4478,1487 4478,1487 z M 4544,1487  L 4586,1487 4586,1487 4587,1487 4587,1488 4587,1489 4587,1489 4587,1490 4586,1490 4544,1490 4543,1490 4543,1489 4543,1489 4543,1488 4543,1487 4544,1487 4544,1487 4544,1487 z M 4611,1487  L 4653,1487 4653,1487 4653,1487 4654,1488 4654,1489 4654,1489 4653,1490 4653,1490 4611,1490 4610,1490 4610,1489 4610,1489 4610,1488 4610,1487 4610,1487 4611,1487 4611,1487 z M 4678,1487  L 4720,1487 4721,1487 4721,1487 4721,1488 4721,1489 4721,1489 4721,1490 4720,1490 4678,1490 4677,1490 4676,1489 4676,1489 4676,1488 4677,1487 4677,1487 4678,1487 4678,1487 z M 4745,1487  L 4787,1487 4787,1487 4788,1487 4788,1488 4788,1489 4788,1489 4788,1490 4787,1490 4745,1490 4744,1490 4743,1489 4743,1489 4743,1488 4744,1487 4744,1487 4745,1487 4745,1487 z M 4812,1487  L 4854,1487 4854,1487 4855,1487 4855,1489 4855,1490 4854,1490 4812,1490 4810,1490 4810,1489 4810,1489 4810,1488 4810,1487 4811,1487 4812,1487 4812,1487 z M 4878,1487  L 4920,1487 4921,1487 4922,1487 4922,1488 4922,1489 4922,1489 4922,1490 4920,1490 4878,1490 4877,1490 4877,1489 4877,1489 4877,1488 4877,1487 4878,1487 4878,1487 4878,1487 z" fill-rule="nonzero"/>
        <polyline class="pen2" fill="none" points="2618,1448 2614,1453 2610,1457 2606,1461 2601,1466 2597,1469 2593,1473 2587,1475 2582,1478 2577,1480 2572,1483 2567,1485 2560,1486 2555,1487 2549,1488 2543,1488 2537,1489 2543,1489 2549,1489 2555,1490 2560,1492 2567,1493 2572,1494 2577,1497 2582,1500 2587,1502 2593,1505 2597,1508 2601,1512 2606,1516 2610,1520 2614,1525 2618,1529"/>
        <text class="font1" fill="rgb(0,0,0)" stroke="none" style="dominant-baseline: alphabetic;" x="3401 3452 3504 3550 3596 3627 3648 3700 3726 3747 3798" xml:lang="en" xml:space="preserve" y="1470">description</text>
        <text class="font1" fill="rgb(0,0,0)" stroke="none" style="dominant-baseline: alphabetic;" x="3850 3877" xml:lang="en" xml:space="preserve" y="1470">, </text>
        <text class="font1" fill="rgb(0,0,0)" stroke="none" style="dominant-baseline: alphabetic;" x="3902 3928 3979 4005 4057" xml:lang="en" xml:space="preserve" y="1470">total</text>
        <path class="pen0 brush3" d="M 2537,2322  L 2579,2322 2580,2322 2581,2322 2581,2323 2581,2323 2581,2323 2581,2324 2579,2324 2537,2324 2536,2324 2536,2323 2536,2323 2536,2323 2536,2322 2537,2322 2537,2322 2537,2322 z M 2604,2322  L 2646,2322 2647,2322 2647,2322 2648,2323 2648,2323 2648,2323 2647,2324 2646,2324 2604,2324 2603,2324 2603,2323 2603,2323 2603,2323 2603,2322 2603,2322 2604,2322 2604,2322 z M 2671,2322  L 2713,2322 2714,2322 2714,2322 2714,2323 2715,2323 2714,2323 2714,2324 2713,2324 2671,2324 2670,2324 2669,2323 2669,2323 2669,2323 2670,2322 2670,2322 2671,2322 2671,2322 z M 2738,2322  L 2780,2322 2780,2322 2781,2322 2781,2323 2781,2323 2781,2323 2781,2324 2780,2324 2738,2324 2737,2324 2736,2323 2736,2323 2736,2323 2737,2322 2737,2322 2738,2322 2738,2322 z M 2805,2322  L 2847,2322 2847,2322 2848,2322 2848,2323 2848,2324 2847,2324 2805,2324 2804,2324 2804,2323 2804,2323 2804,2323 2804,2322 2804,2322 2805,2322 2805,2322 z M 2871,2322  L 2913,2322 2914,2322 2915,2322 2915,2323 2915,2323 2915,2323 2915,2324 2913,2324 2871,2324 2871,2324 2871,2323 2871,2323 2871,2323 2871,2322 2871,2322 2871,2322 2871,2322 z M 2939,2322  L 2980,2322 2981,2322 2981,2322 2982,2323 2982,2323 2982,2323 2981,2324 2980,2324 2939,2324 2938,2324 2938,2323 2938,2323 2938,2323 2938,2322 2938,2322 2939,2322 2939,2322 z M 3006,2322  L 3047,2322 3048,2322 3048,2322 3048,2323 3049,2323 3048,2323 3048,2324 3047,2324 3006,2324 3005,2324 3004,2323 3004,2323 3004,2323 3005,2322 3005,2322 3006,2322 3006,2322 z M 3073,2322  L 3114,2322 3114,2322 3115,2322 3115,2323 3115,2323 3115,2323 3115,2324 3114,2324 3073,2324 3072,2324 3071,2323 3071,2323 3071,2323 3072,2322 3072,2322 3073,2322 3073,2322 z M 3140,2322  L 3182,2322 3182,2322 3182,2322 3182,2323 3182,2324 3182,2324 3140,2324 3138,2324 3138,2323 3138,2323 3138,2323 3138,2322 3139,2322 3140,2322 3140,2322 z M 3206,2322  L 3248,2322 3249,2322 3249,2322 3249,2323 3249,2323 3249,2323 3249,2324 3248,2324 3206,2324 3205,2324 3205,2323 3205,2323 3205,2323 3205,2322 3206,2322 3206,2322 3206,2322 z M 3273,2322  L 3315,2322 3316,2322 3316,2322 3317,2323 3317,2323 3317,2323 3316,2324 3315,2324 3273,2324 3272,2324 3272,2323 3272,2323 3272,2323 3272,2322 3272,2322 3273,2322 3273,2322 z M 3340,2322  L 3382,2322 3383,2322 3383,2322 3383,2323 3384,2323 3383,2323 3383,2324 3382,2324 3340,2324 3339,2324 3338,2323 3338,2323 3338,2323 3339,2322 3339,2322 3340,2322 3340,2322 z M 3407,2322  L 3449,2322 3449,2322 3450,2322 3450,2323 3450,2323 3450,2323 3450,2324 3449,2324 3407,2324 3406,2324 3405,2323 3405,2323 3405,2323 3406,2322 3406,2322 3407,2322 3407,2322 z M 3474,2322  L 3516,2322 3516,2322 3517,2322 3517,2323 3517,2324 3516,2324 3474,2324 3472,2324 3472,2323 3472,2323 3472,2323 3472,2322 3473,2322 3474,2322 3474,2322 z M 3540,2322  L 3582,2322 3583,2322 3584,2322 3584,2323 3584,2323 3584,2323 3584,2324 3582,2324 3540,2324 3539,2324 3539,2323 3539,2323 3539,2323 3539,2322 3540,2322 3540,2322 3540,2322 z M 3607,2322  L 3649,2322 3650,2322 3650,2322 3651,2323 3651,2323 3651,2323 3650,2324 3649,2324 3607,2324 3607,2324 3607,2323 3607,2323 3607,2323 3607,2322 3607,2322 3607,2322 3607,2322 z M 3674,2322  L 3716,2322 3717,2322 3717,2322 3717,2323 3718,2323 3717,2323 3717,2324 3716,2324 3674,2324 3674,2324 3673,2323 3673,2323 3673,2323 3674,2322 3674,2322 3674,2322 3674,2322 z M 3742,2322  L 3783,2322 3783,2322 3784,2322 3784,2323 3784,2323 3784,2323 3784,2324 3783,2324 3742,2324 3741,2324 3740,2323 3740,2323 3740,2323 3741,2322 3741,2322 3742,2322 3742,2322 z M 3809,2322  L 3850,2322 3850,2322 3851,2322 3851,2323 3851,2324 3850,2324 3809,2324 3807,2324 3807,2323 3807,2323 3807,2323 3807,2322 3808,2322 3809,2322 3809,2322 z M 3875,2322  L 3917,2322 3918,2322 3918,2322 3918,2323 3918,2323 3918,2323 3918,2324 3917,2324 3875,2324 3874,2324 3874,2323 3874,2323 3874,2323 3874,2322 3875,2322 3875,2322 3875,2322 z M 3942,2322  L 3984,2322 3985,2322 3985,2322 3985,2323 3985,2323 3985,2323 3985,2324 3984,2324 3942,2324 3941,2324 3941,2323 3941,2323 3941,2323 3941,2322 3941,2322 3942,2322 3942,2322 z M 4009,2322  L 4051,2322 4052,2322 4052,2322 4052,2323 4053,2323 4052,2323 4052,2324 4051,2324 4009,2324 4008,2324 4007,2323 4007,2323 4007,2323 4008,2322 4008,2322 4009,2322 4009,2322 z M 4076,2322  L 4118,2322 4118,2322 4119,2322 4119,2323 4119,2323 4119,2323 4119,2324 4118,2324 4076,2324 4075,2324 4074,2323 4074,2323 4074,2323 4075,2322 4075,2322 4076,2322 4076,2322 z M 4143,2322  L 4185,2322 4185,2322 4186,2322 4186,2323 4186,2324 4185,2324 4143,2324 4141,2324 4141,2323 4141,2323 4141,2323 4141,2322 4142,2322 4143,2322 4143,2322 z M 4209,2322  L 4251,2322 4252,2322 4253,2322 4253,2323 4253,2323 4253,2323 4253,2324 4251,2324 4209,2324 4208,2324 4208,2323 4208,2323 4208,2323 4208,2322 4209,2322 4209,2322 4209,2322 z M 4276,2322  L 4318,2322 4319,2322 4319,2322 4320,2323 4320,2323 4320,2323 4319,2324 4318,2324 4276,2324 4275,2324 4275,2323 4275,2323 4275,2323 4275,2322 4275,2322 4276,2322 4276,2322 z M 4343,2322  L 4385,2322 4386,2322 4386,2322 4386,2323 4387,2323 4386,2323 4386,2324 4385,2324 4343,2324 4343,2324 4342,2323 4342,2323 4342,2323 4343,2322 4343,2322 4343,2322 4343,2322 z M 4410,2322  L 4452,2322 4452,2322 4453,2322 4453,2323 4453,2323 4453,2323 4453,2324 4452,2324 4410,2324 4410,2324 4409,2323 4409,2323 4409,2323 4410,2322 4410,2322 4410,2322 4410,2322 z M 4478,2322  L 4519,2322 4519,2322 4520,2322 4520,2323 4520,2324 4519,2324 4478,2324 4476,2324 4476,2323 4476,2323 4476,2323 4476,2322 4477,2322 4478,2322 4478,2322 z M 4544,2322  L 4586,2322 4586,2322 4587,2322 4587,2323 4587,2323 4587,2323 4587,2324 4586,2324 4544,2324 4543,2324 4543,2323 4543,2323 4543,2323 4543,2322 4544,2322 4544,2322 4544,2322 z M 4611,2322  L 4653,2322 4653,2322 4653,2322 4654,2323 4654,2323 4654,2323 4653,2324 4653,2324 4611,2324 4610,2324 4610,2323 4610,2323 4610,2323 4610,2322 4610,2322 4611,2322 4611,2322 z M 4678,2322  L 4720,2322 4721,2322 4721,2322 4721,2323 4721,2323 4721,2323 4721,2324 4720,2324 4678,2324 4677,2324 4676,2323 4676,2323 4676,2323 4677,2322 4677,2322 4678,2322 4678,2322 z M 4745,2322  L 4787,2322 4787,2322 4788,2322 4788,2323 4788,2323 4788,2323 4788,2324 4787,2324 4745,2324 4744,2324 4743,2323 4743,2323 4743,2323 4744,2322 4744,2322 4745,2322 4745,2322 z M 4812,2322  L 4854,2322 4854,2322 4855,2322 4855,2323 4855,2324 4854,2324 4812,2324 4810,2324 4810,2323 4810,2323 4810,2323 4810,2322 4811,2322 4812,2322 4812,2322 z M 4878,2322  L 4909,2322 4909,2322 4910,2322 4910,2323 4910,2323 4910,2323 4910,2324 4909,2324 4878,2324 4877,2324 4877,2323 4877,2323 4877,2323 4877,2322 4878,2322 4878,2322 4878,2322 z" fill-rule="nonzero"/>
        <polyline class="pen2" fill="none" points="2618,2283 2614,2287 2610,2291 2606,2296 2601,2300 2597,2303 2593,2307 2587,2309 2582,2312 2577,2315 2572,2317 2567,2319 2560,2320 2555,2322 2549,2323 2543,2323 2537,2323 2543,2323 2549,2323 2555,2324 2560,2326 2567,2327 2572,2329 2577,2331 2582,2334 2587,2336 2593,2339 2597,2342 2601,2346 2606,2350 2610,2355 2614,2359 2618,2363"/>
        <text class="font1" fill="rgb(0,0,0)" stroke="none" style="dominant-baseline: alphabetic;" x="3416 3442 3493 3519 3571 3592 3618 3685 3706 3732 3783 3810 3836 3887 3933 3985" xml:lang="en" xml:space="preserve" y="2304">total with taxes</text>
        <path class="pen0 brush3" d="M 2537,3032  L 2579,3032 2580,3032 2581,3032 2581,3032 2581,3033 2581,3034 2581,3034 2579,3035 2537,3035 2536,3034 2536,3034 2536,3033 2536,3032 2536,3032 2537,3032 2537,3032 2537,3032 z M 2604,3032  L 2646,3032 2647,3032 2647,3032 2648,3032 2648,3033 2648,3034 2647,3034 2646,3035 2604,3035 2603,3034 2603,3034 2603,3033 2603,3032 2603,3032 2603,3032 2604,3032 2604,3032 z M 2671,3032  L 2713,3032 2714,3032 2714,3032 2714,3032 2715,3033 2714,3034 2714,3034 2713,3035 2671,3035 2670,3034 2669,3034 2669,3033 2669,3032 2670,3032 2670,3032 2671,3032 2671,3032 z M 2738,3032  L 2780,3032 2780,3032 2781,3032 2781,3032 2781,3033 2781,3034 2781,3034 2780,3035 2738,3035 2737,3034 2736,3034 2736,3033 2736,3032 2737,3032 2737,3032 2738,3032 2738,3032 z M 2805,3032  L 2847,3032 2847,3032 2848,3032 2848,3033 2848,3034 2847,3035 2805,3035 2804,3034 2804,3034 2804,3033 2804,3032 2804,3032 2804,3032 2805,3032 2805,3032 z M 2871,3032  L 2913,3032 2914,3032 2915,3032 2915,3032 2915,3033 2915,3034 2915,3034 2913,3035 2871,3035 2871,3034 2871,3034 2871,3033 2871,3032 2871,3032 2871,3032 2871,3032 2871,3032 z M 2939,3032  L 2980,3032 2981,3032 2981,3032 2982,3032 2982,3033 2982,3034 2981,3034 2980,3035 2939,3035 2938,3034 2938,3034 2938,3033 2938,3032 2938,3032 2938,3032 2939,3032 2939,3032 z M 3006,3032  L 3047,3032 3048,3032 3048,3032 3048,3032 3049,3033 3048,3034 3048,3034 3047,3035 3006,3035 3005,3034 3004,3034 3004,3033 3004,3032 3005,3032 3005,3032 3006,3032 3006,3032 z M 3073,3032  L 3114,3032 3114,3032 3115,3032 3115,3032 3115,3033 3115,3034 3115,3034 3114,3035 3073,3035 3072,3034 3071,3034 3071,3033 3071,3032 3072,3032 3072,3032 3073,3032 3073,3032 z M 3140,3032  L 3182,3032 3182,3032 3182,3032 3182,3033 3182,3034 3182,3035 3140,3035 3138,3034 3138,3034 3138,3033 3138,3032 3138,3032 3139,3032 3140,3032 3140,3032 z M 3206,3032  L 3248,3032 3249,3032 3249,3032 3249,3032 3249,3033 3249,3034 3249,3034 3248,3035 3206,3035 3205,3034 3205,3034 3205,3033 3205,3032 3205,3032 3206,3032 3206,3032 3206,3032 z M 3273,3032  L 3315,3032 3316,3032 3316,3032 3317,3032 3317,3033 3317,3034 3316,3034 3315,3035 3273,3035 3272,3034 3272,3034 3272,3033 3272,3032 3272,3032 3272,3032 3273,3032 3273,3032 z M 3340,3032  L 3382,3032 3383,3032 3383,3032 3383,3032 3384,3033 3383,3034 3383,3034 3382,3035 3340,3035 3339,3034 3338,3034 3338,3033 3338,3032 3339,3032 3339,3032 3340,3032 3340,3032 z M 3407,3032  L 3449,3032 3449,3032 3450,3032 3450,3032 3450,3033 3450,3034 3450,3034 3449,3035 3407,3035 3406,3034 3405,3034 3405,3033 3405,3032 3406,3032 3406,3032 3407,3032 3407,3032 z M 3474,3032  L 3516,3032 3516,3032 3517,3032 3517,3033 3517,3034 3516,3035 3474,3035 3472,3034 3472,3034 3472,3033 3472,3032 3472,3032 3473,3032 3474,3032 3474,3032 z M 3540,3032  L 3582,3032 3583,3032 3584,3032 3584,3032 3584,3033 3584,3034 3584,3034 3582,3035 3540,3035 3539,3034 3539,3034 3539,3033 3539,3032 3539,3032 3540,3032 3540,3032 3540,3032 z M 3607,3032  L 3649,3032 3650,3032 3650,3032 3651,3032 3651,3033 3651,3034 3650,3034 3649,3035 3607,3035 3607,3034 3607,3034 3607,3033 3607,3032 3607,3032 3607,3032 3607,3032 3607,3032 z M 3674,3032  L 3716,3032 3717,3032 3717,3032 3717,3032 3718,3033 3717,3034 3717,3034 3716,3035 3674,3035 3674,3034 3673,3034 3673,3033 3673,3032 3674,3032 3674,3032 3674,3032 3674,3032 z M 3742,3032  L 3783,3032 3783,3032 3784,3032 3784,3032 3784,3033 3784,3034 3784,3034 3783,3035 3742,3035 3741,3034 3740,3034 3740,3033 3740,3032 3741,3032 3741,3032 3742,3032 3742,3032 z M 3809,3032  L 3850,3032 3850,3032 3851,3032 3851,3033 3851,3034 3850,3035 3809,3035 3807,3034 3807,3034 3807,3033 3807,3032 3807,3032 3808,3032 3809,3032 3809,3032 z M 3875,3032  L 3917,3032 3918,3032 3918,3032 3918,3032 3918,3033 3918,3034 3918,3034 3917,3035 3875,3035 3874,3034 3874,3034 3874,3033 3874,3032 3874,3032 3875,3032 3875,3032 3875,3032 z M 3942,3032  L 3984,3032 3985,3032 3985,3032 3985,3032 3985,3033 3985,3034 3985,3034 3984,3035 3942,3035 3941,3034 3941,3034 3941,3033 3941,3032 3941,3032 3941,3032 3942,3032 3942,3032 z M 4009,3032  L 4051,3032 4052,3032 4052,3032 4052,3032 4053,3033 4052,3034 4052,3034 4051,3035 4009,3035 4008,3034 4007,3034 4007,3033 4007,3032 4008,3032 4008,3032 4009,3032 4009,3032 z M 4076,3032  L 4118,3032 4118,3032 4119,3032 4119,3032 4119,3033 4119,3034 4119,3034 4118,3035 4076,3035 4075,3034 4074,3034 4074,3033 4074,3032 4075,3032 4075,3032 4076,3032 4076,3032 z M 4143,3032  L 4185,3032 4185,3032 4186,3032 4186,3033 4186,3034 4185,3035 4143,3035 4141,3034 4141,3034 4141,3033 4141,3032 4141,3032 4142,3032 4143,3032 4143,3032 z M 4209,3032  L 4251,3032 4252,3032 4253,3032 4253,3032 4253,3033 4253,3034 4253,3034 4251,3035 4209,3035 4208,3034 4208,3034 4208,3033 4208,3032 4208,3032 4209,3032 4209,3032 4209,3032 z M 4276,3032  L 4318,3032 4319,3032 4319,3032 4320,3032 4320,3033 4320,3034 4319,3034 4318,3035 4276,3035 4275,3034 4275,3034 4275,3033 4275,3032 4275,3032 4275,3032 4276,3032 4276,3032 z M 4343,3032  L 4385,3032 4386,3032 4386,3032 4386,3032 4387,3033 4386,3034 4386,3034 4385,3035 4343,3035 4343,3034 4342,3034 4342,3033 4342,3032 4343,3032 4343,3032 4343,3032 4343,3032 z M 4410,3032  L 4452,3032 4452,3032 4453,3032 4453,3032 4453,3033 4453,3034 4453,3034 4452,3035 4410,3035 4410,3034 4409,3034 4409,3033 4409,3032 4410,3032 4410,3032 4410,3032 4410,3032 z M 4478,3032  L 4519,3032 4519,3032 4520,3032 4520,3033 4520,3034 4519,3035 4478,3035 4476,3034 4476,3034 4476,3033 4476,3032 4476,3032 4477,3032 4478,3032 4478,3032 z M 4544,3032  L 4586,3032 4586,3032 4587,3032 4587,3032 4587,3033 4587,3034 4587,3034 4586,3035 4544,3035 4543,3034 4543,3034 4543,3033 4543,3032 4543,3032 4544,3032 4544,3032 4544,3032 z M 4611,3032  L 4653,3032 4653,3032 4653,3032 4654,3032 4654,3033 4654,3034 4653,3034 4653,3035 4611,3035 4610,3034 4610,3034 4610,3033 4610,3032 4610,3032 4610,3032 4611,3032 4611,3032 z M 4678,3032  L 4720,3032 4721,3032 4721,3032 4721,3032 4721,3033 4721,3034 4721,3034 4720,3035 4678,3035 4677,3034 4676,3034 4676,3033 4676,3032 4677,3032 4677,3032 4678,3032 4678,3032 z M 4745,3032  L 4787,3032 4787,3032 4788,3032 4788,3032 4788,3033 4788,3034 4788,3034 4787,3035 4745,3035 4744,3034 4743,3034 4743,3033 4743,3032 4744,3032 4744,3032 4745,3032 4745,3032 z M 4812,3032  L 4854,3032 4854,3032 4855,3032 4855,3033 4855,3034 4854,3035 4812,3035 4810,3034 4810,3034 4810,3033 4810,3032 4810,3032 4811,3032 4812,3032 4812,3032 z M 4878,3032  L 4920,3032 4921,3032 4922,3032 4922,3032 4922,3033 4922,3034 4922,3034 4920,3035 4878,3035 4877,3034 4877,3034 4877,3033 4877,3032 4877,3032 4878,3032 4878,3032 4878,3032 z" fill-rule="nonzero"/>
        <polyline class="pen2" fill="none" points="2618,2993 2614,2998 2610,3002 2606,3006 2601,3010 2597,3013 2593,3017 2587,3020 2582,3023 2577,3025 2572,3027 2567,3029 2560,3031 2555,3032 2549,3032 2543,3033 2537,3033 2543,3033 2549,3034 2555,3035 2560,3036 2567,3038 2572,3039 2577,3041 2582,3044 2587,3046 2593,3050 2597,3053 2601,3057 2606,3060 2610,3065 2614,3069 2618,3073"/>
        <text class="font1" fill="rgb(0,0,0)" stroke="none" style="dominant-baseline: alphabetic;" x="3331 3377 3429 3480 3532 3583 3634 3661 3712 3763" xml:lang="en" xml:space="preserve" y="3015">change due</text>
        <text class="font1" fill="rgb(0,0,0)" stroke="none" style="dominant-baseline: alphabetic;" x="3816 3843" xml:lang="en" xml:space="preserve" y="3015">, </text>
        <text class="font1" fill="rgb(0,0,0)" stroke="none" style="dominant-baseline: alphabetic;" x="3869 3900 3951 3998 4049 4070 4121" xml:lang="en" xml:space="preserve" y="3015">receipt</text>
        <path class="pen0 brush3" d="M 2536,3148  L 2536,3106 2536,3105 2536,3105 2537,3105 2537,3105 2538,3105 2538,3105 2539,3105 2539,3106 2539,3148 2539,3148 2538,3149 2538,3149 2537,3149 2537,3149 2536,3149 2536,3148 2536,3148 2536,3148 z M 2536,3081  L 2536,3039 2536,3039 2536,3039 2537,3038 2537,3038 2538,3038 2538,3039 2539,3039 2539,3039 2539,3081 2539,3082 2538,3082 2538,3082 2537,3083 2537,3082 2536,3082 2536,3082 2536,3081 2536,3081 z M 2536,3014  L 2536,2972 2536,2972 2536,2972 2537,2972 2538,2972 2539,2972 2539,2972 2539,3014 2539,3015 2538,3015 2537,3016 2536,3015 2536,3015 2536,3014 2536,3014 z M 2536,2947  L 2536,2906 2536,2906 2536,2905 2537,2905 2537,2905 2538,2905 2538,2905 2539,2906 2539,2906 2539,2947 2539,2948 2538,2948 2538,2949 2537,2949 2537,2949 2536,2948 2536,2948 2536,2947 2536,2947 z M 2536,2881  L 2536,2840 2536,2839 2536,2838 2537,2838 2537,2838 2538,2838 2538,2838 2539,2839 2539,2840 2539,2881 2539,2881 2538,2882 2537,2882 2536,2882 2536,2881 2536,2881 2536,2881 z M 2536,2814  L 2536,2773 2536,2772 2536,2772 2537,2771 2537,2771 2538,2771 2538,2772 2539,2772 2539,2773 2539,2814 2539,2814 2538,2815 2538,2815 2537,2815 2537,2815 2536,2815 2536,2814 2536,2814 2536,2814 z M 2536,2747  L 2536,2706 2536,2705 2536,2705 2537,2704 2537,2704 2538,2704 2538,2705 2539,2705 2539,2706 2539,2747 2539,2748 2538,2748 2538,2748 2537,2749 2537,2748 2536,2748 2536,2748 2536,2747 2536,2747 z M 2536,2681  L 2536,2639 2536,2638 2536,2638 2537,2638 2538,2638 2539,2638 2539,2639 2539,2681 2539,2681 2538,2681 2537,2682 2536,2681 2536,2681 2536,2681 2536,2681 z M 2536,2614  L 2536,2572 2536,2572 2536,2571 2537,2571 2537,2571 2538,2571 2538,2571 2539,2572 2539,2572 2539,2614 2539,2614 2538,2614 2538,2615 2537,2615 2537,2615 2536,2614 2536,2614 2536,2614 2536,2614 z M 2536,2548  L 2536,2506 2536,2505 2536,2504 2537,2504 2537,2504 2538,2504 2538,2504 2539,2505 2539,2506 2539,2548 2539,2548 2538,2548 2537,2548 2536,2548 2536,2548 2536,2548 2536,2548 z M 2536,2481  L 2536,2439 2536,2438 2536,2438 2537,2437 2537,2437 2538,2437 2538,2438 2539,2438 2539,2439 2539,2481 2539,2481 2538,2482 2538,2482 2537,2482 2537,2482 2536,2482 2536,2481 2536,2481 2536,2481 z M 2536,2414  L 2536,2372 2536,2371 2536,2371 2537,2370 2537,2370 2538,2370 2538,2371 2539,2371 2539,2372 2539,2414 2539,2415 2538,2415 2538,2415 2537,2415 2537,2415 2536,2415 2536,2415 2536,2414 2536,2414 z M 2536,2347  L 2536,2305 2536,2304 2536,2304 2537,2304 2538,2304 2539,2304 2539,2305 2539,2347 2539,2348 2538,2348 2537,2349 2536,2348 2536,2348 2536,2347 2536,2347 z M 2536,2280  L 2536,2238 2536,2238 2536,2237 2537,2237 2537,2237 2538,2237 2538,2237 2539,2238 2539,2238 2539,2280 2539,2281 2538,2281 2538,2282 2537,2282 2537,2282 2536,2281 2536,2281 2536,2280 2536,2280 z M 2536,2214  L 2536,2172 2536,2171 2536,2170 2537,2170 2537,2170 2538,2170 2538,2170 2539,2171 2539,2172 2539,2214 2539,2214 2538,2215 2537,2215 2536,2215 2536,2214 2536,2214 2536,2214 z M 2536,2147  L 2536,2105 2536,2104 2536,2104 2537,2104 2537,2104 2538,2104 2538,2104 2539,2104 2539,2105 2539,2147 2539,2147 2538,2148 2538,2148 2537,2148 2537,2148 2536,2148 2536,2147 2536,2147 2536,2147 z M 2536,2080  L 2536,2038 2536,2037 2536,2037 2537,2037 2537,2037 2538,2037 2538,2037 2539,2037 2539,2038 2539,2080 2539,2081 2538,2081 2538,2081 2537,2082 2537,2081 2536,2081 2536,2081 2536,2080 2536,2080 z M 2536,2013  L 2536,1971 2536,1971 2536,1971 2537,1971 2538,1971 2539,1971 2539,1971 2539,2013 2539,2014 2538,2014 2537,2015 2536,2014 2536,2014 2536,2013 2536,2013 z M 2536,1946  L 2536,1905 2536,1905 2536,1904 2537,1904 2537,1904 2538,1904 2538,1904 2539,1905 2539,1905 2539,1946 2539,1947 2538,1947 2538,1948 2537,1948 2537,1948 2536,1947 2536,1947 2536,1946 2536,1946 z M 2536,1880  L 2536,1838 2536,1838 2536,1837 2537,1837 2537,1837 2538,1837 2538,1837 2539,1838 2539,1838 2539,1880 2539,1880 2538,1881 2537,1881 2536,1881 2536,1880 2536,1880 2536,1880 z M 2536,1813  L 2536,1772 2536,1771 2536,1771 2537,1770 2537,1770 2538,1770 2538,1771 2539,1771 2539,1772 2539,1813 2539,1813 2538,1814 2538,1814 2537,1814 2537,1814 2536,1814 2536,1813 2536,1813 2536,1813 z M 2536,1746  L 2536,1705 2536,1704 2536,1704 2537,1703 2537,1703 2538,1703 2538,1704 2539,1704 2539,1705 2539,1746 2539,1747 2538,1747 2538,1747 2537,1748 2537,1747 2536,1747 2536,1747 2536,1746 2536,1746 z M 2536,1679  L 2536,1638 2536,1637 2536,1637 2537,1637 2538,1637 2539,1637 2539,1638 2539,1679 2539,1680 2538,1680 2537,1681 2536,1680 2536,1680 2536,1679 2536,1679 z M 2536,1613  L 2536,1571 2536,1571 2536,1570 2537,1570 2537,1570 2538,1570 2538,1570 2539,1571 2539,1571 2539,1613 2539,1613 2538,1613 2538,1614 2537,1614 2537,1614 2536,1613 2536,1613 2536,1613 2536,1613 z M 2536,1547  L 2536,1505 2536,1504 2536,1503 2537,1503 2537,1503 2538,1503 2538,1503 2539,1504 2539,1505 2539,1547 2539,1547 2538,1547 2537,1547 2536,1547 2536,1547 2536,1547 2536,1547 z M 2536,1480  L 2536,1438 2536,1437 2536,1437 2537,1436 2537,1436 2538,1436 2538,1437 2539,1437 2539,1438 2539,1480 2539,1480 2538,1480 2538,1480 2537,1480 2537,1480 2536,1480 2536,1480 2536,1480 2536,1480 z M 2536,1413  L 2536,1371 2536,1370 2536,1370 2537,1369 2537,1369 2538,1369 2538,1370 2539,1370 2539,1371 2539,1413 2539,1414 2538,1414 2538,1414 2537,1414 2537,1414 2536,1414 2536,1414 2536,1413 2536,1413 z M 2536,1346  L 2536,1304 2536,1303 2536,1303 2537,1303 2538,1303 2539,1303 2539,1304 2539,1346 2539,1347 2538,1347 2537,1348 2536,1347 2536,1347 2536,1346 2536,1346 z M 2536,1279  L 2536,1237 2536,1237 2536,1236 2537,1236 2537,1236 2538,1236 2538,1236 2539,1237 2539,1237 2539,1279 2539,1280 2538,1280 2538,1281 2537,1281 2537,1281 2536,1280 2536,1280 2536,1279 2536,1279 z M 2536,1213  L 2536,1171 2536,1170 2536,1169 2537,1169 2537,1169 2538,1169 2538,1169 2539,1170 2539,1171 2539,1213 2539,1213 2538,1214 2537,1214 2536,1214 2536,1213 2536,1213 2536,1213 z M 2536,1146  L 2536,1104 2536,1103 2536,1103 2537,1102 2537,1102 2538,1102 2538,1103 2539,1103 2539,1104 2539,1146 2539,1146 2538,1147 2538,1147 2537,1147 2537,1147 2536,1147 2536,1146 2536,1146 2536,1146 z M 2536,1079  L 2536,1037 2536,1036 2536,1036 2537,1036 2537,1036 2538,1036 2538,1036 2539,1036 2539,1037 2539,1079 2539,1080 2538,1080 2538,1080 2537,1081 2537,1080 2536,1080 2536,1080 2536,1079 2536,1079 z M 2536,1012  L 2536,970 2536,970 2536,970 2537,970 2538,970 2539,970 2539,970 2539,1012 2539,1013 2538,1013 2537,1014 2536,1013 2536,1013 2536,1012 2536,1012 z M 2536,945  L 2536,904 2536,904 2536,903 2537,903 2537,903 2538,903 2538,903 2539,904 2539,904 2539,945 2539,946 2538,946 2538,947 2537,947 2537,947 2536,946 2536,946 2536,945 2536,945 z M 2536,879  L 2536,837 2536,837 2536,836 2537,836 2537,836 2538,836 2538,836 2539,837 2539,837 2539,879 2539,879 2538,880 2537,880 2536,880 2536,879 2536,879 2536,879 z M 2536,812  L 2536,771 2536,770 2536,770 2537,769 2537,769 2538,769 2538,770 2539,770 2539,771 2539,812 2539,812 2538,813 2538,813 2537,813 2537,813 2536,813 2536,812 2536,812 2536,812 z M 2536,745  L 2536,704 2536,703 2536,703 2537,702 2537,702 2538,702 2538,703 2539,703 2539,704 2539,745 2539,746 2538,746 2538,746 2537,747 2537,746 2536,746 2536,746 2536,745 2536,745 z M 2536,678  L 2536,645 2536,645 2536,645 2537,644 2537,644 2538,644 2538,645 2539,645 2539,645 2539,678 2539,679 2538,679 2537,680 2536,679 2536,679 2536,678 2536,678 z" fill-rule="nonzero"/>
        <polyline class="pen2" fill="none" points="4874,812 2541,812"/>
        <polygon class="pen1 brush3" points="4864,853 4945,812 4864,772 4864,853"/>
        <text class="font1" fill="rgb(0,0,0)" stroke="none" style="dominant-baseline: alphabetic;" x="3444 3521 3573 3619 3670 3737 3789 3856 3918 3969 3990" xml:lang="en" xml:space="preserve" y="794">makeNewSale</text>
        <polygon class="pen2 brush2" points="2000,1673 5135,1673 5135,917 2000,917 2000,1673"/>
        <polygon class="pen1 brush0" points="2425,956 2425,1067 2988,1067 2988,956 2425,956"/>
        <text class="font1" fill="rgb(0,0,0)" stroke="none" style="dominant-baseline: alphabetic;" x="2430 2456" xml:lang="en" xml:space="preserve" y="1039">[ </text>
        <text class="font1" fill="rgb(0,0,0)" stroke="none" style="dominant-baseline: alphabetic;" x="2481 2559 2610 2641 2693 2719 2740 2766 2817 2895 2941" xml:lang="en" xml:space="preserve" y="1039">more items </text>
        <text class="font1" fill="rgb(0,0,0)" stroke="none" style="dominant-baseline: alphabetic;" x="2966" xml:lang="en" xml:space="preserve" y="1039">]</text>
        <polyline class="pen2" fill="none" points="2000,1673 5135,1673"/>
        <polyline class="pen2" fill="none" points="2000,1673 5135,1673"/>
        <polyline class="pen2" fill="none" points="2000,1673 5135,1673"/>
        <polyline class="pen2" fill="none" points="2000,1673 5135,1673"/>
        <polyline class="pen2" fill="none" points="2000,1673 5135,1673"/>
        <polyline class="pen2" fill="none" points="2000,1673 5135,1673"/>
        <polyline class="pen2" fill="none" points="2000,1673 5135,1673"/>
        <polyline class="pen2" fill="none" points="2000,1673 5135,1673"/>
        <polygon class="pen2 brush2" points="2000,1125 2261,1125 2365,1021 2365,917 2000,917 2000,1125"/>
        <text class="font3" fill="rgb(0,0,0)" stroke="none" style="dominant-baseline: alphabetic;" x="2085 2111 2168 2224" xml:lang="en" xml:space="preserve" y="1049">loop</text>
        <polygon class="pen1 brush0" points="2993,317 2993,578 4194,578 4194,317 2993,317"/>
        <text class="font1" fill="rgb(0,0,0)" stroke="none" style="dominant-baseline: alphabetic;" x="3124 3186 3217 3269 3315 3366 3412 3458 3485 3546 3598 3619 3670 3696 3758 3804 3856 3907 3958 3990 4011" xml:lang="en" xml:space="preserve" y="475">Process Sale Scenario</text>
        <polyline class="pen4" fill="none" points="3124,486 4064,486"/>
    </g>
    <g/>
</svg>
