<?xml version="1.0" encoding="UTF-8" standalone="no"?>
<!DOCTYPE svg PUBLIC "-//W3C//DTD SVG 1.0//EN" "http://www.w3.org/TR/2001/REC-SVG-20010904/DTD/svg10.dtd">
<svg xmlns="http://www.w3.org/2000/svg" xmlns:xlink="http://www.w3.org/1999/xlink" fill-rule="evenodd" height="5.753472222222222in" preserveAspectRatio="none" stroke-linecap="round" viewBox="0 0 3129 3453" width="5.213541666666667in">
    <style type="text/css">
.brush0 { fill: rgb(255,255,255); }
.pen0 { stroke: rgb(0,0,0); stroke-width: 1; stroke-linejoin: round; }
.font0 { font-weight: bold; font-size: 91px; font-family: System, sans-serif; }
.pen1 { stroke: none; }
.pen2 { stroke: rgb(0,0,0); stroke-width: 2; stroke-linejoin: round; }
.brush1 { fill: none; }
.font1 { font-size: 54px; font-family: Arial; }
.font2 { font-weight: bold; font-size: 9px; font-family: System, sans-serif; }
.font3 { font-size: 67px; font-family: Arial; }
.brush2 { fill: rgb(0,0,0); }
.font4 { font-weight: bold; font-size: 54px; font-family: Arial; }
.pen3 { stroke: rgb(0,0,0); stroke-width: 9; stroke-linejoin: round; }
.font5 { font-style: italic; font-size: 54px; font-family: Arial; }
.font6 { font-size: 34px; font-family: Arial; }
.font7 { font-weight: bold; font-size: 40px; font-family: Arial; }
.brush3 { fill: rgb(230,230,230); }
.pen4 { stroke: rgb(255,255,255); stroke-width: 2; stroke-linejoin: round; }
.font8 { font-weight: bold; font-size: 9px; font-family: System, sans-serif; }
.font9 { font-weight: bold; font-size: 91px; font-family: System, sans-serif; }
</style>
    <g>
        <polygon class="pen1 brush0" points="368,1958 368,2349 879,2349 879,1958 368,1958"/>
        <polygon class="pen2 brush1" points="368,2349 879,2349 879,1958 368,1958 368,2349"/>
        <text class="font1" fill="rgb(0,0,0)" stroke="none" style="dominant-baseline: alphabetic;" x="398 445 479 512 533 566 583 597 631" xml:lang="en" xml:space="preserve" y="2027">Operation</text>
        <text class="font1" fill="rgb(0,0,0)" stroke="none" style="dominant-baseline: alphabetic;" x="664 681" xml:lang="en" xml:space="preserve" y="2027">: </text>
        <text class="font1" fill="rgb(0,0,0)" stroke="none" style="dominant-baseline: alphabetic;" x="398 415 432 449 466 500 533 550 584 604 621 639 672" xml:lang="en" xml:space="preserve" y="2099">    enterItem</text>
        <text class="font1" fill="rgb(0,0,0)" stroke="none" style="dominant-baseline: alphabetic;" x="722" xml:lang="en" xml:space="preserve" y="2099">(</text>
        <text class="font1" fill="rgb(0,0,0)" stroke="none" style="dominant-baseline: alphabetic;" x="741" xml:lang="en" xml:space="preserve" y="2099">…</text>
        <text class="font1" fill="rgb(0,0,0)" stroke="none" style="dominant-baseline: alphabetic;" x="802" xml:lang="en" xml:space="preserve" y="2099">)</text>
        <text class="font1" fill="rgb(0,0,0)" stroke="none" style="dominant-baseline: alphabetic;" x="398 439 472 502" xml:lang="en" xml:space="preserve" y="2244">Post</text>
        <text class="font1" fill="rgb(0,0,0)" stroke="none" style="dominant-baseline: alphabetic;" x="519" xml:lang="en" xml:space="preserve" y="2244">-</text>
        <text class="font1" fill="rgb(0,0,0)" stroke="none" style="dominant-baseline: alphabetic;" x="540 570 603 637 670 684 701 715 748 782" xml:lang="en" xml:space="preserve" y="2244">conditions</text>
        <text class="font1" fill="rgb(0,0,0)" stroke="none" style="dominant-baseline: alphabetic;" x="812" xml:lang="en" xml:space="preserve" y="2244">:</text>
        <text class="font1" fill="rgb(0,0,0)" stroke="none" style="dominant-baseline: alphabetic;" x="398" xml:lang="en" xml:space="preserve" y="2317">-</text>
        <text class="font1" fill="rgb(0,0,0)" stroke="none" style="dominant-baseline: alphabetic;" x="418" xml:lang="en" xml:space="preserve" y="2317"> </text>
        <text class="font1" fill="rgb(0,0,0)" stroke="none" style="dominant-baseline: alphabetic;" x="435 452 469 486 503" xml:lang="en" xml:space="preserve" y="2317">. . .</text>
        <text class="font1" fill="rgb(0,0,0)" stroke="none" style="dominant-baseline: alphabetic;" x="386 433 467 500 521 554 571 585 619 652 669 713 747 780 797 818 851 881 898" xml:lang="en" xml:space="preserve" y="2494">Operation Contracts</text>
        <polygon class="pen1 brush0" points="664,243 664,379 1065,379 1065,243 664,243"/>
        <polygon class="pen2 brush1" points="664,379 1065,379 1065,243 664,243 664,379"/>
        <text class="font1" fill="rgb(0,0,0)" stroke="none" style="dominant-baseline: alphabetic;" x="804 844 878 891" xml:lang="en" xml:space="preserve" y="330">Sale</text>
        <polygon class="pen1 brush0" points="664,379 664,585 1065,585 1065,379 664,379"/>
        <polygon class="pen2 brush1" points="664,585 1065,585 1065,379 664,379 664,585"/>
        <text class="font1" fill="rgb(0,0,0)" stroke="none" style="dominant-baseline: alphabetic;" x="700 733 767 784" xml:lang="en" xml:space="preserve" y="464">date</text>
        <text class="font1" fill="rgb(0,0,0)" stroke="none" style="dominant-baseline: alphabetic;" x="700 717 734 751 768" xml:lang="en" xml:space="preserve" y="537">. . .</text>
        <polygon class="pen1 brush0" points="1451,243 1451,449 1852,449 1852,243 1451,243"/>
        <polygon class="pen2 brush1" points="1451,449 1852,449 1852,243 1451,243 1451,449"/>
        <text class="font1" fill="rgb(0,0,0)" stroke="none" style="dominant-baseline: alphabetic;" x="1576 1616 1649 1663 1697" xml:lang="en" xml:space="preserve" y="328">Sales</text>
        <text class="font1" fill="rgb(0,0,0)" stroke="none" style="dominant-baseline: alphabetic;" x="1535 1569 1582 1616 1649 1666 1683 1717" xml:lang="en" xml:space="preserve" y="400">LineItem</text>
        <polygon class="pen1 brush0" points="1451,449 1451,585 1852,585 1852,449 1451,449"/>
        <polygon class="pen2 brush1" points="1451,585 1852,585 1852,449 1451,449 1451,585"/>
        <text class="font1" fill="rgb(0,0,0)" stroke="none" style="dominant-baseline: alphabetic;" x="1487 1520 1554 1587 1621 1638 1652 1669" xml:lang="en" xml:space="preserve" y="535">quantity</text>
        <polyline class="pen2" fill="none" points="1065,414 1451,414"/>
        <text class="font1" fill="rgb(0,0,0)" stroke="none" style="dominant-baseline: alphabetic;" x="1330" xml:lang="en" xml:space="preserve" y="351">1</text>
        <text class="font1" fill="rgb(0,0,0)" stroke="none" style="dominant-baseline: alphabetic;" x="1364 1381" xml:lang="en" xml:space="preserve" y="351">..</text>
        <text class="font3" fill="rgb(0,0,0)" stroke="none" style="dominant-baseline: alphabetic;" x="1398" xml:lang="en" xml:space="preserve" y="351">*</text>
        <text class="font1" fill="rgb(0,0,0)" stroke="none" style="dominant-baseline: alphabetic;" x="1118" xml:lang="en" xml:space="preserve" y="347">1</text>
        <polygon class="pen1 brush0" points="2274,278 2274,414 2674,414 2674,278 2274,278"/>
        <polygon class="pen2 brush1" points="2274,414 2674,414 2674,278 2274,278 2274,414"/>
        <text class="font1" fill="rgb(0,0,0)" stroke="none" style="dominant-baseline: alphabetic;" x="2432 2449 2466 2483 2500" xml:lang="en" xml:space="preserve" y="364">. . .</text>
        <polygon class="pen1 brush0" points="2274,414 2274,550 2674,550 2674,414 2274,414"/>
        <polygon class="pen2 brush1" points="2274,550 2674,550 2674,414 2274,414 2274,550"/>
        <text class="font1" fill="rgb(0,0,0)" stroke="none" style="dominant-baseline: alphabetic;" x="2310 2327 2344 2361 2378" xml:lang="en" xml:space="preserve" y="500">. . .</text>
        <polyline class="pen2" fill="none" points="1852,414 2274,414"/>
        <polyline class="pen2" fill="none" points="452,621 2879,621 2886,621 2893,620 2900,619 2906,618 2913,616 2919,614 2926,612 2932,610 2938,607 2944,604 2949,601 2955,597 2961,593 2966,589 2970,585 2976,581 2980,576 2984,571 2988,566 2992,560 2995,555 2999,550 3002,543 3005,538 3007,532 3009,525 3011,518 3012,512 3014,505 3015,499 3015,491 3015,484 3015,484 3015,484 3015,246 3015,239 3015,232 3014,225 3012,219 3011,212 3009,206 3007,200 3005,193 3002,187 2999,181 2995,176 2992,170 2988,164 2984,159 2980,155 2976,150 2970,145 2966,141 2961,137 2955,133 2949,130 2944,126 2938,124 2932,121 2926,118 2919,116 2913,115 2906,113 2900,112 2893,111 2886,110 2879,110 2879,110 452,110 445,110 437,111 431,112 424,113 418,115 411,116 405,118 399,121 393,124 387,126 381,130 375,133 370,137 365,141 360,145 355,150 350,155 346,159 343,164 339,170 335,176 332,181 329,187 326,193 324,200 321,206 320,212 318,219 317,225 316,232 315,239 315,246 315,246 315,484 315,491 316,499 317,505 318,512 320,518 321,525 324,532 326,538 329,543 332,550 335,555 339,560 343,566 346,571 350,576 355,581 360,585 365,589 370,593 375,597 381,601 387,604 393,607 399,610 405,612 411,614 418,616 424,618 431,619 437,620 445,621 452,621 452,621"/>
        <text class="font1" fill="rgb(0,0,0)" stroke="none" style="dominant-baseline: alphabetic;" x="1470 1514 1547 1598 1631 1645 1678 1695 1746 1779 1813 1847" xml:lang="en" xml:space="preserve" y="195">Domain Model</text>
        <path class="pen0 brush2" d="M 455,2549  L 591,2549 593,2549 593,2550 594,2550 595,2551 595,2551 595,2552 596,2553 596,2554 596,2555 595,2555 595,2557 595,2557 594,2558 593,2558 593,2558 591,2558 455,2558 454,2558 453,2558 453,2558 452,2557 451,2557 451,2555 450,2555 450,2554 450,2553 451,2552 451,2551 452,2551 453,2550 453,2550 454,2549 455,2549 455,2549 z M 673,2549  L 810,2549 811,2549 811,2550 812,2550 813,2551 814,2551 814,2552 814,2553 814,2554 814,2555 814,2555 814,2557 813,2557 812,2558 811,2558 811,2558 810,2558 673,2558 672,2558 672,2558 671,2558 670,2557 669,2557 669,2555 669,2555 669,2554 669,2553 669,2552 669,2551 670,2551 671,2550 672,2550 672,2549 673,2549 673,2549 z M 891,2549  L 1028,2549 1029,2549 1029,2550 1031,2550 1031,2551 1032,2551 1032,2552 1032,2553 1032,2554 1032,2555 1032,2555 1032,2557 1031,2557 1031,2558 1029,2558 1029,2558 1028,2558 891,2558 890,2558 890,2558 889,2558 888,2557 887,2557 887,2555 887,2555 887,2554 887,2553 887,2552 887,2551 888,2551 889,2550 890,2550 890,2549 891,2549 891,2549 z M 1110,2549  L 1246,2549 1247,2549 1248,2550 1249,2550 1249,2551 1250,2551 1250,2552 1250,2553 1250,2554 1250,2555 1250,2555 1250,2557 1249,2557 1249,2558 1248,2558 1247,2558 1246,2558 1110,2558 1108,2558 1108,2558 1107,2558 1106,2557 1106,2557 1106,2555 1105,2555 1105,2554 1105,2553 1106,2552 1106,2551 1106,2551 1107,2550 1108,2550 1108,2549 1110,2549 1110,2549 z M 1328,2549  L 1464,2549 1465,2549 1466,2550 1467,2550 1468,2551 1468,2551 1468,2552 1469,2553 1469,2554 1469,2555 1468,2555 1468,2557 1468,2557 1467,2558 1466,2558 1465,2558 1464,2558 1328,2558 1327,2558 1326,2558 1326,2558 1324,2557 1324,2557 1324,2555 1323,2555 1323,2554 1323,2553 1324,2552 1324,2551 1324,2551 1326,2550 1326,2550 1327,2549 1328,2549 1328,2549 z M 1546,2549  L 1682,2549 1683,2549 1684,2550 1685,2550 1686,2551 1686,2551 1686,2552 1687,2553 1687,2554 1687,2555 1686,2555 1686,2557 1686,2557 1685,2558 1684,2558 1683,2558 1682,2558 1546,2558 1545,2558 1544,2558 1544,2558 1543,2557 1542,2557 1542,2555 1541,2555 1541,2554 1541,2553 1542,2552 1542,2551 1543,2551 1544,2550 1544,2550 1545,2549 1546,2549 1546,2549 z M 1764,2549  L 1901,2549 1902,2549 1902,2550 1903,2550 1904,2551 1905,2551 1905,2552 1905,2553 1905,2554 1905,2555 1905,2555 1905,2557 1904,2557 1903,2558 1902,2558 1902,2558 1901,2558 1764,2558 1763,2558 1762,2558 1762,2558 1761,2557 1760,2557 1760,2555 1760,2555 1760,2554 1760,2553 1760,2552 1760,2551 1761,2551 1762,2550 1762,2550 1763,2549 1764,2549 1764,2549 z M 1981,2546  L 1986,2545 1993,2543 1998,2541 2005,2539 2010,2537 2016,2533 2022,2530 2027,2527 2032,2523 2037,2519 2042,2515 2047,2511 2051,2506 2055,2501 2059,2496 2062,2491 2066,2486 2069,2480 2072,2475 2074,2469 2077,2463 2077,2463 2078,2462 2078,2461 2079,2461 2080,2461 2081,2461 2082,2461 2083,2461 2083,2461 2084,2462 2085,2462 2085,2463 2085,2464 2085,2465 2085,2466 2085,2467 2083,2473 2080,2479 2077,2485 2074,2491 2070,2496 2066,2502 2062,2507 2057,2512 2053,2517 2048,2522 2043,2526 2037,2530 2032,2534 2026,2538 2020,2542 2014,2545 2008,2547 2002,2550 1995,2552 1988,2554 1983,2555 1982,2555 1981,2555 1981,2555 1980,2555 1978,2554 1978,2553 1978,2552 1978,2551 1978,2550 1978,2549 1978,2549 1980,2547 1980,2547 1981,2546 1981,2546 z M 2085,2385  L 2085,2248 2085,2247 2085,2247 2086,2246 2086,2245 2087,2244 2087,2244 2089,2244 2090,2244 2090,2244 2091,2244 2092,2244 2093,2245 2093,2246 2094,2247 2094,2247 2094,2248 2094,2385 2094,2385 2094,2386 2093,2387 2093,2387 2092,2388 2091,2389 2090,2389 2090,2389 2089,2389 2087,2389 2087,2388 2086,2387 2086,2387 2085,2386 2085,2385 2085,2385 2085,2385 z M 2085,2167  L 2085,2031 2085,2029 2085,2029 2086,2028 2086,2027 2087,2027 2087,2026 2089,2026 2090,2026 2090,2026 2091,2026 2092,2027 2093,2027 2093,2028 2094,2029 2094,2029 2094,2031 2094,2167 2094,2167 2094,2168 2093,2169 2093,2170 2092,2170 2091,2171 2090,2171 2090,2171 2089,2171 2087,2171 2087,2170 2086,2170 2086,2169 2085,2168 2085,2167 2085,2167 2085,2167 z M 2085,1949  L 2085,1813 2085,1812 2085,1811 2086,1810 2086,1809 2087,1809 2087,1808 2089,1808 2090,1808 2090,1808 2091,1808 2092,1809 2093,1809 2093,1810 2094,1811 2094,1812 2094,1813 2094,1949 2094,1949 2094,1951 2093,1951 2093,1952 2092,1952 2091,1953 2090,1953 2090,1953 2089,1953 2087,1953 2087,1952 2086,1952 2086,1951 2085,1951 2085,1949 2085,1949 2085,1949 z M 2085,1731  L 2085,1595 2085,1594 2085,1593 2086,1592 2086,1591 2087,1591 2087,1590 2089,1590 2090,1590 2090,1590 2091,1590 2092,1591 2093,1591 2093,1592 2094,1593 2094,1594 2094,1595 2094,1731 2094,1732 2094,1733 2093,1733 2093,1734 2092,1734 2091,1735 2090,1736 2090,1736 2089,1736 2087,1735 2087,1734 2086,1734 2086,1733 2085,1733 2085,1732 2085,1731 2085,1731 z M 2085,1513  L 2085,1377 2085,1376 2085,1375 2086,1374 2086,1374 2087,1373 2087,1372 2089,1372 2090,1372 2090,1372 2091,1372 2092,1373 2093,1374 2093,1374 2094,1375 2094,1376 2094,1377 2094,1513 2094,1514 2094,1515 2093,1515 2093,1516 2092,1517 2091,1517 2090,1518 2090,1518 2089,1518 2087,1517 2087,1517 2086,1516 2086,1515 2085,1515 2085,1514 2085,1513 2085,1513 z M 2085,1295  L 2085,1159 2085,1158 2085,1157 2086,1156 2086,1156 2087,1155 2087,1155 2089,1155 2090,1155 2090,1155 2091,1155 2092,1155 2093,1156 2093,1156 2094,1157 2094,1158 2094,1159 2094,1295 2094,1296 2094,1297 2093,1297 2093,1298 2092,1299 2091,1299 2090,1300 2090,1300 2089,1300 2087,1299 2087,1299 2086,1298 2086,1297 2085,1297 2085,1296 2085,1295 2085,1295 z M 2085,1077  L 2085,941 2085,940 2085,939 2086,938 2086,938 2087,937 2087,937 2089,937 2090,937 2090,937 2091,937 2092,937 2093,938 2093,938 2094,939 2094,940 2094,941 2094,1077 2094,1078 2094,1079 2093,1080 2093,1080 2092,1081 2091,1081 2090,1082 2090,1082 2089,1082 2087,1081 2087,1081 2086,1080 2086,1080 2085,1079 2085,1078 2085,1077 2085,1077 z M 2085,859  L 2085,835 2085,828 2084,821 2083,815 2082,808 2081,802 2079,795 2077,790 2074,783 2072,778 2069,772 2066,766 2062,761 2058,756 2055,751 2051,746 2046,741 2043,739 2043,738 2042,737 2041,736 2041,735 2041,735 2042,734 2043,733 2043,732 2044,731 2044,731 2045,731 2046,731 2047,731 2048,731 2048,731 2049,732 2053,735 2057,740 2062,745 2066,751 2070,756 2074,762 2077,768 2080,774 2083,780 2086,786 2087,793 2090,800 2091,807 2093,814 2093,820 2094,828 2094,835 2094,859 2094,860 2094,861 2093,862 2093,862 2092,863 2091,863 2090,864 2090,864 2089,864 2087,863 2087,863 2086,862 2086,862 2085,861 2085,860 2085,859 2085,859 z M 1973,705  L 1966,704 1960,703 1953,703 1837,703 1836,703 1836,703 1835,702 1834,702 1833,701 1833,700 1833,699 1833,698 1833,698 1833,697 1833,696 1834,696 1835,695 1836,694 1836,694 1837,694 1953,694 1960,694 1968,695 1974,696 1975,696 1976,696 1977,697 1977,697 1978,698 1978,699 1978,699 1978,701 1978,702 1978,702 1977,703 1977,703 1976,704 1975,705 1974,705 1973,705 1973,705 z M 1756,703  L 1619,703 1618,703 1618,703 1616,702 1616,702 1615,701 1615,700 1615,699 1615,698 1615,698 1615,697 1615,696 1616,696 1616,695 1618,694 1618,694 1619,694 1756,694 1756,694 1757,694 1758,695 1758,696 1759,696 1760,697 1760,698 1760,698 1760,699 1760,700 1759,701 1758,702 1758,702 1757,703 1756,703 1756,703 1756,703 z M 1537,703  L 1401,703 1400,703 1399,703 1398,702 1398,702 1397,701 1397,700 1397,699 1397,698 1397,698 1397,697 1397,696 1398,696 1398,695 1399,694 1400,694 1401,694 1537,694 1538,694 1539,694 1540,695 1540,696 1541,696 1541,697 1542,698 1542,698 1542,699 1541,700 1541,701 1540,702 1540,702 1539,703 1538,703 1537,703 1537,703 z M 1319,703  L 1183,703 1182,703 1181,703 1180,702 1179,702 1179,701 1178,700 1178,699 1178,698 1178,698 1178,697 1179,696 1179,696 1180,695 1181,694 1182,694 1183,694 1319,694 1320,694 1321,694 1322,695 1322,696 1323,696 1323,697 1324,698 1324,698 1324,699 1323,700 1323,701 1322,702 1322,702 1321,703 1320,703 1319,703 1319,703 z M 1101,703  L 965,703 964,703 963,703 962,702 961,702 961,701 960,700 960,699 960,698 960,698 960,697 961,696 961,696 962,695 963,694 964,694 965,694 1101,694 1102,694 1103,694 1103,695 1104,696 1104,696 1105,697 1106,698 1106,698 1106,699 1105,700 1104,701 1104,702 1103,702 1103,703 1102,703 1101,703 1101,703 z M 883,703  L 747,703 745,703 745,703 744,702 743,702 743,701 742,700 742,699 742,698 742,698 742,697 743,696 743,696 744,695 745,694 745,694 747,694 883,694 883,694 885,694 885,695 886,696 886,696 887,697 887,698 887,698 887,699 887,700 886,701 886,702 885,702 885,703 883,703 883,703 883,703 z M 665,703  L 528,703 527,703 527,703 525,702 525,702 524,701 524,700 524,699 524,698 524,698 524,697 524,696 525,696 525,695 527,694 527,694 528,694 665,694 665,694 666,694 667,695 668,696 668,696 669,697 669,698 669,698 669,699 669,700 668,701 668,702 667,702 666,703 665,703 665,703 665,703 z M 446,703  L 446,703 440,704 433,705 427,706 420,707 414,709 408,711 402,714 396,716 390,719 385,722 379,726 374,730 369,734 364,737 360,742 356,747 351,751 348,756 344,761 340,766 339,769 338,770 337,770 337,771 336,771 335,772 335,772 333,771 333,771 332,770 331,769 331,769 331,768 330,767 330,766 331,765 331,765 333,762 336,756 340,751 344,745 349,740 353,735 358,731 364,726 369,722 374,718 380,714 386,711 392,708 398,705 404,702 411,701 418,698 425,697 432,696 439,695 446,694 446,694 447,694 448,694 449,695 449,696 450,696 450,697 451,698 451,699 451,699 450,701 450,701 450,702 449,702 448,703 448,703 446,703 446,703 z M 321,845  L 321,981 321,983 321,983 320,984 320,985 319,985 319,985 318,986 317,986 316,986 315,985 314,985 314,985 313,984 312,983 312,983 312,981 312,845 312,844 312,844 313,843 314,842 314,841 315,841 316,841 317,841 318,841 319,841 319,841 320,842 320,843 321,844 321,844 321,845 321,845 z M 321,1063  L 321,1199 321,1200 321,1201 320,1202 320,1203 319,1203 319,1203 318,1204 317,1204 316,1204 315,1203 314,1203 314,1203 313,1202 312,1201 312,1200 312,1199 312,1063 312,1062 312,1061 313,1061 314,1060 314,1059 315,1059 316,1059 317,1059 318,1059 319,1059 319,1059 320,1060 320,1061 321,1061 321,1062 321,1063 321,1063 z M 321,1281  L 321,1417 321,1418 321,1419 320,1420 320,1421 319,1421 319,1421 318,1422 317,1422 316,1422 315,1421 314,1421 314,1421 313,1420 312,1419 312,1418 312,1417 312,1281 312,1280 312,1279 313,1279 314,1278 314,1277 315,1277 316,1276 317,1276 318,1276 319,1277 319,1277 320,1278 320,1279 321,1279 321,1280 321,1281 321,1281 z M 321,1499  L 321,1635 321,1636 321,1637 320,1638 320,1638 319,1639 319,1639 318,1640 317,1640 316,1640 315,1639 314,1639 314,1638 313,1638 312,1637 312,1636 312,1635 312,1499 312,1498 312,1497 313,1497 314,1496 314,1495 315,1495 316,1494 317,1494 318,1494 319,1495 319,1495 320,1496 320,1497 321,1497 321,1498 321,1499 321,1499 z M 321,1717  L 321,1853 321,1854 321,1855 320,1856 320,1856 319,1857 319,1857 318,1857 317,1857 316,1857 315,1857 314,1857 314,1856 313,1856 312,1855 312,1854 312,1853 312,1717 312,1716 312,1715 313,1715 314,1713 314,1713 315,1713 316,1712 317,1712 318,1712 319,1713 319,1713 320,1713 320,1715 321,1715 321,1716 321,1717 321,1717 z M 321,1935  L 321,2071 321,2072 321,2073 320,2074 320,2074 319,2075 319,2075 318,2075 317,2075 316,2075 315,2075 314,2075 314,2074 313,2074 312,2073 312,2072 312,2071 312,1935 312,1934 312,1933 313,1932 314,1931 314,1931 315,1931 316,1930 317,1930 318,1930 319,1931 319,1931 320,1931 320,1932 321,1933 321,1934 321,1935 321,1935 z M 321,2153  L 321,2289 321,2290 321,2290 320,2292 320,2292 319,2293 319,2293 318,2293 317,2293 316,2293 315,2293 314,2293 314,2292 313,2292 312,2290 312,2290 312,2289 312,2153 312,2151 312,2151 313,2150 314,2149 314,2149 315,2149 316,2148 317,2148 318,2148 319,2149 319,2149 320,2149 320,2150 321,2151 321,2151 321,2153 321,2153 z M 321,2370  L 321,2418 321,2425 322,2431 323,2438 324,2444 325,2451 327,2457 329,2463 332,2469 335,2475 337,2480 340,2486 344,2491 348,2496 348,2498 349,2498 349,2499 349,2500 349,2501 349,2501 349,2503 348,2503 348,2504 346,2504 346,2505 345,2505 344,2505 343,2505 343,2504 342,2504 341,2503 340,2502 336,2496 332,2491 329,2484 326,2479 323,2473 321,2466 319,2459 316,2453 315,2446 314,2439 313,2432 312,2425 312,2418 312,2370 312,2369 312,2369 313,2368 314,2367 314,2366 315,2366 316,2366 317,2366 318,2366 319,2366 319,2366 320,2367 320,2368 321,2369 321,2369 321,2370 321,2370 z M 412,2543  L 414,2543 420,2545 427,2547 433,2548 440,2549 446,2549 447,2549 448,2550 449,2551 450,2551 450,2553 450,2553 450,2554 450,2555 450,2556 449,2557 449,2557 448,2558 448,2558 446,2558 446,2558 439,2558 432,2557 424,2555 418,2554 411,2552 409,2551 408,2551 407,2550 407,2550 406,2549 406,2548 406,2547 406,2546 406,2546 406,2545 407,2544 408,2543 408,2543 409,2543 410,2542 411,2542 412,2543 412,2543 z" fill-rule="nonzero"/>
        <text class="font4" fill="rgb(0,0,0)" stroke="none" style="dominant-baseline: alphabetic;" x="969 1012 1046" xml:lang="en" xml:space="preserve" y="783">Use</text>
        <text class="font4" fill="rgb(0,0,0)" stroke="none" style="dominant-baseline: alphabetic;" x="1080" xml:lang="en" xml:space="preserve" y="783">-</text>
        <text class="font4" fill="rgb(0,0,0)" stroke="none" style="dominant-baseline: alphabetic;" x="1100 1144 1178 1211 1245 1262 1312 1349 1386 1420" xml:lang="en" xml:space="preserve" y="783">Case Model</text>
        <polyline class="pen2" fill="none" points="453,3439 2979,3439 2986,3439 2993,3438 3000,3438 3006,3436 3013,3435 3019,3433 3026,3431 3032,3428 3038,3426 3044,3422 3049,3419 3055,3416 3061,3412 3066,3408 3070,3404 3076,3399 3080,3395 3084,3389 3088,3384 3092,3379 3095,3374 3099,3368 3102,3362 3105,3356 3107,3350 3109,3343 3111,3337 3112,3330 3114,3324 3115,3317 3115,3310 3115,3303 3115,3303 3115,2860 3115,2853 3115,2846 3114,2840 3112,2833 3111,2826 3109,2820 3107,2814 3105,2807 3102,2801 3099,2795 3095,2790 3092,2784 3088,2779 3084,2774 3080,2769 3076,2764 3070,2760 3066,2755 3061,2751 3055,2747 3049,2744 3044,2740 3038,2738 3032,2735 3026,2732 3019,2730 3013,2728 3006,2727 3000,2726 2993,2725 2986,2724 2979,2724 453,2724 446,2724 439,2725 432,2726 425,2727 419,2728 412,2730 406,2732 400,2735 394,2738 388,2740 382,2744 377,2747 371,2751 366,2755 361,2760 357,2764 352,2769 348,2774 344,2779 340,2784 336,2790 333,2795 330,2801 327,2807 325,2814 323,2820 321,2826 319,2833 318,2840 318,2846 317,2853 317,2860 317,3303 317,3310 318,3317 318,3324 319,3330 321,3337 323,3343 325,3350 327,3356 330,3362 333,3368 336,3374 340,3379 344,3384 348,3389 352,3395 357,3399 361,3404 366,3408 371,3412 377,3416 382,3419 388,3422 394,3426 400,3428 406,3431 412,3433 419,3435 425,3436 432,3438 439,3438 446,3439 453,3439 453,3439"/>
        <text class="font1" fill="rgb(0,0,0)" stroke="none" style="dominant-baseline: alphabetic;" x="1531 1574 1608 1638 1652 1685 1719 1736 1786 1820 1853 1887" xml:lang="en" xml:space="preserve" y="2809">Design Model</text>
        <path class="pen0 brush2" d="M 1098,2901  L 1098,2929 1098,2929 1098,2930 1097,2930 1097,2930 1097,2929 1097,2929 1097,2901 1097,2901 1097,2901 1097,2901 1098,2901 1098,2901 1098,2901 1098,2901 z M 1098,2945  L 1098,2972 1098,2973 1098,2973 1097,2974 1097,2973 1097,2973 1097,2972 1097,2945 1097,2945 1097,2944 1097,2944 1098,2944 1098,2945 1098,2945 1098,2945 z M 1098,2989  L 1098,3016 1098,3017 1098,3017 1097,3017 1097,3017 1097,3017 1097,3016 1097,2989 1097,2988 1097,2988 1097,2988 1098,2988 1098,2988 1098,2989 1098,2989 z M 1098,3033  L 1098,3060 1098,3060 1097,3060 1097,3060 1097,3060 1097,3033 1097,3031 1097,3031 1097,3031 1098,3031 1098,3031 1098,3033 1098,3033 z M 1098,3076  L 1098,3103 1098,3104 1098,3104 1097,3104 1097,3104 1097,3104 1097,3103 1097,3076 1097,3075 1097,3075 1097,3075 1098,3075 1098,3075 1098,3076 1098,3076 z M 1098,3119  L 1098,3147 1098,3147 1098,3148 1097,3148 1097,3148 1097,3147 1097,3147 1097,3119 1097,3119 1097,3119 1097,3119 1098,3119 1098,3119 1098,3119 1098,3119 z M 1098,3163  L 1098,3190 1098,3191 1098,3191 1097,3191 1097,3191 1097,3191 1097,3190 1097,3163 1097,3162 1097,3162 1097,3162 1098,3162 1098,3162 1098,3163 1098,3163 z M 1098,3207  L 1098,3234 1098,3235 1098,3235 1097,3235 1097,3235 1097,3235 1097,3234 1097,3207 1097,3206 1097,3206 1097,3206 1098,3206 1098,3206 1098,3207 1098,3207 z M 1098,3250  L 1098,3278 1098,3278 1097,3278 1097,3278 1097,3278 1097,3250 1097,3249 1097,3249 1097,3249 1098,3249 1098,3249 1098,3250 1098,3250 z M 1098,3294  L 1098,3321 1098,3322 1098,3322 1097,3322 1097,3322 1097,3322 1097,3321 1097,3294 1097,3293 1097,3293 1097,3293 1098,3293 1098,3293 1098,3294 1098,3294 z M 1098,3337  L 1098,3364 1098,3365 1098,3366 1097,3366 1097,3366 1097,3365 1097,3364 1097,3337 1097,3337 1097,3337 1097,3337 1098,3337 1098,3337 1098,3337 1098,3337 z M 1098,3381  L 1098,3405 1098,3406 1098,3406 1097,3406 1097,3406 1097,3406 1097,3405 1097,3381 1097,3380 1097,3380 1097,3380 1098,3380 1098,3380 1098,3381 1098,3381 z" fill-rule="nonzero"/>
        <polygon class="pen2 brush1" points="927,2892 1268,2892 1268,2775 927,2775 927,2892"/>
        <text class="font1" fill="rgb(0,0,0)" stroke="none" style="dominant-baseline: alphabetic;" x="968 985" xml:lang="en" xml:space="preserve" y="2852">: </text>
        <text class="font1" fill="rgb(0,0,0)" stroke="none" style="dominant-baseline: alphabetic;" x="1001 1045 1078 1112 1125 1156 1173 1206" xml:lang="en" xml:space="preserve" y="2852">Register</text>
        <polyline class="pen2" fill="none" points="456,3112 1059,3112"/>
        <polygon class="pen1 brush2" points="472,3112 471,3110 471,3109 471,3107 470,3106 469,3103 467,3101 465,3099 462,3097 461,3097 460,3097 458,3096 456,3096 454,3096 453,3097 452,3097 450,3097 448,3099 445,3101 443,3103 442,3106 441,3107 441,3109 441,3110 441,3112 441,3112 441,3114 441,3115 441,3117 442,3118 443,3120 445,3123 448,3125 450,3126 452,3127 453,3127 454,3127 456,3128 458,3127 460,3127 461,3127 462,3126 465,3125 467,3123 469,3120 470,3118 471,3117 471,3115 471,3114 472,3112"/>
        <polygon class="pen1 brush2" points="1054,3091 1095,3112 1054,3133 1054,3091"/>
        <text class="font1" fill="rgb(0,0,0)" stroke="none" style="dominant-baseline: alphabetic;" x="637 671 704 722 755 775 793 810 843" xml:lang="en" xml:space="preserve" y="3024">enterItem</text>
        <text class="font1" fill="rgb(0,0,0)" stroke="none" style="dominant-baseline: alphabetic;" x="535" xml:lang="en" xml:space="preserve" y="3097">(</text>
        <text class="font1" fill="rgb(0,0,0)" stroke="none" style="dominant-baseline: alphabetic;" x="555 569 586 619 670 687" xml:lang="en" xml:space="preserve" y="3097">itemID</text>
        <text class="font1" fill="rgb(0,0,0)" stroke="none" style="dominant-baseline: alphabetic;" x="730 747" xml:lang="en" xml:space="preserve" y="3097">, </text>
        <text class="font1" fill="rgb(0,0,0)" stroke="none" style="dominant-baseline: alphabetic;" x="764 797 831 864 898 915 928 945" xml:lang="en" xml:space="preserve" y="3097">quantity</text>
        <text class="font1" fill="rgb(0,0,0)" stroke="none" style="dominant-baseline: alphabetic;" x="976" xml:lang="en" xml:space="preserve" y="3097">)</text>
        <polygon class="pen2 brush1" points="1949,2892 2529,2892 2529,2775 1949,2775 1949,2892"/>
        <text class="font1" fill="rgb(0,0,0)" stroke="none" style="dominant-baseline: alphabetic;" x="2014 2031" xml:lang="en" xml:space="preserve" y="2852">: </text>
        <text class="font1" fill="rgb(0,0,0)" stroke="none" style="dominant-baseline: alphabetic;" x="2047 2087 2108 2141 2175 2208 2239 2256 2299 2333 2350 2383 2397 2431" xml:lang="en" xml:space="preserve" y="2852">ProductCatalog</text>
        <path class="pen0 brush2" d="M 2223,2901  L 2223,2929 2223,2929 2223,2930 2222,2930 2222,2930 2222,2929 2222,2929 2222,2901 2222,2901 2222,2901 2222,2901 2223,2901 2223,2901 2223,2901 2223,2901 z M 2223,2945  L 2223,2972 2223,2973 2223,2973 2222,2974 2222,2973 2222,2973 2222,2972 2222,2945 2222,2945 2222,2944 2222,2944 2223,2944 2223,2945 2223,2945 2223,2945 z M 2223,2989  L 2223,3016 2223,3017 2223,3017 2222,3017 2222,3017 2222,3017 2222,3016 2222,2989 2222,2988 2222,2988 2222,2988 2223,2988 2223,2988 2223,2989 2223,2989 z M 2223,3033  L 2223,3060 2223,3060 2222,3060 2222,3060 2222,3060 2222,3033 2222,3031 2222,3031 2222,3031 2223,3031 2223,3031 2223,3033 2223,3033 z M 2223,3076  L 2223,3103 2223,3104 2223,3104 2222,3104 2222,3104 2222,3104 2222,3103 2222,3076 2222,3075 2222,3075 2222,3075 2223,3075 2223,3075 2223,3076 2223,3076 z M 2223,3119  L 2223,3147 2223,3147 2223,3148 2222,3148 2222,3148 2222,3147 2222,3147 2222,3119 2222,3119 2222,3119 2222,3119 2223,3119 2223,3119 2223,3119 2223,3119 z M 2223,3163  L 2223,3190 2223,3191 2223,3191 2222,3191 2222,3191 2222,3191 2222,3190 2222,3163 2222,3162 2222,3162 2222,3162 2223,3162 2223,3162 2223,3163 2223,3163 z M 2223,3207  L 2223,3234 2223,3235 2223,3235 2222,3235 2222,3235 2222,3235 2222,3234 2222,3207 2222,3206 2222,3206 2222,3206 2223,3206 2223,3206 2223,3207 2223,3207 z M 2223,3250  L 2223,3278 2223,3278 2222,3278 2222,3278 2222,3278 2222,3250 2222,3249 2222,3249 2222,3249 2223,3249 2223,3249 2223,3250 2223,3250 z M 2223,3294  L 2223,3321 2223,3322 2223,3322 2222,3322 2222,3322 2222,3322 2222,3321 2222,3294 2222,3293 2222,3293 2222,3293 2223,3293 2223,3293 2223,3294 2223,3294 z M 2223,3337  L 2223,3364 2223,3365 2223,3366 2222,3366 2222,3366 2222,3365 2222,3364 2222,3337 2222,3337 2222,3337 2222,3337 2223,3337 2223,3337 2223,3337 2223,3337 z M 2223,3381  L 2223,3405 2223,3406 2223,3406 2222,3406 2222,3406 2222,3406 2222,3405 2222,3381 2222,3380 2222,3380 2222,3380 2223,3380 2223,3380 2223,3381 2223,3381 z" fill-rule="nonzero"/>
        <polyline class="pen2" fill="none" points="1097,3242 2177,3242"/>
        <polygon class="pen1 brush2" points="2172,3221 2214,3242 2172,3263 2172,3221"/>
        <text class="font1" fill="rgb(0,0,0)" stroke="none" style="dominant-baseline: alphabetic;" x="1216 1246 1279 1313 1343" xml:lang="en" xml:space="preserve" y="3228">spec </text>
        <text class="font1" fill="rgb(0,0,0)" stroke="none" style="dominant-baseline: alphabetic;" x="1361 1396" xml:lang="en" xml:space="preserve" y="3228">= </text>
        <text class="font1" fill="rgb(0,0,0)" stroke="none" style="dominant-baseline: alphabetic;" x="1413 1447 1480 1497 1537 1558 1591 1625 1658 1689 1706 1746 1779 1813" xml:lang="en" xml:space="preserve" y="3228">getProductSpec</text>
        <text class="font1" fill="rgb(0,0,0)" stroke="none" style="dominant-baseline: alphabetic;" x="1844 1865" xml:lang="en" xml:space="preserve" y="3228">( </text>
        <text class="font1" fill="rgb(0,0,0)" stroke="none" style="dominant-baseline: alphabetic;" x="1881 1895 1912 1945 1996 2013 2057" xml:lang="en" xml:space="preserve" y="3228">itemID </text>
        <text class="font1" fill="rgb(0,0,0)" stroke="none" style="dominant-baseline: alphabetic;" x="2073" xml:lang="en" xml:space="preserve" y="3228">)</text>
        <polyline class="pen2" fill="none" points="1097,3378 2834,3378"/>
        <polygon class="pen1 brush2" points="2828,3357 2870,3378 2828,3399 2828,3357"/>
        <text class="font1" fill="rgb(0,0,0)" stroke="none" style="dominant-baseline: alphabetic;" x="1352 1386 1419 1453 1486 1500 1533 1567 1584 1601 1635" xml:lang="en" xml:space="preserve" y="3364">addLineItem</text>
        <text class="font1" fill="rgb(0,0,0)" stroke="none" style="dominant-baseline: alphabetic;" x="1686 1707" xml:lang="en" xml:space="preserve" y="3364">( </text>
        <text class="font1" fill="rgb(0,0,0)" stroke="none" style="dominant-baseline: alphabetic;" x="1723 1753 1787 1820" xml:lang="en" xml:space="preserve" y="3364">spec</text>
        <text class="font1" fill="rgb(0,0,0)" stroke="none" style="dominant-baseline: alphabetic;" x="1851 1868" xml:lang="en" xml:space="preserve" y="3364">, </text>
        <text class="font1" fill="rgb(0,0,0)" stroke="none" style="dominant-baseline: alphabetic;" x="1885 1918 1952 1985 2019 2036 2049 2066 2097" xml:lang="en" xml:space="preserve" y="3364">quantity </text>
        <text class="font1" fill="rgb(0,0,0)" stroke="none" style="dominant-baseline: alphabetic;" x="2114" xml:lang="en" xml:space="preserve" y="3364">)</text>
        <polygon class="pen2 brush1" points="2709,2892 3024,2892 3024,2775 2709,2775 2709,2892"/>
        <text class="font1" fill="rgb(0,0,0)" stroke="none" style="dominant-baseline: alphabetic;" x="2789 2806" xml:lang="en" xml:space="preserve" y="2852">: </text>
        <text class="font1" fill="rgb(0,0,0)" stroke="none" style="dominant-baseline: alphabetic;" x="2822 2862 2896 2910" xml:lang="en" xml:space="preserve" y="2852">Sale</text>
        <path class="pen0 brush2" d="M 2871,2901  L 2871,2929 2870,2929 2870,2930 2870,2930 2869,2930 2869,2929 2869,2929 2869,2901 2869,2901 2869,2901 2870,2901 2870,2901 2870,2901 2871,2901 2871,2901 z M 2871,2945  L 2871,2972 2870,2973 2870,2973 2870,2974 2869,2973 2869,2973 2869,2972 2869,2945 2869,2945 2869,2944 2870,2944 2870,2944 2870,2945 2871,2945 2871,2945 z M 2871,2989  L 2871,3016 2870,3017 2870,3017 2870,3017 2869,3017 2869,3017 2869,3016 2869,2989 2869,2988 2869,2988 2870,2988 2870,2988 2870,2988 2871,2989 2871,2989 z M 2871,3033  L 2871,3060 2870,3060 2870,3060 2869,3060 2869,3060 2869,3033 2869,3031 2869,3031 2870,3031 2870,3031 2870,3031 2871,3033 2871,3033 z M 2871,3076  L 2871,3103 2870,3104 2870,3104 2870,3104 2869,3104 2869,3104 2869,3103 2869,3076 2869,3075 2869,3075 2870,3075 2870,3075 2870,3075 2871,3076 2871,3076 z M 2871,3119  L 2871,3147 2870,3147 2870,3148 2870,3148 2869,3148 2869,3147 2869,3147 2869,3119 2869,3119 2869,3119 2870,3119 2870,3119 2870,3119 2871,3119 2871,3119 z M 2871,3163  L 2871,3190 2870,3191 2870,3191 2870,3191 2869,3191 2869,3191 2869,3190 2869,3163 2869,3162 2869,3162 2870,3162 2870,3162 2870,3162 2871,3163 2871,3163 z M 2871,3207  L 2871,3234 2870,3235 2870,3235 2870,3235 2869,3235 2869,3235 2869,3234 2869,3207 2869,3206 2869,3206 2870,3206 2870,3206 2870,3206 2871,3207 2871,3207 z M 2871,3250  L 2871,3278 2870,3278 2870,3278 2869,3278 2869,3278 2869,3250 2869,3249 2869,3249 2870,3249 2870,3249 2870,3249 2871,3250 2871,3250 z M 2871,3294  L 2871,3321 2870,3322 2870,3322 2870,3322 2869,3322 2869,3322 2869,3321 2869,3294 2869,3293 2869,3293 2870,3293 2870,3293 2870,3293 2871,3294 2871,3294 z M 2871,3337  L 2871,3364 2870,3365 2870,3366 2870,3366 2869,3366 2869,3365 2869,3364 2869,3337 2869,3337 2869,3337 2870,3337 2870,3337 2870,3337 2871,3337 2871,3337 z M 2871,3381  L 2871,3405 2870,3406 2870,3406 2870,3406 2869,3406 2869,3406 2869,3405 2869,3381 2869,3380 2869,3380 2870,3380 2870,3380 2870,3380 2871,3381 2871,3381 z" fill-rule="nonzero"/>
        <polyline class="pen2" fill="none" points="1266,2357 1235,2368 1203,2378 1174,2390 1144,2402 1115,2415 1087,2428 1060,2441 1034,2456 1008,2470 983,2484 960,2499 936,2515 914,2530 893,2546 873,2562 854,2578 836,2595 819,2611 802,2627 787,2644 774,2661 761,2678 750,2696 740,2713 731,2730 723,2747 717,2763 712,2780 708,2797 706,2814 705,2830 706,2846"/>
        <polygon class="pen1 brush2" points="685,2846 720,2901 725,2836 685,2846"/>
        <text class="font4" fill="rgb(0,0,0)" stroke="none" style="dominant-baseline: alphabetic;" x="28 72 106 143 179 196 220" xml:lang="en" xml:space="preserve" y="1514">Require</text>
        <text class="font4" fill="rgb(0,0,0)" stroke="none" style="dominant-baseline: alphabetic;" x="254" xml:lang="en" xml:space="preserve" y="1514">-</text>
        <text class="font4" fill="rgb(0,0,0)" stroke="none" style="dominant-baseline: alphabetic;" x="95 149 183 220 240" xml:lang="en" xml:space="preserve" y="1587">ments</text>
        <text class="font4" fill="rgb(0,0,0)" stroke="none" style="dominant-baseline: alphabetic;" x="14 58 95 128 145 182 216 249 283" xml:lang="en" xml:space="preserve" y="358">Business </text>
        <text class="font4" fill="rgb(0,0,0)" stroke="none" style="dominant-baseline: alphabetic;" x="18 68 105 142 175 193 210 246" xml:lang="en" xml:space="preserve" y="431">Modeling</text>
        <text class="font4" fill="rgb(0,0,0)" stroke="none" style="dominant-baseline: alphabetic;" x="85 128 162 195 212 249" xml:lang="en" xml:space="preserve" y="3117">Design</text>
        <text class="font4" fill="rgb(0,0,0)" stroke="none" style="dominant-baseline: alphabetic;" x="1200 1241 1274 1328 1365 1382 1416 1433 1477 1517 1534 1578 1602 1622 1639 1660 1693 1727 1747 1764 1808 1841 1858 1892 1912 1930 1966 2003 2037 2074 2091 2128" xml:lang="en" xml:space="preserve" y="77">Sample UP Artifact Relationships</text>
        <path class="pen0 brush2" d="M 1908,1940  L 1908,2076 1908,2077 1908,2078 1907,2079 1907,2079 1906,2080 1906,2080 1905,2080 1904,2080 1903,2080 1902,2080 1901,2080 1901,2079 1900,2079 1899,2078 1899,2077 1899,2076 1899,1940 1899,1939 1899,1938 1900,1937 1901,1936 1901,1936 1902,1936 1903,1935 1904,1935 1905,1935 1906,1936 1906,1936 1907,1936 1907,1937 1908,1938 1908,1939 1908,1940 1908,1940 z M 1908,2158  L 1908,2294 1908,2295 1908,2296 1907,2297 1907,2297 1906,2298 1906,2298 1905,2298 1904,2298 1903,2298 1902,2298 1901,2298 1901,2297 1900,2297 1899,2296 1899,2295 1899,2294 1899,2158 1899,2157 1899,2156 1900,2155 1901,2154 1901,2154 1902,2154 1903,2153 1904,2153 1905,2153 1906,2154 1906,2154 1907,2154 1907,2155 1908,2156 1908,2157 1908,2158 1908,2158 z M 1908,2376  L 1908,2405 1908,2406 1908,2407 1907,2407 1907,2408 1906,2408 1906,2409 1905,2410 1904,2410 1903,2410 1902,2409 1901,2408 1901,2408 1900,2407 1899,2407 1899,2406 1899,2405 1899,2376 1899,2374 1899,2374 1900,2373 1901,2372 1901,2372 1902,2372 1903,2371 1904,2371 1905,2371 1906,2372 1906,2372 1907,2372 1907,2373 1908,2374 1908,2374 1908,2376 1908,2376 z" fill-rule="nonzero"/>
        <polygon class="pen3 brush1" points="1714,1940 2055,1940 2055,1823 1714,1823 1714,1940"/>
        <text class="font4" fill="rgb(0,0,0)" stroke="none" style="dominant-baseline: alphabetic;" x="1758 1779" xml:lang="en" xml:space="preserve" y="1900">: </text>
        <text class="font4" fill="rgb(0,0,0)" stroke="none" style="dominant-baseline: alphabetic;" x="1795 1836 1869 1903 1923 1957" xml:lang="en" xml:space="preserve" y="1900">System</text>
        <polyline class="pen3" fill="none" points="1355,2359 1851,2359"/>
        <polygon class="pen1 brush2" points="1844,2331 1901,2359 1844,2387 1844,2331"/>
        <text class="font4" fill="rgb(0,0,0)" stroke="none" style="dominant-baseline: alphabetic;" x="1480 1514 1551 1571 1604 1628 1645 1666 1699" xml:lang="en" xml:space="preserve" y="2277">enterItem</text>
        <text class="font4" fill="rgb(0,0,0)" stroke="none" style="dominant-baseline: alphabetic;" x="1435" xml:lang="en" xml:space="preserve" y="2350">(</text>
        <text class="font4" fill="rgb(0,0,0)" stroke="none" style="dominant-baseline: alphabetic;" x="1455 1472" xml:lang="en" xml:space="preserve" y="2350">id</text>
        <text class="font4" fill="rgb(0,0,0)" stroke="none" style="dominant-baseline: alphabetic;" x="1509 1526" xml:lang="en" xml:space="preserve" y="2350">, </text>
        <text class="font4" fill="rgb(0,0,0)" stroke="none" style="dominant-baseline: alphabetic;" x="1543 1579 1616 1650 1687 1707 1724 1745" xml:lang="en" xml:space="preserve" y="2350">quantity</text>
        <text class="font4" fill="rgb(0,0,0)" stroke="none" style="dominant-baseline: alphabetic;" x="1778" xml:lang="en" xml:space="preserve" y="2350">)</text>
        <text class="font1" fill="rgb(0,0,0)" stroke="none" style="dominant-baseline: alphabetic;" x="1417 1461 1491 1524 1541 1585 1619 1649 1682 1699 1736 1770 1800" xml:lang="en" xml:space="preserve" y="1549">Use Case Text</text>
        <text class="font4" fill="rgb(0,0,0)" stroke="none" style="dominant-baseline: alphabetic;" x="1206 1247 1280 1314 1334 1368 1422 1439 1479 1512 1549 1586 1620 1657 1690 1724 1741 1785 1802 1835 1872 1896 1930 1983" xml:lang="en" xml:space="preserve" y="2490">System Sequence Diagrams</text>
        <polyline class="pen3" fill="none" points="1361,2164 1857,2164"/>
        <polygon class="pen1 brush2" points="1851,2136 1907,2164 1851,2192 1851,2136"/>
        <text class="font4" fill="rgb(0,0,0)" stroke="none" style="dominant-baseline: alphabetic;" x="1539 1593 1627 1660" xml:lang="en" xml:space="preserve" y="2073">make</text>
        <text class="font4" fill="rgb(0,0,0)" stroke="none" style="dominant-baseline: alphabetic;" x="1472 1516 1549 1597 1637 1670 1687" xml:lang="en" xml:space="preserve" y="2146">NewSale</text>
        <text class="font4" fill="rgb(0,0,0)" stroke="none" style="dominant-baseline: alphabetic;" x="1721 1741" xml:lang="en" xml:space="preserve" y="2146">()</text>
        <polyline class="pen2" fill="none" points="1578,1617 1578,1764"/>
        <polygon class="pen1 brush2" points="1599,1759 1578,1822 1557,1759 1599,1759"/>
        <text class="font5" fill="rgb(0,0,0)" stroke="none" style="dominant-baseline: alphabetic;" x="1604 1635 1665 1695 1712 1745 1796" xml:lang="en" xml:space="preserve" y="1667">system </text>
        <text class="font5" fill="rgb(0,0,0)" stroke="none" style="dominant-baseline: alphabetic;" x="1611 1645 1675 1708 1742 1759" xml:lang="en" xml:space="preserve" y="1740">events</text>
        <polygon class="pen1 brush0" points="429,980 429,976 429,974 430,970 431,967 433,964 435,961 436,959 439,956 441,954 444,952 446,950 449,949 452,948 456,947 459,947 462,946 466,947 469,947 472,948 475,949 478,950 481,952 483,954 486,956 488,959 490,961 492,964 493,967 494,970 495,974 496,976 496,980 496,980 496,984 495,987 494,990 493,993 492,996 490,999 488,1001 486,1004 483,1006 481,1008 478,1010 475,1011 472,1012 469,1013 466,1013 462,1014 459,1013 456,1013 452,1012 449,1011 446,1010 444,1008 441,1006 439,1004 436,1001 435,999 433,996 431,993 430,990 429,987 429,984 429,980"/>
        <polyline class="pen2" fill="none" points="429,980 429,976 429,974 430,970 431,967 433,964 435,961 436,959 439,956 441,954 444,952 446,950 449,949 452,948 456,947 459,947 462,946 466,947 469,947 472,948 475,949 478,950 481,952 483,954 486,956 488,959 490,961 492,964 493,967 494,970 495,974 496,976 496,980 496,980 496,984 495,987 494,990 493,993 492,996 490,999 488,1001 486,1004 483,1006 481,1008 478,1010 475,1011 472,1012 469,1013 466,1013 462,1014 459,1013 456,1013 452,1012 449,1011 446,1010 444,1008 441,1006 439,1004 436,1001 435,999 433,996 431,993 430,990 429,987 429,984 429,980"/>
        <polyline class="pen2" fill="none" points="418,1025 507,1025"/>
        <polyline class="pen2" fill="none" points="462,1014 462,1059"/>
        <polyline class="pen2" fill="none" points="462,1059 418,1103"/>
        <polyline class="pen2" fill="none" points="462,1059 507,1103"/>
        <text class="font6" fill="rgb(0,0,0)" stroke="none" style="dominant-baseline: alphabetic;" x="397 424 445 464 485 494 515" xml:lang="en" xml:space="preserve" y="1141">Cashier</text>
        <polygon class="pen2 brush1" points="365,1469 997,1469 997,838 365,838 365,1469"/>
        <polygon class="pen1 brush0" points="429,1234 429,1230 429,1227 430,1224 431,1221 433,1217 435,1215 436,1212 439,1210 441,1208 444,1206 446,1204 449,1203 452,1202 456,1201 459,1200 462,1200 466,1200 469,1201 472,1202 475,1203 478,1204 481,1206 483,1208 486,1210 488,1212 490,1215 492,1217 493,1221 494,1224 495,1227 496,1230 496,1234 496,1234 496,1237 495,1240 494,1244 493,1247 492,1250 490,1253 488,1255 486,1257 483,1259 481,1262 478,1263 475,1265 472,1266 469,1267 466,1267 462,1267 459,1267 456,1267 452,1266 449,1265 446,1263 444,1262 441,1259 439,1257 436,1255 435,1253 433,1250 431,1247 430,1244 429,1240 429,1237 429,1234"/>
        <polyline class="pen2" fill="none" points="429,1234 429,1230 429,1227 430,1224 431,1221 433,1217 435,1215 436,1212 439,1210 441,1208 444,1206 446,1204 449,1203 452,1202 456,1201 459,1200 462,1200 466,1200 469,1201 472,1202 475,1203 478,1204 481,1206 483,1208 486,1210 488,1212 490,1215 492,1217 493,1221 494,1224 495,1227 496,1230 496,1234 496,1234 496,1237 495,1240 494,1244 493,1247 492,1250 490,1253 488,1255 486,1257 483,1259 481,1262 478,1263 475,1265 472,1266 469,1267 466,1267 462,1267 459,1267 456,1267 452,1266 449,1265 446,1263 444,1262 441,1259 439,1257 436,1255 435,1253 433,1250 431,1247 430,1244 429,1240 429,1237 429,1234"/>
        <polyline class="pen2" fill="none" points="418,1279 507,1279"/>
        <polyline class="pen2" fill="none" points="462,1267 462,1312"/>
        <polyline class="pen2" fill="none" points="462,1312 418,1357"/>
        <polyline class="pen2" fill="none" points="462,1312 507,1357"/>
        <polygon class="pen1 brush0" points="657,1008 657,1005 657,1003 658,1001 659,998 660,996 661,993 663,991 665,989 668,987 670,985 672,983 675,981 678,979 682,977 685,975 689,974 693,972 697,971 700,969 704,968 709,967 714,966 723,963 733,962 744,960 754,960 766,959 777,960 788,960 798,962 808,963 818,966 823,967 827,968 831,969 835,971 839,972 843,974 847,975 850,977 853,979 856,981 859,983 862,985 864,987 866,989 869,991 870,993 872,996 873,998 874,1001 874,1003 875,1005 875,1008 875,1008 875,1010 874,1013 874,1016 873,1018 872,1020 870,1022 869,1025 866,1027 864,1029 862,1031 859,1033 856,1035 853,1037 850,1039 847,1040 843,1042 839,1044 835,1046 831,1047 827,1048 823,1050 818,1051 808,1053 798,1054 788,1056 777,1056 766,1056 754,1056 744,1056 733,1054 723,1053 714,1051 709,1050 704,1048 700,1047 697,1046 693,1044 689,1042 685,1040 682,1039 678,1037 675,1035 672,1033 670,1031 668,1029 665,1027 663,1025 661,1022 660,1020 659,1018 658,1016 657,1013 657,1010 657,1008"/>
        <polyline class="pen2" fill="none" points="657,1008 657,1005 657,1003 658,1001 659,998 660,996 661,993 663,991 665,989 668,987 670,985 672,983 675,981 678,979 682,977 685,975 689,974 693,972 697,971 700,969 704,968 709,967 714,966 723,963 733,962 744,960 754,960 766,959 777,960 788,960 798,962 808,963 818,966 823,967 827,968 831,969 835,971 839,972 843,974 847,975 850,977 853,979 856,981 859,983 862,985 864,987 866,989 869,991 870,993 872,996 873,998 874,1001 874,1003 875,1005 875,1008 875,1008 875,1010 874,1013 874,1016 873,1018 872,1020 870,1022 869,1025 866,1027 864,1029 862,1031 859,1033 856,1035 853,1037 850,1039 847,1040 843,1042 839,1044 835,1046 831,1047 827,1048 823,1050 818,1051 808,1053 798,1054 788,1056 777,1056 766,1056 754,1056 744,1056 733,1054 723,1053 714,1051 709,1050 704,1048 700,1047 697,1046 693,1044 689,1042 685,1040 682,1039 678,1037 675,1035 672,1033 670,1031 668,1029 665,1027 663,1025 661,1022 660,1020 659,1018 658,1016 657,1013 657,1010 657,1008"/>
        <text class="font6" fill="rgb(0,0,0)" stroke="none" style="dominant-baseline: alphabetic;" x="697 722 735 756 774 795 814 833" xml:lang="en" xml:space="preserve" y="997">Process </text>
        <text class="font6" fill="rgb(0,0,0)" stroke="none" style="dominant-baseline: alphabetic;" x="728 753 774 782" xml:lang="en" xml:space="preserve" y="1042">Sale</text>
        <polygon class="pen1 brush0" points="632,1178 632,1176 633,1173 633,1170 635,1168 636,1166 637,1164 639,1161 641,1159 643,1157 645,1155 648,1153 651,1151 654,1149 657,1147 661,1145 664,1144 668,1142 672,1140 676,1139 681,1137 685,1136 690,1135 699,1133 709,1131 719,1130 731,1130 741,1130 753,1130 764,1130 774,1131 784,1133 794,1135 798,1136 803,1137 807,1139 811,1140 815,1142 819,1144 823,1145 826,1147 829,1149 832,1151 835,1153 837,1155 840,1157 842,1159 844,1161 846,1164 847,1166 849,1168 849,1170 850,1173 850,1176 851,1178 851,1178 850,1180 850,1183 849,1185 849,1187 847,1190 846,1192 844,1194 842,1196 840,1199 837,1201 835,1203 832,1205 829,1207 826,1208 823,1210 819,1212 815,1214 811,1215 807,1216 803,1218 798,1219 794,1220 784,1223 774,1224 764,1225 753,1226 741,1226 731,1226 719,1225 709,1224 699,1223 690,1220 685,1219 681,1218 676,1216 672,1215 668,1214 664,1212 661,1210 657,1208 654,1207 651,1205 648,1203 645,1201 643,1199 641,1196 639,1194 637,1192 636,1190 635,1187 633,1185 633,1183 632,1180 632,1178"/>
        <polyline class="pen2" fill="none" points="632,1178 632,1176 633,1173 633,1170 635,1168 636,1166 637,1164 639,1161 641,1159 643,1157 645,1155 648,1153 651,1151 654,1149 657,1147 661,1145 664,1144 668,1142 672,1140 676,1139 681,1137 685,1136 690,1135 699,1133 709,1131 719,1130 731,1130 741,1130 753,1130 764,1130 774,1131 784,1133 794,1135 798,1136 803,1137 807,1139 811,1140 815,1142 819,1144 823,1145 826,1147 829,1149 832,1151 835,1153 837,1155 840,1157 842,1159 844,1161 846,1164 847,1166 849,1168 849,1170 850,1173 850,1176 851,1178 851,1178 850,1180 850,1183 849,1185 849,1187 847,1190 846,1192 844,1194 842,1196 840,1199 837,1201 835,1203 832,1205 829,1207 826,1208 823,1210 819,1212 815,1214 811,1215 807,1216 803,1218 798,1219 794,1220 784,1223 774,1224 764,1225 753,1226 741,1226 731,1226 719,1225 709,1224 699,1223 690,1220 685,1219 681,1218 676,1216 672,1215 668,1214 664,1212 661,1210 657,1208 654,1207 651,1205 648,1203 645,1201 643,1199 641,1196 639,1194 637,1192 636,1190 635,1187 633,1185 633,1183 632,1180 632,1178"/>
        <polygon class="pen1 brush0" points="728,1346 728,1344 729,1341 729,1339 731,1337 732,1334 733,1332 735,1330 737,1328 739,1325 741,1323 744,1321 747,1319 750,1317 753,1316 757,1314 760,1312 764,1311 768,1309 772,1308 777,1306 781,1305 786,1304 795,1301 805,1300 815,1299 826,1298 837,1298 849,1298 860,1299 870,1300 880,1301 890,1304 894,1305 899,1306 903,1308 907,1309 911,1311 915,1312 919,1314 922,1316 925,1317 928,1319 931,1321 933,1323 936,1325 938,1328 940,1330 942,1332 943,1334 945,1337 945,1339 947,1341 947,1344 947,1346 947,1346 947,1349 947,1351 945,1354 945,1356 943,1359 942,1361 940,1363 938,1365 936,1367 933,1370 931,1371 928,1374 925,1375 922,1377 919,1379 915,1381 911,1382 907,1384 903,1385 899,1387 894,1388 890,1389 880,1391 870,1393 860,1394 849,1395 837,1395 826,1395 815,1394 805,1393 795,1391 786,1389 781,1388 777,1387 772,1385 768,1384 764,1382 760,1381 757,1379 753,1377 750,1375 747,1374 744,1371 741,1370 739,1367 737,1365 735,1363 733,1361 732,1359 731,1356 729,1354 729,1351 728,1349 728,1346"/>
        <polyline class="pen2" fill="none" points="728,1346 728,1344 729,1341 729,1339 731,1337 732,1334 733,1332 735,1330 737,1328 739,1325 741,1323 744,1321 747,1319 750,1317 753,1316 757,1314 760,1312 764,1311 768,1309 772,1308 777,1306 781,1305 786,1304 795,1301 805,1300 815,1299 826,1298 837,1298 849,1298 860,1299 870,1300 880,1301 890,1304 894,1305 899,1306 903,1308 907,1309 911,1311 915,1312 919,1314 922,1316 925,1317 928,1319 931,1321 933,1323 936,1325 938,1328 940,1330 942,1332 943,1334 945,1337 945,1339 947,1341 947,1344 947,1346 947,1346 947,1349 947,1351 945,1354 945,1356 943,1359 942,1361 940,1363 938,1365 936,1367 933,1370 931,1371 928,1374 925,1375 922,1377 919,1379 915,1381 911,1382 907,1384 903,1385 899,1387 894,1388 890,1389 880,1391 870,1393 860,1394 849,1395 837,1395 826,1395 815,1394 805,1393 795,1391 786,1389 781,1388 777,1387 772,1385 768,1384 764,1382 760,1381 757,1379 753,1377 750,1375 747,1374 744,1371 741,1370 739,1367 737,1365 735,1363 733,1361 732,1359 731,1356 729,1354 729,1351 728,1349 728,1346"/>
        <polyline class="pen2" fill="none" points="535,1033 657,1008"/>
        <polyline class="pen2" fill="none" points="523,1275 729,1347"/>
        <polyline class="pen2" fill="none" points="523,1275 657,1208"/>
        <polyline class="pen2" fill="none" points="535,1033 657,1141"/>
        <path class="pen0 brush2" d="M 1358,2024  L 1358,2160 1358,2161 1358,2162 1358,2163 1357,2163 1357,2164 1356,2164 1355,2164 1354,2164 1353,2164 1352,2164 1352,2164 1351,2163 1350,2163 1350,2162 1349,2161 1349,2160 1349,2024 1349,2023 1350,2022 1350,2021 1351,2020 1352,2020 1352,2020 1353,2019 1354,2019 1355,2019 1356,2020 1357,2020 1357,2020 1358,2021 1358,2022 1358,2023 1358,2024 1358,2024 z M 1358,2242  L 1358,2378 1358,2379 1358,2379 1358,2381 1357,2381 1357,2382 1356,2382 1355,2382 1354,2382 1353,2382 1352,2382 1352,2382 1351,2381 1350,2381 1350,2379 1349,2379 1349,2378 1349,2242 1349,2240 1350,2240 1350,2239 1351,2238 1352,2238 1352,2238 1353,2237 1354,2237 1355,2237 1356,2238 1357,2238 1357,2238 1358,2239 1358,2240 1358,2240 1358,2242 1358,2242 z" fill-rule="nonzero"/>
        <polygon class="pen1 brush0" points="1303,1815 1303,1812 1304,1808 1304,1805 1306,1801 1307,1798 1309,1796 1311,1793 1313,1791 1316,1788 1318,1787 1321,1785 1324,1783 1327,1782 1331,1781 1334,1781 1337,1781 1341,1781 1344,1781 1348,1782 1351,1783 1353,1785 1356,1787 1359,1788 1361,1791 1364,1793 1366,1796 1368,1798 1369,1801 1370,1805 1371,1808 1371,1812 1372,1815 1372,1815 1371,1818 1371,1822 1370,1825 1369,1828 1368,1831 1366,1834 1364,1837 1361,1839 1359,1841 1356,1843 1353,1844 1351,1846 1348,1847 1344,1848 1341,1848 1337,1849 1334,1848 1331,1848 1327,1847 1324,1846 1321,1844 1318,1843 1316,1841 1313,1839 1311,1837 1309,1834 1307,1831 1306,1828 1304,1825 1304,1822 1303,1818 1303,1815"/>
        <polyline class="pen3" fill="none" points="1303,1815 1303,1812 1304,1808 1304,1805 1306,1801 1307,1798 1309,1796 1311,1793 1313,1791 1316,1788 1318,1787 1321,1785 1324,1783 1327,1782 1331,1781 1334,1781 1337,1781 1341,1781 1344,1781 1348,1782 1351,1783 1353,1785 1356,1787 1359,1788 1361,1791 1364,1793 1366,1796 1368,1798 1369,1801 1370,1805 1371,1808 1371,1812 1372,1815 1372,1815 1371,1818 1371,1822 1370,1825 1369,1828 1368,1831 1366,1834 1364,1837 1361,1839 1359,1841 1356,1843 1353,1844 1351,1846 1348,1847 1344,1848 1341,1848 1337,1849 1334,1848 1331,1848 1327,1847 1324,1846 1321,1844 1318,1843 1316,1841 1313,1839 1311,1837 1309,1834 1307,1831 1306,1828 1304,1825 1304,1822 1303,1818 1303,1815"/>
        <polyline class="pen3" fill="none" points="1292,1860 1383,1860"/>
        <polyline class="pen3" fill="none" points="1337,1849 1337,1894"/>
        <polyline class="pen3" fill="none" points="1337,1894 1292,1940"/>
        <polyline class="pen3" fill="none" points="1337,1894 1383,1940"/>
        <polygon class="pen1 brush0" points="1190,1962 1190,2053 1485,2053 1485,1962 1190,1962"/>
        <text class="font7" fill="rgb(0,0,0)" stroke="none" style="dominant-baseline: alphabetic;" x="1240 1255" xml:lang="en" xml:space="preserve" y="2021">: </text>
        <text class="font7" fill="rgb(0,0,0)" stroke="none" style="dominant-baseline: alphabetic;" x="1268 1301 1326 1351 1378 1391 1416" xml:lang="en" xml:space="preserve" y="2021">Cashier</text>
        <text class="font5" fill="rgb(0,0,0)" stroke="none" style="dominant-baseline: alphabetic;" x="1171 1204 1235 1268" xml:lang="en" xml:space="preserve" y="1022">use </text>
        <text class="font5" fill="rgb(0,0,0)" stroke="none" style="dominant-baseline: alphabetic;" x="1156 1186 1220 1250 1283" xml:lang="en" xml:space="preserve" y="1095">case </text>
        <text class="font5" fill="rgb(0,0,0)" stroke="none" style="dominant-baseline: alphabetic;" x="1129 1162 1196 1247 1280" xml:lang="en" xml:space="preserve" y="1168">names</text>
        <polyline class="pen2" fill="none" points="1083,1213 1299,1213"/>
        <polygon class="pen1 brush2" points="1294,1192 1356,1213 1294,1234 1294,1192"/>
        <polyline class="pen2" fill="none" points="1223,2283 1008,2283"/>
        <polygon class="pen1 brush2" points="1014,2303 950,2283 1014,2262 1014,2303"/>
        <text class="font5" fill="rgb(0,0,0)" stroke="none" style="dominant-baseline: alphabetic;" x="991 1021 1051 1081 1098 1132 1182" xml:lang="en" xml:space="preserve" y="2144">system </text>
        <text class="font5" fill="rgb(0,0,0)" stroke="none" style="dominant-baseline: alphabetic;" x="945 979 1012 1046 1066 1100 1117 1131 1164 1198" xml:lang="en" xml:space="preserve" y="2217">operations</text>
        <text class="font1" fill="rgb(0,0,0)" stroke="none" style="dominant-baseline: alphabetic;" x="426 470 500 533 550 594 628 658 691 708 752 766 799 833 853 887" xml:lang="en" xml:space="preserve" y="1549">Use Case Diagram</text>
        <polygon class="pen1 brush3" points="2780,796 2780,984 2968,984 2968,796 2780,796"/>
        <polygon class="pen2 brush1" points="2780,984 2968,984 2968,796 2780,796 2780,984"/>
        <polygon class="pen1 brush3" points="2934,796 2968,831 2968,796 2934,796"/>
        <polygon class="pen4 brush1" points="2934,796 2968,831 2968,796 2934,796"/>
        <polygon class="pen1 brush3" points="2968,831 2934,796 2934,831 2968,831"/>
        <polygon class="pen2 brush1" points="2968,831 2934,796 2934,831 2968,831"/>
        <polyline class="pen2" fill="none" points="2790,859 2956,859"/>
        <polyline class="pen2" fill="none" points="2791,872 2957,872"/>
        <polyline class="pen2" fill="none" points="2790,887 2956,887"/>
        <polyline class="pen2" fill="none" points="2791,900 2901,900"/>
        <polyline class="pen2" fill="none" points="2790,921 2956,921"/>
        <polyline class="pen2" fill="none" points="2791,934 2957,934"/>
        <polyline class="pen2" fill="none" points="2790,950 2956,950"/>
        <polyline class="pen2" fill="none" points="2791,963 2901,963"/>
        <polygon class="pen1 brush0" points="2929,792 2968,831 2972,788 2929,792"/>
        <text class="font1" fill="rgb(0,0,0)" stroke="none" style="dominant-baseline: alphabetic;" x="2786 2827 2840 2870 2884 2918" xml:lang="en" xml:space="preserve" y="748">Vision</text>
        <polygon class="pen1 brush3" points="2780,2162 2780,2349 2968,2349 2968,2162 2780,2162"/>
        <polygon class="pen2 brush1" points="2780,2349 2968,2349 2968,2162 2780,2162 2780,2349"/>
        <polygon class="pen1 brush3" points="2934,2162 2968,2196 2968,2162 2934,2162"/>
        <polygon class="pen4 brush1" points="2934,2162 2968,2196 2968,2162 2934,2162"/>
        <polygon class="pen1 brush3" points="2968,2196 2934,2162 2934,2196 2968,2196"/>
        <polygon class="pen2 brush1" points="2968,2196 2934,2162 2934,2196 2968,2196"/>
        <polyline class="pen2" fill="none" points="2790,2225 2956,2225"/>
        <polyline class="pen2" fill="none" points="2791,2238 2957,2238"/>
        <polyline class="pen2" fill="none" points="2790,2254 2956,2254"/>
        <polyline class="pen2" fill="none" points="2791,2267 2901,2267"/>
        <polyline class="pen2" fill="none" points="2790,2287 2956,2287"/>
        <polyline class="pen2" fill="none" points="2791,2300 2957,2300"/>
        <polyline class="pen2" fill="none" points="2790,2316 2956,2316"/>
        <polyline class="pen2" fill="none" points="2791,2329 2901,2329"/>
        <polygon class="pen1 brush0" points="2929,2158 2968,2196 2972,2154 2929,2158"/>
        <text class="font1" fill="rgb(0,0,0)" stroke="none" style="dominant-baseline: alphabetic;" x="2653 2693 2727 2760 2794 2807 2841 2891 2925 2959 2976 3009 3030" xml:lang="en" xml:space="preserve" y="2078">Supplementary</text>
        <text class="font1" fill="rgb(0,0,0)" stroke="none" style="dominant-baseline: alphabetic;" x="2685 2725 2759 2792 2822 2836 2853 2866 2897 2930 2947 2961 2994" xml:lang="en" xml:space="preserve" y="2151">Specification</text>
        <polygon class="pen1 brush3" points="2780,1477 2780,1665 2968,1665 2968,1477 2780,1477"/>
        <polygon class="pen2 brush1" points="2780,1665 2968,1665 2968,1477 2780,1477 2780,1665"/>
        <polygon class="pen1 brush3" points="2934,1477 2968,1511 2968,1477 2934,1477"/>
        <polygon class="pen4 brush1" points="2934,1477 2968,1511 2968,1477 2934,1477"/>
        <polygon class="pen1 brush3" points="2968,1511 2934,1477 2934,1511 2968,1511"/>
        <polygon class="pen2 brush1" points="2968,1511 2934,1477 2934,1511 2968,1511"/>
        <polyline class="pen2" fill="none" points="2790,1540 2956,1540"/>
        <polyline class="pen2" fill="none" points="2791,1553 2957,1553"/>
        <polyline class="pen2" fill="none" points="2790,1568 2956,1568"/>
        <polyline class="pen2" fill="none" points="2791,1581 2901,1581"/>
        <polyline class="pen2" fill="none" points="2790,1602 2956,1602"/>
        <polyline class="pen2" fill="none" points="2791,1615 2957,1615"/>
        <polyline class="pen2" fill="none" points="2790,1631 2956,1631"/>
        <polyline class="pen2" fill="none" points="2791,1644 2901,1644"/>
        <polygon class="pen1 brush0" points="2929,1473 2968,1511 2972,1469 2929,1473"/>
        <text class="font1" fill="rgb(0,0,0)" stroke="none" style="dominant-baseline: alphabetic;" x="2749 2797 2810 2844 2874 2904 2937 2958" xml:lang="en" xml:space="preserve" y="1429">Glossary</text>
        <polyline class="pen2" fill="none" points="1948,2084 1963,2084 1979,2083 1996,2080 2014,2077 2032,2072 2052,2066 2072,2058 2093,2050 2115,2041 2137,2031 2160,2019 2183,2007 2207,1993 2232,1978 2257,1963 2283,1947 2309,1930 2335,1911 2362,1892 2389,1872 2417,1851 2445,1830 2473,1808 2501,1784 2530,1760 2558,1736 2587,1710 2615,1684 2644,1657 2673,1630 2702,1602 2731,1574"/>
        <polygon class="pen1 brush2" points="2712,1563 2772,1532 2743,1592 2712,1563"/>
        <text class="font1" fill="rgb(0,0,0)" stroke="none" style="dominant-baseline: alphabetic;" x="2294 2327 2361 2381 2415 2465 2499 2516 2549 2570 2600 2617 2651 2684 2718" xml:lang="en" xml:space="preserve" y="1479">parameters and </text>
        <text class="font1" fill="rgb(0,0,0)" stroke="none" style="dominant-baseline: alphabetic;" x="2206 2227 2260 2277 2311 2331 2365 2382 2412 2445 2459 2493 2526 2543 2577 2610 2627 2661 2674 2688" xml:lang="en" xml:space="preserve" y="1552">return value details</text>
        <text class="font1" fill="rgb(0,0,0)" stroke="none" style="dominant-baseline: alphabetic;" x="14 44 61 94 115 132 145 179 212 229 263 293 327 360 377 407 424 441 475 492 525 559 589 603 636 670 687 704 737" xml:lang="en" xml:space="preserve" y="2673">starting events to design for</text>
        <polygon class="pen1 brush0" points="1377,838 1377,1447 1854,1447 1854,838 1377,838"/>
        <polygon class="pen2 brush1" points="1377,1447 1854,1447 1854,838 1377,838 1377,1447"/>
        <text class="font5" fill="rgb(0,0,0)" stroke="none" style="dominant-baseline: alphabetic;" x="1407 1448 1468 1502 1532 1565 1595 1626 1643 1683 1716 1730" xml:lang="en" xml:space="preserve" y="907">Process Sale</text>
        <text class="font1" fill="rgb(0,0,0)" stroke="none" style="dominant-baseline: alphabetic;" x="1407" xml:lang="en" xml:space="preserve" y="1052">1</text>
        <text class="font1" fill="rgb(0,0,0)" stroke="none" style="dominant-baseline: alphabetic;" x="1441 1458" xml:lang="en" xml:space="preserve" y="1052">. </text>
        <text class="font1" fill="rgb(0,0,0)" stroke="none" style="dominant-baseline: alphabetic;" x="1475 1519 1552 1582 1599 1633 1683 1717 1737" xml:lang="en" xml:space="preserve" y="1052">Customer </text>
        <text class="font1" fill="rgb(0,0,0)" stroke="none" style="dominant-baseline: alphabetic;" x="1407 1441 1461 1482 1495 1526 1559 1589" xml:lang="en" xml:space="preserve" y="1124">arrives </text>
        <text class="font1" fill="rgb(0,0,0)" stroke="none" style="dominant-baseline: alphabetic;" x="1606 1623 1640" xml:lang="en" xml:space="preserve" y="1124">...</text>
        <text class="font1" fill="rgb(0,0,0)" stroke="none" style="dominant-baseline: alphabetic;" x="1407" xml:lang="en" xml:space="preserve" y="1197">2</text>
        <text class="font1" fill="rgb(0,0,0)" stroke="none" style="dominant-baseline: alphabetic;" x="1441 1458" xml:lang="en" xml:space="preserve" y="1197">. </text>
        <text class="font1" fill="rgb(0,0,0)" stroke="none" style="dominant-baseline: alphabetic;" x="1475 1519 1552 1582 1616 1629 1663 1683" xml:lang="en" xml:space="preserve" y="1197">Cashier </text>
        <text class="font1" fill="rgb(0,0,0)" stroke="none" style="dominant-baseline: alphabetic;" x="1407 1458 1491 1522 1555 1585 1602 1636 1669 1713" xml:lang="en" xml:space="preserve" y="1270">makes new </text>
        <text class="font1" fill="rgb(0,0,0)" stroke="none" style="dominant-baseline: alphabetic;" x="1407 1437 1471 1485" xml:lang="en" xml:space="preserve" y="1342">sale</text>
        <text class="font1" fill="rgb(0,0,0)" stroke="none" style="dominant-baseline: alphabetic;" x="1519" xml:lang="en" xml:space="preserve" y="1342">.</text>
        <text class="font1" fill="rgb(0,0,0)" stroke="none" style="dominant-baseline: alphabetic;" x="1407" xml:lang="en" xml:space="preserve" y="1415">3</text>
        <text class="font1" fill="rgb(0,0,0)" stroke="none" style="dominant-baseline: alphabetic;" x="1441 1458 1475 1492 1509" xml:lang="en" xml:space="preserve" y="1415">. ...</text>
    </g>
    <g/>
</svg>
