<?xml version="1.0" encoding="UTF-8" standalone="no"?>
<!DOCTYPE svg PUBLIC "-//W3C//DTD SVG 1.0//EN" "http://www.w3.org/TR/2001/REC-SVG-20010904/DTD/svg10.dtd">
<svg xmlns="http://www.w3.org/2000/svg" xmlns:xlink="http://www.w3.org/1999/xlink" fill-rule="evenodd" height="5.602430555555555in" preserveAspectRatio="none" stroke-linecap="round" viewBox="0 0 3512 3362" width="5.852430555555555in">
    <style type="text/css">
.brush0 { fill: rgb(255,255,255); }
.pen0 { stroke: rgb(0,0,0); stroke-width: 1; stroke-linejoin: round; }
.font0 { font-weight: bold; font-size: 92px; font-family: System, sans-serif; }
.pen1 { stroke: none; }
.pen2 { stroke: rgb(0,0,0); stroke-width: 2; stroke-linejoin: round; }
.brush1 { fill: none; }
.font1 { font-size: 54px; font-family: Arial; }
.font2 { font-weight: bold; font-size: 9px; font-family: System, sans-serif; }
.font3 { font-size: 68px; font-family: Arial; }
.brush2 { fill: rgb(0,0,0); }
.font4 { font-weight: bold; font-size: 54px; font-family: Arial; }
.font5 { font-style: italic; font-size: 54px; font-family: Arial; }
.font6 { font-weight: bold; font-size: 9px; font-family: System, sans-serif; }
.font7 { font-weight: bold; font-size: 92px; font-family: System, sans-serif; }
</style>
    <g>
        <polygon class="pen1 brush0" points="425,1209 425,1863 1043,1863 1043,1209 425,1209"/>
        <polygon class="pen2 brush1" points="425,1863 1043,1863 1043,1209 425,1209 425,1863"/>
        <text class="font1" fill="rgb(0,0,0)" stroke="none" style="dominant-baseline: alphabetic;" x="455 496 517 551 581 615 646 676 693 734 768 782" xml:lang="en" xml:space="preserve" y="1296">Process Sale</text>
        <text class="font1" fill="rgb(0,0,0)" stroke="none" style="dominant-baseline: alphabetic;" x="455" xml:lang="en" xml:space="preserve" y="1443">1</text>
        <text class="font1" fill="rgb(0,0,0)" stroke="none" style="dominant-baseline: alphabetic;" x="490 507" xml:lang="en" xml:space="preserve" y="1443">. </text>
        <text class="font1" fill="rgb(0,0,0)" stroke="none" style="dominant-baseline: alphabetic;" x="524 568 602 632 650 684 735 769 789 807 840 861 882 896 926 960 991" xml:lang="en" xml:space="preserve" y="1443">Customer arrives </text>
        <text class="font1" fill="rgb(0,0,0)" stroke="none" style="dominant-baseline: alphabetic;" x="455 472 490" xml:lang="en" xml:space="preserve" y="1517">...</text>
        <text class="font1" fill="rgb(0,0,0)" stroke="none" style="dominant-baseline: alphabetic;" x="455" xml:lang="en" xml:space="preserve" y="1590">2</text>
        <text class="font1" fill="rgb(0,0,0)" stroke="none" style="dominant-baseline: alphabetic;" x="490 507 524 541 559" xml:lang="en" xml:space="preserve" y="1590">. ...</text>
        <text class="font1" fill="rgb(0,0,0)" stroke="none" style="dominant-baseline: alphabetic;" x="455" xml:lang="en" xml:space="preserve" y="1664">3</text>
        <text class="font1" fill="rgb(0,0,0)" stroke="none" style="dominant-baseline: alphabetic;" x="490 507" xml:lang="en" xml:space="preserve" y="1664">. </text>
        <text class="font1" fill="rgb(0,0,0)" stroke="none" style="dominant-baseline: alphabetic;" x="524 568 602 632 666 680 714 735 752 786 820 837 871 892 922" xml:lang="en" xml:space="preserve" y="1664">Cashier enters </text>
        <text class="font1" fill="rgb(0,0,0)" stroke="none" style="dominant-baseline: alphabetic;" x="455 469 486 520 571 589 602 636 670 704 721 735 753 766 800" xml:lang="en" xml:space="preserve" y="1737">item identifier</text>
        <text class="font1" fill="rgb(0,0,0)" stroke="none" style="dominant-baseline: alphabetic;" x="820" xml:lang="en" xml:space="preserve" y="1737">.</text>
        <text class="font1" fill="rgb(0,0,0)" stroke="none" style="dominant-baseline: alphabetic;" x="455" xml:lang="en" xml:space="preserve" y="1811">4</text>
        <text class="font1" fill="rgb(0,0,0)" stroke="none" style="dominant-baseline: alphabetic;" x="490 507 524 541 559" xml:lang="en" xml:space="preserve" y="1811">.... </text>
        <text class="font1" fill="rgb(0,0,0)" stroke="none" style="dominant-baseline: alphabetic;" x="530 574 605 639 656 700 734 765 799 816 853 887 918" xml:lang="en" xml:space="preserve" y="1957">Use Case Text</text>
        <polygon class="pen1 brush0" points="1284,1209 1284,1605 2043,1605 2043,1209 1284,1209"/>
        <polygon class="pen2 brush1" points="1284,1605 2043,1605 2043,1209 1284,1209 1284,1605"/>
        <text class="font1" fill="rgb(0,0,0)" stroke="none" style="dominant-baseline: alphabetic;" x="1315 1363 1397 1431 1452 1486 1503 1517 1551" xml:lang="en" xml:space="preserve" y="1314">Operation</text>
        <text class="font1" fill="rgb(0,0,0)" stroke="none" style="dominant-baseline: alphabetic;" x="1585 1602" xml:lang="en" xml:space="preserve" y="1314">: </text>
        <text class="font1" fill="rgb(0,0,0)" stroke="none" style="dominant-baseline: alphabetic;" x="1618 1652 1686 1704 1738 1758 1775 1793 1827" xml:lang="en" xml:space="preserve" y="1314">enterItem</text>
        <text class="font1" fill="rgb(0,0,0)" stroke="none" style="dominant-baseline: alphabetic;" x="1878" xml:lang="en" xml:space="preserve" y="1314">(</text>
        <text class="font1" fill="rgb(0,0,0)" stroke="none" style="dominant-baseline: alphabetic;" x="1898" xml:lang="en" xml:space="preserve" y="1314">…</text>
        <text class="font1" fill="rgb(0,0,0)" stroke="none" style="dominant-baseline: alphabetic;" x="1959" xml:lang="en" xml:space="preserve" y="1314">)</text>
        <text class="font1" fill="rgb(0,0,0)" stroke="none" style="dominant-baseline: alphabetic;" x="1315 1356 1390 1421" xml:lang="en" xml:space="preserve" y="1461">Post</text>
        <text class="font1" fill="rgb(0,0,0)" stroke="none" style="dominant-baseline: alphabetic;" x="1438" xml:lang="en" xml:space="preserve" y="1461">-</text>
        <text class="font1" fill="rgb(0,0,0)" stroke="none" style="dominant-baseline: alphabetic;" x="1459 1489 1523 1557 1591 1605 1622 1636 1670 1704" xml:lang="en" xml:space="preserve" y="1461">conditions</text>
        <text class="font1" fill="rgb(0,0,0)" stroke="none" style="dominant-baseline: alphabetic;" x="1735" xml:lang="en" xml:space="preserve" y="1461">:</text>
        <text class="font1" fill="rgb(0,0,0)" stroke="none" style="dominant-baseline: alphabetic;" x="1315" xml:lang="en" xml:space="preserve" y="1535">-</text>
        <text class="font1" fill="rgb(0,0,0)" stroke="none" style="dominant-baseline: alphabetic;" x="1336" xml:lang="en" xml:space="preserve" y="1535"> </text>
        <text class="font1" fill="rgb(0,0,0)" stroke="none" style="dominant-baseline: alphabetic;" x="1353 1370 1387 1405 1422" xml:lang="en" xml:space="preserve" y="1535">. . .</text>
        <text class="font1" fill="rgb(0,0,0)" stroke="none" style="dominant-baseline: alphabetic;" x="1424 1472 1506 1540 1560 1594 1612 1625 1659 1693 1710 1755 1789 1823 1840 1861 1895 1925 1942" xml:lang="en" xml:space="preserve" y="1699">Operation Contracts</text>
        <polygon class="pen1 brush0" points="672,281 672,418 1077,418 1077,281 672,281"/>
        <polygon class="pen2 brush1" points="672,418 1077,418 1077,281 672,281 672,418"/>
        <text class="font1" fill="rgb(0,0,0)" stroke="none" style="dominant-baseline: alphabetic;" x="813 854 888 901" xml:lang="en" xml:space="preserve" y="368">Sale</text>
        <polygon class="pen1 brush0" points="672,418 672,626 1077,626 1077,418 672,418"/>
        <polygon class="pen2 brush1" points="672,626 1077,626 1077,418 672,418 672,626"/>
        <text class="font1" fill="rgb(0,0,0)" stroke="none" style="dominant-baseline: alphabetic;" x="708 742 776 793" xml:lang="en" xml:space="preserve" y="504">date</text>
        <text class="font1" fill="rgb(0,0,0)" stroke="none" style="dominant-baseline: alphabetic;" x="708 725 742 759 777" xml:lang="en" xml:space="preserve" y="578">. . .</text>
        <polygon class="pen1 brush0" points="1468,281 1468,489 1873,489 1873,281 1468,281"/>
        <polygon class="pen2 brush1" points="1468,489 1873,489 1873,281 1468,281 1468,489"/>
        <text class="font1" fill="rgb(0,0,0)" stroke="none" style="dominant-baseline: alphabetic;" x="1594 1635 1669 1682 1716" xml:lang="en" xml:space="preserve" y="366">Sales</text>
        <text class="font1" fill="rgb(0,0,0)" stroke="none" style="dominant-baseline: alphabetic;" x="1553 1587 1601 1635 1669 1686 1703 1737" xml:lang="en" xml:space="preserve" y="440">LineItem</text>
        <polygon class="pen1 brush0" points="1468,489 1468,626 1873,626 1873,489 1468,489"/>
        <polygon class="pen2 brush1" points="1468,626 1873,626 1873,489 1468,489 1468,626"/>
        <text class="font1" fill="rgb(0,0,0)" stroke="none" style="dominant-baseline: alphabetic;" x="1504 1538 1572 1606 1640 1657 1671 1688" xml:lang="en" xml:space="preserve" y="576">quantity</text>
        <polyline class="pen2" fill="none" points="1077,453 1468,453"/>
        <text class="font1" fill="rgb(0,0,0)" stroke="none" style="dominant-baseline: alphabetic;" x="1346" xml:lang="en" xml:space="preserve" y="390">1</text>
        <text class="font1" fill="rgb(0,0,0)" stroke="none" style="dominant-baseline: alphabetic;" x="1380 1397" xml:lang="en" xml:space="preserve" y="390">..</text>
        <text class="font3" fill="rgb(0,0,0)" stroke="none" style="dominant-baseline: alphabetic;" x="1414" xml:lang="en" xml:space="preserve" y="390">*</text>
        <text class="font1" fill="rgb(0,0,0)" stroke="none" style="dominant-baseline: alphabetic;" x="1131" xml:lang="en" xml:space="preserve" y="385">1</text>
        <polygon class="pen1 brush0" points="2301,316 2301,453 2706,453 2706,316 2301,316"/>
        <polygon class="pen2 brush1" points="2301,453 2706,453 2706,316 2301,316 2301,453"/>
        <text class="font1" fill="rgb(0,0,0)" stroke="none" style="dominant-baseline: alphabetic;" x="2461 2478 2495 2513 2530" xml:lang="en" xml:space="preserve" y="403">. . .</text>
        <polygon class="pen1 brush0" points="2301,453 2301,591 2706,591 2706,453 2301,453"/>
        <polygon class="pen2 brush1" points="2301,591 2706,591 2706,453 2301,453 2301,591"/>
        <text class="font1" fill="rgb(0,0,0)" stroke="none" style="dominant-baseline: alphabetic;" x="2337 2354 2371 2388 2406" xml:lang="en" xml:space="preserve" y="541">. . .</text>
        <polyline class="pen2" fill="none" points="1873,453 2300,453"/>
        <polyline class="pen2" fill="none" points="567,1167 657,788"/>
        <polygon class="pen1 brush2" points="635,788 670,731 677,798 635,788"/>
        <polyline class="pen2" fill="none" points="1705,731 1694,794 1689,824 1683,855 1677,885 1671,915 1666,944 1659,972 1654,999 1648,1025 1642,1050 1636,1074 1631,1096 1628,1107 1625,1117 1623,1127 1620,1136 1617,1145 1615,1153"/>
        <polygon class="pen1 brush2" points="1637,1156 1595,1209 1597,1141 1637,1156"/>
        <text class="font1" fill="rgb(0,0,0)" stroke="none" style="dominant-baseline: alphabetic;" x="1719 1736 1770 1804 1821 1855 1889 1941 1974 1988 2022 2039 2073 2107 2121 2155 2185 2203" xml:lang="en" xml:space="preserve" y="849">the domain objects</text>
        <text class="font1" fill="rgb(0,0,0)" stroke="none" style="dominant-baseline: alphabetic;" x="2234 2251" xml:lang="en" xml:space="preserve" y="849">, </text>
        <text class="font1" fill="rgb(0,0,0)" stroke="none" style="dominant-baseline: alphabetic;" x="1719 1753 1770 1788 1808 1822 1856 1890 1907 1941" xml:lang="en" xml:space="preserve" y="922">attributes</text>
        <text class="font1" fill="rgb(0,0,0)" stroke="none" style="dominant-baseline: alphabetic;" x="1971 1988" xml:lang="en" xml:space="preserve" y="922">, </text>
        <text class="font1" fill="rgb(0,0,0)" stroke="none" style="dominant-baseline: alphabetic;" x="2005 2039 2073 2107 2125 2158 2189 2219 2253 2284 2298 2332 2349 2363 2396 2430 2461" xml:lang="en" xml:space="preserve" y="922">and associations </text>
        <text class="font1" fill="rgb(0,0,0)" stroke="none" style="dominant-baseline: alphabetic;" x="1719 1736 1770 1804 1821 1839 1873 1907 1941 1974 1995 2029 2063 2080 2111 2128 2162 2179 2213 2230 2261 2295 2329 2363 2396 2430" xml:lang="en" xml:space="preserve" y="996">that undergo state changes</text>
        <path class="pen0 brush2" d="M 459,714  L 597,714 598,714 598,714 600,715 600,715 601,716 601,717 601,718 601,719 601,719 601,721 601,721 600,722 600,722 598,723 598,723 597,723 459,723 458,723 457,723 456,722 455,722 455,721 455,721 454,719 454,719 454,718 455,717 455,716 455,715 456,715 457,714 458,714 459,714 459,714 z M 679,714  L 817,714 819,714 819,714 820,715 821,715 822,716 822,717 822,718 822,719 822,719 822,721 822,721 821,722 820,722 819,723 819,723 817,723 679,723 678,723 678,723 677,722 676,722 675,721 675,721 675,719 675,719 675,718 675,717 675,716 676,715 677,715 678,714 678,714 679,714 679,714 z M 900,714  L 1038,714 1039,714 1040,714 1041,715 1042,715 1042,716 1042,717 1043,718 1043,719 1043,719 1042,721 1042,721 1042,722 1041,722 1040,723 1039,723 1038,723 900,723 899,723 899,723 898,722 897,722 896,721 896,721 896,719 896,719 896,718 896,717 896,716 897,715 898,715 899,714 899,714 900,714 900,714 z M 1121,714  L 1259,714 1260,714 1261,714 1262,715 1263,715 1263,716 1263,717 1264,718 1264,719 1264,719 1263,721 1263,721 1263,722 1262,722 1261,723 1260,723 1259,723 1121,723 1120,723 1119,723 1119,722 1118,722 1117,721 1117,721 1117,719 1117,719 1117,718 1117,717 1117,716 1118,715 1119,715 1119,714 1120,714 1121,714 1121,714 z M 1342,714  L 1480,714 1481,714 1482,714 1483,715 1483,715 1484,716 1484,717 1485,718 1485,719 1485,719 1484,721 1484,721 1483,722 1483,722 1482,723 1481,723 1480,723 1342,723 1341,723 1340,723 1340,722 1338,722 1338,721 1338,721 1337,719 1337,719 1337,718 1338,717 1338,716 1338,715 1340,715 1340,714 1341,714 1342,714 1342,714 z M 1563,714  L 1701,714 1702,714 1702,714 1704,715 1704,715 1705,716 1705,717 1705,718 1705,719 1705,719 1705,721 1705,721 1704,722 1704,722 1702,723 1702,723 1701,723 1563,723 1562,723 1561,723 1560,722 1559,722 1559,721 1559,721 1558,719 1558,719 1558,718 1559,717 1559,716 1559,715 1560,715 1561,714 1562,714 1563,714 1563,714 z M 1784,714  L 1922,714 1923,714 1923,714 1924,715 1925,715 1926,716 1926,717 1926,718 1926,719 1926,719 1926,721 1926,721 1925,722 1924,722 1923,723 1923,723 1922,723 1784,723 1782,723 1782,723 1781,722 1780,722 1780,721 1780,721 1779,719 1779,719 1779,718 1780,717 1780,716 1780,715 1781,715 1782,714 1782,714 1784,714 1784,714 z M 2004,714  L 2142,714 2143,714 2144,714 2145,715 2146,715 2146,716 2146,717 2147,718 2147,719 2147,719 2146,721 2146,721 2146,722 2145,722 2144,723 2143,723 2142,723 2004,723 2003,723 2003,723 2002,722 2001,722 2000,721 2000,721 2000,719 2000,719 2000,718 2000,717 2000,716 2001,715 2002,715 2003,714 2003,714 2004,714 2004,714 z M 2225,714  L 2363,714 2364,714 2365,714 2366,715 2367,715 2367,716 2367,717 2368,718 2368,719 2368,719 2367,721 2367,721 2367,722 2366,722 2365,723 2364,723 2363,723 2225,723 2224,723 2223,723 2223,722 2222,722 2221,721 2221,721 2221,719 2221,719 2221,718 2221,717 2221,716 2222,715 2223,715 2223,714 2224,714 2225,714 2225,714 z M 2446,714  L 2584,714 2585,714 2586,714 2587,715 2587,715 2588,716 2588,717 2589,718 2589,719 2589,719 2588,721 2588,721 2587,722 2587,722 2586,723 2585,723 2584,723 2446,723 2445,723 2444,723 2444,722 2442,722 2442,721 2442,721 2441,719 2441,719 2441,718 2442,717 2442,716 2442,715 2444,715 2444,714 2445,714 2446,714 2446,714 z M 2667,714  L 2805,714 2806,714 2806,714 2808,715 2808,715 2809,716 2809,717 2809,718 2809,719 2809,719 2809,721 2809,721 2808,722 2808,722 2806,723 2806,723 2805,723 2667,723 2666,723 2665,723 2664,722 2663,722 2663,721 2663,721 2662,719 2662,719 2662,718 2663,717 2663,716 2663,715 2664,715 2665,714 2666,714 2667,714 2667,714 z M 2888,714  L 2913,714 2920,714 2927,714 2934,712 2940,711 2947,710 2953,708 2959,706 2965,704 2971,701 2977,698 2982,695 2988,691 2993,688 2998,684 3003,679 3008,675 3010,672 3011,672 3012,671 3012,671 3013,671 3014,671 3015,671 3016,672 3017,672 3018,673 3018,673 3018,675 3018,675 3018,676 3018,677 3018,677 3017,679 3014,681 3009,687 3004,691 2999,695 2993,699 2987,703 2981,706 2975,709 2969,712 2962,715 2955,717 2949,719 2942,721 2935,722 2928,723 2920,723 2913,723 2888,723 2886,723 2886,723 2885,722 2884,722 2884,721 2884,721 2883,719 2883,719 2883,718 2884,717 2884,716 2884,715 2885,715 2886,714 2886,714 2888,714 2888,714 z M 3045,602  L 3045,601 3046,594 3046,588 3047,581 3047,580 3047,579 3047,578 3048,578 3049,577 3050,576 3050,576 3051,576 3052,576 3053,576 3054,577 3054,578 3055,578 3055,579 3055,580 3056,581 3055,588 3055,595 3054,603 3054,603 3054,604 3053,605 3052,606 3051,606 3050,607 3050,607 3049,607 3048,606 3047,606 3046,605 3045,604 3045,603 3045,602 3045,602 3045,602 z M 3047,581  L 3047,464 3047,463 3047,463 3047,462 3048,461 3049,460 3049,460 3050,460 3051,460 3052,460 3053,460 3054,460 3054,461 3055,462 3055,463 3055,463 3056,464 3056,581 3055,582 3055,583 3055,583 3054,584 3054,584 3053,585 3052,586 3051,586 3050,586 3049,585 3049,584 3048,584 3047,583 3047,583 3047,582 3047,581 3047,581 z M 3047,382  L 3047,269 3046,262 3046,255 3045,248 3045,245 3045,244 3045,243 3045,242 3045,242 3046,240 3047,240 3048,240 3049,239 3050,240 3051,240 3051,240 3053,242 3053,242 3054,243 3054,247 3055,254 3055,261 3056,269 3056,382 3055,383 3055,383 3055,385 3054,385 3054,386 3053,386 3052,386 3051,386 3050,386 3049,386 3049,386 3048,385 3047,385 3047,383 3047,383 3047,382 3047,382 z M 3008,175  L 3007,174 3003,170 2998,166 2993,162 2988,158 2982,154 2977,151 2971,148 2965,146 2959,143 2953,141 2946,139 2940,138 2934,137 2927,136 2920,135 2913,135 2912,135 2911,135 2911,134 2910,134 2909,133 2909,132 2909,131 2909,130 2909,130 2909,128 2909,128 2910,127 2911,127 2912,126 2912,126 2913,126 2920,126 2928,127 2935,128 2942,129 2949,131 2956,132 2962,135 2969,137 2975,140 2981,143 2987,147 2993,150 2999,154 3004,158 3009,163 3014,168 3015,169 3015,169 3016,170 3016,171 3016,172 3016,173 3016,174 3015,174 3015,175 3014,176 3013,176 3012,176 3011,176 3011,176 3009,176 3009,176 3008,175 3008,175 z M 2913,135  L 2885,135 2884,135 2883,135 2882,134 2881,134 2881,133 2881,132 2880,131 2880,131 2880,130 2881,128 2881,128 2881,127 2882,127 2883,126 2884,126 2885,126 2913,126 2914,126 2915,126 2916,127 2916,127 2917,128 2917,128 2917,130 2918,131 2917,131 2917,132 2917,133 2916,134 2916,134 2915,135 2914,135 2913,135 2913,135 z M 2802,135  L 2664,135 2663,135 2662,135 2662,134 2660,134 2660,133 2660,132 2659,131 2659,131 2659,130 2660,128 2660,128 2660,127 2662,127 2662,126 2663,126 2664,126 2802,126 2803,126 2804,126 2805,127 2805,127 2806,128 2806,128 2806,130 2806,131 2806,131 2806,132 2806,133 2805,134 2805,134 2804,135 2803,135 2802,135 2802,135 z M 2581,135  L 2443,135 2442,135 2441,135 2441,134 2440,134 2439,133 2439,132 2438,131 2438,131 2438,130 2439,128 2439,128 2440,127 2441,127 2441,126 2442,126 2443,126 2581,126 2582,126 2583,126 2584,127 2585,127 2585,128 2585,128 2586,130 2586,131 2586,131 2585,132 2585,133 2585,134 2584,134 2583,135 2582,135 2581,135 2581,135 z M 2360,135  L 2222,135 2221,135 2221,135 2220,134 2219,134 2218,133 2218,132 2218,131 2218,131 2218,130 2218,128 2218,128 2219,127 2220,127 2221,126 2221,126 2222,126 2360,126 2361,126 2362,126 2363,127 2364,127 2364,128 2364,128 2365,130 2365,131 2365,131 2364,132 2364,133 2364,134 2363,134 2362,135 2361,135 2360,135 2360,135 z M 2139,135  L 2001,135 2000,135 2000,135 1999,134 1998,134 1997,133 1997,132 1997,131 1997,131 1997,130 1997,128 1997,128 1998,127 1999,127 2000,126 2000,126 2001,126 2139,126 2141,126 2141,126 2142,127 2143,127 2143,128 2143,128 2144,130 2144,131 2144,131 2143,132 2143,133 2143,134 2142,134 2141,135 2141,135 2139,135 2139,135 z M 1919,135  L 1781,135 1780,135 1779,135 1778,134 1777,134 1777,133 1777,132 1776,131 1776,131 1776,130 1777,128 1777,128 1777,127 1778,127 1779,126 1780,126 1781,126 1919,126 1920,126 1920,126 1922,127 1922,127 1923,128 1923,128 1923,130 1923,131 1923,131 1923,132 1923,133 1922,134 1922,134 1920,135 1920,135 1919,135 1919,135 z M 1698,135  L 1560,135 1559,135 1558,135 1558,134 1556,134 1556,133 1556,132 1555,131 1555,131 1555,130 1556,128 1556,128 1556,127 1558,127 1558,126 1559,126 1560,126 1698,126 1699,126 1700,126 1701,127 1701,127 1702,128 1702,128 1702,130 1702,131 1702,131 1702,132 1702,133 1701,134 1701,134 1700,135 1699,135 1698,135 1698,135 z M 1477,135  L 1339,135 1338,135 1337,135 1337,134 1336,134 1335,133 1335,132 1334,131 1334,131 1334,130 1335,128 1335,128 1336,127 1337,127 1337,126 1338,126 1339,126 1477,126 1478,126 1479,126 1480,127 1480,127 1481,128 1481,128 1482,130 1482,131 1482,131 1481,132 1481,133 1480,134 1480,134 1479,135 1478,135 1477,135 1477,135 z M 1256,135  L 1118,135 1117,135 1117,135 1116,134 1115,134 1114,133 1114,132 1114,131 1114,131 1114,130 1114,128 1114,128 1115,127 1116,127 1117,126 1117,126 1118,126 1256,126 1257,126 1258,126 1259,127 1260,127 1260,128 1260,128 1261,130 1261,131 1261,131 1260,132 1260,133 1260,134 1259,134 1258,135 1257,135 1256,135 1256,135 z M 1035,135  L 897,135 896,135 896,135 895,134 894,134 893,133 893,132 893,131 893,131 893,130 893,128 893,128 894,127 895,127 896,126 896,126 897,126 1035,126 1037,126 1037,126 1038,127 1039,127 1039,128 1039,128 1040,130 1040,131 1040,131 1039,132 1039,133 1039,134 1038,134 1037,135 1037,135 1035,135 1035,135 z M 815,135  L 677,135 675,135 675,135 674,134 673,134 673,133 673,132 672,131 672,131 672,130 673,128 673,128 673,127 674,127 675,126 675,126 677,126 815,126 816,126 816,126 817,127 818,127 819,128 819,128 819,130 819,131 819,131 819,132 819,133 818,134 817,134 816,135 816,135 815,135 815,135 z M 594,135  L 457,135 456,135 455,135 454,135 454,134 452,134 452,133 452,132 451,131 451,131 451,130 452,129 452,128 452,127 453,127 454,126 455,126 456,126 457,126 594,126 595,126 596,126 597,127 597,127 598,128 598,128 598,130 598,131 598,131 598,132 598,133 597,134 597,134 596,135 595,135 594,135 594,135 z M 381,159  L 377,162 372,166 367,170 362,174 358,179 353,184 350,189 346,194 343,200 339,205 336,211 334,217 332,223 329,229 328,235 326,242 325,248 324,255 324,262 324,269 323,269 323,270 322,271 322,271 321,272 320,273 320,273 318,273 318,273 317,273 316,272 316,271 315,271 314,270 314,269 314,268 314,261 315,254 316,247 317,240 318,233 321,226 323,219 325,213 328,207 332,200 335,194 339,189 343,183 347,178 351,173 356,168 361,163 366,158 371,154 375,151 376,151 377,151 378,150 379,150 380,151 380,151 381,152 382,153 382,153 383,154 383,155 383,156 382,157 382,157 382,158 381,159 381,159 z M 324,269  L 324,273 323,274 323,275 322,276 322,277 321,277 321,277 320,278 319,278 318,278 317,277 316,277 316,277 315,276 314,275 314,274 314,273 314,269 314,267 314,266 315,266 316,265 316,265 317,264 318,264 319,264 320,264 321,264 321,265 322,265 322,266 323,266 323,267 324,269 324,269 z M 324,356  L 324,494 323,495 323,495 322,497 322,497 321,498 321,498 320,498 319,498 318,498 317,498 316,498 316,497 315,497 314,495 314,495 314,494 314,356 314,355 314,354 315,354 316,352 316,352 317,352 318,351 319,351 320,351 321,352 321,352 322,352 322,354 323,354 323,355 324,356 324,356 z M 324,576  L 324,581 324,588 324,595 325,601 326,608 328,614 329,621 332,627 334,633 337,639 340,645 343,650 346,656 350,661 354,666 358,671 363,675 367,680 372,684 377,688 381,691 382,691 382,692 383,693 383,694 383,695 383,695 383,696 382,697 382,698 380,698 380,699 379,699 378,699 378,699 376,699 376,698 371,695 366,691 361,686 356,681 351,676 347,671 343,666 339,660 334,654 331,649 328,642 325,636 323,630 321,623 318,617 317,610 316,602 315,595 314,588 314,581 314,576 314,575 314,575 315,574 316,573 316,572 317,572 318,572 319,572 320,572 321,572 321,572 322,573 322,574 323,575 323,575 324,576 324,576 z" fill-rule="nonzero"/>
        <text class="font4" fill="rgb(0,0,0)" stroke="none" style="dominant-baseline: alphabetic;" x="1475 1520 1557 1612 1646 1663 1700 1717 1769 1806 1843 1877" xml:lang="en" xml:space="preserve" y="216">Domain Model</text>
        <polyline class="pen2" fill="none" points="464,2070 2043,2070 2051,2069 2058,2069 2065,2068 2072,2067 2078,2065 2085,2064 2091,2061 2097,2059 2103,2056 2110,2053 2115,2050 2121,2046 2126,2042 2131,2038 2137,2034 2141,2029 2146,2025 2150,2019 2154,2014 2158,2009 2162,2003 2165,1998 2168,1992 2171,1986 2173,1979 2176,1973 2177,1966 2179,1960 2180,1953 2181,1946 2181,1939 2181,1932 2181,1932 2181,1223 2181,1216 2181,1209 2180,1202 2179,1195 2177,1189 2176,1182 2173,1176 2171,1170 2168,1163 2165,1158 2162,1152 2158,1146 2154,1141 2150,1136 2146,1131 2141,1125 2137,1121 2131,1117 2126,1113 2121,1109 2115,1105 2110,1102 2103,1099 2097,1096 2091,1094 2085,1091 2078,1090 2072,1088 2065,1087 2058,1086 2051,1085 2043,1085 464,1085 457,1085 450,1086 443,1087 436,1088 429,1090 423,1091 417,1094 410,1096 404,1099 398,1102 393,1105 387,1109 382,1113 376,1117 371,1121 366,1125 362,1131 357,1136 353,1141 349,1146 346,1152 343,1158 340,1163 337,1170 334,1176 332,1182 330,1189 329,1195 328,1202 326,1209 326,1216 326,1223 326,1932 326,1939 326,1946 328,1953 329,1960 330,1966 332,1973 334,1979 337,1986 340,1992 343,1998 346,2003 349,2009 353,2014 357,2019 362,2025 366,2029 371,2034 376,2038 382,2042 387,2046 393,2050 398,2053 404,2056 410,2059 417,2061 423,2064 429,2065 436,2067 443,2068 450,2069 457,2069 464,2070 464,2070"/>
        <text class="font1" fill="rgb(0,0,0)" stroke="none" style="dominant-baseline: alphabetic;" x="1026 1070 1100" xml:lang="en" xml:space="preserve" y="1171">Use</text>
        <text class="font1" fill="rgb(0,0,0)" stroke="none" style="dominant-baseline: alphabetic;" x="1134" xml:lang="en" xml:space="preserve" y="1171">-</text>
        <text class="font1" fill="rgb(0,0,0)" stroke="none" style="dominant-baseline: alphabetic;" x="1155 1199 1233 1264 1298 1315 1366 1400 1434 1468" xml:lang="en" xml:space="preserve" y="1171">Case Model</text>
        <polyline class="pen2" fill="none" points="460,3348 2913,3348 2920,3348 2927,3348 2934,3347 2941,3345 2947,3344 2954,3342 2961,3340 2967,3337 2973,3334 2979,3332 2985,3328 2990,3325 2996,3321 3001,3317 3006,3313 3011,3308 3015,3303 3020,3298 3024,3293 3028,3287 3031,3282 3035,3276 3038,3270 3041,3264 3043,3258 3045,3251 3047,3245 3049,3238 3050,3232 3050,3225 3051,3217 3051,3210 3051,3210 3051,2311 3051,2304 3050,2297 3050,2290 3049,2283 3047,2277 3045,2270 3043,2263 3041,2257 3038,2251 3035,2245 3031,2239 3028,2234 3024,2228 3020,2223 3015,2218 3011,2214 3006,2209 3001,2204 2996,2200 2990,2197 2985,2193 2979,2189 2973,2187 2967,2184 2961,2181 2954,2179 2947,2177 2941,2176 2934,2174 2927,2174 2920,2173 2913,2173 460,2173 453,2173 446,2174 439,2174 432,2176 426,2177 419,2179 413,2181 406,2184 401,2187 394,2189 389,2193 383,2197 378,2200 372,2204 367,2209 363,2214 358,2218 354,2223 349,2228 346,2234 343,2239 339,2245 336,2251 333,2257 330,2263 329,2270 326,2277 325,2283 324,2290 323,2297 322,2304 322,2311 322,3210 322,3217 323,3225 324,3232 325,3238 326,3245 329,3251 330,3258 333,3264 336,3270 339,3276 343,3282 346,3287 349,3293 354,3298 358,3303 363,3308 367,3313 372,3317 378,3321 383,3325 389,3328 394,3332 401,3334 406,3337 413,3340 419,3342 426,3344 432,3345 439,3347 446,3348 453,3348 460,3348 460,3348"/>
        <text class="font1" fill="rgb(0,0,0)" stroke="none" style="dominant-baseline: alphabetic;" x="1499 1543 1577 1608 1621 1655 1689 1706 1758 1792 1826 1859" xml:lang="en" xml:space="preserve" y="2259">Design Model</text>
        <path class="pen0 brush2" d="M 1010,2456  L 1010,2483 1010,2484 1010,2485 1009,2485 1009,2485 1008,2485 1008,2485 1008,2484 1008,2483 1008,2456 1008,2456 1008,2455 1008,2455 1009,2455 1009,2455 1010,2455 1010,2456 1010,2456 1010,2456 z M 1010,2500  L 1010,2528 1010,2528 1010,2528 1009,2529 1009,2529 1008,2529 1008,2528 1008,2528 1008,2528 1008,2500 1008,2500 1008,2500 1008,2500 1009,2500 1009,2500 1010,2500 1010,2500 1010,2500 1010,2500 z M 1010,2544  L 1010,2572 1010,2572 1010,2572 1009,2572 1009,2573 1008,2572 1008,2572 1008,2572 1008,2572 1008,2544 1008,2544 1008,2544 1008,2543 1009,2543 1009,2543 1010,2544 1010,2544 1010,2544 1010,2544 z M 1010,2589  L 1010,2616 1010,2616 1010,2617 1009,2617 1009,2617 1008,2617 1008,2617 1008,2616 1008,2616 1008,2589 1008,2588 1008,2588 1008,2587 1009,2587 1009,2587 1010,2588 1010,2588 1010,2589 1010,2589 z M 1010,2633  L 1010,2660 1010,2660 1010,2661 1009,2661 1008,2661 1008,2660 1008,2660 1008,2633 1008,2632 1008,2632 1008,2632 1009,2632 1009,2632 1010,2632 1010,2632 1010,2633 1010,2633 z M 1010,2676  L 1010,2704 1010,2705 1010,2705 1009,2705 1009,2705 1008,2705 1008,2705 1008,2705 1008,2704 1008,2676 1008,2676 1008,2676 1008,2676 1009,2676 1009,2676 1010,2676 1010,2676 1010,2676 1010,2676 z M 1010,2721  L 1010,2748 1010,2749 1010,2749 1009,2749 1009,2749 1008,2749 1008,2749 1008,2749 1008,2748 1008,2721 1008,2720 1008,2720 1008,2720 1009,2720 1009,2720 1010,2720 1010,2720 1010,2721 1010,2721 z M 1010,2765  L 1010,2792 1010,2793 1010,2793 1009,2793 1009,2794 1008,2793 1008,2793 1008,2793 1008,2792 1008,2765 1008,2764 1008,2764 1008,2764 1009,2764 1009,2764 1010,2764 1010,2764 1010,2765 1010,2765 z M 1010,2809  L 1010,2837 1010,2837 1010,2837 1009,2837 1009,2837 1008,2837 1008,2837 1008,2837 1008,2837 1008,2809 1008,2808 1008,2808 1008,2808 1009,2808 1009,2808 1010,2808 1010,2808 1010,2809 1010,2809 z M 1010,2853  L 1010,2881 1010,2881 1010,2881 1009,2881 1008,2881 1008,2881 1008,2881 1008,2853 1008,2853 1008,2852 1008,2852 1009,2852 1009,2852 1010,2852 1010,2853 1010,2853 1010,2853 z M 1010,2897  L 1010,2924 1010,2925 1010,2926 1009,2926 1009,2926 1008,2926 1008,2926 1008,2925 1008,2924 1008,2897 1008,2897 1008,2896 1008,2896 1009,2896 1009,2896 1010,2896 1010,2897 1010,2897 1010,2897 z M 1010,2941  L 1010,2969 1010,2969 1010,2969 1009,2970 1009,2970 1008,2970 1008,2969 1008,2969 1008,2969 1008,2941 1008,2941 1008,2941 1008,2941 1009,2941 1009,2941 1010,2941 1010,2941 1010,2941 1010,2941 z M 1010,2985  L 1010,3013 1010,3013 1010,3013 1009,3013 1009,3014 1008,3013 1008,3013 1008,3013 1008,3013 1008,2985 1008,2985 1008,2985 1008,2984 1009,2984 1009,2984 1010,2985 1010,2985 1010,2985 1010,2985 z M 1010,3030  L 1010,3057 1010,3057 1010,3058 1009,3058 1009,3058 1008,3058 1008,3058 1008,3057 1008,3057 1008,3030 1008,3029 1008,3029 1008,3028 1009,3028 1009,3028 1010,3029 1010,3029 1010,3030 1010,3030 z M 1010,3074  L 1010,3101 1010,3101 1010,3102 1009,3102 1008,3102 1008,3101 1008,3101 1008,3074 1008,3073 1008,3073 1008,3073 1009,3073 1009,3073 1010,3073 1010,3073 1010,3074 1010,3074 z M 1010,3117  L 1010,3145 1010,3146 1010,3146 1009,3146 1009,3146 1008,3146 1008,3146 1008,3146 1008,3145 1008,3117 1008,3117 1008,3117 1008,3117 1009,3117 1009,3117 1010,3117 1010,3117 1010,3117 1010,3117 z M 1010,3162  L 1010,3189 1010,3190 1010,3190 1009,3190 1009,3190 1008,3190 1008,3190 1008,3190 1008,3189 1008,3162 1008,3161 1008,3161 1008,3161 1009,3161 1009,3161 1010,3161 1010,3161 1010,3162 1010,3162 z M 1010,3206  L 1010,3214 1010,3214 1010,3215 1009,3215 1009,3215 1008,3215 1008,3215 1008,3214 1008,3214 1008,3206 1008,3205 1008,3205 1008,3205 1009,3205 1009,3205 1010,3205 1010,3205 1010,3206 1010,3206 z" fill-rule="nonzero"/>
        <polygon class="pen2 brush1" points="836,2446 1181,2446 1181,2328 836,2328 836,2446"/>
        <text class="font1" fill="rgb(0,0,0)" stroke="none" style="dominant-baseline: alphabetic;" x="877 895" xml:lang="en" xml:space="preserve" y="2405">: </text>
        <text class="font1" fill="rgb(0,0,0)" stroke="none" style="dominant-baseline: alphabetic;" x="911 956 989 1023 1037 1068 1085 1119" xml:lang="en" xml:space="preserve" y="2405">Register</text>
        <polyline class="pen2" fill="none" points="360,2669 970,2669"/>
        <polygon class="pen1 brush2" points="376,2669 376,2667 375,2665 375,2664 375,2663 373,2660 371,2658 369,2656 366,2655 365,2654 363,2653 362,2653 360,2653 359,2653 357,2653 355,2654 354,2655 351,2656 349,2658 347,2660 345,2663 345,2664 344,2665 344,2667 344,2669 344,2669 344,2671 344,2672 345,2674 345,2675 347,2678 349,2680 351,2682 354,2684 355,2684 357,2684 359,2685 360,2685 362,2685 363,2684 365,2684 366,2684 369,2682 371,2680 373,2678 375,2675 375,2674 375,2672 376,2671 376,2669"/>
        <polygon class="pen1 brush2" points="965,2648 1007,2669 965,2690 965,2648"/>
        <text class="font1" fill="rgb(0,0,0)" stroke="none" style="dominant-baseline: alphabetic;" x="544 578 612 629 663 684 701 718 752" xml:lang="en" xml:space="preserve" y="2580">enterItem</text>
        <text class="font1" fill="rgb(0,0,0)" stroke="none" style="dominant-baseline: alphabetic;" x="440" xml:lang="en" xml:space="preserve" y="2653">(</text>
        <text class="font1" fill="rgb(0,0,0)" stroke="none" style="dominant-baseline: alphabetic;" x="460 474 491 525 576 593" xml:lang="en" xml:space="preserve" y="2653">itemID</text>
        <text class="font1" fill="rgb(0,0,0)" stroke="none" style="dominant-baseline: alphabetic;" x="638 655" xml:lang="en" xml:space="preserve" y="2653">, </text>
        <text class="font1" fill="rgb(0,0,0)" stroke="none" style="dominant-baseline: alphabetic;" x="671 705 739 773 807 824 838 855" xml:lang="en" xml:space="preserve" y="2653">quantity</text>
        <text class="font1" fill="rgb(0,0,0)" stroke="none" style="dominant-baseline: alphabetic;" x="886" xml:lang="en" xml:space="preserve" y="2653">)</text>
        <polygon class="pen2 brush1" points="1872,2446 2458,2446 2458,2328 1872,2328 1872,2446"/>
        <text class="font1" fill="rgb(0,0,0)" stroke="none" style="dominant-baseline: alphabetic;" x="1936 1953" xml:lang="en" xml:space="preserve" y="2405">: </text>
        <text class="font1" fill="rgb(0,0,0)" stroke="none" style="dominant-baseline: alphabetic;" x="1970 2011 2031 2065 2099 2133 2164 2181 2225 2259 2276 2310 2324 2358" xml:lang="en" xml:space="preserve" y="2405">ProductCatalog</text>
        <path class="pen0 brush2" d="M 2148,2456  L 2148,2483 2148,2484 2148,2485 2148,2485 2148,2485 2147,2485 2146,2485 2146,2484 2146,2483 2146,2456 2146,2456 2146,2455 2147,2455 2148,2455 2148,2455 2148,2455 2148,2456 2148,2456 2148,2456 z M 2148,2500  L 2148,2528 2148,2528 2148,2528 2148,2529 2148,2529 2147,2529 2146,2528 2146,2528 2146,2528 2146,2500 2146,2500 2146,2500 2147,2500 2148,2500 2148,2500 2148,2500 2148,2500 2148,2500 2148,2500 z M 2148,2544  L 2148,2572 2148,2572 2148,2572 2148,2572 2148,2573 2147,2572 2146,2572 2146,2572 2146,2572 2146,2544 2146,2544 2146,2544 2147,2543 2148,2543 2148,2543 2148,2544 2148,2544 2148,2544 2148,2544 z M 2148,2589  L 2148,2616 2148,2616 2148,2617 2148,2617 2148,2617 2147,2617 2146,2617 2146,2616 2146,2616 2146,2589 2146,2588 2146,2588 2147,2587 2148,2587 2148,2587 2148,2588 2148,2588 2148,2589 2148,2589 z M 2148,2633  L 2148,2660 2148,2660 2148,2661 2148,2661 2146,2661 2146,2660 2146,2660 2146,2633 2146,2632 2146,2632 2147,2632 2148,2632 2148,2632 2148,2632 2148,2632 2148,2633 2148,2633 z M 2148,2676  L 2148,2704 2148,2705 2148,2705 2148,2705 2148,2705 2147,2705 2146,2705 2146,2705 2146,2704 2146,2676 2146,2676 2146,2676 2147,2676 2148,2676 2148,2676 2148,2676 2148,2676 2148,2676 2148,2676 z M 2148,2721  L 2148,2748 2148,2749 2148,2749 2148,2749 2148,2749 2147,2749 2146,2749 2146,2749 2146,2748 2146,2721 2146,2720 2146,2720 2147,2720 2148,2720 2148,2720 2148,2720 2148,2720 2148,2721 2148,2721 z M 2148,2765  L 2148,2792 2148,2793 2148,2793 2148,2793 2148,2794 2147,2793 2146,2793 2146,2793 2146,2792 2146,2765 2146,2764 2146,2764 2147,2764 2148,2764 2148,2764 2148,2764 2148,2764 2148,2765 2148,2765 z M 2148,2809  L 2148,2837 2148,2837 2148,2837 2148,2837 2148,2837 2147,2837 2146,2837 2146,2837 2146,2837 2146,2809 2146,2808 2146,2808 2147,2808 2148,2808 2148,2808 2148,2808 2148,2808 2148,2809 2148,2809 z M 2148,2853  L 2148,2881 2148,2881 2148,2881 2148,2881 2146,2881 2146,2881 2146,2881 2146,2853 2146,2853 2146,2852 2147,2852 2148,2852 2148,2852 2148,2852 2148,2853 2148,2853 2148,2853 z M 2148,2897  L 2148,2924 2148,2925 2148,2926 2148,2926 2148,2926 2147,2926 2146,2926 2146,2925 2146,2924 2146,2897 2146,2897 2146,2896 2147,2896 2148,2896 2148,2896 2148,2896 2148,2897 2148,2897 2148,2897 z M 2148,2941  L 2148,2969 2148,2969 2148,2969 2148,2970 2148,2970 2147,2970 2146,2969 2146,2969 2146,2969 2146,2941 2146,2941 2146,2941 2147,2941 2148,2941 2148,2941 2148,2941 2148,2941 2148,2941 2148,2941 z M 2148,2985  L 2148,3013 2148,3013 2148,3013 2148,3013 2148,3014 2147,3013 2146,3013 2146,3013 2146,3013 2146,2985 2146,2985 2146,2985 2147,2984 2148,2984 2148,2984 2148,2985 2148,2985 2148,2985 2148,2985 z M 2148,3030  L 2148,3057 2148,3057 2148,3058 2148,3058 2148,3058 2147,3058 2146,3058 2146,3057 2146,3057 2146,3030 2146,3029 2146,3029 2147,3028 2148,3028 2148,3028 2148,3029 2148,3029 2148,3030 2148,3030 z M 2148,3074  L 2148,3101 2148,3101 2148,3102 2148,3102 2146,3102 2146,3101 2146,3101 2146,3074 2146,3073 2146,3073 2147,3073 2148,3073 2148,3073 2148,3073 2148,3073 2148,3074 2148,3074 z M 2148,3117  L 2148,3145 2148,3146 2148,3146 2148,3146 2148,3146 2147,3146 2146,3146 2146,3146 2146,3145 2146,3117 2146,3117 2146,3117 2147,3117 2148,3117 2148,3117 2148,3117 2148,3117 2148,3117 2148,3117 z M 2148,3162  L 2148,3189 2148,3190 2148,3190 2148,3190 2148,3190 2147,3190 2146,3190 2146,3190 2146,3189 2146,3162 2146,3161 2146,3161 2147,3161 2148,3161 2148,3161 2148,3161 2148,3161 2148,3162 2148,3162 z M 2148,3206  L 2148,3214 2148,3214 2148,3215 2148,3215 2148,3215 2147,3215 2146,3215 2146,3214 2146,3214 2146,3206 2146,3205 2146,3205 2147,3205 2148,3205 2148,3205 2148,3205 2148,3205 2148,3206 2148,3206 z" fill-rule="nonzero"/>
        <polyline class="pen2" fill="none" points="1009,2800 2102,2800"/>
        <polygon class="pen1 brush2" points="2096,2780 2139,2800 2096,2822 2096,2780"/>
        <text class="font1" fill="rgb(0,0,0)" stroke="none" style="dominant-baseline: alphabetic;" x="1129 1160 1194 1227 1258" xml:lang="en" xml:space="preserve" y="2787">spec </text>
        <text class="font1" fill="rgb(0,0,0)" stroke="none" style="dominant-baseline: alphabetic;" x="1276 1311" xml:lang="en" xml:space="preserve" y="2787">= </text>
        <text class="font1" fill="rgb(0,0,0)" stroke="none" style="dominant-baseline: alphabetic;" x="1329 1363 1397 1414 1455 1475 1509 1543 1577 1608 1625 1666 1700 1733" xml:lang="en" xml:space="preserve" y="2787">getProductSpec</text>
        <text class="font1" fill="rgb(0,0,0)" stroke="none" style="dominant-baseline: alphabetic;" x="1765 1786" xml:lang="en" xml:space="preserve" y="2787">( </text>
        <text class="font1" fill="rgb(0,0,0)" stroke="none" style="dominant-baseline: alphabetic;" x="1803 1816 1834 1867 1919 1936 1980" xml:lang="en" xml:space="preserve" y="2787">itemID </text>
        <text class="font1" fill="rgb(0,0,0)" stroke="none" style="dominant-baseline: alphabetic;" x="1996" xml:lang="en" xml:space="preserve" y="2787">)</text>
        <polyline class="pen2" fill="none" points="1009,2938 2766,2938"/>
        <polygon class="pen1 brush2" points="2760,2918 2803,2938 2760,2959 2760,2918"/>
        <text class="font1" fill="rgb(0,0,0)" stroke="none" style="dominant-baseline: alphabetic;" x="1267 1301 1335 1369 1403 1417 1451 1485 1502 1519 1553" xml:lang="en" xml:space="preserve" y="2924">addLineItem</text>
        <text class="font1" fill="rgb(0,0,0)" stroke="none" style="dominant-baseline: alphabetic;" x="1605 1625" xml:lang="en" xml:space="preserve" y="2924">( </text>
        <text class="font1" fill="rgb(0,0,0)" stroke="none" style="dominant-baseline: alphabetic;" x="1642 1673 1706 1740" xml:lang="en" xml:space="preserve" y="2924">spec</text>
        <text class="font1" fill="rgb(0,0,0)" stroke="none" style="dominant-baseline: alphabetic;" x="1771 1789" xml:lang="en" xml:space="preserve" y="2924">, </text>
        <text class="font1" fill="rgb(0,0,0)" stroke="none" style="dominant-baseline: alphabetic;" x="1806 1840 1874 1908 1942 1959 1973 1990 2020" xml:lang="en" xml:space="preserve" y="2924">quantity </text>
        <text class="font1" fill="rgb(0,0,0)" stroke="none" style="dominant-baseline: alphabetic;" x="2038" xml:lang="en" xml:space="preserve" y="2924">)</text>
        <polygon class="pen2 brush1" points="2639,2446 2959,2446 2959,2328 2639,2328 2639,2446"/>
        <text class="font1" fill="rgb(0,0,0)" stroke="none" style="dominant-baseline: alphabetic;" x="2720 2737" xml:lang="en" xml:space="preserve" y="2405">: </text>
        <text class="font1" fill="rgb(0,0,0)" stroke="none" style="dominant-baseline: alphabetic;" x="2755 2796 2829 2843" xml:lang="en" xml:space="preserve" y="2405">Sale</text>
        <path class="pen0 brush2" d="M 2804,2456  L 2804,2483 2804,2484 2804,2485 2803,2485 2803,2485 2802,2485 2802,2485 2802,2484 2802,2483 2802,2456 2802,2456 2802,2455 2802,2455 2803,2455 2803,2455 2804,2455 2804,2456 2804,2456 2804,2456 z M 2804,2500  L 2804,2528 2804,2528 2804,2528 2803,2529 2803,2529 2802,2529 2802,2528 2802,2528 2802,2528 2802,2500 2802,2500 2802,2500 2802,2500 2803,2500 2803,2500 2804,2500 2804,2500 2804,2500 2804,2500 z M 2804,2544  L 2804,2572 2804,2572 2804,2572 2803,2572 2803,2573 2802,2572 2802,2572 2802,2572 2802,2572 2802,2544 2802,2544 2802,2544 2802,2543 2803,2543 2803,2543 2804,2544 2804,2544 2804,2544 2804,2544 z M 2804,2589  L 2804,2616 2804,2616 2804,2617 2803,2617 2803,2617 2802,2617 2802,2617 2802,2616 2802,2616 2802,2589 2802,2588 2802,2588 2802,2587 2803,2587 2803,2587 2804,2588 2804,2588 2804,2589 2804,2589 z M 2804,2633  L 2804,2660 2804,2660 2804,2661 2803,2661 2802,2661 2802,2660 2802,2660 2802,2633 2802,2632 2802,2632 2802,2632 2803,2632 2803,2632 2804,2632 2804,2632 2804,2633 2804,2633 z M 2804,2676  L 2804,2704 2804,2705 2804,2705 2803,2705 2803,2705 2802,2705 2802,2705 2802,2705 2802,2704 2802,2676 2802,2676 2802,2676 2802,2676 2803,2676 2803,2676 2804,2676 2804,2676 2804,2676 2804,2676 z M 2804,2721  L 2804,2748 2804,2749 2804,2749 2803,2749 2803,2749 2802,2749 2802,2749 2802,2749 2802,2748 2802,2721 2802,2720 2802,2720 2802,2720 2803,2720 2803,2720 2804,2720 2804,2720 2804,2721 2804,2721 z M 2804,2765  L 2804,2792 2804,2793 2804,2793 2803,2793 2803,2794 2802,2793 2802,2793 2802,2793 2802,2792 2802,2765 2802,2764 2802,2764 2802,2764 2803,2764 2803,2764 2804,2764 2804,2764 2804,2765 2804,2765 z M 2804,2809  L 2804,2837 2804,2837 2804,2837 2803,2837 2803,2837 2802,2837 2802,2837 2802,2837 2802,2837 2802,2809 2802,2808 2802,2808 2802,2808 2803,2808 2803,2808 2804,2808 2804,2808 2804,2809 2804,2809 z M 2804,2853  L 2804,2881 2804,2881 2804,2881 2803,2881 2802,2881 2802,2881 2802,2881 2802,2853 2802,2853 2802,2852 2802,2852 2803,2852 2803,2852 2804,2852 2804,2853 2804,2853 2804,2853 z M 2804,2897  L 2804,2924 2804,2925 2804,2926 2803,2926 2803,2926 2802,2926 2802,2926 2802,2925 2802,2924 2802,2897 2802,2897 2802,2896 2802,2896 2803,2896 2803,2896 2804,2896 2804,2897 2804,2897 2804,2897 z M 2804,2941  L 2804,2969 2804,2969 2804,2969 2803,2970 2803,2970 2802,2970 2802,2969 2802,2969 2802,2969 2802,2941 2802,2941 2802,2941 2802,2941 2803,2941 2803,2941 2804,2941 2804,2941 2804,2941 2804,2941 z M 2804,2985  L 2804,3013 2804,3013 2804,3013 2803,3013 2803,3014 2802,3013 2802,3013 2802,3013 2802,3013 2802,2985 2802,2985 2802,2985 2802,2984 2803,2984 2803,2984 2804,2985 2804,2985 2804,2985 2804,2985 z M 2804,3030  L 2804,3057 2804,3057 2804,3058 2803,3058 2803,3058 2802,3058 2802,3058 2802,3057 2802,3057 2802,3030 2802,3029 2802,3029 2802,3028 2803,3028 2803,3028 2804,3029 2804,3029 2804,3030 2804,3030 z M 2804,3074  L 2804,3101 2804,3101 2804,3102 2803,3102 2802,3102 2802,3101 2802,3101 2802,3074 2802,3073 2802,3073 2802,3073 2803,3073 2803,3073 2804,3073 2804,3073 2804,3074 2804,3074 z M 2804,3117  L 2804,3145 2804,3146 2804,3146 2803,3146 2803,3146 2802,3146 2802,3146 2802,3146 2802,3145 2802,3117 2802,3117 2802,3117 2802,3117 2803,3117 2803,3117 2804,3117 2804,3117 2804,3117 2804,3117 z M 2804,3162  L 2804,3189 2804,3190 2804,3190 2803,3190 2803,3190 2802,3190 2802,3190 2802,3190 2802,3189 2802,3162 2802,3161 2802,3161 2802,3161 2803,3161 2803,3161 2804,3161 2804,3161 2804,3162 2804,3162 z M 2804,3206  L 2804,3214 2804,3214 2804,3215 2803,3215 2803,3215 2802,3215 2802,3215 2802,3214 2802,3214 2802,3206 2802,3205 2802,3205 2802,3205 2803,3205 2803,3205 2804,3205 2804,3205 2804,3206 2804,3206 z" fill-rule="nonzero"/>
        <polyline class="pen2" fill="none" points="1009,3076 2041,3076"/>
        <polygon class="pen1 brush2" points="2036,3055 2079,3076 2036,3097 2036,3055"/>
        <text class="font1" fill="rgb(0,0,0)" stroke="none" style="dominant-baseline: alphabetic;" x="1356 1373 1390 1407 1425" xml:lang="en" xml:space="preserve" y="3062">. . .</text>
        <polyline class="pen2" fill="none" points="3051,657 3062,723 3073,790 3084,856 3093,921 3101,987 3110,1052 3117,1117 3124,1180 3130,1243 3135,1305 3140,1367 3144,1427 3147,1486 3150,1544 3153,1601 3154,1657 3154,1710 3154,1737 3154,1763 3154,1789 3154,1814 3153,1839 3153,1864 3151,1888 3150,1911 3149,1934 3148,1957 3146,1979 3145,2001 3142,2022 3140,2043 3138,2063 3135,2083 3133,2102 3130,2121 3127,2138 3124,2156 3120,2173 3117,2189 3113,2205 3110,2220 3105,2234 3101,2248 3097,2261 3092,2273 3087,2285 3082,2296"/>
        <polygon class="pen1 brush2" points="3103,2303 3051,2346 3068,2281 3103,2303"/>
        <text class="font5" fill="rgb(0,0,0)" stroke="none" style="dominant-baseline: alphabetic;" x="3185 3216 3250 3284 3314 3348 3382 3399 3433 3467 3481" xml:lang="en" xml:space="preserve" y="1288">conceptual </text>
        <text class="font5" fill="rgb(0,0,0)" stroke="none" style="dominant-baseline: alphabetic;" x="3185 3216 3230 3264 3294 3325 3358 3389 3406 3420 3454" xml:lang="en" xml:space="preserve" y="1361">classes in </text>
        <text class="font5" fill="rgb(0,0,0)" stroke="none" style="dominant-baseline: alphabetic;" x="3185 3203 3237 3271" xml:lang="en" xml:space="preserve" y="1435">the </text>
        <text class="font5" fill="rgb(0,0,0)" stroke="none" style="dominant-baseline: alphabetic;" x="3185 3219 3253 3304 3338 3352 3386" xml:lang="en" xml:space="preserve" y="1508">domain </text>
        <text class="font5" fill="rgb(0,0,0)" stroke="none" style="dominant-baseline: alphabetic;" x="3185 3199 3233 3264 3298 3311 3332 3366 3383 3400 3434 3468" xml:lang="en" xml:space="preserve" y="1582">inspire the </text>
        <text class="font5" fill="rgb(0,0,0)" stroke="none" style="dominant-baseline: alphabetic;" x="3185 3219 3253 3304 3338 3369 3386 3420 3437" xml:lang="en" xml:space="preserve" y="1655">names of </text>
        <text class="font5" fill="rgb(0,0,0)" stroke="none" style="dominant-baseline: alphabetic;" x="3185 3216 3250 3301 3335" xml:lang="en" xml:space="preserve" y="1729">some </text>
        <text class="font5" fill="rgb(0,0,0)" stroke="none" style="dominant-baseline: alphabetic;" x="3185 3216 3250 3267 3284 3329 3363 3383 3417" xml:lang="en" xml:space="preserve" y="1802">software </text>
        <text class="font5" fill="rgb(0,0,0)" stroke="none" style="dominant-baseline: alphabetic;" x="3185 3216 3230 3264 3294 3325 3358 3389 3406 3420 3454" xml:lang="en" xml:space="preserve" y="1876">classes in </text>
        <text class="font5" fill="rgb(0,0,0)" stroke="none" style="dominant-baseline: alphabetic;" x="3185 3203 3237 3271 3288 3322 3356 3386 3400 3434 3468" xml:lang="en" xml:space="preserve" y="1949">the design </text>
        <text class="font1" fill="rgb(0,0,0)" stroke="none" style="dominant-baseline: alphabetic;" x="701 732 766 800 830 864 898 915 949 983 997 1014 1045 1058 1092 1123 1153 1187 1218" xml:lang="en" xml:space="preserve" y="874">conceptual classes </text>
        <text class="font1" fill="rgb(0,0,0)" stroke="none" style="dominant-baseline: alphabetic;" x="1236" xml:lang="en" xml:space="preserve" y="874">–</text>
        <text class="font1" fill="rgb(0,0,0)" stroke="none" style="dominant-baseline: alphabetic;" x="1271" xml:lang="en" xml:space="preserve" y="874"> </text>
        <text class="font1" fill="rgb(0,0,0)" stroke="none" style="dominant-baseline: alphabetic;" x="701 719 753 773 824" xml:lang="en" xml:space="preserve" y="948">terms</text>
        <text class="font1" fill="rgb(0,0,0)" stroke="none" style="dominant-baseline: alphabetic;" x="854 872" xml:lang="en" xml:space="preserve" y="948">, </text>
        <text class="font1" fill="rgb(0,0,0)" stroke="none" style="dominant-baseline: alphabetic;" x="889 919 953 987 1018 1052 1085 1103 1133" xml:lang="en" xml:space="preserve" y="948">concepts </text>
        <text class="font1" fill="rgb(0,0,0)" stroke="none" style="dominant-baseline: alphabetic;" x="701 735 753 770 790 804 838 872 889 923" xml:lang="en" xml:space="preserve" y="1021">attributes</text>
        <text class="font1" fill="rgb(0,0,0)" stroke="none" style="dominant-baseline: alphabetic;" x="953 970" xml:lang="en" xml:space="preserve" y="1021">, </text>
        <text class="font1" fill="rgb(0,0,0)" stroke="none" style="dominant-baseline: alphabetic;" x="988 1022 1052 1083 1117 1147 1161 1195 1212 1226 1260 1294" xml:lang="en" xml:space="preserve" y="1021">associations</text>
        <polygon class="pen1 brush0" points="2413,1209 2413,1605 2931,1605 2931,1209 2413,1209"/>
        <polygon class="pen2 brush1" points="2413,1605 2931,1605 2931,1209 2413,1209 2413,1605"/>
        <text class="font1" fill="rgb(0,0,0)" stroke="none" style="dominant-baseline: alphabetic;" x="2444 2488 2522 2552 2586 2600 2634" xml:lang="en" xml:space="preserve" y="1351">Cashier</text>
        <text class="font1" fill="rgb(0,0,0)" stroke="none" style="dominant-baseline: alphabetic;" x="2655 2672" xml:lang="en" xml:space="preserve" y="1351">: </text>
        <text class="font1" fill="rgb(0,0,0)" stroke="none" style="dominant-baseline: alphabetic;" x="2689" xml:lang="en" xml:space="preserve" y="1351">…</text>
        <text class="font1" fill="rgb(0,0,0)" stroke="none" style="dominant-baseline: alphabetic;" x="2444 2461 2478 2512 2563 2580 2598" xml:lang="en" xml:space="preserve" y="1425">Item ID</text>
        <text class="font1" fill="rgb(0,0,0)" stroke="none" style="dominant-baseline: alphabetic;" x="2641 2658" xml:lang="en" xml:space="preserve" y="1425">: </text>
        <text class="font1" fill="rgb(0,0,0)" stroke="none" style="dominant-baseline: alphabetic;" x="2675" xml:lang="en" xml:space="preserve" y="1425">…</text>
        <text class="font1" fill="rgb(0,0,0)" stroke="none" style="dominant-baseline: alphabetic;" x="2444 2461 2478" xml:lang="en" xml:space="preserve" y="1498">...</text>
        <text class="font1" fill="rgb(0,0,0)" stroke="none" style="dominant-baseline: alphabetic;" x="2545 2593 2606 2640 2671 2701 2735 2756" xml:lang="en" xml:space="preserve" y="1699">Glossary</text>
        <polyline class="pen2" fill="none" points="2534,731 2542,760 2550,788 2558,816 2566,843 2573,871 2580,898 2584,911 2587,924 2590,938 2594,950 2597,963 2600,975 2603,988 2606,1000 2609,1012 2611,1023 2614,1035 2616,1046 2618,1056 2621,1066 2622,1077 2625,1086 2626,1095 2628,1105 2630,1113 2631,1122"/>
        <polygon class="pen1 brush2" points="2652,1114 2637,1179 2610,1118 2652,1114"/>
        <text class="font1" fill="rgb(0,0,0)" stroke="none" style="dominant-baseline: alphabetic;" x="2633 2667 2681 2715 2749 2783 2804 2838 2855 2869 2903 2936 2954 2988 3005" xml:lang="en" xml:space="preserve" y="846">elaboration of </text>
        <text class="font1" fill="rgb(0,0,0)" stroke="none" style="dominant-baseline: alphabetic;" x="2633 2664 2698 2749 2783 2800 2817 2851 2872 2923 2954 2971 2985 3019" xml:lang="en" xml:space="preserve" y="920">some terms in </text>
        <text class="font1" fill="rgb(0,0,0)" stroke="none" style="dominant-baseline: alphabetic;" x="2633 2651 2685 2719 2736 2770 2804 2855 2889 2903 2936" xml:lang="en" xml:space="preserve" y="993">the domain </text>
        <text class="font1" fill="rgb(0,0,0)" stroke="none" style="dominant-baseline: alphabetic;" x="2633 2685 2719 2752 2786" xml:lang="en" xml:space="preserve" y="1067">model</text>
        <text class="font4" fill="rgb(0,0,0)" stroke="none" style="dominant-baseline: alphabetic;" x="34 78 112 149 187 204 228" xml:lang="en" xml:space="preserve" y="1540">Require</text>
        <text class="font4" fill="rgb(0,0,0)" stroke="none" style="dominant-baseline: alphabetic;" x="262" xml:lang="en" xml:space="preserve" y="1540">-</text>
        <text class="font4" fill="rgb(0,0,0)" stroke="none" style="dominant-baseline: alphabetic;" x="102 156 190 228 248" xml:lang="en" xml:space="preserve" y="1613">ments</text>
        <text class="font4" fill="rgb(0,0,0)" stroke="none" style="dominant-baseline: alphabetic;" x="14 58 95 129 146 184 218 252 286" xml:lang="en" xml:space="preserve" y="397">Business </text>
        <text class="font4" fill="rgb(0,0,0)" stroke="none" style="dominant-baseline: alphabetic;" x="17 68 106 143 177 194 211 249" xml:lang="en" xml:space="preserve" y="471">Modeling</text>
        <text class="font4" fill="rgb(0,0,0)" stroke="none" style="dominant-baseline: alphabetic;" x="78 122 156 190 207 245" xml:lang="en" xml:space="preserve" y="2708">Design</text>
        <text class="font4" fill="rgb(0,0,0)" stroke="none" style="dominant-baseline: alphabetic;" x="1214 1255 1289 1344 1381 1398 1432 1449 1494 1535 1552 1596 1620 1641 1658 1679 1713 1747 1767 1785 1829 1863 1880 1914 1935 1952 1989 2027 2061 2098 2115 2153" xml:lang="en" xml:space="preserve" y="78">Sample UP Artifact Relationships</text>
    </g>
    <g/>
</svg>
