<?xml version="1.0" encoding="UTF-8" standalone="no"?><svg xmlns="http://www.w3.org/2000/svg" xmlns:xlink="http://www.w3.org/1999/xlink" contentScriptType="application/ecmascript" contentStyleType="text/css" height="316px" preserveAspectRatio="none" style="width:412px;height:316px;" version="1.1" viewBox="0 0 412 316" width="412px" zoomAndPan="magnify"><defs/><g><!--MD5=[16640f6e1912083e427fb21a04882258]
class waterfall--><polygon fill="#FFFFFF" points="334.5,140,334.5,140.0701,338.1,139.8619,341.7,140.0644,345.3,140.1332,348.9,139.7622,352.5,140,352.4223,140,352.0735,149.7168,352.1165,159.4336,352.4318,169.1504,351.8086,178.8672,352.5,188.584,352.5,188.7685,348.9,188.3739,345.3,188.5181,341.7,188.728,338.1,188.5554,334.5,188.584,334.5682,188.584,334.4681,178.8672,334.6785,169.1504,334.7391,159.4336,335.0857,149.7168,334.5,140" style="stroke: #FFFFFF; stroke-width: 1.5;"/><text fill="#000000" font-family="sage sans" font-size="30" lengthAdjust="spacingAndGlyphs" textLength="12" x="337.5" y="176.1426">]</text><!--MD5=[a579e73932ed0dc046258936e4452539]
class Ncp--><polygon fill="#FFFFFF" points="297.5,264.5,297.5,264.7102,307.9,264.0857,318.3,264.6933,328.7,264.8997,339.1,263.7866,349.5,264.4223,359.9,264.0735,370.3,264.1165,380.7,264.4318,391.1,263.8086,401.5,264.5,401.6845,264.5,401.2899,269.5867,401.4341,274.6734,401.644,279.7602,401.4714,284.8469,401.5,289.9336,401.5,290.0018,391.1,289.9016,380.7,290.1121,370.3,290.1727,359.9,290.5193,349.5,290.6046,339.1,290.6129,328.7,290.1882,318.3,290.3972,307.9,290.6358,297.5,289.9336,297.2596,289.9336,297.7262,284.8469,297.4012,279.7602,297.6779,274.6734,297.335,269.5867,297.5,264.5" style="stroke: #FFFFFF; stroke-width: 1.5;"/><text fill="#000000" font-family="sage sans" font-size="12" lengthAdjust="spacingAndGlyphs" textLength="98" x="300.5" y="281.957">« Cascade pure »</text><!--MD5=[86fa7b8282302f2c97f996263509da10]
class bduf--><polygon fill="#FFFFFF" points="279,152,279,152.0701,281.6,151.8619,284.2,152.0644,286.8,152.1332,289.4,151.7622,292,152,291.9741,152,291.8578,157.0867,291.8722,162.1734,291.9773,167.2602,291.7695,172.3469,292,177.4336,292,177.6181,289.4,177.2235,286.8,177.3677,284.2,177.5776,281.6,177.405,279,177.4336,279.0227,177.4336,278.9894,172.3469,279.0595,167.2602,279.0797,162.1734,279.1952,157.0867,279,152" style="stroke: #FFFFFF; stroke-width: 1.5;"/><text fill="#000000" font-family="sage sans" font-size="12" font-weight="bold" lengthAdjust="spacingAndGlyphs" textLength="7" x="282" y="169.457">+</text><!--MD5=[19f1644113c89f8d38c97b98b7429983]
class Nbduf--><polygon fill="#FFFFFF" points="250.5,8,250.5,8.2102,260.5,7.5857,270.5,8.1933,280.5,8.3997,290.5,7.2866,300.5,7.9223,310.5,7.5735,320.5,8,320.1165,8,320.4318,18.2478,319.8086,28.4955,321.0536,38.7433,319.8697,48.9911,320.3022,59.2388,320.9319,69.4866,320.5,79.7344,320.5,79.6486,310.5,79.8026,300.5,79.7024,290.5,79.9129,280.5,79.9735,270.5,80.3201,260.5,80.4054,250.5,79.7344,251.1793,79.7344,250.7546,69.4866,250.9636,59.2388,251.2022,48.9911,249.7788,38.7433,251.1785,28.4955,250.2035,18.2478,250.5,8" style="stroke: #FFFFFF; stroke-width: 1.5;"/><text fill="#000000" font-family="sage sans" font-size="12" lengthAdjust="spacingAndGlyphs" textLength="64" x="253.5" y="25.457">Beaucoup de</text><text fill="#000000" font-family="sage sans" font-size="12" lengthAdjust="spacingAndGlyphs" textLength="53" x="259" y="40.8906">conception</text><text fill="#000000" font-family="sage sans" font-size="12" lengthAdjust="spacingAndGlyphs" textLength="46" x="262.5" y="56.3242">au début</text><text fill="#000000" font-family="sage sans" font-size="12" lengthAdjust="spacingAndGlyphs" textLength="37" x="267" y="71.7578">(BDUF)</text><!--MD5=[17b3ebdccc4b51567a82ad361dc152ee]
class duf--><polygon fill="#FFFFFF" points="209,152,209,152.0701,211.6,151.8619,214.2,152.0644,216.8,152.1332,219.4,151.7622,222,152,221.9741,152,221.8578,157.0867,221.8722,162.1734,221.9773,167.2602,221.7695,172.3469,222,177.4336,222,177.6181,219.4,177.2235,216.8,177.3677,214.2,177.5776,211.6,177.405,209,177.4336,209.0227,177.4336,208.9894,172.3469,209.0595,167.2602,209.0797,162.1734,209.1952,157.0867,209,152" style="stroke: #FFFFFF; stroke-width: 1.5;"/><text fill="#000000" font-family="sage sans" font-size="12" font-weight="bold" lengthAdjust="spacingAndGlyphs" textLength="7" x="212" y="169.457">+</text><!--MD5=[942d5850efe4ae78d524831e016d5bfc]
class Nduf--><polygon fill="#FFFFFF" points="169,249,169,249.2102,179.3333,248.5857,189.6667,249.1933,200,249.3997,210.3333,248.2866,220.6667,248.9223,231,248.5735,241.3333,248.6165,251.6667,248.9318,262,249,261.3086,249,262.5536,258.3835,261.3697,267.7669,261.8022,277.1504,262.4319,286.5339,261.9142,295.9173,262,305.3008,262,305.369,251.6667,305.2688,241.3333,305.4793,231,305.5399,220.6667,305.8865,210.3333,305.9718,200,305.98,189.6667,305.5554,179.3333,305.7644,169,305.3008,169.7022,305.3008,168.2788,295.9173,169.6785,286.5339,168.7035,277.1504,169.5338,267.7669,168.505,258.3835,169,249" style="stroke: #FFFFFF; stroke-width: 1.5;"/><text fill="#000000" font-family="sage sans" font-size="12" lengthAdjust="spacingAndGlyphs" textLength="87" x="172" y="266.457">Un peu de design</text><text fill="#000000" font-family="sage sans" font-size="12" lengthAdjust="spacingAndGlyphs" textLength="46" x="192.5" y="281.8906">au début</text><text fill="#000000" font-family="sage sans" font-size="12" lengthAdjust="spacingAndGlyphs" textLength="61" x="185" y="297.3242">(Some DUF)</text><!--MD5=[0c6e9717770683435cef62d310f4741c]
class agile--><polygon fill="#FFFFFF" points="120,152,120,152.0701,122.6,151.8619,125.2,152.0644,127.8,152.1332,130.4,151.7622,133,152,132.9741,152,132.8578,157.0867,132.8722,162.1734,132.9773,167.2602,132.7695,172.3469,133,177.4336,133,177.6181,130.4,177.2235,127.8,177.3677,125.2,177.5776,122.6,177.405,120,177.4336,120.0227,177.4336,119.9894,172.3469,120.0595,167.2602,120.0797,162.1734,120.1952,157.0867,120,152" style="stroke: #FFFFFF; stroke-width: 1.5;"/><text fill="#000000" font-family="sage sans" font-size="12" font-weight="bold" lengthAdjust="spacingAndGlyphs" textLength="7" x="123" y="169.457">+</text><!--MD5=[690125be0f31ed8879cbad5baf62f37b]
class Na--><polygon fill="#FFFFFF" points="107,264.5,107,264.5701,112.4,264.3619,117.8,264.5644,123.2,264.6332,128.6,264.2622,134,264.5,133.9741,264.5,133.8578,269.5867,133.8722,274.6734,133.9773,279.7602,133.7695,284.8469,134,289.9336,134,290.1181,128.6,289.7235,123.2,289.8677,117.8,290.0776,112.4,289.905,107,289.9336,107.0227,289.9336,106.9894,284.8469,107.0595,279.7602,107.0797,274.6734,107.1952,269.5867,107,264.5" style="stroke: #FFFFFF; stroke-width: 1.5;"/><text fill="#000000" font-family="sage sans" font-size="12" lengthAdjust="spacingAndGlyphs" textLength="21" x="110" y="281.957">Agile</text><!--MD5=[6b15be3b9be33d047e8599ad5055019b]
class Nde--><polygon fill="#FFFFFF" points="152.5,23.5,152.5,23.7102,162.9,23.0857,173.3,23.6933,183.7,23.8997,194.1,22.7866,204.5,23.5,204.4741,23.5,204.3578,31.6734,204.3722,39.8469,204.4773,48.0203,204.2695,56.1938,204.5,64.3672,204.5,64.9208,194.1,63.7369,183.7,64.1694,173.3,64.7991,162.9,64.2814,152.5,64.3672,152.5227,64.3672,152.4894,56.1938,152.5595,48.0203,152.5797,39.8469,152.6952,31.6734,152.5,23.5" style="stroke: #FFFFFF; stroke-width: 1.5;"/><text fill="#000000" font-family="sage sans" font-size="12" lengthAdjust="spacingAndGlyphs" textLength="30" x="163.5" y="40.957">Design</text><text fill="#000000" font-family="sage sans" font-size="12" lengthAdjust="spacingAndGlyphs" textLength="46" x="155.5" y="56.3906">émergent</text><!--MD5=[91e5c1a6682de6d8b3900af52601d7a9]
class hacking--><polygon fill="#FFFFFF" points="58,140,58,140.0701,61.4,139.8619,64.8,140.0644,68.2,140.1332,71.6,139.7622,75,140,74.9223,140,74.5735,149.7168,74.6165,159.4336,74.9318,169.1504,74.3086,178.8672,75,188.584,75,188.7685,71.6,188.3739,68.2,188.5181,64.8,188.728,61.4,188.5554,58,188.584,58.0682,188.584,57.9681,178.8672,58.1785,169.1504,58.2391,159.4336,58.5857,149.7168,58,140" style="stroke: #FFFFFF; stroke-width: 1.5;"/><text fill="#000000" font-family="sage sans" font-size="30" lengthAdjust="spacingAndGlyphs" textLength="11" x="61" y="176.1426">[</text><!--MD5=[aac2e74d767a6781859b7847ed17f912]
class Nh--><polygon fill="#FFFFFF" points="6,31.5,6,31.7102,16.0909,31.0857,26.1818,31.6933,36.2727,31.8997,46.3636,30.7866,56.4545,31.4223,66.5455,31.0735,76.6364,31.1165,86.7273,31.4318,96.8182,30.8086,106.9091,32.0536,117,31.5,116.7899,31.5,116.9341,36.5867,117.144,41.6734,116.9714,46.7602,117.0227,51.8469,117,56.9336,117,56.9016,106.9091,57.1121,96.8182,57.1727,86.7273,57.5193,76.6364,57.6046,66.5455,57.6129,56.4545,57.1882,46.3636,57.3972,36.2727,57.6358,26.1818,56.2124,16.0909,57.6121,6,56.9336,5.9012,56.9336,6.1779,51.8469,5.835,46.7602,5.9772,41.6734,6.2472,36.5867,6,31.5" style="stroke: #FFFFFF; stroke-width: 1.5;"/><text fill="#000000" font-family="sage sans" font-size="12" lengthAdjust="spacingAndGlyphs" textLength="105" x="9" y="48.957">« Hacking cowboy »</text><!--MD5=[5f337148e273f779a62741148f7b6e83]
link bduf to waterfall--><path d="M292.297,164.5 L292.297,164.5934 L300.6974,164.3159 L309.0978,164.5859 L317.4982,164.6776 L325.8986,164.1829 L334.299,164.5 " fill="none" style="stroke: #000000; stroke-width: 2.0;"/><!--MD5=[4b5cf5a78eea86137d5313a365a7e46b]
link duf to bduf--><path d="M222.063,164.5 L222.063,164.7802 L231.4795,163.9476 L240.896,164.7577 L250.3125,165.0329 L259.729,163.5488 L269.1455,164.3964 L278.562,164.5 " fill="none" style="stroke: #000000; stroke-width: 2.0;"/><!--MD5=[d3ffae36f2f9fd008630b15a84ed138e]
link agile to duf--><path d="M133.105,164.5 L133.105,164.7802 L142.5595,163.9476 L152.014,164.7577 L161.4685,165.0329 L170.923,163.5488 L180.3775,164.3964 L189.832,163.9313 L199.2865,163.9887 L208.741,164.5 " fill="none" style="stroke: #000000; stroke-width: 2.0;"/><!--MD5=[06c56e4bf5bfb90b5df790873d9bd480]
link hacking to agile--><path d="M75.4063,164.5 L75.4063,164.5934 L84.2678,164.3159 L93.1294,164.5859 L101.9909,164.6776 L110.8525,164.1829 L119.714,164.5 " fill="none" style="stroke: #000000; stroke-width: 2.0;"/><!--MD5=[6c365bbd9006a5c8b3be3a25bc137661]
reverse link waterfall to Ncp--><path d="M345.06,194.228 L345.3398,194.2432 L345.0512,204.1972 L346.4031,214.2403 L347.2207,224.2543 L346.2816,234.173 L347.6708,244.2181 L347.7493,254.192 L348.86,264.222 " fill="none" style="stroke: #000000; stroke-width: 1.0; stroke-dasharray: 7.0,7.0;"/><polygon fill="#000000" points="344.787,189.205,344.8525,189.2299,343.9568,190.9966,343.445,192.9095,342.8082,194.7747,341.7603,196.4834,341.2814,198.4089,341.2622,198.3916,341.931,197.4717,342.6971,196.639,343.5307,195.867,344.1315,194.886,345.0584,194.1976,345.1816,194.335,345.7604,194.7966,346.6989,195.6593,347.6813,196.571,348.4083,197.1979,349.2697,197.9746,349.2899,197.985,348.3636,196.2158,347.5296,194.4938,346.651,192.7491,345.8574,191.0478,344.787,189.205" style="stroke: #000000; stroke-width: 1.0;"/><!--MD5=[eca35d144dec1cae11253241be0c5ed9]
link Nbduf to bduf--><path d="M285.5,80.233 L285.7802,80.233 L284.9476,89.6767 L285.7577,99.1204 L286.0329,108.5641 L284.5488,118.0079 L285.3964,127.4516 L284.9313,136.8953 L285.5,146.339 " fill="none" style="stroke: #000000; stroke-width: 1.0; stroke-dasharray: 7.0,7.0;"/><polygon fill="#000000" points="285.5,151.785,285.564,151.8135,286.1738,149.9289,287.1589,148.2112,288.0217,146.4391,288.4827,144.4884,289.5,142.785,289.4817,142.7667,288.5995,143.4845,287.8096,144.2946,287.0839,145.1689,286.137,145.822,285.5,146.785,285.6305,146.9155,284.5514,145.8364,283.8534,145.1384,283.2018,144.4868,282.2798,143.5648,281.5,142.785,281.5208,142.7942,282.2903,144.5807,283.1544,146.4092,283.9728,148.2174,284.8784,150.0643,285.5,151.785" style="stroke: #000000; stroke-width: 1.0;"/><!--MD5=[7f470240dd97ac58e54b1b5fb0bfe58e]
reverse link duf to Nduf--><path d="M215.5,182.454 L215.7802,182.454 L214.9476,191.9258 L215.7577,201.3975 L216.0329,210.8693 L214.5488,220.341 L215.3964,229.8128 L214.9313,239.2845 L215.5,248.7563 " fill="none" style="stroke: #000000; stroke-width: 1.0; stroke-dasharray: 7.0,7.0;"/><polygon fill="#000000" points="215.5,177.325,215.564,177.3535,214.5738,179.0689,213.9589,180.9512,213.2217,182.7791,212.0827,184.4284,211.5,186.325,211.4817,186.3067,212.1995,185.4245,213.0096,184.6346,213.8839,183.9089,214.537,182.962,215.5,182.325,215.6305,182.4555,216.1514,182.9764,217.0534,183.8784,218.0018,184.8268,218.6798,185.5048,219.5,186.325,219.5208,186.3342,218.6903,184.5207,217.9544,182.7492,217.1728,180.9574,216.4784,179.2043,215.5,177.325" style="stroke: #000000; stroke-width: 1.0;"/><!--MD5=[a72f90137fef118231d7cb87c4ef1327]
link Nde to agile--><path d="M169.913,64.568 L170.1696,64.6806 L165.3769,73.5304 L162.0885,83.0402 L158.3103,92.3351 L152.9211,100.9231 L149.667,110.448 L145.2109,119.4455 L141.2332,128.6529 L137.588,138.0062 L133.641,147.227 " fill="none" style="stroke: #000000; stroke-width: 1.0; stroke-dasharray: 7.0,7.0;"/><polygon fill="#000000" points="131.624,151.824,131.6712,151.8758,132.9867,150.395,134.5789,149.2177,136.0809,147.9415,137.2867,146.3404,138.9026,145.1891,138.8932,145.165,137.797,145.4679,136.7482,145.8925,135.7324,146.4016,134.6029,146.6193,133.6327,147.2452,133.8046,147.3123,133.0257,146.1149,132.7488,145.1133,132.5331,144.1356,131.9612,143.0189,131.5766,141.9753,131.5993,141.9754,131.5754,143.945,131.655,145.915,131.6847,147.8849,131.8097,149.8552,131.624,151.824" style="stroke: #000000; stroke-width: 1.0;"/><!--MD5=[aae35d557e58765857fb86bd41028769]
reverse link agile to Na--><path d="M125.581,182.425 L125.8608,182.4402 L124.4739,192.6244 L124.7273,202.8976 L124.4466,213.1419 L122.4092,223.2907 L122.7,233.566 L121.6802,243.7701 L121.1819,254.0025 L121.137,264.2596 " fill="none" style="stroke: #000000; stroke-width: 1.0; stroke-dasharray: 7.0,7.0;"/><polygon fill="#000000" points="125.858,177.325,125.9204,177.3569,124.8385,179.0161,124.1223,180.8622,123.287,182.6474,122.0601,184.2324,121.3753,186.0946,121.3581,186.0753,122.1227,185.2334,122.9745,184.4886,123.8869,183.8115,124.5905,182.9015,125.5866,182.3176,125.724,182.4408,126.1856,183.0196,127.0483,183.9581,127.96,184.9405,128.5869,185.6675,129.3636,186.5289,129.3848,186.537,128.6525,184.6843,128.0169,182.8685,127.3347,181.0349,126.7416,179.2353,125.858,177.325" style="stroke: #000000; stroke-width: 1.0;"/><!--MD5=[415e414f2939f808c56fcdfaa13a3a67]
link Nh to hacking--><path d="M61.9977,56.795 L62.2777,56.8068 L61.8571,66.5208 L63.0779,76.3041 L63.7642,86.0648 L62.6928,95.7514 L63.9509,105.5363 L63.8976,115.2658 L64.3663,125.0173 L65.2885,134.788 " fill="none" style="stroke: #000000; stroke-width: 1.0; stroke-dasharray: 7.0,7.0;"/><polygon fill="#000000" points="65.5067,139.96,65.5719,139.9857,66.1014,138.0771,67.013,136.3192,67.8001,134.5123,68.1782,132.5438,69.1226,130.7989,69.1035,130.7814,68.2524,131.5358,67.4975,132.3786,66.8095,133.2829,65.891,133.9754,65.2953,134.9645,65.4201,135.1004,64.32,134.0443,63.5844,133.385,62.8933,132.7741,61.9435,131.8816,61.1297,131.1372,61.1501,131.1473,61.9956,132.897,62.9338,134.6928,63.8273,136.4663,64.8062,138.2822,65.5067,139.96" style="stroke: #000000; stroke-width: 1.0;"/><!--MD5=[866488b4ec9a819bdf58f6ab1c3c192e]
@startuml
skinparam style strictuml
skinparam backgroundcolor transparent
skinparam defaultfontname sage sans
skinparam handwritten true
skinparam classBorderColor transparent
skinparam classBackgroundColor transparent
skinparam classArrowColor black
hide stereotypes
hide empty members
class "<size:30>]" as waterfall
class "« Cascade pure »" as Ncp
class "**+**" as bduf <<middle>>
class "Beaucoup de\nconception\nau début\n(BDUF)" as Nbduf
class "**+**" as duf <<middle>>
class "Un peu de design\nau début\n(Some DUF)" as Nduf
class "**+**" as agile <<middle>>
class "Agile" as Na
class "Design\némergent" as Nde
class "<size:30>[" as hacking
class "« Hacking cowboy »" as Nh

waterfall -left[bold]- bduf
bduf -left[bold]- duf
duf -left[bold]- agile
agile -left[bold]- hacking

waterfall <-u[dashed]- Ncp
bduf <-d[dashed]- Nbduf
duf <-u[dashed]- Nduf
agile <-d[dashed]- Nde
agile <-u[dashed]- Na
hacking <-d[dashed]- Nh
@enduml

PlantUML version 1.2020.00(Sat Jan 11 07:30:53 EST 2020)
(GPL source distribution)
Java Runtime: OpenJDK Runtime Environment
JVM: OpenJDK 64-Bit Server VM
Java Version: 14.0.1+7
Operating System: Windows 10
Default Encoding: Cp1252
Language: en
Country: CA
--></g></svg>